<svg xmlns="http://www.w3.org/2000/svg" xmlns:xlink="http://www.w3.org/1999/xlink" width="413" height="411" viewBox="0 0 413 411">
  <defs>
    <filter id="Rectangle_31" x="0" y="0" width="413" height="85" filterUnits="userSpaceOnUse">
      <feOffset dy="3" input="SourceAlpha"/>
      <feGaussianBlur stdDeviation="3" result="blur"/>
      <feFlood flood-color="#2b525c" flood-opacity="0.251"/>
      <feComposite operator="in" in2="blur"/>
      <feComposite in="SourceGraphic"/>
    </filter>
    <filter id="Rectangle_32" x="0" y="59" width="413" height="352" filterUnits="userSpaceOnUse">
      <feOffset dy="3" input="SourceAlpha"/>
      <feGaussianBlur stdDeviation="3" result="blur-2"/>
      <feFlood flood-color="#2b525c" flood-opacity="0.251"/>
      <feComposite operator="in" in2="blur-2"/>
      <feComposite in="SourceGraphic"/>
    </filter>
  </defs>
  <g id="Groupe_3922" data-name="Groupe 3922" transform="translate(9 5.893)">
    <g transform="matrix(1, 0, 0, 1, -9, -5.89)" filter="url(#Rectangle_31)">
      <path id="Rectangle_31-2" data-name="Rectangle 31" d="M20,0H375a20,20,0,0,1,20,20V67a0,0,0,0,1,0,0H0a0,0,0,0,1,0,0V20A20,20,0,0,1,20,0Z" transform="translate(9 6)" fill="#fff"/>
    </g>
    <text id="Août" transform="translate(22 42.107)" fill="#1c535d" font-size="37" font-family="SegoeUI, Segoe UI"><tspan x="0" y="0">Août</tspan></text>
    <g id="Groupe_19" data-name="Groupe 19" transform="translate(0 59.583)">
      <g transform="matrix(1, 0, 0, 1, -9, -65.48)" filter="url(#Rectangle_32)">
        <path id="Rectangle_32-2" data-name="Rectangle 32" d="M0,0H395a0,0,0,0,1,0,0V314a20,20,0,0,1-20,20H20A20,20,0,0,1,0,314V0A0,0,0,0,1,0,0Z" transform="translate(9 65)" fill="#fff"/>
      </g>
      <text id="_1" data-name="1" transform="translate(15 39.524)" fill="#1c535d" font-size="25" font-family="Poppins-Medium, Poppins" font-weight="500"><tspan x="0" y="0">1</tspan></text>
      <text id="_8" data-name="8" transform="translate(15 120.524)" fill="#1c535d" font-size="25" font-family="Poppins-Medium, Poppins" font-weight="500"><tspan x="0" y="0">8</tspan></text>
      <text id="_15" data-name="15" transform="translate(15 198.524)" fill="#1c535d" font-size="25" font-family="Poppins-Medium, Poppins" font-weight="500"><tspan x="0" y="0">15</tspan></text>
      <text id="_22" data-name="22" transform="translate(15 279.524)" fill="#1c535d" font-size="25" font-family="Poppins-Medium, Poppins" font-weight="500"><tspan x="0" y="0">22</tspan></text>
      <text id="_2" data-name="2" transform="translate(74 39.524)" fill="#1c535d" font-size="25" font-family="Poppins-Medium, Poppins" font-weight="500"><tspan x="0" y="0">2</tspan></text>
      <text id="_9" data-name="9" transform="translate(74 120.524)" fill="#1c535d" font-size="25" font-family="Poppins-Medium, Poppins" font-weight="500"><tspan x="0" y="0">9</tspan></text>
      <text id="_16" data-name="16" transform="translate(74 198.524)" fill="#1c535d" font-size="25" font-family="Poppins-Medium, Poppins" font-weight="500"><tspan x="0" y="0">16</tspan></text>
      <text id="_23" data-name="23" transform="translate(74 279.524)" fill="#1c535d" font-size="25" font-family="Poppins-Medium, Poppins" font-weight="500"><tspan x="0" y="0">23</tspan></text>
      <text id="_3" data-name="3" transform="translate(133 39.524)" fill="#1c535d" font-size="25" font-family="Poppins-Medium, Poppins" font-weight="500"><tspan x="0" y="0">3</tspan></text>
      <text id="_10" data-name="10" transform="translate(133 120.524)" fill="#1c535d" font-size="25" font-family="Poppins-Medium, Poppins" font-weight="500"><tspan x="0" y="0">10</tspan></text>
      <text id="_17" data-name="17" transform="translate(133 197.524)" fill="#1c535d" font-size="24" font-family="Poppins-Medium, Poppins" font-weight="500"><tspan x="0" y="0">17</tspan></text>
      <text id="_24" data-name="24" transform="translate(133 278.524)" fill="#1c535d" font-size="24" font-family="Poppins-Medium, Poppins" font-weight="500"><tspan x="0" y="0">24</tspan></text>
      <text id="_4" data-name="4" transform="translate(187 39.524)" fill="#1c535d" font-size="25" font-family="Poppins-Medium, Poppins" font-weight="500"><tspan x="0" y="0">4</tspan></text>
      <text id="_11" data-name="11" transform="translate(187 119.524)" fill="#1c535d" font-size="24" font-family="Poppins-Medium, Poppins" font-weight="500"><tspan x="0" y="0">11</tspan></text>
      <text id="_18" data-name="18" transform="translate(187 198.524)" fill="#1c535d" font-size="25" font-family="Poppins-Medium, Poppins" font-weight="500"><tspan x="0" y="0">18</tspan></text>
      <text id="_25" data-name="25" transform="translate(187 279.524)" fill="#1c535d" font-size="25" font-family="Poppins-Medium, Poppins" font-weight="500"><tspan x="0" y="0">25</tspan></text>
      <text id="_5" data-name="5" transform="translate(240 39.524)" fill="#1c535d" font-size="25" font-family="Poppins-Medium, Poppins" font-weight="500"><tspan x="0" y="0">5</tspan></text>
      <text id="_12" data-name="12" transform="translate(240 120.524)" fill="#1c535d" font-size="25" font-family="Poppins-Medium, Poppins" font-weight="500"><tspan x="0" y="0">12</tspan></text>
      <text id="_19" data-name="19" transform="translate(240 198.524)" fill="#1c535d" font-size="25" font-family="Poppins-Medium, Poppins" font-weight="500"><tspan x="0" y="0">19</tspan></text>
      <text id="_26" data-name="26" transform="translate(240 279.524)" fill="#1c535d" font-size="25" font-family="Poppins-Medium, Poppins" font-weight="500"><tspan x="0" y="0">26</tspan></text>
      <text id="_6" data-name="6" transform="translate(293 39.524)" fill="#1c535d" font-size="25" font-family="Poppins-Medium, Poppins" font-weight="500"><tspan x="0" y="0">6</tspan></text>
      <text id="_13" data-name="13" transform="translate(293 120.524)" fill="#1c535d" font-size="25" font-family="Poppins-Medium, Poppins" font-weight="500"><tspan x="0" y="0">13</tspan></text>
      <text id="_20" data-name="20" transform="translate(293 198.524)" fill="#1c535d" font-size="25" font-family="Poppins-Medium, Poppins" font-weight="500"><tspan x="0" y="0">20</tspan></text>
      <text id="_27" data-name="27" transform="translate(293 279.524)" fill="#1c535d" font-size="25" font-family="Poppins-Medium, Poppins" font-weight="500"><tspan x="0" y="0">27</tspan></text>
      <text id="_7" data-name="7" transform="translate(348 39.524)" fill="#1c535d" font-size="25" font-family="Poppins-Medium, Poppins" font-weight="500"><tspan x="0" y="0">7</tspan></text>
      <text id="_14" data-name="14" transform="translate(348 120.524)" fill="#1c535d" font-size="25" font-family="Poppins-Medium, Poppins" font-weight="500"><tspan x="0" y="0">14</tspan></text>
      <text id="_21" data-name="21" transform="translate(348 198.524)" fill="#1c535d" font-size="25" font-family="Poppins-Medium, Poppins" font-weight="500"><tspan x="0" y="0">21</tspan></text>
      <text id="_28" data-name="28" transform="translate(348 279.524)" fill="#1c535d" font-size="25" font-family="Poppins-Medium, Poppins" font-weight="500"><tspan x="0" y="0">28</tspan></text>
    </g>
    <line id="Ligne_129" data-name="Ligne 129" x2="394.734" transform="translate(0.621 60.203)" fill="none" stroke="#1c535d" stroke-width="1" opacity="0.301"/>
    <g id="Groupe_710" data-name="Groupe 710" transform="translate(359.319 24.041)">
      <line id="Ligne_167" data-name="Ligne 167" y1="9.018" x2="9.018" fill="none" stroke="#2b525c" stroke-linecap="round" stroke-width="2"/>
      <line id="Ligne_168" data-name="Ligne 168" x1="9.018" y1="9.018" transform="translate(9.018)" fill="none" stroke="#2b525c" stroke-linecap="round" stroke-width="2"/>
    </g>
  </g>
</svg>
