<svg xmlns="http://www.w3.org/2000/svg" xmlns:xlink="http://www.w3.org/1999/xlink" width="212" height="145" viewBox="0 0 212 145">
  <defs>
    <clipPath id="clip-path">
      <rect id="Rectangle_584" data-name="Rectangle 584" width="212" height="145" transform="translate(0.188 0.358)" fill="#fff" stroke="#707070" stroke-width="1"/>
    </clipPath>
  </defs>
  <g id="Groupe_de_masques_29" data-name="Groupe de masques 29" transform="translate(-0.188 -0.358)" clip-path="url(#clip-path)">
    <g id="Calque_2" transform="translate(9.244 -0.409)">
      <path id="Tracé_5499" data-name="Tracé 5499" d="M87.164,89.09c-.348,6.2-2.438,12.4-2.926,14.976-.418,2.438,3.413,2.159,3.413,2.159s.07,1.672,1.184,1.811,5.433-1.672,5.782-4.528c.348-2.926-.766-12.887-.766-12.887" transform="translate(6.415 32.579)" fill="#eca93f" stroke="#2a3f40" stroke-miterlimit="10" stroke-width="0.316"/>
      <path id="Tracé_5500" data-name="Tracé 5500" d="M171.784,59.682a3.68,3.68,0,0,1-.07-.906C169,44.567,150.26,36.138,130.06,40.039a47.648,47.648,0,0,0-22.708,10.727C85.688,52.925,56.78,72.22,69.528,72.778a12.111,12.111,0,0,0-14.7,4.528C51.417,82.6,53.646,89.844,58.8,95.138c-5.085-.209-9.334.557-11.145,4.806-2.229,5.155,1.881,15.464,4.806,15.6-8.5-7.035-11.006,16.509-.209,11.424.627-.348.279-1.393.488-.7.975,5.921-3,11.981-2.508,16.787,1.254,12.956,19.225,22.708,41.585,18.738,18.807-3.274,32.251-16.3,32.112-29.535a37.091,37.091,0,0,0,2.09-8.289c9.613,14.21,28.977,21.942,49.248,18.041,25.982-5.015,46.461-24.38,40.54-50.71C211.628,72.5,196.025,58.846,171.784,59.682Z" transform="translate(-40.66 -27.593)" fill="#84c7cb"/>
      <ellipse id="Ellipse_2684" data-name="Ellipse 2684" cx="21.246" cy="19.017" rx="21.246" ry="19.017" transform="translate(139.849 92.717) rotate(-10.865)" fill="#84c7cb"/>
      <ellipse id="Ellipse_2685" data-name="Ellipse 2685" cx="18.46" cy="12.33" rx="18.46" ry="12.33" transform="translate(108.107 22.129) rotate(-10.865)" fill="#84c7cb"/>
      <ellipse id="Ellipse_2686" data-name="Ellipse 2686" cx="8.429" cy="8.777" rx="8.429" ry="8.777" transform="translate(165.782 74.719) rotate(-10.865)" fill="#84c7cb"/>
      <ellipse id="Ellipse_2687" data-name="Ellipse 2687" cx="18.46" cy="12.33" rx="18.46" ry="12.33" transform="translate(110.198 28.261) rotate(-10.865)" fill="#84c7cb"/>
      <ellipse id="Ellipse_2688" data-name="Ellipse 2688" cx="9.125" cy="10.797" rx="9.125" ry="10.797" transform="matrix(0.599, -0.801, 0.801, 0.599, 0, 96.384)" fill="#84c7cb"/>
      <path id="Tracé_5501" data-name="Tracé 5501" d="M99.988,90c1.463,3.135-1.95,3.622-16.021,14.767-9.264,7.314-21.176,5.782-22.151,1.393C61.05,102.813,66,95.569,80.624,94.315,92.326,93.34,98.6,86.862,99.988,90Z" transform="translate(-20.62 32.647)" fill="#84c7cb"/>
      <path id="Tracé_5502" data-name="Tracé 5502" d="M65.927,61.3c-3.2-12.12-2.3-18.529,8.011-22.987,8.637-3.692,15.6,4.249,17.205,12.956" transform="translate(-17.556 -29.633)" fill="#84c7cb"/>
      <path id="Tracé_5503" data-name="Tracé 5503" d="M83.338,55.821c1.463,7.523-6.13,13.1-13.653,14.558S55.405,66.06,53.942,58.537,56.38,45.372,63.9,43.909C71.357,42.446,81.875,48.3,83.338,55.821Z" transform="translate(-30.369 -22.059)" fill="#84c7cb"/>
      <path id="Tracé_5504" data-name="Tracé 5504" d="M81.489,95.494c1.741,8.289-1.045,14.976-16.23,18.877-9.125,2.368-16.369-2.229-17.832-9.682-1.6-8.22,5.015-14.976,14.349-16.787C71.179,86.02,79.956,88.04,81.489,95.494Z" transform="translate(-38.133 30.354)" fill="#84c7cb"/>
      <path id="Tracé_5505" data-name="Tracé 5505" d="M45.744,88.223C44.977,94.841,52.779,99.3,52.779,99.3l-.557-17.414C52.222,81.745,46.37,84.531,45.744,88.223Z" transform="translate(-39.933 23.902)" fill="#84c7cb"/>
      <g id="Groupe_2304" data-name="Groupe 2304" transform="translate(24.131 49.573)">
        <path id="Tracé_5506" data-name="Tracé 5506" d="M67.288,84.98c-4.528,2.09-8.846,3.622-12.12,3.065" transform="translate(-52.66 -21.94)" fill="none" stroke="#7ac0ad" stroke-miterlimit="10" stroke-width="0.316"/>
        <path id="Tracé_5507" data-name="Tracé 5507" d="M54.029,81.755a21.536,21.536,0,0,0,5.712,10.1,14.665,14.665,0,0,0-1.672,9.473" transform="translate(-54.029 -25.821)" fill="none" stroke="#7ac0ad" stroke-miterlimit="10" stroke-width="0.316"/>
        <path id="Tracé_5508" data-name="Tracé 5508" d="M60.379,99.911a11.6,11.6,0,0,1,1.881-8.916,42.717,42.717,0,0,1-6.966-9.334" transform="translate(-52.508 -25.935)" fill="none" stroke="#7ac0ad" stroke-miterlimit="10" stroke-width="0.316"/>
        <path id="Tracé_5509" data-name="Tracé 5509" d="M63.859,89.766a20.074,20.074,0,0,1-6.826-8.359" transform="translate(-50.415 -26.239)" fill="none" stroke="#7ac0ad" stroke-miterlimit="10" stroke-width="0.316"/>
        <path id="Tracé_5510" data-name="Tracé 5510" d="M65.111,87.6a20.379,20.379,0,0,1-6.687-6.478" transform="translate(-48.741 -26.581)" fill="none" stroke="#7ac0ad" stroke-miterlimit="10" stroke-width="0.316"/>
        <g id="Groupe_2303" data-name="Groupe 2303" transform="translate(0.975)">
          <path id="Tracé_5511" data-name="Tracé 5511" d="M62.4,63.1c-1.811-1.6-2.02-1.881-5.433-2.02" transform="translate(-51.466 -50.7)" fill="none" stroke="#7ac0ad" stroke-miterlimit="10" stroke-width="0.316"/>
          <path id="Tracé_5512" data-name="Tracé 5512" d="M54.472,77.962a26.727,26.727,0,0,1,8.707-10.309A20.1,20.1,0,0,1,64.5,56.369" transform="translate(-54.472 -56.369)" fill="none" stroke="#7ac0ad" stroke-miterlimit="10" stroke-width="0.316"/>
          <path id="Tracé_5513" data-name="Tracé 5513" d="M66.223,57.507c-1.532,3.413-3.692,6.339-2.647,10.17-3.831,2.856-5.433,6.478-7.871,9.682" transform="translate(-52.988 -54.999)" fill="none" stroke="#7ac0ad" stroke-miterlimit="10" stroke-width="0.316"/>
          <path id="Tracé_5514" data-name="Tracé 5514" d="M61.573,64.968c-3.483,1.811-3.622,2.647-4.319,5.015" transform="translate(-51.124 -46.021)" fill="none" stroke="#7ac0ad" stroke-miterlimit="10" stroke-width="0.316"/>
          <path id="Tracé_5515" data-name="Tracé 5515" d="M61.647,66.517c-1.881.766-2.508.906-3.065,3.065" transform="translate(-49.526 -44.157)" fill="none" stroke="#7ac0ad" stroke-miterlimit="10" stroke-width="0.316"/>
        </g>
      </g>
      <g id="Groupe_2305" data-name="Groupe 2305" transform="translate(23.643 72.56)">
        <path id="Tracé_5516" data-name="Tracé 5516" d="M61.931,73.6c-3.413-.139-3.9-.07-7.175-2.09" transform="translate(-52.667 -61.133)" fill="none" stroke="#7ac0ad" stroke-miterlimit="10" stroke-width="0.316"/>
        <path id="Tracé_5517" data-name="Tracé 5517" d="M57.5,66.8c-.7,3.692,0,7.593,1.811,11.772a13.878,13.878,0,0,0-5.5,7.941" transform="translate(-53.808 -66.802)" fill="none" stroke="#7ac0ad" stroke-miterlimit="10" stroke-width="0.316"/>
        <path id="Tracé_5518" data-name="Tracé 5518" d="M55.831,86.115c.627-3,.627-5.5,3.831-7.244-1.811-4.11-1.393-8.08-1.741-11.563" transform="translate(-51.373 -66.193)" fill="none" stroke="#7ac0ad" stroke-miterlimit="10" stroke-width="0.316"/>
        <path id="Tracé_5519" data-name="Tracé 5519" d="M60.906,74.26c-2.09-3.274-2.09-2.577-2.229-6.478" transform="translate(-47.949 -65.622)" fill="none" stroke="#7ac0ad" stroke-miterlimit="10" stroke-width="0.316"/>
        <path id="Tracé_5520" data-name="Tracé 5520" d="M61.778,72.448c-2.02-2.438-1.672-2.717-1.463-4.319" transform="translate(-46.174 -65.204)" fill="none" stroke="#7ac0ad" stroke-miterlimit="10" stroke-width="0.316"/>
      </g>
      <g id="Groupe_2306" data-name="Groupe 2306" transform="translate(22.528 91.855)">
        <line id="Ligne_361" data-name="Ligne 361" y1="0.348" x2="16.369" transform="translate(0 7.105)" fill="none" stroke="#7ac0ad" stroke-miterlimit="10" stroke-width="0.316"/>
        <path id="Tracé_5521" data-name="Tracé 5521" d="M53.46,75.654a11.471,11.471,0,0,0,2.926,7.175,5.764,5.764,0,0,0-1.463,6.687" transform="translate(-53.112 -75.445)" fill="none" stroke="#7ac0ad" stroke-miterlimit="10" stroke-width="0.316"/>
        <path id="Tracé_5522" data-name="Tracé 5522" d="M55.389,75.622A10.164,10.164,0,0,0,58.314,82.8c-1.184,1.672-1.393,4.11-1.463,6.687" transform="translate(-50.791 -75.483)" fill="none" stroke="#7ac0ad" stroke-miterlimit="10" stroke-width="0.316"/>
        <path id="Tracé_5523" data-name="Tracé 5523" d="M57.541,76.033a7.927,7.927,0,0,0,2.717,6.13c-1.811,1.393-1.741,3.692-1.672,5.851" transform="translate(-48.206 -74.988)" fill="none" stroke="#7ac0ad" stroke-miterlimit="10" stroke-width="0.316"/>
        <path id="Tracé_5524" data-name="Tracé 5524" d="M59.309,75.559l2.717,6.13a9.447,9.447,0,0,0-1.672,5.851" transform="translate(-46.074 -75.559)" fill="none" stroke="#7ac0ad" stroke-miterlimit="10" stroke-width="0.316"/>
      </g>
      <g id="Groupe_2307" data-name="Groupe 2307" transform="translate(27.195 122.156)">
        <path id="Tracé_5525" data-name="Tracé 5525" d="M68.767,92.6c-4.249,2.508-8.289,4.528-11.7,4.458" transform="translate(-53.442 -85.355)" fill="none" stroke="#7ac0ad" stroke-miterlimit="10" stroke-width="0.316"/>
        <path id="Tracé_5526" data-name="Tracé 5526" d="M55.42,90.481a19.461,19.461,0,0,0,6.826,8.637,12.79,12.79,0,0,0-.557,8.916" transform="translate(-55.42 -87.903)" fill="none" stroke="#7ac0ad" stroke-miterlimit="10" stroke-width="0.316"/>
        <path id="Tracé_5527" data-name="Tracé 5527" d="M63.758,106.388a10.015,10.015,0,0,1,.836-8.5,38.076,38.076,0,0,1-7.941-7.662" transform="translate(-53.937 -88.208)" fill="none" stroke="#7ac0ad" stroke-miterlimit="10" stroke-width="0.316"/>
        <path id="Tracé_5528" data-name="Tracé 5528" d="M66.061,96.612a18.769,18.769,0,0,1-7.732-6.826" transform="translate(-51.92 -88.74)" fill="none" stroke="#7ac0ad" stroke-miterlimit="10" stroke-width="0.316"/>
        <path id="Tracé_5529" data-name="Tracé 5529" d="M67.11,94.4a21.565,21.565,0,0,1-7.453-5.085" transform="translate(-50.323 -89.311)" fill="none" stroke="#7ac0ad" stroke-miterlimit="10" stroke-width="0.316"/>
      </g>
      <g id="Groupe_2308" data-name="Groupe 2308" transform="translate(51.436 97.567)">
        <line id="Ligne_362" data-name="Ligne 362" y1="4.319" x2="13.096" transform="translate(1.881 8.707)" fill="none" stroke="#7ac0ad" stroke-miterlimit="10" stroke-width="0.316"/>
        <path id="Tracé_5530" data-name="Tracé 5530" d="M66.422,78.689c0,3.065,1.95,7.453,4.11,10.936a20.337,20.337,0,0,0,.627,9.613" transform="translate(-66.422 -77.504)" fill="none" stroke="#7ac0ad" stroke-miterlimit="10" stroke-width="0.316"/>
        <path id="Tracé_5531" data-name="Tracé 5531" d="M68.762,78.372a29.224,29.224,0,0,0,3.692,10.309,15.346,15.346,0,0,0,.209,9.264" transform="translate(-63.607 -77.885)" fill="none" stroke="#7ac0ad" stroke-miterlimit="10" stroke-width="0.316"/>
        <path id="Tracé_5532" data-name="Tracé 5532" d="M70.943,78.372a20.453,20.453,0,0,0,3.413,8.777c-.557,1.881.139,4.876.906,8.011" transform="translate(-60.982 -77.885)" fill="none" stroke="#7ac0ad" stroke-miterlimit="10" stroke-width="0.316"/>
        <path id="Tracé_5533" data-name="Tracé 5533" d="M72.994,78.151c-.348.975,1.184,5.642,2.229,6.478" transform="translate(-58.575 -78.151)" fill="none" stroke="#7ac0ad" stroke-miterlimit="10" stroke-width="0.316"/>
        <path id="Tracé_5534" data-name="Tracé 5534" d="M74.705,85.138" transform="translate(-56.455 -69.744)" fill="none" stroke="#7ac0ad" stroke-miterlimit="10" stroke-width="0.316"/>
        <path id="Tracé_5535" data-name="Tracé 5535" d="M74.547,83.62" transform="translate(-56.645 -71.57)" fill="none" stroke="#7ac0ad" stroke-miterlimit="10" stroke-width="0.316"/>
      </g>
      <g id="Groupe_2309" data-name="Groupe 2309" transform="translate(50.318 78.342)">
        <line id="Ligne_363" data-name="Ligne 363" y1="3.97" x2="23.405" transform="translate(0.63 7.384)" fill="none" stroke="#7ac0ad" stroke-miterlimit="10" stroke-width="0.316"/>
        <path id="Tracé_5536" data-name="Tracé 5536" d="M65.918,69.426c-.07,2.577.906,7.593,4.249,10.658a11.753,11.753,0,0,0,.209,9.334" transform="translate(-65.915 -69.426)" fill="none" stroke="#7ac0ad" stroke-miterlimit="10" stroke-width="0.316"/>
        <path id="Tracé_5537" data-name="Tracé 5537" d="M68.73,69.773a23.515,23.515,0,0,0,3.553,8.916c-1.184,3.065-1.323,7.244-.418,9.543" transform="translate(-62.527 -69.007)" fill="none" stroke="#7ac0ad" stroke-miterlimit="10" stroke-width="0.316"/>
        <path id="Tracé_5538" data-name="Tracé 5538" d="M70.943,69.678c.418,3.831,1.115,5.085,3.9,8.637-.906,2.229.139,6.13,1.184,9.961" transform="translate(-59.864 -69.121)" fill="none" stroke="#7ac0ad" stroke-miterlimit="10" stroke-width="0.316"/>
        <path id="Tracé_5539" data-name="Tracé 5539" d="M75.427,69.773c-.627.836,1.672,4.876,3.344,5.5" transform="translate(-54.596 -69.007)" fill="none" stroke="#7ac0ad" stroke-miterlimit="10" stroke-width="0.316"/>
        <path id="Tracé_5540" data-name="Tracé 5540" d="M77.93,75.78" transform="translate(-51.457 -61.779)" fill="none" stroke="#7ac0ad" stroke-miterlimit="10" stroke-width="0.316"/>
        <path id="Tracé_5541" data-name="Tracé 5541" d="M77.74,74.484" transform="translate(-51.685 -63.339)" fill="none" stroke="#7ac0ad" stroke-miterlimit="10" stroke-width="0.316"/>
        <path id="Tracé_5542" data-name="Tracé 5542" d="M73.314,69.995c.348,2.856,1.254,4.249,3.413,6.966A6.444,6.444,0,0,0,76.17,82.6" transform="translate(-57.011 -68.741)" fill="none" stroke="#7ac0ad" stroke-miterlimit="10" stroke-width="0.316"/>
      </g>
      <path id="Tracé_5543" data-name="Tracé 5543" d="M69.7,73.407c-.7-1.115,2.508-6.06,4.876-6.826" transform="translate(-11.159 5.492)" fill="none" stroke="#7ac0ad" stroke-miterlimit="10" stroke-width="0.316"/>
      <g id="Groupe_2310" data-name="Groupe 2310" transform="translate(50.391 57.096)">
        <path id="Tracé_5544" data-name="Tracé 5544" d="M79.352,66.887c-4.946.07-9.543-.139-12.329-1.95" transform="translate(-64.655 -53.582)" fill="none" stroke="#7ac0ad" stroke-miterlimit="10" stroke-width="0.316"/>
        <path id="Tracé_5545" data-name="Tracé 5545" d="M69.779,59.783c-.766,3.692-.07,8.5,1.463,12.538a15.382,15.382,0,0,0-5.294,8.011" transform="translate(-65.948 -59.783)" fill="none" stroke="#7ac0ad" stroke-miterlimit="10" stroke-width="0.316"/>
        <path id="Tracé_5546" data-name="Tracé 5546" d="M67.813,80.243a11.025,11.025,0,0,1,5.224-7.453,46.817,46.817,0,0,1-2.229-12.817" transform="translate(-63.703 -59.555)" fill="none" stroke="#7ac0ad" stroke-miterlimit="10" stroke-width="0.316"/>
        <path id="Tracé_5547" data-name="Tracé 5547" d="M73.66,71.42A21.211,21.211,0,0,1,70.6,61.111" transform="translate(-60.356 -58.185)" fill="none" stroke="#7ac0ad" stroke-miterlimit="10" stroke-width="0.316"/>
        <path id="Tracé_5548" data-name="Tracé 5548" d="M75.672,69.963A20.746,20.746,0,0,1,72.05,61.4" transform="translate(-58.606 -57.843)" fill="none" stroke="#7ac0ad" stroke-miterlimit="10" stroke-width="0.316"/>
      </g>
      <path id="Tracé_5549" data-name="Tracé 5549" d="M75.622,53.49c2.717-10.936,13.1-23.544,22.987-18.459,13.653,7.035,5.851,18.877-1.6,24.589" transform="translate(-3.916 -33.869)" fill="#84c7cb"/>
      <path id="Tracé_5550" data-name="Tracé 5550" d="M77.355,67.434c-.627.836,1.672,4.876,3.344,5.5" transform="translate(-1.957 6.52)" fill="none" stroke="#7ac0ad" stroke-miterlimit="10" stroke-width="0.316"/>
      <path id="Tracé_5551" data-name="Tracé 5551" d="M63.7,58.2c-2.856,2.09-2.647,2.786-2.647,4.6" transform="translate(-21.455 -4.589)" fill="none" stroke="#7ac0ad" stroke-miterlimit="10" stroke-width="0.316"/>
      <g id="Groupe_2311" data-name="Groupe 2311" transform="translate(31.166 30.069)">
        <path id="Tracé_5552" data-name="Tracé 5552" d="M62.059,50.741c2.647,4.737,10.658,9.334,18.529,14" transform="translate(-51.402 -43.636)" fill="none" stroke="#7ac0ad" stroke-miterlimit="10" stroke-width="0.316"/>
        <path id="Tracé_5553" data-name="Tracé 5553" d="M57.222,64.792A56.8,56.8,0,0,1,70.736,58.1c.627-2.717,4.04-6.687,7.523-10.588" transform="translate(-57.222 -47.517)" fill="none" stroke="#7ac0ad" stroke-miterlimit="10" stroke-width="0.316"/>
        <path id="Tracé_5554" data-name="Tracé 5554" d="M59.53,66.557c2.09-2.786,6.617-4.528,11.911-5.991,1.184-3.692,3.831-7.732,7.035-11.911" transform="translate(-54.445 -46.147)" fill="none" stroke="#7ac0ad" stroke-miterlimit="10" stroke-width="0.316"/>
        <path id="Tracé_5555" data-name="Tracé 5555" d="M62.217,66.648c2.159-2.717,5.851-4.528,10.24-5.851.627-3,2.856-6.339,5.573-9.961" transform="translate(-51.212 -43.522)" fill="none" stroke="#7ac0ad" stroke-miterlimit="10" stroke-width="0.316"/>
        <path id="Tracé_5556" data-name="Tracé 5556" d="M76.689,52.67c-1.95,2.786-3.553,5.573-2.926,8.359-4.04,1.532-7.453,3.413-8.289,6.06" transform="translate(-47.293 -41.316)" fill="none" stroke="#7ac0ad" stroke-miterlimit="10" stroke-width="0.316"/>
      </g>
      <g id="Groupe_2312" data-name="Groupe 2312" transform="translate(49.834 24.636)">
        <path id="Tracé_5557" data-name="Tracé 5557" d="M71.01,45.3c-.209,5.433,4.249,13.513,8.568,21.524" transform="translate(-59.308 -44.746)" fill="none" stroke="#7ac0ad" stroke-miterlimit="10" stroke-width="0.316"/>
        <path id="Tracé_5558" data-name="Tracé 5558" d="M65.758,48.6c5.224-.209,7.314.418,12.19,1.463,1.95-2.02,3.553-3.344,8.637-5.015" transform="translate(-65.619 -45.051)" fill="none" stroke="#7ac0ad" stroke-miterlimit="10" stroke-width="0.316"/>
        <path id="Tracé_5559" data-name="Tracé 5559" d="M65.7,51.494c3.2-1.323,8.08-.488,13.235,1.045,3-2.577,2.717-3.483,7.593-5.433" transform="translate(-65.695 -42.578)" fill="none" stroke="#7ac0ad" stroke-miterlimit="10" stroke-width="0.316"/>
        <path id="Tracé_5560" data-name="Tracé 5560" d="M67.339,53.992c3.344-1.184,7.384-.766,11.842.279,2.09-2.229,1.741-3.065,5.921-4.667" transform="translate(-63.717 -39.573)" fill="none" stroke="#7ac0ad" stroke-miterlimit="10" stroke-width="0.316"/>
        <path id="Tracé_5561" data-name="Tracé 5561" d="M84.874,51.374c-3.065,1.393-5.921,2.926-6.9,5.573-4.249-.766-3.9-1.393-7.035-.766" transform="translate(-59.38 -37.442)" fill="none" stroke="#7ac0ad" stroke-miterlimit="10" stroke-width="0.316"/>
      </g>
      <path id="Tracé_5562" data-name="Tracé 5562" d="M84.411,64.4c2.856.7,6.339,1.95,7.105,3.831" transform="translate(6.66 2.867)" fill="none" stroke="#7ac0ad" stroke-miterlimit="10" stroke-width="0.316"/>
      <path id="Tracé_5563" data-name="Tracé 5563" d="M83.241,65.442c3,.836,6.9,2.508,7.732,4.806" transform="translate(5.253 4.123)" fill="none" stroke="#7ac0ad" stroke-miterlimit="10" stroke-width="0.316"/>
      <g id="Groupe_2313" data-name="Groupe 2313" transform="translate(69.895 16.068)">
        <path id="Tracé_5564" data-name="Tracé 5564" d="M83.707,42.869c-3.622,4.876-2.02,4.806-3,7.035" transform="translate(-67.686 -39.108)" fill="none" stroke="#7ac0ad" stroke-miterlimit="10" stroke-width="0.316"/>
        <path id="Tracé_5565" data-name="Tracé 5565" d="M76.065,41.162A43.15,43.15,0,0,1,87,49.451c3-.766,5.294-1.254,10.8,0" transform="translate(-73.278 -41.162)" fill="none" stroke="#7ac0ad" stroke-miterlimit="10" stroke-width="0.316"/>
        <path id="Tracé_5566" data-name="Tracé 5566" d="M75.4,43.628c3.692.557,6.06,2.229,9.822,6.408" transform="translate(-74.077 -38.195)" fill="none" stroke="#7ac0ad" stroke-miterlimit="10" stroke-width="0.316"/>
        <path id="Tracé_5567" data-name="Tracé 5567" d="M74.8,46.758c3.692.627,4.249.906,7.593,4.179" transform="translate(-74.8 -34.429)" fill="none" stroke="#7ac0ad" stroke-miterlimit="10" stroke-width="0.316"/>
        <path id="Tracé_5568" data-name="Tracé 5568" d="M79.441,53.3c-2.577-2.438-2.09-2.647-4.388-3.692" transform="translate(-74.496 -31.005)" fill="none" stroke="#7ac0ad" stroke-miterlimit="10" stroke-width="0.316"/>
      </g>
      <g id="Groupe_2314" data-name="Groupe 2314" transform="translate(98.106 55.842)">
        <path id="Tracé_5569" data-name="Tracé 5569" d="M109.455,61.9c-6.617,4.6-15.882,11.772-20.27,18.738" transform="translate(-85.702 -55.98)" fill="none" stroke="#7ac0ad" stroke-miterlimit="10" stroke-width="0.316"/>
        <path id="Tracé_5570" data-name="Tracé 5570" d="M93.579,59.214c3,3.97,3.413,5.851,4.876,10.1,3.344.627,3.622.557,8.08,3.761" transform="translate(-80.414 -59.214)" fill="none" stroke="#7ac0ad" stroke-miterlimit="10" stroke-width="0.316"/>
        <path id="Tracé_5571" data-name="Tracé 5571" d="M91.556,61.237c3.2,1.95,3.553,4.6,4.667,9.4,2.229.627,3.622.418,6.339,3.483" transform="translate(-82.849 -56.779)" fill="none" stroke="#7ac0ad" stroke-miterlimit="10" stroke-width="0.316"/>
        <path id="Tracé_5572" data-name="Tracé 5572" d="M89.532,63.7c3.065,2.02,3.9,3.761,5.015,7.662,3.692.627,4.806,1.323,6.408,2.508" transform="translate(-85.283 -53.812)" fill="none" stroke="#7ac0ad" stroke-miterlimit="10" stroke-width="0.316"/>
        <path id="Tracé_5573" data-name="Tracé 5573" d="M99.446,74.959c-1.6-1.393-2.856-2.159-6.408-1.741-1.393-3.692-2.717-4.946-5.433-7.175" transform="translate(-87.604 -50.997)" fill="none" stroke="#7ac0ad" stroke-miterlimit="10" stroke-width="0.316"/>
      </g>
      <g id="Groupe_2315" data-name="Groupe 2315" transform="translate(90.235 43.304)">
        <path id="Tracé_5574" data-name="Tracé 5574" d="M96.024,55.768C94.77,60.574,89.616,66.077,84.6,71.65" transform="translate(-83.347 -50.822)" fill="none" stroke="#7ac0ad" stroke-miterlimit="10" stroke-width="0.316"/>
        <path id="Tracé_5575" data-name="Tracé 5575" d="M102.874,66.2a33.085,33.085,0,0,0-10.309-4.04c-.766-2.438-3.553-5.5-6.478-8.637" transform="translate(-81.559 -53.523)" fill="none" stroke="#7ac0ad" stroke-miterlimit="10" stroke-width="0.316"/>
        <path id="Tracé_5576" data-name="Tracé 5576" d="M100.545,68.333c-1.811-2.3-5.155-3.135-8.986-3.622a41.137,41.137,0,0,0-6.2-9.891" transform="translate(-82.434 -51.964)" fill="none" stroke="#7ac0ad" stroke-miterlimit="10" stroke-width="0.316"/>
        <path id="Tracé_5577" data-name="Tracé 5577" d="M97.512,69.153c-1.811-2.229-4.667-3.2-7.8-3.831-.766-2.717-2.647-5.433-5.015-8.289" transform="translate(-83.233 -49.301)" fill="none" stroke="#7ac0ad" stroke-miterlimit="10" stroke-width="0.316"/>
        <path id="Tracé_5578" data-name="Tracé 5578" d="M84.031,58.961c1.672,2.229,3.065,4.6,3,7.244,3,.836,6.9,2.508,7.732,4.806" transform="translate(-84.031 -46.98)" fill="none" stroke="#7ac0ad" stroke-miterlimit="10" stroke-width="0.316"/>
      </g>
      <g id="Groupe_2316" data-name="Groupe 2316" transform="translate(137.045 50.897)">
        <line id="Ligne_364" data-name="Ligne 364" x1="19.365" y2="7.244" transform="translate(0 5.712)" fill="none" stroke="#7ac0ad" stroke-miterlimit="10" stroke-width="0.316"/>
        <path id="Tracé_5579" data-name="Tracé 5579" d="M117.589,69.926a9.557,9.557,0,0,0-5.294-5.782c2.02-2.926,1.6-5.224.139-7.175" transform="translate(-96.831 -56.969)" fill="none" stroke="#7ac0ad" stroke-miterlimit="10" stroke-width="0.316"/>
        <path id="Tracé_5580" data-name="Tracé 5580" d="M114.679,69.7c-.627-2.577-1.741-3.692-4.388-4.6,1.115-2.02.279-4.876-.209-7.244" transform="translate(-99.494 -55.904)" fill="none" stroke="#7ac0ad" stroke-miterlimit="10" stroke-width="0.316"/>
        <path id="Tracé_5581" data-name="Tracé 5581" d="M110.649,67.725c-.418-1.045-2.229-1.95-3.065-2.229,1.811-2.09,1.184-4.249.557-6.408" transform="translate(-102.499 -54.421)" fill="none" stroke="#7ac0ad" stroke-miterlimit="10" stroke-width="0.316"/>
      </g>
      <g id="Groupe_2317" data-name="Groupe 2317" transform="translate(94.484 19.203)">
        <line id="Ligne_365" data-name="Ligne 365" x1="12.399" y2="16.578" transform="translate(0.906 4.806)" fill="none" stroke="#7ac0ad" stroke-miterlimit="10" stroke-width="0.316"/>
        <path id="Tracé_5582" data-name="Tracé 5582" d="M108.92,54.5c-2.159-1.6-10.031-4.249-13.026-3.761-.07-3.553-6.687-7.384-8.986-8.15" transform="translate(-84.819 -42.585)" fill="none" stroke="#7ac0ad" stroke-miterlimit="10" stroke-width="0.316"/>
        <path id="Tracé_5583" data-name="Tracé 5583" d="M104.7,53.265c-2.3-1.811-7.871-.975-10.727-.279-.348-2.3-6.06-6.826-8.011-8.568" transform="translate(-85.96 -40.378)" fill="none" stroke="#7ac0ad" stroke-miterlimit="10" stroke-width="0.316"/>
        <path id="Tracé_5584" data-name="Tracé 5584" d="M89.137,52.417c.279-2.717-.418-2.647-2.229-4.11" transform="translate(-84.819 -35.699)" fill="none" stroke="#7ac0ad" stroke-miterlimit="10" stroke-width="0.316"/>
        <path id="Tracé_5585" data-name="Tracé 5585" d="M91.176,51.026" transform="translate(-79.683 -32.427)" fill="none" stroke="#7ac0ad" stroke-miterlimit="10" stroke-width="0.316"/>
      </g>
      <g id="Groupe_2318" data-name="Groupe 2318" transform="translate(112.247 67.406)">
        <path id="Tracé_5586" data-name="Tracé 5586" d="M119.294,68.509c-7.8,2.368-18.807,6.2-25.146,11.424" transform="translate(-93.869 -59.593)" fill="none" stroke="#7ac0ad" stroke-miterlimit="10" stroke-width="0.316"/>
        <path id="Tracé_5587" data-name="Tracé 5587" d="M101.83,64.462c1.6,4.667,1.393,6.687,1.463,11.145,2.926,1.6,3.553,2.09,6.757,6.548" transform="translate(-84.625 -64.462)" fill="none" stroke="#7ac0ad" stroke-miterlimit="10" stroke-width="0.316"/>
        <path id="Tracé_5588" data-name="Tracé 5588" d="M99.3,65.727c2.438,2.856,1.95,5.5,1.463,10.379a10.809,10.809,0,0,1,4.876,5.712" transform="translate(-87.669 -62.94)" fill="none" stroke="#7ac0ad" stroke-miterlimit="10" stroke-width="0.316"/>
        <path id="Tracé_5589" data-name="Tracé 5589" d="M96.582,67.054c2.3,2.856,2.577,5.642,2.368,9.682a14.011,14.011,0,0,1,5.364,5.085" transform="translate(-90.94 -61.343)" fill="none" stroke="#7ac0ad" stroke-miterlimit="10" stroke-width="0.316"/>
        <path id="Tracé_5590" data-name="Tracé 5590" d="M102.589,81.755c-1.115-1.811-2.09-3.483-5.642-4.179-.209-3.97-1.045-5.573-2.926-8.5" transform="translate(-94.022 -58.908)" fill="none" stroke="#7ac0ad" stroke-miterlimit="10" stroke-width="0.316"/>
      </g>
      <path id="Tracé_5591" data-name="Tracé 5591" d="M146.177,95.027c1.532,8.011-2.508,14.558-10.17,14.349-10.17-.209-26.4-3-17.066-9.125,6.826-4.528,5.5-18.6,13.026-19.992S144.644,87.017,146.177,95.027Z" transform="translate(44.852 21.765)" fill="#84c7cb"/>
      <path id="Tracé_5592" data-name="Tracé 5592" d="M140.605,97.719c-6.478,8.22-8.359,7.871-27.515-2.368-5.712-3-12.538-4.179-15.743-4.946-.557-3.065,16.787-4.737,23.057-5.921C126.744,83.369,142.974,94.863,140.605,97.719Z" transform="translate(22.212 26.945)" fill="#84c7cb"/>
      <g id="Groupe_2319" data-name="Groupe 2319" transform="translate(119.979 85.238)">
        <path id="Tracé_5593" data-name="Tracé 5593" d="M125.045,77.777c-8.011-.488-19.783-.7-27.515,1.95" transform="translate(-97.531 -66.632)" fill="none" stroke="#7ac0ad" stroke-miterlimit="10" stroke-width="0.316"/>
        <path id="Tracé_5594" data-name="Tracé 5594" d="M109.371,72.555c-.139,5.015-.975,6.687-2.577,10.936,2.159,2.577,2.577,3.761,4.11,9.125" transform="translate(-86.384 -72.555)" fill="none" stroke="#7ac0ad" stroke-miterlimit="10" stroke-width="0.316"/>
        <path id="Tracé_5595" data-name="Tracé 5595" d="M105.911,72.65c1.323,3.553.279,6.408-1.741,10.8a12.487,12.487,0,0,1,2.577,7.732" transform="translate(-89.542 -72.441)" fill="none" stroke="#7ac0ad" stroke-miterlimit="10" stroke-width="0.316"/>
        <path id="Tracé_5596" data-name="Tracé 5596" d="M102.724,73.156c1.184,3.553.418,6.13-1.115,9.961a13.719,13.719,0,0,1,3.274,6.617" transform="translate(-92.623 -71.833)" fill="none" stroke="#7ac0ad" stroke-miterlimit="10" stroke-width="0.316"/>
        <path id="Tracé_5597" data-name="Tracé 5597" d="M102.753,89c-.418-2.09-.766-3.97-3.831-5.851,1.184-3.761.906-5.573.279-8.986" transform="translate(-95.857 -70.615)" fill="none" stroke="#7ac0ad" stroke-miterlimit="10" stroke-width="0.316"/>
      </g>
      <path id="Tracé_5598" data-name="Tracé 5598" d="M97.879,50.994c1.95.209,3.622,1.672,5.294,3.274" transform="translate(22.866 -13.263)" fill="none" stroke="#7ac0ad" stroke-miterlimit="10" stroke-width="0.316"/>
      <g id="Groupe_2320" data-name="Groupe 2320" transform="translate(119.421 103)">
        <path id="Tracé_5599" data-name="Tracé 5599" d="M123.19,93.018c-7.175-3.761-17.763-8.637-25.912-9.334" transform="translate(-97.278 -76.927)" fill="none" stroke="#7ac0ad" stroke-miterlimit="10" stroke-width="0.316"/>
        <path id="Tracé_5600" data-name="Tracé 5600" d="M113.374,81.818a34.756,34.756,0,0,1-7.244,10.24c.975,3.2,1.254,2.508.418,8.011" transform="translate(-86.626 -79.171)" fill="none" stroke="#7ac0ad" stroke-miterlimit="10" stroke-width="0.316"/>
        <path id="Tracé_5601" data-name="Tracé 5601" d="M110.029,81.218c-.279,3.761-2.3,6.13-6.06,9.264.488,2.3.906,3.622-.557,7.453" transform="translate(-89.898 -79.894)" fill="none" stroke="#7ac0ad" stroke-miterlimit="10" stroke-width="0.316"/>
        <path id="Tracé_5602" data-name="Tracé 5602" d="M106.41,80.617c-.348,3.692-2.09,5.712-5.085,8.568a13.24,13.24,0,0,1,.209,7.523" transform="translate(-92.408 -80.617)" fill="none" stroke="#7ac0ad" stroke-miterlimit="10" stroke-width="0.316"/>
        <path id="Tracé_5603" data-name="Tracé 5603" d="M99.651,94.947c.488-2.09,1.045-4.249-1.045-7.244,2.647-3,3-3.413,3.692-6.9" transform="translate(-95.68 -80.389)" fill="none" stroke="#7ac0ad" stroke-miterlimit="10" stroke-width="0.316"/>
      </g>
      <path id="Tracé_5604" data-name="Tracé 5604" d="M109.861,47.309c8.429-.766,11.493,3.9,12.608,10.379l-11.215-4.876Z" transform="translate(37.285 -17.797)" fill="#84c7cb"/>
      <path id="Tracé_5605" data-name="Tracé 5605" d="M108.92,54.5c-2.159-1.6-10.031-4.249-13.026-3.761-.07-3.553-6.687-7.384-8.986-8.15" transform="translate(9.666 -23.382)" fill="none" stroke="#7ac0ad" stroke-miterlimit="10" stroke-width="0.316"/>
      <path id="Tracé_5606" data-name="Tracé 5606" d="M111.5,49.7c.557.279,1.741-11.493-6.13-12.678C95.549,35.076,88.932,43.3,88.932,43.3" transform="translate(12.1 -30.431)" fill="#84c7cb"/>
      <path id="Tracé_5607" data-name="Tracé 5607" d="M133.432,70.164c.836,4.388-1.6,8.429-5.364,9.195-3.761.7-7.523-2.229-8.359-6.548s.279-8.986,4.04-9.682C127.511,62.363,132.6,65.846,133.432,70.164Z" transform="translate(48.82 1.212)" fill="#84c7cb"/>
      <path id="Tracé_5608" data-name="Tracé 5608" d="M142.272,83.749c0,8.08-1.811,9.543-7.314,13.1-4.806,3.135-11.424-4.319-12.887-11.981s-4.11-15.951,1.463-17S138.372,70.863,142.272,83.749Z" transform="translate(49.662 6.852)" fill="#84c7cb"/>
      <g id="Groupe_2321" data-name="Groupe 2321" transform="translate(155.225 62.599)">
        <line id="Ligne_366" data-name="Ligne 366" y1="1.323" x2="5.642" transform="translate(0.697 11.563)" fill="none" stroke="#7ac0ad" stroke-miterlimit="10" stroke-width="0.316"/>
        <path id="Tracé_5609" data-name="Tracé 5609" d="M117.44,86.489c-.139-4.04.209-9.473-3-12.12,1.463-2.229.348-8.15.418-11.772" transform="translate(-112.425 -61.9)" fill="none" stroke="#7ac0ad" stroke-miterlimit="10" stroke-width="0.316"/>
        <path id="Tracé_5610" data-name="Tracé 5610" d="M118.578,79.775c-.139-4.04.209-9.473-3-12.12" transform="translate(-111.055 -55.813)" fill="none" stroke="#7ac0ad" stroke-miterlimit="10" stroke-width="0.316"/>
        <path id="Tracé_5611" data-name="Tracé 5611" d="M115.409,77.258c-.348-2.786-.139-5.155-1.881-7.453" transform="translate(-113.528 -53.227)" fill="none" stroke="#7ac0ad" stroke-miterlimit="10" stroke-width="0.316"/>
        <path id="Tracé_5612" data-name="Tracé 5612" d="M115.678,74.68c1.184-3.831,3.274-8.916,1.115-12.4" transform="translate(-110.941 -62.281)" fill="none" stroke="#7ac0ad" stroke-miterlimit="10" stroke-width="0.316"/>
      </g>
      <path id="Tracé_5613" data-name="Tracé 5613" d="M96.867,47.991c2.229,1.115,2.577,2.926,1.881,4.876" transform="translate(21.649 -16.877)" fill="none" stroke="#7ac0ad" stroke-miterlimit="10" stroke-width="0.316"/>
      <path id="Tracé_5614" data-name="Tracé 5614" d="M97.721,50.278c2.229-.418,6.339.906,8.011,2.577" transform="translate(22.676 -14.218)" fill="none" stroke="#7ac0ad" stroke-miterlimit="10" stroke-width="0.316"/>
      <g id="Groupe_2322" data-name="Groupe 2322" transform="translate(150.907 103.209)">
        <path id="Tracé_5615" data-name="Tracé 5615" d="M131.559,90.2c-7.105-3.97-11.842-6.687-19.992-7.593" transform="translate(-111.568 -78.429)" fill="none" stroke="#7ac0ad" stroke-miterlimit="10" stroke-width="0.316"/>
        <path id="Tracé_5616" data-name="Tracé 5616" d="M127.415,81.376c-2.229,4.388-2.717,5.433-5.921,8.5.836,3.274-.975,10.658-3.761,15.116" transform="translate(-104.149 -79.913)" fill="none" stroke="#7ac0ad" stroke-miterlimit="10" stroke-width="0.316"/>
        <path id="Tracé_5617" data-name="Tracé 5617" d="M124.554,81.06c-.348,3.761-1.741,4.6-5.573,7.593.418,2.3-.348,5.294-1.881,8.986" transform="translate(-104.91 -80.293)" fill="none" stroke="#7ac0ad" stroke-miterlimit="10" stroke-width="0.316"/>
        <path id="Tracé_5618" data-name="Tracé 5618" d="M120.11,80.712c-.488,3.692-1.463,3.552-4.528,6.339a6.153,6.153,0,0,1,.836,5.015" transform="translate(-106.736 -80.712)" fill="none" stroke="#7ac0ad" stroke-miterlimit="10" stroke-width="0.316"/>
        <path id="Tracé_5619" data-name="Tracé 5619" d="M112.959,85.017c.139-.348,1.881-.348,2.717-3.831" transform="translate(-109.894 -80.141)" fill="none" stroke="#7ac0ad" stroke-miterlimit="10" stroke-width="0.316"/>
      </g>
      <path id="Tracé_5620" data-name="Tracé 5620" d="M99.08,53.365a2.213,2.213,0,0,1,1.393,2.926" transform="translate(24.312 -10.409)" fill="none" stroke="#7ac0ad" stroke-miterlimit="10" stroke-width="0.316"/>
      <path id="Tracé_5621" data-name="Tracé 5621" d="M112.66,63.588c-.418-3.2-3.483-5.5-7.035-7.662" transform="translate(32.187 -7.328)" fill="none" stroke="#7ac0ad" stroke-miterlimit="10" stroke-width="0.316"/>
      <g id="Groupe_2323" data-name="Groupe 2323" transform="translate(165.186 84.889)">
        <line id="Ligne_367" data-name="Ligne 367" y1="1.672" x2="7.035" transform="translate(0.488 8.498)" fill="none" stroke="#7ac0ad" stroke-miterlimit="10" stroke-width="0.316"/>
        <path id="Tracé_5622" data-name="Tracé 5622" d="M122.544,91.622c0-4.04.627-7.453-3.135-9.961,1.881-2.3,1.184-5.921-.7-8.916" transform="translate(-117.25 -71.979)" fill="none" stroke="#7ac0ad" stroke-miterlimit="10" stroke-width="0.316"/>
        <path id="Tracé_5623" data-name="Tracé 5623" d="M123.377,87.488c0-4.04.836-8.5-2.926-11.075" transform="translate(-115.157 -67.566)" fill="none" stroke="#7ac0ad" stroke-miterlimit="10" stroke-width="0.316"/>
        <path id="Tracé_5624" data-name="Tracé 5624" d="M120.9,85.275c.139-3.274.836-5.364-2.856-7.314" transform="translate(-118.049 -65.702)" fill="none" stroke="#7ac0ad" stroke-miterlimit="10" stroke-width="0.316"/>
        <path id="Tracé_5625" data-name="Tracé 5625" d="M120.851,81.871c1.6-3.9,1.95-6.06-.557-9.473" transform="translate(-115.348 -72.397)" fill="none" stroke="#7ac0ad" stroke-miterlimit="10" stroke-width="0.316"/>
      </g>
      <line id="Ligne_368" data-name="Ligne 368" x1="4.528" y2="2.577" transform="translate(120.466 33.483)" fill="none" stroke="#7ac0ad" stroke-miterlimit="10" stroke-width="0.316"/>
      <path id="Tracé_5626" data-name="Tracé 5626" d="M119.767,80.5c.139-3.274.836-5.364-2.856-7.314" transform="translate(45.768 13.443)" fill="none" stroke="#7ac0ad" stroke-miterlimit="10" stroke-width="0.316"/>
      <g id="Groupe_2324" data-name="Groupe 2324" transform="translate(130.636 36.896)">
        <line id="Ligne_369" data-name="Ligne 369" y1="2.926" x2="4.528" transform="translate(6.13 8.498)" fill="none" stroke="#7ac0ad" stroke-miterlimit="10" stroke-width="0.316"/>
        <path id="Tracé_5627" data-name="Tracé 5627" d="M120.618,67.82c-1.114-1.6-8.15-7.035-10.658-6.826,1.254-3.135-5.991-9.473-7.593-10.379" transform="translate(-102.368 -50.615)" fill="none" stroke="#7ac0ad" stroke-miterlimit="10" stroke-width="0.316"/>
      </g>
      <g id="Groupe_2325" data-name="Groupe 2325" transform="translate(3.707 0.286)">
        <path id="Tracé_5628" data-name="Tracé 5628" d="M94.031,77.9c-11.563.766-23.265,1.393-29.674,6.06-12.469,9.264-5.155,19.365,7.175,18.668a40.42,40.42,0,0,0,8.289-2.159" transform="translate(-28.957 18.826)" fill="none" stroke="#2a3f40" stroke-miterlimit="10" stroke-width="0.316"/>
        <path id="Tracé_5629" data-name="Tracé 5629" d="M84.339,70.141c-4.737-.488-9.195-1.254-16.16-.418C55.989,72.788,53.411,84.63,63.79,89.645c3,1.463,6.408,1.323,9.891.975" transform="translate(-29.644 8.541)" fill="none" stroke="#2a3f40" stroke-miterlimit="10" stroke-width="0.316"/>
        <path id="Tracé_5630" data-name="Tracé 5630" d="M82.653,61.174c-4.806-.975-9.891-2.368-13.513-1.95-11.284,2.508-13.3,12.26-5.224,18.6A33.07,33.07,0,0,0,73.6,81.654" transform="translate(-27.609 -3.737)" fill="none" stroke="#2a3f40" stroke-miterlimit="10" stroke-width="0.316"/>
        <path id="Tracé_5631" data-name="Tracé 5631" d="M52.68,100.849C44.53,95,42.162,88.938,52.332,82.808c10.031,2.02,18.529.279,26.748-2.159" transform="translate(-43.75 22.136)" fill="none" stroke="#2a3f40" stroke-miterlimit="10" stroke-width="0.316"/>
        <path id="Tracé_5632" data-name="Tracé 5632" d="M73.264,79.768C64,79.7,55.849,78.1,50.138,72.872c-7.941,3.761-7.244,13.165,3.135,19.3" transform="translate(-44.76 12.777)" fill="none" stroke="#2a3f40" stroke-miterlimit="10" stroke-width="0.316"/>
        <path id="Tracé_5633" data-name="Tracé 5633" d="M87.312,74.463C75.958,71.956,65.37,69.17,58.4,64.851c-10.379-1.811-16.718,6.478-9.473,18.041" transform="translate(-43.483 2.826)" fill="none" stroke="#2a3f40" stroke-miterlimit="10" stroke-width="0.316"/>
        <path id="Tracé_5634" data-name="Tracé 5634" d="M54.624,77.671C44.036,66.8,48.842,51.828,63.331,54.127c5.5,4.876,13.026,8.5,21.663,11.424" transform="translate(-39.772 -10.063)" fill="none" stroke="#2a3f40" stroke-miterlimit="10" stroke-width="0.316"/>
        <path id="Tracé_5635" data-name="Tracé 5635" d="M93.653,67.99c-4.806-8.568-13.931-21.733-24.032-24.241C54.366,42.356,49.142,54.964,57.64,66.457" transform="translate(-34.151 -22.394)" fill="none" stroke="#2a3f40" stroke-miterlimit="10" stroke-width="0.316"/>
        <path id="Tracé_5636" data-name="Tracé 5636" d="M100.85,51.785c3.622,1.254,5.224,3.483,5.642,6.13" transform="translate(22.736 -12.597)" fill="none" stroke="#7ac0ad" stroke-miterlimit="10" stroke-width="0.316"/>
        <path id="Tracé_5637" data-name="Tracé 5637" d="M88.8,69.251A50.124,50.124,0,0,1,89.706,47.8c-4.806-20.131-31.415-7.384-24.38,8.429" transform="translate(-21.428 -29.854)" fill="none" stroke="#2a3f40" stroke-miterlimit="10" stroke-width="0.316"/>
        <path id="Tracé_5638" data-name="Tracé 5638" d="M77.939,72.559c4.179-8.08,8.22-16.787,18.807-13.1,2.717-5.433,5.5-10.936,9.334-14.14-2.647-13.653-17.345-14.767-24.31-4.388A25.793,25.793,0,0,0,75.78,52.08" transform="translate(-7.432 -33.999)" fill="none" stroke="#2a3f40" stroke-miterlimit="10" stroke-width="0.316"/>
        <path id="Tracé_5639" data-name="Tracé 5639" d="M88.209,95.748c3.692-9.4,18.807-22.5,22.43-27.1,5.155-5.5,6.13-22.43-14.071-15.743-7.662,3.97-11.493,13.653-11.493,13.653S94.269,49.5,85.7,45.525" transform="translate(3.752 -20.13)" fill="none" stroke="#2a3f40" stroke-miterlimit="10" stroke-width="0.316"/>
        <path id="Tracé_5640" data-name="Tracé 5640" d="M97.246,95.079c5.5-.766,17.484,4.946,30.788,12.12,0,0,10.309,4.04,12.887-7.871.279-10.17-11.006-14.21-11.006-14.21-10.8-3.831-20.827-5.364-29.813-3.692" transform="translate(18.399 22.264)" fill="none" stroke="#2a3f40" stroke-miterlimit="10" stroke-width="0.316"/>
        <path id="Tracé_5641" data-name="Tracé 5641" d="M96.614,58.065c18.041-10.658,28.559,3.97,17.414,16.369" transform="translate(17.638 -9.474)" fill="#84c7cb" stroke="#2a3f40" stroke-miterlimit="10" stroke-width="0.316"/>
        <path id="Tracé_5642" data-name="Tracé 5642" d="M104.686,63.386c2.926-4.667,5.433-9.125,6.339-13.1,0,0,2.508-11.493-7.035-13.3C95.282,35.036,89.5,42.071,89.5,42.071" transform="translate(9.078 -30.816)" fill="none" stroke="#2a3f40" stroke-miterlimit="10" stroke-width="0.316"/>
        <path id="Tracé_5643" data-name="Tracé 5643" d="M97.278,70.772c8.916-9.125,17.972-16.021,27.724-17.554-2.647-10.1-10.17-13.583-23.2-9.4" transform="translate(18.437 -24.271)" fill="none" stroke="#2a3f40" stroke-miterlimit="10" stroke-width="0.316"/>
        <path id="Tracé_5644" data-name="Tracé 5644" d="M106.225,77.04c12.538-6.408,26.748-12.19,18.389-25.634-2.926-3.831-6.617-4.458-10.449-4.249" transform="translate(29.203 -18.209)" fill="none" stroke="#2a3f40" stroke-miterlimit="10" stroke-width="0.316"/>
        <path id="Tracé_5645" data-name="Tracé 5645" d="M130.856,75.791c2.438-11.424.557-20.967-15.116-23.753" transform="translate(40.654 -12.293)" fill="#84c7cb" stroke="#2a3f40" stroke-miterlimit="10" stroke-width="0.316"/>
        <path id="Tracé_5646" data-name="Tracé 5646" d="M138.063,68.54c15.812,13.513,9.055,24.937,1.672,27.445a56.479,56.479,0,0,1-23.962-1.323" transform="translate(40.692 7.565)" fill="none" stroke="#2a3f40" stroke-miterlimit="10" stroke-width="0.316"/>
        <path id="Tracé_5647" data-name="Tracé 5647" d="M110.809,65.359c12.608-3.9,24.659-6.269,32.321,4.11,3.9,12.956-10.588,15.116-23.265,18.25" transform="translate(34.719 -0.259)" fill="none" stroke="#2a3f40" stroke-miterlimit="10" stroke-width="0.316"/>
        <path id="Tracé_5648" data-name="Tracé 5648" d="M92.251,80.023c7.941-8.777,18.738-14.7,33.017-17.136,0,0,12.19-.7,14,8.777,1.811,9.543-5.085,12.956-5.085,12.956" transform="translate(12.388 0.749)" fill="none" stroke="#2a3f40" stroke-miterlimit="10" stroke-width="0.316"/>
        <path id="Tracé_5649" data-name="Tracé 5649" d="M116.152,103.914s22.917,10.936,28.7-1.463c5.155-10.8-5.5-21.454-5.5-21.454" transform="translate(41.148 22.554)" fill="none" stroke="#2a3f40" stroke-miterlimit="10" stroke-width="0.316"/>
        <path id="Tracé_5650" data-name="Tracé 5650" d="M96.488,79.385c11.354-6.617,24.38-9.334,40.68-4.249,12.26,6.548,6.269,12.538,1.95,14.837L129.3,94.918" transform="translate(17.486 12.324)" fill="none" stroke="#2a3f40" stroke-miterlimit="10" stroke-width="0.316"/>
        <path id="Tracé_5651" data-name="Tracé 5651" d="M77.882,88.774C68.966,92.535,59.98,94.555,50.925,91c-9.264,9.613.139,21.663,7.105,21.524a20.692,20.692,0,0,0,11.981-1.741l9.195-4.876" transform="translate(-41.995 31.912)" fill="none" stroke="#2a3f40" stroke-miterlimit="10" stroke-width="0.316"/>
      </g>
      <path id="Tracé_5652" data-name="Tracé 5652" d="M70.089,92.536" transform="translate(-10.573 36.725)" fill="none" stroke="#2a3f40" stroke-miterlimit="10" stroke-width="0.316"/>
      <g id="Groupe_2326" data-name="Groupe 2326" transform="translate(56.242 114.424)">
        <line id="Ligne_370" data-name="Ligne 370" y1="6.13" x2="10.449" transform="translate(3.274 8.707)" fill="none" stroke="#7ac0ad" stroke-miterlimit="10" stroke-width="0.316"/>
        <path id="Tracé_5653" data-name="Tracé 5653" d="M68.6,87.825c.557,2.926,2.508,5.99,5.085,9.125a19.489,19.489,0,0,0,2.368,9.264" transform="translate(-68.604 -83.367)" fill="none" stroke="#7ac0ad" stroke-miterlimit="10" stroke-width="0.316"/>
        <path id="Tracé_5654" data-name="Tracé 5654" d="M70.5,87a27.065,27.065,0,0,0,4.806,8.777,16.235,16.235,0,0,0,1.881,8.986" transform="translate(-66.321 -84.356)" fill="none" stroke="#7ac0ad" stroke-miterlimit="10" stroke-width="0.316"/>
        <path id="Tracé_5655" data-name="Tracé 5655" d="M72.3,86.371a21.89,21.89,0,0,0,4.6,8.08c-.139,1.95.975,4.806,2.229,7.662" transform="translate(-64.153 -85.117)" fill="none" stroke="#7ac0ad" stroke-miterlimit="10" stroke-width="0.316"/>
        <path id="Tracé_5656" data-name="Tracé 5656" d="M74.086,85.8a2.151,2.151,0,0,0,1.463,2.368" transform="translate(-62.035 -85.802)" fill="none" stroke="#7ac0ad" stroke-miterlimit="10" stroke-width="0.316"/>
        <path id="Tracé_5657" data-name="Tracé 5657" d="M76.526,90.892a4.155,4.155,0,0,0,.906,3.2" transform="translate(-59.112 -79.677)" fill="none" stroke="#7ac0ad" stroke-miterlimit="10" stroke-width="0.316"/>
      </g>
      <g id="Groupe_2327" data-name="Groupe 2327" transform="translate(140.743 110.261)">
        <ellipse id="Ellipse_2689" data-name="Ellipse 2689" cx="5.364" cy="7.871" rx="5.364" ry="7.871" transform="translate(0 9.74) rotate(-65.229)" fill="#22ae5c"/>
        <ellipse id="Ellipse_2690" data-name="Ellipse 2690" cx="5.155" cy="5.782" rx="5.155" ry="5.782" transform="translate(0.129 9.4) rotate(-65.229)" fill="#e9d086"/>
        <ellipse id="Ellipse_2691" data-name="Ellipse 2691" cx="4.04" cy="4.806" rx="4.04" ry="4.806" transform="translate(0.945 8.612) rotate(-65.229)" fill="#2e8fa3"/>
      </g>
      <g id="Groupe_2328" data-name="Groupe 2328" transform="translate(167.976 110.333)">
        <ellipse id="Ellipse_2692" data-name="Ellipse 2692" cx="5.364" cy="7.871" rx="5.364" ry="7.871" transform="translate(0 9.74) rotate(-65.229)" fill="#22ae5c"/>
        <ellipse id="Ellipse_2693" data-name="Ellipse 2693" cx="5.155" cy="5.782" rx="5.155" ry="5.782" transform="translate(0.036 9.434) rotate(-65.229)" fill="#e9d086"/>
        <ellipse id="Ellipse_2694" data-name="Ellipse 2694" cx="4.04" cy="4.806" rx="4.04" ry="4.806" transform="translate(0.903 8.606) rotate(-65.229)" fill="#2e8fa3"/>
      </g>
      <path id="Tracé_5658" data-name="Tracé 5658" d="M88.734,69.52c-7.384.7-10.1,4.667-5.642,10.518-4.458-3.274-12.817,7.662-3.344,12.608-9.334,1.741-8.15,11.284-.07,13.165-7.314,2.02.766,14,9.891,8.5" transform="translate(-6.858 9.03)" fill="#2e5058" stroke="#2a3f40" stroke-miterlimit="10" stroke-width="0.316"/>
      <path id="Tracé_5659" data-name="Tracé 5659" d="M84.19,71.752c3.413-5.782,12.19-4.11,10.727,3.622,7.244-6.2,15.951,2.577,9.055,8.429,11.354-1.323,14.14,5.851,7.523,11.563,9.195.279,11.145,11.075,1.323,14" transform="translate(6.394 7.565)" fill="#2e5058" stroke="#2a3f40" stroke-miterlimit="10" stroke-width="0.316"/>
      <rect id="Rectangle_585" data-name="Rectangle 585" width="8.498" height="7.941" transform="translate(63.308 71.755) rotate(-10.865)" fill="#eca93f" stroke="#2a3f40" stroke-miterlimit="10" stroke-width="0.316"/>
      <path id="Tracé_5660" data-name="Tracé 5660" d="M73.1,66.169c-.279,3-.975,5.5-2.508,7.105,4.876,3,8.429.557,11.563-3.135l2.159-.279s-.209,6.408-4.946,7.662c-1.254-.209-1.741-3.622-1.741-3.622" transform="translate(-9.964 4.998)" fill="#eca93f" stroke="#2a3f40" stroke-miterlimit="10" stroke-width="0.316"/>
      <path id="Tracé_5661" data-name="Tracé 5661" d="M90.26,95.831l1.811,5.155a2.934,2.934,0,0,0,3.065,1.115l12.887-8.359,3.413,2.786c3.413,3.135-.07-5.573,1.393-1.741,0,0-5.433-14.14-7.941-13.1C102.45,82.735,98.549,92.418,90.26,95.831Z" transform="translate(13.698 23.609)" fill="#eca93f" stroke="#2a3f40" stroke-miterlimit="10" stroke-width="0.316"/>
      <path id="Tracé_5662" data-name="Tracé 5662" d="M120.677,132.139c13.513-9.613-3.9-40.958-19.365-39.078,0,0,2.3-5.921,3.97-17s-.766-23.474-15.394-24.659c-15.116-1.184-22.36,15.673-19.574,25.146,5.782,18.181,20.9,10.379,27.584,4.11-2.159,1.672-4.04,3.413-5.364,3.97,1.254,4.6.279,9.682-2.508,15.6-4.319,7.593-6.478,14.976-5.015,22.081,4.11,18.39,20.9,20.828,35.664,9.822" transform="translate(-11.007 -12.838)" fill="#77c1b0" stroke="#2a3f40" stroke-miterlimit="10" stroke-width="0.316"/>
      <path id="Tracé_5663" data-name="Tracé 5663" d="M94.4,87.225" transform="translate(18.682 30.334)" fill="#77c1b0" stroke="#2a3f40" stroke-miterlimit="10" stroke-width="0.316"/>
      <path id="Tracé_5664" data-name="Tracé 5664" d="M71.133,81.629" transform="translate(-9.318 23.601)" fill="none"/>
      <path id="Tracé_5665" data-name="Tracé 5665" d="M102.133,95.231c-8.986,7.871-21.942,18.041-30.162,18.529,0,0-7.662,2.508-10.1-3.831-4.11-16.578,29.4-24.38,29.4-24.38" transform="translate(-20.883 28.318)" fill="none" stroke="#2a3f40" stroke-miterlimit="10" stroke-width="0.316"/>
      <g id="Groupe_2329" data-name="Groupe 2329" transform="translate(52.642 10.265)">
        <ellipse id="Ellipse_2695" data-name="Ellipse 2695" cx="5.363" cy="7.871" rx="5.363" ry="7.871" transform="translate(0 2.206) rotate(-11.865)" fill="#22ae5c"/>
        <ellipse id="Ellipse_2696" data-name="Ellipse 2696" cx="5.154" cy="5.781" rx="5.154" ry="5.781" transform="translate(0.915 6.365) rotate(-11.865)" fill="#e9d086"/>
        <ellipse id="Ellipse_2697" data-name="Ellipse 2697" cx="4.04" cy="4.806" rx="4.04" ry="4.806" transform="translate(2.419 7.639) rotate(-11.865)" fill="#2e8fa3"/>
      </g>
      <g id="Groupe_2330" data-name="Groupe 2330" transform="translate(172.1 86.533)">
        <ellipse id="Ellipse_2698" data-name="Ellipse 2698" cx="7.871" cy="5.364" rx="7.871" ry="5.364" transform="translate(0.057 1.796) rotate(-6.552)" fill="#22ae5c"/>
        <ellipse id="Ellipse_2699" data-name="Ellipse 2699" cx="5.782" cy="5.155" rx="5.782" ry="5.155" transform="translate(0 1.902) rotate(-6.552)" fill="#e9d086"/>
        <ellipse id="Ellipse_2700" data-name="Ellipse 2700" cx="4.806" cy="4.04" rx="4.806" ry="4.04" transform="translate(0.47 3.037) rotate(-6.552)" fill="#2e8fa3"/>
      </g>
      <path id="Tracé_5666" data-name="Tracé 5666" d="M78.138,61.619c-6.757-2.229-17.832.348-15.6-7.035C65.042,49.986,72.565,54.375,78.138,61.619Z" transform="translate(-20.015 -11.21)" fill="#eca93f" stroke="#2a3f40" stroke-miterlimit="10" stroke-width="0.316"/>
      <path id="Tracé_5667" data-name="Tracé 5667" d="M78.555,62.572C75.7,58.253,72.146,55.119,67.34,54.84c-4.528-.139-4.946-3.553-2.02-6.339C70.753,44.67,75.072,49.964,78.555,62.572Z" transform="translate(-18.551 -17.735)" fill="#eca93f" stroke="#2a3f40" stroke-miterlimit="10" stroke-width="0.316"/>
      <path id="Tracé_5668" data-name="Tracé 5668" d="M76.528,60.13c-2.159-4.388-4.388-8.5-6.478-9.961-3.2-3.065.279-7.035,4.11-2.368C76.04,51.284,76.388,55.533,76.528,60.13Z" transform="translate(-12.135 -19.682)" fill="#eca93f" stroke="#2a3f40" stroke-miterlimit="10" stroke-width="0.316"/>
      <path id="Tracé_5669" data-name="Tracé 5669" d="M75.507,70.816c-1.811-7.8,1.463-11.772,9.613-11.981" transform="translate(-4.637 -3.828)" fill="none" stroke="#2a3f40" stroke-miterlimit="10" stroke-width="0.632"/>
      <g id="Groupe_2331" data-name="Groupe 2331" transform="translate(43.098 124.696)">
        <ellipse id="Ellipse_2701" data-name="Ellipse 2701" cx="7.871" cy="5.364" rx="7.871" ry="5.364" transform="translate(0 6.472) rotate(-24.274)" fill="#22ae5c"/>
        <ellipse id="Ellipse_2702" data-name="Ellipse 2702" cx="5.782" cy="5.155" rx="5.782" ry="5.155" transform="translate(4.019 5.093) rotate(-24.274)" fill="#e9d086"/>
        <ellipse id="Ellipse_2703" data-name="Ellipse 2703" cx="4.806" cy="4.04" rx="4.806" ry="4.04" transform="translate(5.869 5.435) rotate(-24.274)" fill="#2e8fa3"/>
      </g>
      <g id="Groupe_2332" data-name="Groupe 2332" transform="translate(36.499 103.416)">
        <ellipse id="Ellipse_2704" data-name="Ellipse 2704" cx="7.871" cy="5.364" rx="7.871" ry="5.364" transform="matrix(0.958, -0.286, 0.286, 0.958, 0, 4.504)" fill="#22ae5c"/>
        <ellipse id="Ellipse_2705" data-name="Ellipse 2705" cx="5.782" cy="5.155" rx="5.782" ry="5.155" transform="matrix(0.958, -0.286, 0.286, 0.958, 4.094, 3.693)" fill="#e9d086"/>
        <ellipse id="Ellipse_2706" data-name="Ellipse 2706" cx="4.806" cy="4.04" rx="4.806" ry="4.04" transform="matrix(0.958, -0.286, 0.286, 0.958, 5.892, 4.194)" fill="#2e8fa3"/>
      </g>
      <g id="Groupe_2333" data-name="Groupe 2333" transform="translate(14.69 128.441)">
        <ellipse id="Ellipse_2707" data-name="Ellipse 2707" cx="7.872" cy="5.364" rx="7.872" ry="5.364" transform="matrix(0.998, -0.062, 0.062, 0.998, 0, 0.981)" fill="#22ae5c"/>
        <ellipse id="Ellipse_2708" data-name="Ellipse 2708" cx="5.782" cy="5.155" rx="5.782" ry="5.155" transform="matrix(0.998, -0.062, 0.062, 0.998, 4.19, 1.131)" fill="#e9d086"/>
        <ellipse id="Ellipse_2709" data-name="Ellipse 2709" cx="4.807" cy="4.04" rx="4.807" ry="4.04" transform="matrix(0.998, -0.062, 0.062, 0.998, 5.858, 1.971)" fill="#2e8fa3"/>
      </g>
      <g id="Groupe_2334" data-name="Groupe 2334" transform="translate(11.062 108.885)">
        <ellipse id="Ellipse_2710" data-name="Ellipse 2710" cx="5.364" cy="7.871" rx="5.364" ry="7.871" transform="translate(0 10.721) rotate(-88.019)" fill="#22ae5c"/>
        <ellipse id="Ellipse_2711" data-name="Ellipse 2711" cx="5.155" cy="5.782" rx="5.155" ry="5.782" transform="translate(4.196 10.832) rotate(-88.019)" fill="#e9d086"/>
        <ellipse id="Ellipse_2712" data-name="Ellipse 2712" cx="4.04" cy="4.806" rx="4.04" ry="4.806" transform="translate(5.855 9.689) rotate(-88.019)" fill="#2e8fa3"/>
      </g>
      <g id="Groupe_2335" data-name="Groupe 2335" transform="translate(34.977 82.974)">
        <ellipse id="Ellipse_2713" data-name="Ellipse 2713" cx="5.363" cy="7.871" rx="5.363" ry="7.871" transform="translate(0 10.724) rotate(-88.648)" fill="#22ae5c"/>
        <ellipse id="Ellipse_2714" data-name="Ellipse 2714" cx="5.155" cy="5.781" rx="5.155" ry="5.781" transform="translate(4.227 10.854) rotate(-88.648)" fill="#e9d086"/>
        <ellipse id="Ellipse_2715" data-name="Ellipse 2715" cx="4.04" cy="4.806" rx="4.04" ry="4.806" transform="translate(5.817 9.637) rotate(-88.648)" fill="#2e8fa3"/>
      </g>
      <g id="Groupe_2336" data-name="Groupe 2336" transform="translate(9.36 71.603)">
        <ellipse id="Ellipse_2716" data-name="Ellipse 2716" cx="5.364" cy="7.871" rx="5.364" ry="7.871" transform="matrix(0.392, -0.92, 0.92, 0.392, 0, 9.867)" fill="#22ae5c"/>
        <ellipse id="Ellipse_2717" data-name="Ellipse 2717" cx="5.155" cy="5.782" rx="5.155" ry="5.782" transform="matrix(0.392, -0.92, 0.92, 0.392, 3.865, 11.459)" fill="#e9d086"/>
        <ellipse id="Ellipse_2718" data-name="Ellipse 2718" cx="4.04" cy="4.806" rx="4.04" ry="4.806" transform="matrix(0.392, -0.92, 0.92, 0.392, 5.876, 10.997)" fill="#2e8fa3"/>
      </g>
      <g id="Groupe_2337" data-name="Groupe 2337" transform="translate(5.721 88.663)">
        <ellipse id="Ellipse_2719" data-name="Ellipse 2719" cx="5.364" cy="7.871" rx="5.364" ry="7.871" transform="matrix(0.392, -0.92, 0.92, 0.392, 0, 9.867)" fill="#22ae5c"/>
        <ellipse id="Ellipse_2720" data-name="Ellipse 2720" cx="5.155" cy="5.782" rx="5.155" ry="5.782" transform="matrix(0.392, -0.92, 0.92, 0.392, 3.978, 11.569)" fill="#e9d086"/>
        <ellipse id="Ellipse_2721" data-name="Ellipse 2721" cx="4.04" cy="4.806" rx="4.04" ry="4.806" transform="matrix(0.392, -0.92, 0.92, 0.392, 5.837, 11.102)" fill="#2e8fa3"/>
      </g>
      <g id="Groupe_2338" data-name="Groupe 2338" transform="translate(15.636 48.217)">
        <ellipse id="Ellipse_2722" data-name="Ellipse 2722" cx="5.364" cy="7.871" rx="5.364" ry="7.871" transform="matrix(0.392, -0.92, 0.92, 0.392, 0, 9.867)" fill="#22ae5c"/>
        <ellipse id="Ellipse_2723" data-name="Ellipse 2723" cx="5.155" cy="5.782" rx="5.155" ry="5.782" transform="matrix(0.392, -0.92, 0.92, 0.392, 3.928, 11.495)" fill="#e9d086"/>
        <ellipse id="Ellipse_2724" data-name="Ellipse 2724" cx="4.04" cy="4.806" rx="4.04" ry="4.806" transform="matrix(0.392, -0.92, 0.92, 0.392, 5.815, 10.963)" fill="#2e8fa3"/>
      </g>
      <g id="Groupe_2339" data-name="Groupe 2339" transform="translate(36.47 58.539)">
        <ellipse id="Ellipse_2725" data-name="Ellipse 2725" cx="5.364" cy="7.871" rx="5.364" ry="7.871" transform="matrix(0.392, -0.92, 0.92, 0.392, 0, 9.867)" fill="#22ae5c"/>
        <ellipse id="Ellipse_2726" data-name="Ellipse 2726" cx="5.155" cy="5.782" rx="5.155" ry="5.782" transform="matrix(0.392, -0.92, 0.92, 0.392, 3.868, 11.453)" fill="#e9d086"/>
        <ellipse id="Ellipse_2727" data-name="Ellipse 2727" cx="4.04" cy="4.806" rx="4.04" ry="4.806" transform="matrix(0.392, -0.92, 0.92, 0.392, 5.812, 10.969)" fill="#2e8fa3"/>
      </g>
      <g id="Groupe_2340" data-name="Groupe 2340" transform="translate(25.897 23.994)">
        <ellipse id="Ellipse_2728" data-name="Ellipse 2728" cx="5.364" cy="7.871" rx="5.364" ry="7.871" transform="translate(0 9.264) rotate(-59.722)" fill="#22ae5c"/>
        <ellipse id="Ellipse_2729" data-name="Ellipse 2729" cx="5.155" cy="5.782" rx="5.155" ry="5.782" transform="translate(3.819 11.372) rotate(-59.722)" fill="#e9d086"/>
        <ellipse id="Ellipse_2730" data-name="Ellipse 2730" cx="4.04" cy="4.806" rx="4.04" ry="4.806" transform="translate(5.681 11.109) rotate(-59.722)" fill="#2e8fa3"/>
      </g>
      <g id="Groupe_2341" data-name="Groupe 2341" transform="translate(79.657 3.683)">
        <ellipse id="Ellipse_2731" data-name="Ellipse 2731" cx="7.871" cy="5.364" rx="7.871" ry="5.364" transform="translate(0.051 13.894) rotate(-61.959)" fill="#22ae5c"/>
        <ellipse id="Ellipse_2732" data-name="Ellipse 2732" cx="5.781" cy="5.155" rx="5.781" ry="5.155" transform="translate(0 13.95) rotate(-61.959)" fill="#e9d086"/>
        <ellipse id="Ellipse_2733" data-name="Ellipse 2733" cx="4.806" cy="4.04" rx="4.806" ry="4.04" transform="translate(1.183 14.185) rotate(-61.959)" fill="#2e8fa3"/>
      </g>
      <g id="Groupe_2342" data-name="Groupe 2342" transform="translate(80.93 26.069)">
        <ellipse id="Ellipse_2734" data-name="Ellipse 2734" cx="6.339" cy="4.179" rx="6.339" ry="4.179" transform="translate(0.084 11.189) rotate(-61.959)" fill="#22ae5c"/>
        <ellipse id="Ellipse_2735" data-name="Ellipse 2735" cx="4.667" cy="4.04" rx="4.667" ry="4.04" transform="translate(0 11.271) rotate(-61.959)" fill="#e9d086"/>
        <ellipse id="Ellipse_2736" data-name="Ellipse 2736" cx="3.901" cy="3.135" rx="3.901" ry="3.135" transform="translate(0.995 11.415) rotate(-61.959)" fill="#2e8fa3"/>
      </g>
      <g id="Groupe_2343" data-name="Groupe 2343" transform="translate(103.758 8.265)">
        <ellipse id="Ellipse_2737" data-name="Ellipse 2737" cx="7.871" cy="5.364" rx="7.871" ry="5.364" transform="translate(0.015 13.894) rotate(-61.959)" fill="#22ae5c"/>
        <ellipse id="Ellipse_2738" data-name="Ellipse 2738" cx="5.781" cy="5.155" rx="5.781" ry="5.155" transform="translate(0 13.96) rotate(-61.959)" fill="#e9d086"/>
        <ellipse id="Ellipse_2739" data-name="Ellipse 2739" cx="4.806" cy="4.04" rx="4.806" ry="4.04" transform="translate(1.281 14.175) rotate(-61.959)" fill="#2e8fa3"/>
      </g>
      <g id="Groupe_2344" data-name="Groupe 2344" transform="translate(99.283 33.678)">
        <ellipse id="Ellipse_2740" data-name="Ellipse 2740" cx="7.871" cy="5.364" rx="7.871" ry="5.364" transform="matrix(0.697, -0.717, 0.717, 0.697, 0.099, 11.291)" fill="#22ae5c"/>
        <ellipse id="Ellipse_2741" data-name="Ellipse 2741" cx="5.782" cy="5.155" rx="5.782" ry="5.155" transform="matrix(0.697, -0.717, 0.717, 0.697, 0, 11.282)" fill="#e9d086"/>
        <ellipse id="Ellipse_2742" data-name="Ellipse 2742" cx="4.806" cy="4.04" rx="4.806" ry="4.04" transform="matrix(0.697, -0.717, 0.717, 0.697, 1.136, 11.863)" fill="#2e8fa3"/>
      </g>
      <g id="Groupe_2345" data-name="Groupe 2345" transform="translate(117.743 46.659)">
        <ellipse id="Ellipse_2743" data-name="Ellipse 2743" cx="7.871" cy="5.363" rx="7.871" ry="5.363" transform="matrix(0.723, -0.691, 0.691, 0.723, 0, 10.87)" fill="#22ae5c"/>
        <ellipse id="Ellipse_2744" data-name="Ellipse 2744" cx="5.781" cy="5.155" rx="5.781" ry="5.155" transform="matrix(0.723, -0.691, 0.691, 0.723, 0.051, 10.916)" fill="#e9d086"/>
        <ellipse id="Ellipse_2745" data-name="Ellipse 2745" cx="4.806" cy="4.04" rx="4.806" ry="4.04" transform="matrix(0.723, -0.691, 0.691, 0.723, 1.233, 11.509)" fill="#2e8fa3"/>
      </g>
      <g id="Groupe_2346" data-name="Groupe 2346" transform="translate(136.549 31.689)">
        <ellipse id="Ellipse_2746" data-name="Ellipse 2746" cx="7.871" cy="5.363" rx="7.871" ry="5.363" transform="translate(0.014 10.179) rotate(-40.287)" fill="#22ae5c"/>
        <ellipse id="Ellipse_2747" data-name="Ellipse 2747" cx="5.781" cy="5.155" rx="5.781" ry="5.155" transform="translate(0 10.242) rotate(-40.287)" fill="#e9d086"/>
        <ellipse id="Ellipse_2748" data-name="Ellipse 2748" cx="4.806" cy="4.04" rx="4.806" ry="4.04" transform="translate(1.035 10.881) rotate(-40.287)" fill="#2e8fa3"/>
      </g>
      <g id="Groupe_2347" data-name="Groupe 2347" transform="translate(121.296 18.553)">
        <ellipse id="Ellipse_2749" data-name="Ellipse 2749" cx="7.871" cy="5.364" rx="7.871" ry="5.364" transform="matrix(0.697, -0.717, 0.717, 0.697, 0, 11.291)" fill="#22ae5c"/>
        <ellipse id="Ellipse_2750" data-name="Ellipse 2750" cx="5.782" cy="5.155" rx="5.782" ry="5.155" transform="matrix(0.697, -0.717, 0.717, 0.697, 0.095, 11.349)" fill="#e9d086"/>
        <ellipse id="Ellipse_2751" data-name="Ellipse 2751" cx="4.806" cy="4.04" rx="4.806" ry="4.04" transform="matrix(0.697, -0.717, 0.717, 0.697, 1.23, 11.929)" fill="#2e8fa3"/>
      </g>
      <g id="Groupe_2348" data-name="Groupe 2348" transform="translate(135.654 68.915)">
        <ellipse id="Ellipse_2752" data-name="Ellipse 2752" cx="7.871" cy="5.364" rx="7.871" ry="5.364" transform="translate(0 1.796) rotate(-6.552)" fill="#22ae5c"/>
        <ellipse id="Ellipse_2753" data-name="Ellipse 2753" cx="5.782" cy="5.155" rx="5.782" ry="5.155" transform="translate(0.013 1.833) rotate(-6.552)" fill="#e9d086"/>
        <ellipse id="Ellipse_2754" data-name="Ellipse 2754" cx="4.806" cy="4.04" rx="4.806" ry="4.04" transform="translate(0.554 2.966) rotate(-6.552)" fill="#2e8fa3"/>
      </g>
      <g id="Groupe_2349" data-name="Groupe 2349" transform="translate(160.943 66.964)">
        <ellipse id="Ellipse_2755" data-name="Ellipse 2755" cx="7.871" cy="5.364" rx="7.871" ry="5.364" transform="translate(0 1.796) rotate(-6.552)" fill="#22ae5c"/>
        <ellipse id="Ellipse_2756" data-name="Ellipse 2756" cx="5.782" cy="5.155" rx="5.782" ry="5.155" transform="translate(0.014 1.902) rotate(-6.552)" fill="#e9d086"/>
        <ellipse id="Ellipse_2757" data-name="Ellipse 2757" cx="4.806" cy="4.04" rx="4.806" ry="4.04" transform="translate(0.483 3.037) rotate(-6.552)" fill="#2e8fa3"/>
      </g>
      <g id="Groupe_2350" data-name="Groupe 2350" transform="translate(154.199 46.158)">
        <ellipse id="Ellipse_2758" data-name="Ellipse 2758" cx="7.871" cy="5.363" rx="7.871" ry="5.363" transform="translate(0.084 6.317) rotate(-23.661)" fill="#22ae5c"/>
        <ellipse id="Ellipse_2759" data-name="Ellipse 2759" cx="5.781" cy="5.154" rx="5.781" ry="5.154" transform="translate(0 6.374) rotate(-23.661)" fill="#e9d086"/>
        <ellipse id="Ellipse_2760" data-name="Ellipse 2760" cx="4.806" cy="4.04" rx="4.806" ry="4.04" transform="translate(0.838 7.276) rotate(-23.661)" fill="#2e8fa3"/>
      </g>
      <g id="Groupe_2351" data-name="Groupe 2351" transform="translate(143.045 90.947)">
        <ellipse id="Ellipse_2761" data-name="Ellipse 2761" cx="5.364" cy="7.871" rx="5.364" ry="7.871" transform="translate(0.083 10.724) rotate(-88.547)" fill="#22ae5c"/>
        <ellipse id="Ellipse_2762" data-name="Ellipse 2762" cx="5.155" cy="5.782" rx="5.155" ry="5.782" transform="translate(0 10.335) rotate(-88.547)" fill="#e9d086"/>
        <ellipse id="Ellipse_2763" data-name="Ellipse 2763" cx="4.04" cy="4.806" rx="4.04" ry="4.806" transform="translate(0.456 9.303) rotate(-88.547)" fill="#2e8fa3"/>
      </g>
      <path id="Tracé_5670" data-name="Tracé 5670" d="M88.552,90.354" transform="translate(11.644 34.1)" fill="#eca93f" stroke="#2a3f40" stroke-miterlimit="10" stroke-width="0.316"/>
      <path id="Tracé_5671" data-name="Tracé 5671" d="M94.605,91.437l-3.344,2.508a5.316,5.316,0,0,1-3.553.209S70.991,84.4,69.668,83.148c-1.323-1.184-2.508-5.155-1.532-5.294.906-.139,2.577,3,3.135,3.483.488.488,1.115,1.115,2.09.488.975-.557.7-1.741.348-2.577s-4.946-1.6-3.692-2.856c1.672-1.6,4.667,1.672,4.667,1.672s1.741-4.04,3.413-3.761c1.672.209-.488,5.364-.488,5.364S88.475,82.73,89.45,82.382a7.66,7.66,0,0,0,2.159-2.02" transform="translate(-13.356 14.767)" fill="#77c1b0" stroke="#2a3f40" stroke-miterlimit="10" stroke-width="0.316"/>
      <path id="Tracé_5672" data-name="Tracé 5672" d="M95.449,74.168c6.826,4.11,14.837,16.439,13.3,17.345s-4.458-3.761-4.458-3.761,6.408,9.264,4.458,10.867c-2.02,1.6-7.384-4.11-7.384-4.11L98.3,91.234s6.9,6.269,4.11,8.5c-1.254,1.115-8.289-5.433-8.289-5.433L88.2,88.935" transform="translate(11.225 14.623)" fill="#77c1b0" stroke="#2a3f40" stroke-miterlimit="10" stroke-width="0.316"/>
    </g>
  </g>
</svg>
