<svg xmlns="http://www.w3.org/2000/svg" width="470.551" height="362.813" viewBox="0 0 470.551 362.813">
  <g id="Calque_3" transform="translate(0 0)">
    <g id="Groupe_855" data-name="Groupe 855" transform="translate(0 0)">
      <path id="Tracé_450" data-name="Tracé 450" d="M259.588,411.75c.242,9.5-3.142,19.217-3.729,23.067-.587,3.867,7.407,2.9,7.407,2.9s.432,2.624,2.849,2.624,11.067-3.125,11.326-7.58c.276-4.455-3.591-19.6-3.591-19.6" transform="translate(-51.444 -104.25)" fill="#eca93f" stroke="#2a3f40" stroke-miterlimit="10" stroke-width="0.913"/>
      <path id="Tracé_451" data-name="Tracé 451" d="M269.6,414.388c1.416,9.462-.138,15.781-2.5,21.271,1.761,3.28,5.577,4.109,9.686,4.593,0,0,2.728,2.521,4.161,2.521s3.125-3.66,4.61-4.454,4.644,2.573,7.528-.345c.9-4.368-6.267-27.763-4.938-28.039" transform="translate(-41.396 -105.869)" fill="#eca93f" stroke="#2a3f40" stroke-miterlimit="10" stroke-width="0.913"/>
      <path id="Tracé_452" data-name="Tracé 452" d="M491.582,332.544c.035-.725.086-1.468.086-2.193,0-35.913-41.541-65.023-92.786-65.023-22.981,0-43.993,5.87-60.188,15.556-53.731-4.886-133.1,28.678-102.4,36-11.223-7.7-27.988-6.267-37.846,4.075-10.636,11.171-8.857,29.818,1.416,45.305-12.328-2.883-23.032-2.849-29.334,6.509-7.839,11.637-2.521,38.572,4.558,40.195-17.473-21-34.462,35-5.922,27.591,1.8-.466,1.416-3.263,1.519-1.433-.414,14.9-12.932,27.815-13.985,39.711-2.832,31.993,36.517,64.108,92.786,65.023,47.256.777,86.242-24.776,92.026-56.8a88.583,88.583,0,0,0,8.909-19.234c16.817,39.09,60.344,66.939,111.4,66.939,65.627,0,124.537-37.725,122.362-104.457C582.589,382.493,551.045,341.867,491.582,332.544Z" transform="translate(-142.325 -234.77)" fill="#84c7cb"/>
      <ellipse id="Ellipse_195" data-name="Ellipse 195" cx="52.626" cy="47.187" rx="52.626" ry="47.187" transform="translate(342.247 249.28)" fill="#84c7cb"/>
      <ellipse id="Ellipse_196" data-name="Ellipse 196" cx="45.806" cy="30.526" rx="45.806" ry="30.526" transform="translate(297.908 62.828)" fill="#84c7cb"/>
      <ellipse id="Ellipse_197" data-name="Ellipse 197" cx="20.822" cy="21.686" rx="20.822" ry="21.686" transform="translate(413.726 217.891)" fill="#84c7cb"/>
      <ellipse id="Ellipse_198" data-name="Ellipse 198" cx="45.806" cy="30.526" rx="45.806" ry="30.526" transform="translate(299.998 78.66)" fill="#84c7cb"/>
      <ellipse id="Ellipse_199" data-name="Ellipse 199" cx="22.618" cy="26.779" rx="22.618" ry="26.779" transform="translate(0 192.958) rotate(-42.345)" fill="#84c7cb"/>
      <path id="Tracé_453" data-name="Tracé 453" d="M282.918,407.715c2,8.288,1.554,5.111-38.036,25.743-25.916,13.5-54.162,4.127-54.559-6.837-.311-8.495,15.142-23.758,51.313-20.1C270.711,409.459,280.915,399.445,282.918,407.715Z" transform="translate(-109.84 -110.834)" fill="#84c7cb"/>
      <path id="Tracé_454" data-name="Tracé 454" d="M226.212,304.838c-2-30.871,3.194-46.151,30.18-52.16,22.825-5.076,36.033,17.576,35.826,39.521" transform="translate(-78.187 -246.689)" fill="#84c7cb"/>
      <path id="Tracé_455" data-name="Tracé 455" d="M265.753,301.674c0,18.975-21.1,29.093-40.074,29.093s-32.822-17.317-32.822-36.292S204.943,263.6,223.918,263.6,265.753,282.7,265.753,301.674Z" transform="translate(-107.575 -236.308)" fill="#84c7cb"/>
      <path id="Tracé_456" data-name="Tracé 456" d="M237.4,412.935c.294,21.116-9.548,35.843-48.4,38.312-23.343,1.485-38.779-13.139-38.779-31.993,0-20.633,19.182-34.169,42.853-34.169S237.143,394.063,237.4,412.935Z" transform="translate(-145.576 -128.019)" fill="#84c7cb"/>
      <path id="Tracé_457" data-name="Tracé 457" d="M151.88,378.794c-5.024,15.729,11.948,30.146,11.948,30.146l6.751-42.733C170.6,366.208,155,370.248,151.88,378.794Z" transform="translate(-144.932 -144.846)" fill="#84c7cb"/>
      <g id="Groupe_807" data-name="Groupe 807" transform="translate(54.67 95.305)">
        <path id="Tracé_458" data-name="Tracé 458" d="M208.322,381.671c-11.948,2.952-23.084,4.714-30.992,1.778" transform="translate(-176.087 -226.367)" fill="none" stroke="#7ac0ad" stroke-miterlimit="10" stroke-width="0.913"/>
        <path id="Tracé_459" data-name="Tracé 459" d="M176.673,368.937c.121,9.237,3.4,18.353,9.22,27.331a36.866,36.866,0,0,0-8.46,22.2" transform="translate(-176.673 -237.718)" fill="none" stroke="#7ac0ad" stroke-miterlimit="10" stroke-width="0.913"/>
        <path id="Tracé_460" data-name="Tracé 460" d="M184.12,416.149a28.248,28.248,0,0,1,8.736-20.926c-5.7-8.926-10.256-17.594-12.587-25.829" transform="translate(-173.467 -237.311)" fill="none" stroke="#7ac0ad" stroke-miterlimit="10" stroke-width="0.913"/>
        <path id="Tracé_461" data-name="Tracé 461" d="M198.107,393.148a51.953,51.953,0,0,1-12.863-23.5" transform="translate(-169.032 -237.083)" fill="none" stroke="#7ac0ad" stroke-miterlimit="10" stroke-width="0.913"/>
        <path id="Tracé_462" data-name="Tracé 462" d="M202.773,388.42a52.626,52.626,0,0,1-13.329-18.871" transform="translate(-165.289 -237.173)" fill="none" stroke="#7ac0ad" stroke-miterlimit="10" stroke-width="0.913"/>
        <g id="Groupe_806" data-name="Groupe 806" transform="translate(18.319)">
          <path id="Tracé_463" data-name="Tracé 463" d="M208.405,319.381c-3.539-4.731-3.919-5.456-12.207-7.424" transform="translate(-177.586 -288.51)" fill="none" stroke="#7ac0ad" stroke-miterlimit="10" stroke-width="0.913"/>
          <path id="Tracé_464" data-name="Tracé 464" d="M186.358,347.559c6.388-8.978,15.228-15.867,25.985-21.116a50.962,50.962,0,0,1,8.408-26.883" transform="translate(-186.358 -299.561)" fill="none" stroke="#7ac0ad" stroke-miterlimit="10" stroke-width="0.913"/>
          <path id="Tracé_465" data-name="Tracé 465" d="M224.5,303.741c-5.283,7.528-11.948,13.674-11.24,23.481-10.618,5.249-16.264,13.295-23.723,19.925" transform="translate(-183.526 -295.834)" fill="none" stroke="#7ac0ad" stroke-miterlimit="10" stroke-width="0.913"/>
          <path id="Tracé_466" data-name="Tracé 466" d="M206.489,324.125c-9.375,2.728-10.014,4.852-12.828,10.118" transform="translate(-179.848 -277.663)" fill="none" stroke="#7ac0ad" stroke-miterlimit="10" stroke-width="0.913"/>
          <path id="Tracé_467" data-name="Tracé 467" d="M205.943,328.954c-5.042.984-6.63.984-9,6.026" transform="translate(-176.919 -273.359)" fill="none" stroke="#7ac0ad" stroke-miterlimit="10" stroke-width="0.913"/>
        </g>
      </g>
      <g id="Groupe_808" data-name="Groupe 808" transform="translate(59.539 147.844)">
        <path id="Tracé_468" data-name="Tracé 468" d="M200.714,348.761c-8.218-1.847-9.5-2.158-16.437-8.46" transform="translate(-174.763 -315.784)" fill="none" stroke="#7ac0ad" stroke-miterlimit="10" stroke-width="0.913"/>
        <path id="Tracé_469" data-name="Tracé 469" d="M197.393,327.339c-3.419,8.616-3.539,18.543-1.053,29.49a33.863,33.863,0,0,0-17.093,16.73" transform="translate(-179.247 -327.339)" fill="none" stroke="#7ac0ad" stroke-miterlimit="10" stroke-width="0.913"/>
        <path id="Tracé_470" data-name="Tracé 470" d="M184.961,374.447c2.9-7.148,4.109-13.053,12.742-15.971-2.4-10.843.414-20.408,1.174-29.093" transform="translate(-174.153 -325.516)" fill="none" stroke="#7ac0ad" stroke-miterlimit="10" stroke-width="0.913"/>
        <path id="Tracé_471" data-name="Tracé 471" d="M200.149,348.623c-3.695-8.892-3.781-7.2-2.5-16.748" transform="translate(-163.511 -323.294)" fill="none" stroke="#7ac0ad" stroke-miterlimit="10" stroke-width="0.913"/>
        <path id="Tracé_472" data-name="Tracé 472" d="M203.663,344.854c-3.764-6.958-2.832-7.459-1.5-11.171" transform="translate(-159.86 -321.683)" fill="none" stroke="#7ac0ad" stroke-miterlimit="10" stroke-width="0.913"/>
      </g>
      <g id="Groupe_809" data-name="Groupe 809" transform="translate(53.531 193.27)">
        <line id="Ligne_179" data-name="Ligne 179" x2="40.16" y2="6.699" transform="translate(0 17.49)" fill="none" stroke="#7ac0ad" stroke-miterlimit="10" stroke-width="0.913"/>
        <path id="Tracé_473" data-name="Tracé 473" d="M179.818,351.356a28.068,28.068,0,0,0,3.747,18.82c-6.164,4.023-7.562,9.479-6.8,15.608" transform="translate(-175.622 -351.356)" fill="none" stroke="#7ac0ad" stroke-miterlimit="10" stroke-width="0.913"/>
        <path id="Tracé_474" data-name="Tracé 474" d="M185.206,352.287a25.1,25.1,0,0,0,3.747,18.82c-3.678,3.367-5.387,9.306-6.8,15.608" transform="translate(-170.651 -350.526)" fill="none" stroke="#7ac0ad" stroke-miterlimit="10" stroke-width="0.913"/>
        <path id="Tracé_475" data-name="Tracé 475" d="M191.158,354.669q-1.839,8.365,3.747,16.2c-5.059,2.555-5.87,8.029-6.8,13.433" transform="translate(-165.346 -348.402)" fill="none" stroke="#7ac0ad" stroke-miterlimit="10" stroke-width="0.913"/>
        <path id="Tracé_476" data-name="Tracé 476" d="M196.379,354.322l3.747,16.2a23.013,23.013,0,0,0-6.8,13.433" transform="translate(-160.691 -348.711)" fill="none" stroke="#7ac0ad" stroke-miterlimit="10" stroke-width="0.913"/>
      </g>
      <g id="Groupe_810" data-name="Groupe 810" transform="translate(52.995 273.003)">
        <path id="Tracé_477" data-name="Tracé 477" d="M208.7,404.182c-11.482,4.126-22.307,7.062-30.526,5.3" transform="translate(-173.664 -383.999)" fill="none" stroke="#7ac0ad" stroke-miterlimit="10" stroke-width="0.913"/>
        <path id="Tracé_478" data-name="Tracé 478" d="M175.787,394.451c1.295,8.512,5.7,16.506,12.621,24.12a32.385,32.385,0,0,0-5.577,21.461" transform="translate(-175.787 -392.673)" fill="none" stroke="#7ac0ad" stroke-miterlimit="10" stroke-width="0.913"/>
        <path id="Tracé_479" data-name="Tracé 479" d="M189.176,437.107c-1.019-7.1.673-13.916,6.008-20.322-6.785-7.545-12.414-15.021-15.764-22.325" transform="translate(-172.549 -392.665)" fill="none" stroke="#7ac0ad" stroke-miterlimit="10" stroke-width="0.913"/>
        <path id="Tracé_480" data-name="Tracé 480" d="M200.123,414.244A48.612,48.612,0,0,1,184.377,394.1" transform="translate(-168.13 -392.99)" fill="none" stroke="#7ac0ad" stroke-miterlimit="10" stroke-width="0.913"/>
        <path id="Tracé_481" data-name="Tracé 481" d="M204.156,409.344a50.7,50.7,0,0,1-15.625-15.833" transform="translate(-164.428 -393.511)" fill="none" stroke="#7ac0ad" stroke-miterlimit="10" stroke-width="0.913"/>
      </g>
      <g id="Groupe_811" data-name="Groupe 811" transform="translate(123.146 222.743)">
        <line id="Ligne_180" data-name="Ligne 180" y1="4.42" x2="34.082" transform="translate(0 25.381)" fill="none" stroke="#7ac0ad" stroke-miterlimit="10" stroke-width="0.913"/>
        <path id="Tracé_482" data-name="Tracé 482" d="M213.568,366.938c-1.329,7.39,1.14,18.906,4.852,28.557-3.28,7.7-3.678,15.66-2.883,23.723" transform="translate(-212.584 -366.938)" fill="none" stroke="#7ac0ad" stroke-miterlimit="10" stroke-width="0.913"/>
        <path id="Tracé_483" data-name="Tracé 483" d="M220.181,367.312c-.086,9.237,1.157,19.527,4.126,26.762a37.142,37.142,0,0,0-3.747,22.583" transform="translate(-206.369 -366.604)" fill="none" stroke="#7ac0ad" stroke-miterlimit="10" stroke-width="0.913"/>
        <path id="Tracé_484" data-name="Tracé 484" d="M226.437,368.517c-.6,7.666.984,15.315,4.2,22.963-2.21,4.3-1.968,11.965-1.554,19.873" transform="translate(-200.901 -365.53)" fill="none" stroke="#7ac0ad" stroke-miterlimit="10" stroke-width="0.913"/>
        <path id="Tracé_485" data-name="Tracé 485" d="M232.434,369.01c-1.312,2.3.155,14.382,2.417,16.661" transform="translate(-195.883 -365.091)" fill="none" stroke="#7ac0ad" stroke-miterlimit="10" stroke-width="0.913"/>
        <path id="Tracé_486" data-name="Tracé 486" d="M233.388,389.823" transform="translate(-194.592 -346.538)" fill="none" stroke="#7ac0ad" stroke-miterlimit="10" stroke-width="0.913"/>
        <path id="Tracé_487" data-name="Tracé 487" d="M233.826,385.387" transform="translate(-194.202 -350.493)" fill="none" stroke="#7ac0ad" stroke-miterlimit="10" stroke-width="0.913"/>
      </g>
      <g id="Groupe_812" data-name="Groupe 812" transform="translate(127.289 172.517)">
        <line id="Ligne_181" data-name="Ligne 181" x2="58.789" y2="1.416" transform="translate(0 27.936)" fill="none" stroke="#7ac0ad" stroke-miterlimit="10" stroke-width="0.913"/>
        <path id="Tracé_488" data-name="Tracé 488" d="M217.3,340.383c-1.312,6.233-1.416,18.75,5.352,27.884a28.562,28.562,0,0,0-3.833,22.722" transform="translate(-213.706 -340.383)" fill="none" stroke="#7ac0ad" stroke-miterlimit="10" stroke-width="0.913"/>
        <path id="Tracé_489" data-name="Tracé 489" d="M225.4,342.957c-.017,7.908,1.381,16.817,4.506,23.222-4.3,6.872-6.492,17.041-5.508,23.05" transform="translate(-206.958 -338.088)" fill="none" stroke="#7ac0ad" stroke-miterlimit="10" stroke-width="0.913"/>
        <path id="Tracé_490" data-name="Tracé 490" d="M231.222,343.888c-.742,9.427.363,12.88,5.577,22.722-3.35,5.076-2.607,15.056-1.761,24.9" transform="translate(-200.852 -337.258)" fill="none" stroke="#7ac0ad" stroke-miterlimit="10" stroke-width="0.913"/>
        <path id="Tracé_491" data-name="Tracé 491" d="M243.878,346.591c-1.813,1.778,1.744,12.656,5.473,15.056" transform="translate(-189.82 -334.85)" fill="none" stroke="#7ac0ad" stroke-miterlimit="10" stroke-width="0.913"/>
        <path id="Tracé_492" data-name="Tracé 492" d="M247.656,365.076" transform="translate(-186.018 -318.372)" fill="none" stroke="#7ac0ad" stroke-miterlimit="10" stroke-width="0.913"/>
        <path id="Tracé_493" data-name="Tracé 493" d="M247.875,361.251" transform="translate(-185.822 -321.782)" fill="none" stroke="#7ac0ad" stroke-miterlimit="10" stroke-width="0.913"/>
        <path id="Tracé_494" data-name="Tracé 494" d="M237.782,346.043c-.552,7.113,1.088,10.964,5.024,18.388-2.538,3.833-4.662,6.077-4.023,13.5" transform="translate(-194.912 -335.338)" fill="none" stroke="#7ac0ad" stroke-miterlimit="10" stroke-width="0.913"/>
      </g>
      <path id="Tracé_495" data-name="Tracé 495" d="M227.5,350.028c-1.26-3.039,9.03-13.657,14.969-14.382" transform="translate(-76.794 -172.09)" fill="none" stroke="#7ac0ad" stroke-miterlimit="10" stroke-width="0.913"/>
      <g id="Groupe_813" data-name="Groupe 813" transform="translate(131.589 122.774)">
        <path id="Tracé_496" data-name="Tracé 496" d="M251.695,338.789c-12.155-2-23.084-4.783-29.179-10.6" transform="translate(-212.726 -301.512)" fill="none" stroke="#7ac0ad" stroke-miterlimit="10" stroke-width="0.913"/>
        <path id="Tracé_497" data-name="Tracé 497" d="M236.194,314.084c-3.539,8.547-4.109,20.632-2.314,31.182a36.92,36.92,0,0,0-16.54,17.059" transform="translate(-217.34 -314.084)" fill="none" stroke="#7ac0ad" stroke-miterlimit="10" stroke-width="0.913"/>
        <path id="Tracé_498" data-name="Tracé 498" d="M222.553,363.351a28.218,28.218,0,0,1,16.281-15.781c-1.727-10.446-.622-23.74.483-32.218" transform="translate(-212.694 -312.953)" fill="none" stroke="#7ac0ad" stroke-miterlimit="10" stroke-width="0.913"/>
        <path id="Tracé_499" data-name="Tracé 499" d="M237.793,346.064a51.863,51.863,0,0,1-2.555-26.658" transform="translate(-202.035 -309.34)" fill="none" stroke="#7ac0ad" stroke-miterlimit="10" stroke-width="0.913"/>
        <path id="Tracé_500" data-name="Tracé 500" d="M243.61,343.577a52.543,52.543,0,0,1-4.8-22.6" transform="translate(-198.202 -307.94)" fill="none" stroke="#7ac0ad" stroke-miterlimit="10" stroke-width="0.913"/>
      </g>
      <path id="Tracé_501" data-name="Tracé 501" d="M259.057,288.8c11.689-25.329,42.871-51.227,64.591-34.1,29.818,23.516,5.283,48.775-15.453,59.049" transform="translate(-48.565 -249.172)" fill="#84c7cb"/>
      <path id="Tracé_502" data-name="Tracé 502" d="M250.588,340.977c-1.813,1.778,1.744,12.656,5.473,15.056" transform="translate(-56.549 -167.338)" fill="none" stroke="#7ac0ad" stroke-miterlimit="10" stroke-width="0.913"/>
      <path id="Tracé_503" data-name="Tracé 503" d="M216.759,306.626c-7.873,3.747-7.77,5.49-8.685,10.014" transform="translate(-94.011 -197.958)" fill="none" stroke="#7ac0ad" stroke-miterlimit="10" stroke-width="0.913"/>
      <g id="Groupe_814" data-name="Groupe 814" transform="translate(98.767 56.008)">
        <path id="Tracé_504" data-name="Tracé 504" d="M216.263,285.348c4.109,12.777,21.53,27.711,38.554,42.577" transform="translate(-185.478 -272.934)" fill="none" stroke="#7ac0ad" stroke-miterlimit="10" stroke-width="0.913"/>
        <path id="Tracé_505" data-name="Tracé 505" d="M199.987,311.123a146.651,146.651,0,0,1,36.1-10.049c2.814-6.319,12.9-14.261,23.309-22.29" transform="translate(-199.987 -278.784)" fill="none" stroke="#7ac0ad" stroke-miterlimit="10" stroke-width="0.913"/>
        <path id="Tracé_506" data-name="Tracé 506" d="M205.756,317.4c6.44-5.87,18.3-7.977,31.769-8.961,4.662-8.495,12.9-17.076,22.618-25.709" transform="translate(-194.844 -275.269)" fill="none" stroke="#7ac0ad" stroke-miterlimit="10" stroke-width="0.913"/>
        <path id="Tracé_507" data-name="Tracé 507" d="M212.666,320.786c6.613-5.611,16.437-8.236,27.694-9.565,3-7.01,9.807-14.244,18.077-21.565" transform="translate(-188.684 -269.093)" fill="none" stroke="#7ac0ad" stroke-miterlimit="10" stroke-width="0.913"/>
        <path id="Tracé_508" data-name="Tracé 508" d="M255.4,295.517c-6.008,5.818-11.171,11.844-11.119,18.958-10.6,1.934-19.683,4.748-22.946,10.946" transform="translate(-180.954 -263.869)" fill="none" stroke="#7ac0ad" stroke-miterlimit="10" stroke-width="0.913"/>
      </g>
      <g id="Groupe_815" data-name="Groupe 815" transform="translate(150.736 48.377)">
        <path id="Tracé_509" data-name="Tracé 509" d="M244.95,274.749c-3.108,13.053,4.04,34.859,10.877,56.407" transform="translate(-212.543 -274.749)" fill="none" stroke="#7ac0ad" stroke-miterlimit="10" stroke-width="0.913"/>
        <path id="Tracé_510" data-name="Tracé 510" d="M228.97,275.772c12.69,1.865,17.594,4.437,28.989,9.272,5.68-3.954,10.187-6.6,23.239-8.046" transform="translate(-226.121 -273.838)" fill="none" stroke="#7ac0ad" stroke-miterlimit="10" stroke-width="0.913"/>
        <path id="Tracé_511" data-name="Tracé 511" d="M227.464,283.135c8.546-1.675,19.786,2.676,31.8,8.805,8.391-4.834,8.27-7.321,21.064-9.651" transform="translate(-227.464 -268.028)" fill="none" stroke="#7ac0ad" stroke-miterlimit="10" stroke-width="0.913"/>
        <path id="Tracé_512" data-name="Tracé 512" d="M230.741,291.757c8.564-1.364,18.336,1.485,28.644,6.2,6.2-4.437,5.646-6.6,16.523-8.564" transform="translate(-224.542 -261.697)" fill="none" stroke="#7ac0ad" stroke-miterlimit="10" stroke-width="0.913"/>
        <path id="Tracé_513" data-name="Tracé 513" d="M276.048,295.425c-8.167,1.865-15.694,4.334-19.338,10.428-10.066-3.833-8.771-5.214-16.713-5.214" transform="translate(-216.291 -256.319)" fill="none" stroke="#7ac0ad" stroke-miterlimit="10" stroke-width="0.913"/>
      </g>
      <path id="Tracé_514" data-name="Tracé 514" d="M272.248,336.266c6.475,2.866,14.451,7.77,15.574,12.673" transform="translate(-36.807 -171.536)" fill="none" stroke="#7ac0ad" stroke-miterlimit="10" stroke-width="0.913"/>
      <path id="Tracé_515" data-name="Tracé 515" d="M268.268,338.567c6.975,3.367,15.487,9.272,16.523,15.435" transform="translate(-40.354 -169.486)" fill="none" stroke="#7ac0ad" stroke-miterlimit="10" stroke-width="0.913"/>
      <g id="Groupe_816" data-name="Groupe 816" transform="translate(200.271 31.56)">
        <path id="Tracé_516" data-name="Tracé 516" d="M282.2,273.946c-10.981,10.221-7.148,10.7-10.584,15.781" transform="translate(-237.639 -258.649)" fill="none" stroke="#7ac0ad" stroke-miterlimit="10" stroke-width="0.913"/>
        <path id="Tracé_517" data-name="Tracé 517" d="M261.212,265.858c10.48,8.477,15.315,14.693,22.756,25.173,7.666-.57,13.45-.57,26.33,5.076" transform="translate(-246.916 -265.858)" fill="none" stroke="#7ac0ad" stroke-miterlimit="10" stroke-width="0.913"/>
        <path id="Tracé_518" data-name="Tracé 518" d="M258.017,272.522c8.892,3.039,13.709,8.27,20.909,20.27" transform="translate(-249.764 -259.918)" fill="none" stroke="#7ac0ad" stroke-miterlimit="10" stroke-width="0.913"/>
        <path id="Tracé_519" data-name="Tracé 519" d="M254.621,281.011c8.7,3.315,10.049,4.075,16.575,13.864" transform="translate(-252.791 -252.35)" fill="none" stroke="#7ac0ad" stroke-miterlimit="10" stroke-width="0.913"/>
        <path id="Tracé_520" data-name="Tracé 520" d="M262.666,300.25c-5.162-7.113-3.764-7.441-9.013-11.05" transform="translate(-253.653 -245.051)" fill="none" stroke="#7ac0ad" stroke-miterlimit="10" stroke-width="0.913"/>
      </g>
      <g id="Groupe_817" data-name="Groupe 817" transform="translate(250.842 146.29)">
        <path id="Tracé_521" data-name="Tracé 521" d="M340.555,336.759c-18.319,8.132-44.217,21.289-58.064,36.033" transform="translate(-278.519 -317.387)" fill="none" stroke="#7ac0ad" stroke-miterlimit="10" stroke-width="0.913"/>
        <path id="Tracé_522" data-name="Tracé 522" d="M301.03,326.517c5.473,10.981,5.577,15.9,6.992,26.952,7.77,3.091,8.477,3.021,17.87,13.036" transform="translate(-261.993 -326.517)" fill="none" stroke="#7ac0ad" stroke-miterlimit="10" stroke-width="0.913"/>
        <path id="Tracé_523" data-name="Tracé 523" d="M294.257,331.2c6.958,6.285,6.63,12.9,6.975,24.949,5.214,2.607,8.65,2.8,13.812,11.413" transform="translate(-268.03 -322.343)" fill="none" stroke="#7ac0ad" stroke-miterlimit="10" stroke-width="0.913"/>
        <path id="Tracé_524" data-name="Tracé 524" d="M287.091,337c6.613,6.406,7.752,11,8.65,21.116,8.616,3.332,10.964,5.508,14.279,9.2" transform="translate(-274.418 -317.176)" fill="none" stroke="#7ac0ad" stroke-miterlimit="10" stroke-width="0.913"/>
        <path id="Tracé_525" data-name="Tracé 525" d="M305.029,369.884c-3.3-4.2-5.8-6.63-14.762-7.252-1.727-9.6-4.316-13.26-9.876-19.976" transform="translate(-280.391 -312.13)" fill="none" stroke="#7ac0ad" stroke-miterlimit="10" stroke-width="0.913"/>
      </g>
      <g id="Groupe_818" data-name="Groupe 818" transform="translate(237.893 108.237)">
        <path id="Tracé_526" data-name="Tracé 526" d="M308.749,314.7c-5.387,11.1-20.443,22.186-35.2,33.271" transform="translate(-273.544 -299.001)" fill="none" stroke="#7ac0ad" stroke-miterlimit="10" stroke-width="0.913"/>
        <path id="Tracé_527" data-name="Tracé 527" d="M317.755,344.987a85.5,85.5,0,0,0-23.05-14.641c-.691-6.216-6.112-15.021-11.741-23.948" transform="translate(-265.147 -306.398)" fill="none" stroke="#7ac0ad" stroke-miterlimit="10" stroke-width="0.913"/>
        <path id="Tracé_528" data-name="Tracé 528" d="M310.853,349.534c-3.3-6.354-11.119-10.066-20.253-13-1.554-8.495-5.56-17.611-10.584-26.986" transform="translate(-267.775 -303.59)" fill="none" stroke="#7ac0ad" stroke-miterlimit="10" stroke-width="0.913"/>
        <path id="Tracé_529" data-name="Tracé 529" d="M302.592,350.992c-3.47-6.147-9.772-10.031-17.318-12.932-.691-6.889-3.971-14.538-8.27-22.5" transform="translate(-270.46 -298.228)" fill="none" stroke="#7ac0ad" stroke-miterlimit="10" stroke-width="0.913"/>
        <path id="Tracé_530" data-name="Tracé 530" d="M274.119,320.556c3.022,6.25,5.4,12.535,3.954,19.061,6.975,3.367,15.487,9.272,16.523,15.436" transform="translate(-273.032 -293.777)" fill="none" stroke="#7ac0ad" stroke-miterlimit="10" stroke-width="0.913"/>
      </g>
      <g id="Groupe_819" data-name="Groupe 819" transform="translate(348.738 153.594)">
        <line id="Ligne_182" data-name="Ligne 182" x1="50.623" y2="8.633" transform="translate(0 15.746)" fill="none" stroke="#7ac0ad" stroke-miterlimit="10" stroke-width="0.913"/>
        <path id="Tracé_531" data-name="Tracé 531" d="M363.711,364.409a23.218,23.218,0,0,0-10.1-16.575c6.285-6.147,6.371-11.9,3.626-17.456" transform="translate(-313.019 -330.378)" fill="none" stroke="#7ac0ad" stroke-miterlimit="10" stroke-width="0.913"/>
        <path id="Tracé_532" data-name="Tracé 532" d="M355.594,362.737c-.414-6.6-2.59-9.876-8.529-13.329,3.557-4.316,2.918-11.827,2.935-17.87" transform="translate(-318.853 -329.345)" fill="none" stroke="#7ac0ad" stroke-miterlimit="10" stroke-width="0.913"/>
        <path id="Tracé_533" data-name="Tracé 533" d="M345.585,356.226c-.483-2.693-4.437-5.87-6.388-6.941,5.37-4.334,4.748-9.876,4.282-15.384" transform="translate(-325.867 -327.237)" fill="none" stroke="#7ac0ad" stroke-miterlimit="10" stroke-width="0.913"/>
      </g>
      <g id="Groupe_820" data-name="Groupe 820" transform="translate(258.387 50.362)">
        <line id="Ligne_183" data-name="Ligne 183" x1="37.967" y2="34.497" transform="translate(0 16.869)" fill="none" stroke="#7ac0ad" stroke-miterlimit="10" stroke-width="0.913"/>
        <path id="Tracé_534" data-name="Tracé 534" d="M339.318,314.975c-4.455-4.852-22.514-15.073-30.077-15.107,1.537-8.65-12.742-21.133-18.2-24.068" transform="translate(-278.44 -275.799)" fill="none" stroke="#7ac0ad" stroke-miterlimit="10" stroke-width="0.913"/>
        <path id="Tracé_535" data-name="Tracé 535" d="M328.869,310.849c-4.644-5.49-18.595-6.077-25.829-5.715.155-5.749-11.637-19.458-15.556-24.707" transform="translate(-281.613 -271.674)" fill="none" stroke="#7ac0ad" stroke-miterlimit="10" stroke-width="0.913"/>
        <path id="Tracé_536" data-name="Tracé 536" d="M291.552,303.082c1.847-6.647.19-6.8-3.384-11.016" transform="translate(-281.003 -261.299)" fill="none" stroke="#7ac0ad" stroke-miterlimit="10" stroke-width="0.913"/>
        <path id="Tracé_537" data-name="Tracé 537" d="M298.684,302.071" transform="translate(-271.629 -252.38)" fill="none" stroke="#7ac0ad" stroke-miterlimit="10" stroke-width="0.913"/>
      </g>
      <g id="Groupe_821" data-name="Groupe 821" transform="translate(278.088 182.824)">
        <path id="Tracé_538" data-name="Tracé 538" d="M361.216,359.37c-19.942,2-48.655,6.406-66.421,16.092" transform="translate(-294.795 -333.765)" fill="none" stroke="#7ac0ad" stroke-miterlimit="10" stroke-width="0.913"/>
        <path id="Tracé_539" data-name="Tracé 539" d="M322.4,345.833c1.778,12.138.328,16.851-1.778,27.78,6.406,5.37,7.545,6.682,13.346,19.13" transform="translate(-271.775 -345.833)" fill="none" stroke="#7ac0ad" stroke-miterlimit="10" stroke-width="0.913"/>
        <path id="Tracé_540" data-name="Tracé 540" d="M314.217,348.17c4.644,8.149,2.262,14.331-1.174,25.881,4.144,4.109,6.941,6.371,9.151,16.161" transform="translate(-278.529 -343.75)" fill="none" stroke="#7ac0ad" stroke-miterlimit="10" stroke-width="0.913"/>
        <path id="Tracé_541" data-name="Tracé 541" d="M305.248,350.424c4.282,8.149,3.539,14.779,1.226,24.673,7.148,5.853,8.7,10.273,10.687,14.8" transform="translate(-285.478 -341.74)" fill="none" stroke="#7ac0ad" stroke-miterlimit="10" stroke-width="0.913"/>
        <path id="Tracé_542" data-name="Tracé 542" d="M311.813,389.626c-1.83-5.024-3.436-9.444-11.758-12.846,1.364-9.669.035-13.933-3.142-22.066" transform="translate(-292.908 -337.915)" fill="none" stroke="#7ac0ad" stroke-miterlimit="10" stroke-width="0.913"/>
      </g>
      <path id="Tracé_543" data-name="Tracé 543" d="M424.976,444.742c0,20.218-12.88,34.221-31.424,30.163-24.759-5.4-62.812-19.7-37.363-30.163,18.7-7.683,22.083-42.577,41.075-42.577C416.257,402.182,424.976,424.524,424.976,444.742Z" transform="translate(30.515 -112.794)" fill="#84c7cb"/>
      <path id="Tracé_544" data-name="Tracé 544" d="M398.4,448.016c-19.735,16.938-23.947,15.28-65.7-18.664-12.431-10.1-28.454-16.092-36.172-19.3,0-7.787,42.905-3.591,58.928-3.591S405.39,442.025,398.4,448.016Z" transform="translate(-15.162 -109.973)" fill="#84c7cb"/>
      <g id="Groupe_822" data-name="Groupe 822" transform="translate(291.296 229.96)">
        <path id="Tracé_545" data-name="Tracé 545" d="M369.65,391.892c-19.389-5.076-47.843-10.947-67.871-8.063" transform="translate(-301.779 -359.778)" fill="none" stroke="#7ac0ad" stroke-miterlimit="10" stroke-width="0.913"/>
        <path id="Tracé_546" data-name="Tracé 546" d="M339.9,372.132c-2.573,12-5.56,15.919-11.361,25.415,4.144,7.269,4.575,10.394,5.68,24.086" transform="translate(-277.921 -369.525)" fill="none" stroke="#7ac0ad" stroke-miterlimit="10" stroke-width="0.913"/>
        <path id="Tracé_547" data-name="Tracé 547" d="M330.4,370.772c1.519,9.254-2.176,15.729-9.41,25.363,2.452,5.3,3.954,10.049,2.624,19.994" transform="translate(-284.65 -370.737)" fill="none" stroke="#7ac0ad" stroke-miterlimit="10" stroke-width="0.913"/>
        <path id="Tracé_548" data-name="Tracé 548" d="M321.178,370.754c1.174,9.134-1.847,15.09-7.459,23.568,4.662,7.977,4.575,12.656,4.852,17.594" transform="translate(-291.135 -370.754)" fill="none" stroke="#7ac0ad" stroke-miterlimit="10" stroke-width="0.913"/>
        <path id="Tracé_549" data-name="Tracé 549" d="M312.394,409.783c.034-5.352.069-10.049-6.544-16.143,4.644-8.581,4.9-13.053,4.748-21.772" transform="translate(-298.15 -369.761)" fill="none" stroke="#7ac0ad" stroke-miterlimit="10" stroke-width="0.913"/>
      </g>
      <path id="Tracé_550" data-name="Tracé 550" d="M317.681,305.54c4.61,1.45,8.132,5.663,11.378,10.567" transform="translate(3.692 -198.926)" fill="none" stroke="#7ac0ad" stroke-miterlimit="10" stroke-width="0.913"/>
      <g id="Groupe_823" data-name="Groupe 823" transform="translate(284.528 269.187)">
        <path id="Tracé_551" data-name="Tracé 551" d="M356.938,432.785c-15.66-12.518-39.262-29.421-58.738-34.928" transform="translate(-298.2 -385.822)" fill="none" stroke="#7ac0ad" stroke-miterlimit="10" stroke-width="0.913"/>
        <path id="Tracé_552" data-name="Tracé 552" d="M345.435,399.28c-7.217,9.91-13.225,15.177-22.376,21.513.829,8.322,1.882,6.716-2.676,19.666" transform="translate(-278.427 -384.553)" fill="none" stroke="#7ac0ad" stroke-miterlimit="10" stroke-width="0.913"/>
        <path id="Tracé_553" data-name="Tracé 553" d="M336.623,395.9c-2.365,9.065-8.391,13.83-18.923,19.683.086,5.836.5,9.393-4.748,17.956" transform="translate(-285.051 -387.563)" fill="none" stroke="#7ac0ad" stroke-miterlimit="10" stroke-width="0.913"/>
        <path id="Tracé_554" data-name="Tracé 554" d="M326.961,392.68c-2.624,8.823-7.8,13.036-16.368,18.509,1.019,9.185-1.174,13.847-2.918,18.457" transform="translate(-289.754 -390.436)" fill="none" stroke="#7ac0ad" stroke-miterlimit="10" stroke-width="0.913"/>
        <path id="Tracé_555" data-name="Tracé 555" d="M301.459,424.609c2.21-4.869,4.472-9.876.915-18.112,7.718-5.957,8.805-6.975,12.207-15" transform="translate(-295.295 -391.494)" fill="none" stroke="#7ac0ad" stroke-miterlimit="10" stroke-width="0.913"/>
      </g>
      <path id="Tracé_556" data-name="Tracé 556" d="M353.711,301.478c20.926,2.089,26.123,14.848,25.881,31.285l-25.1-17.11Z" transform="translate(35.809 -202.547)" fill="#84c7cb"/>
      <path id="Tracé_557" data-name="Tracé 557" d="M339.318,314.975c-4.455-4.852-22.514-15.073-30.077-15.107,1.537-8.65-12.742-21.133-18.2-24.068" transform="translate(-20.052 -225.437)" fill="none" stroke="#7ac0ad" stroke-miterlimit="10" stroke-width="0.913"/>
      <path id="Tracé_558" data-name="Tracé 558" d="M350.45,299.765c1.191.846,9.721-27.107-9.03-33.7-22.963-9.306-42.991,7.6-42.991,7.6" transform="translate(-13.469 -236.609)" fill="#84c7cb"/>
      <path id="Tracé_559" data-name="Tracé 559" d="M404.665,374.35c0,11-7.683,19.925-17.179,19.925-9.479,0-17.179-8.926-17.179-19.925s4.8-21.789,14.279-21.789S404.665,363.334,404.665,374.35Z" transform="translate(50.602 -157.011)" fill="#84c7cb"/>
      <path id="Tracé_560" data-name="Tracé 560" d="M419.743,413.667c-3.885,19.614-8.805,22.48-23.947,28.575-13.174,5.3-25.691-15.8-25.691-35.291s-2.624-40.816,11.568-40.816S416.307,380.31,419.743,413.667Z" transform="translate(50.252 -144.911)" fill="#84c7cb"/>
      <g id="Groupe_824" data-name="Groupe 824" transform="translate(386.205 186.001)">
        <line id="Ligne_184" data-name="Ligne 184" y1="0.604" x2="14.451" transform="translate(3.142 28.419)" fill="none" stroke="#7ac0ad" stroke-miterlimit="10" stroke-width="0.913"/>
        <path id="Tracé_561" data-name="Tracé 561" d="M356.977,407.01c1.554-9.824,4.972-22.963-1.468-30.905,4.662-4.714,4.714-19.631,6.509-28.437" transform="translate(-348.793 -347.374)" fill="none" stroke="#7ac0ad" stroke-miterlimit="10" stroke-width="0.913"/>
        <path id="Tracé_562" data-name="Tracé 562" d="M360.382,393.38c1.554-9.824,4.972-22.963-1.468-30.905" transform="translate(-345.758 -334.176)" fill="none" stroke="#7ac0ad" stroke-miterlimit="10" stroke-width="0.913"/>
        <path id="Tracé_563" data-name="Tracé 563" d="M352.942,386.378c.587-6.924,2.141-12.6-.984-18.975" transform="translate(-351.958 -329.782)" fill="none" stroke="#7ac0ad" stroke-miterlimit="10" stroke-width="0.913"/>
        <path id="Tracé_564" data-name="Tracé 564" d="M358.914,377.279c4.593-8.805,12.017-20.184,8.443-29.766" transform="translate(-345.758 -347.513)" fill="none" stroke="#7ac0ad" stroke-miterlimit="10" stroke-width="0.913"/>
      </g>
      <path id="Tracé_565" data-name="Tracé 565" d="M316.5,296.512c4.817,3.8,4.817,8.2,2.227,12.828" transform="translate(2.642 -206.974)" fill="none" stroke="#7ac0ad" stroke-miterlimit="10" stroke-width="0.913"/>
      <path id="Tracé_566" data-name="Tracé 566" d="M317.681,303.3c5.7,0,15.09,5.093,18.319,10.014" transform="translate(3.692 -200.92)" fill="none" stroke="#7ac0ad" stroke-miterlimit="10" stroke-width="0.913"/>
      <g id="Groupe_825" data-name="Groupe 825" transform="translate(362.309 285.365)">
        <path id="Tracé_567" data-name="Tracé 567" d="M384.4,430.479c-15.3-12.967-25.778-21.789-45.081-27.867" transform="translate(-339.324 -397.76)" fill="none" stroke="#7ac0ad" stroke-miterlimit="10" stroke-width="0.913"/>
        <path id="Tracé_568" data-name="Tracé 568" d="M386.294,404.967c-7.493,9.7-9.185,11.844-18.509,17.922.587,8.339-7.372,25.536-16.247,35" transform="translate(-328.437 -395.661)" fill="none" stroke="#7ac0ad" stroke-miterlimit="10" stroke-width="0.913"/>
        <path id="Tracé_569" data-name="Tracé 569" d="M377.651,403.151c-2.624,9-6.457,10.359-17.162,15.919-.086,5.836-3.315,12.708-8.823,21.1" transform="translate(-328.323 -397.28)" fill="none" stroke="#7ac0ad" stroke-miterlimit="10" stroke-width="0.913"/>
        <path id="Tracé_570" data-name="Tracé 570" d="M364.334,400.558c-2.883,8.736-5.2,7.994-13.933,13.208,1.692,4.955,1.468,8.011-.414,12.587" transform="translate(-329.82 -399.591)" fill="none" stroke="#7ac0ad" stroke-miterlimit="10" stroke-width="0.913"/>
        <path id="Tracé_571" data-name="Tracé 571" d="M343.03,408.076c.57-.846,4.852-.086,8.495-8.029" transform="translate(-336.021 -400.047)" fill="none" stroke="#7ac0ad" stroke-miterlimit="10" stroke-width="0.913"/>
      </g>
      <path id="Tracé_572" data-name="Tracé 572" d="M319.817,312.943c3.281,2.279,3.453,4.955,2.089,7.8" transform="translate(5.596 -192.327)" fill="none" stroke="#7ac0ad" stroke-miterlimit="10" stroke-width="0.913"/>
      <path id="Tracé_573" data-name="Tracé 573" d="M350.516,345.692c.57-8.011-5.8-15.038-13.5-21.858" transform="translate(20.926 -182.619)" fill="none" stroke="#7ac0ad" stroke-miterlimit="10" stroke-width="0.913"/>
      <g id="Groupe_826" data-name="Groupe 826" transform="translate(401.934 244.445)">
        <line id="Ligne_185" data-name="Ligne 185" y1="0.587" x2="17.87" transform="translate(2.107 22.066)" fill="none" stroke="#7ac0ad" stroke-miterlimit="10" stroke-width="0.913"/>
        <path id="Tracé_574" data-name="Tracé 574" d="M366.625,426.369c1.917-9.824,5.042-17.8-2.9-25.76,5.767-4.714,5.629-13.761,2.365-22.014" transform="translate(-357.198 -378.25)" fill="none" stroke="#7ac0ad" stroke-miterlimit="10" stroke-width="0.913"/>
        <path id="Tracé_575" data-name="Tracé 575" d="M369.815,418.3c1.916-9.824,6.06-20.356-1.882-28.3" transform="translate(-353.447 -368.078)" fill="none" stroke="#7ac0ad" stroke-miterlimit="10" stroke-width="0.913"/>
        <path id="Tracé_576" data-name="Tracé 576" d="M363.641,412.183c1.916-8.011,4.575-12.69-3.367-19.165" transform="translate(-360.274 -365.393)" fill="none" stroke="#7ac0ad" stroke-miterlimit="10" stroke-width="0.913"/>
        <path id="Tracé_577" data-name="Tracé 577" d="M367.933,401.807c5.68-8.805,7.511-13.813,3.108-23.395" transform="translate(-353.447 -378.412)" fill="none" stroke="#7ac0ad" stroke-miterlimit="10" stroke-width="0.913"/>
      </g>
      <line id="Ligne_186" data-name="Ligne 186" x1="12.12" y2="4.057" transform="translate(321.614 98.326)" fill="none" stroke="#7ac0ad" stroke-miterlimit="10" stroke-width="0.913"/>
      <path id="Tracé_578" data-name="Tracé 578" d="M363.12,397.979c1.917-8.011,4.575-12.69-3.367-19.165" transform="translate(41.196 -133.609)" fill="none" stroke="#7ac0ad" stroke-miterlimit="10" stroke-width="0.913"/>
      <g id="Groupe_827" data-name="Groupe 827" transform="translate(345.803 109.204)">
        <line id="Ligne_187" data-name="Ligne 187" y1="5.145" x2="12.362" transform="translate(9.6 25.622)" fill="none" stroke="#7ac0ad" stroke-miterlimit="10" stroke-width="0.913"/>
        <path id="Tracé_579" data-name="Tracé 579" d="M367.149,357.377c-1.916-4.455-16.558-20.943-22.825-21.668,4.472-7.027-10.273-25.847-13.726-28.8" transform="translate(-330.597 -306.909)" fill="none" stroke="#7ac0ad" stroke-miterlimit="10" stroke-width="0.913"/>
      </g>
      <g id="Groupe_828" data-name="Groupe 828" transform="translate(4.172 0.657)">
        <path id="Tracé_580" data-name="Tracé 580" d="M281.3,370.933c-28.471-3.436-57.408-7.372-75.106.95-34.687,16.748-21.617,44.666,8.805,48.9,6.147.449,14.607-.311,21.2-1.4" transform="translate(-118.299 -144.859)" fill="none" stroke="#2a3f40" stroke-miterlimit="10" stroke-width="0.913"/>
        <path id="Tracé_581" data-name="Tracé 581" d="M260.786,347.266c-11.257-3.522-21.72-7.321-39.141-8.581-31.044,1.675-42.767,29.317-20.1,46.479,6.561,5.007,14.987,6.285,23.637,7.113" transform="translate(-114.533 -170.037)" fill="none" stroke="#2a3f40" stroke-miterlimit="10" stroke-width="0.913"/>
        <path id="Tracé_582" data-name="Tracé 582" d="M261.988,321.217c-11.154-4.575-23.05-10.377-31.872-11.067-28.661.829-38.209,23.654-21.375,42.733,6.406,6.078,13.951,10.17,21.737,13.847" transform="translate(-104.996 -195.474)" fill="none" stroke="#2a3f40" stroke-miterlimit="10" stroke-width="0.913"/>
        <path id="Tracé_583" data-name="Tracé 583" d="M163.564,409.736c-17.024-18.215-19.994-33.875,7.6-43.976,23.447,9.669,44.908,9.254,66.162,7.182" transform="translate(-149.428 -145.902)" fill="none" stroke="#2a3f40" stroke-miterlimit="10" stroke-width="0.913"/>
        <path id="Tracé_584" data-name="Tracé 584" d="M223.235,367.646c-22.514-4.472-41.593-12.293-53.04-27.573-21.081,5.56-23.913,28.713-1.295,48.586" transform="translate(-147.167 -168.8)" fill="none" stroke="#2a3f40" stroke-miterlimit="10" stroke-width="0.913"/>
        <path id="Tracé_585" data-name="Tracé 585" d="M261.315,357.382c-26.5-11.4-50.951-23.205-66.024-37.018-24.293-9.306-43.613,7.908-31.354,39.521" transform="translate(-140.909 -188.613)" fill="none" stroke="#2a3f40" stroke-miterlimit="10" stroke-width="0.913"/>
        <path id="Tracé_586" data-name="Tracé 586" d="M182.831,345.488c-20.771-31.475-2.141-65.7,32.183-53.178,11.136,14.434,27.867,26.727,47.273,37.967" transform="translate(-128.448 -213.736)" fill="none" stroke="#2a3f40" stroke-miterlimit="10" stroke-width="0.913"/>
        <path id="Tracé_587" data-name="Tracé 587" d="M285.15,335.992c-7.7-23.205-23.775-59.394-47.17-70.185-36.465-10.463-55.146,17.8-39.659,49.742" transform="translate(-111.756 -236.976)" fill="none" stroke="#2a3f40" stroke-miterlimit="10" stroke-width="0.913"/>
        <path id="Tracé_588" data-name="Tracé 588" d="M325.723,309.428c8.27,4.869,11.136,10.912,10.946,17.628" transform="translate(6.688 -196.116)" fill="none" stroke="#7ac0ad" stroke-miterlimit="10" stroke-width="0.913"/>
        <path id="Tracé_589" data-name="Tracé 589" d="M277.793,334.913c.622-17.093,3.66-34.29,12.328-51.745-2.3-51.262-73.016-32.632-63.382,9.2" transform="translate(-82.35 -247.223)" fill="none" stroke="#2a3f40" stroke-miterlimit="10" stroke-width="0.913"/>
        <path id="Tracé_590" data-name="Tracé 590" d="M257.533,336.519c14.071-17.87,27.729-37.018,52.021-23.084,9.22-11.948,18.422-23.965,29.283-30.077,0-34.514-35.36-43.941-57.115-22.169-14.641,11.292-19.873,24.275-19.873,24.275" transform="translate(-54.096 -249.52)" fill="none" stroke="#2a3f40" stroke-miterlimit="10" stroke-width="0.913"/>
        <path id="Tracé_591" data-name="Tracé 591" d="M275.954,406.641c13.45-21.237,56.234-46,67.094-55.406,15.194-11,25.312-51.78-26.9-44.839-20.529,6.078-34.359,27.849-34.359,27.849s30.318-37.277,11.378-50.934" transform="translate(-37.675 -219.397)" fill="none" stroke="#2a3f40" stroke-miterlimit="10" stroke-width="0.913"/>
        <path id="Tracé_592" data-name="Tracé 592" d="M296.119,423.107c13.778.622,40.177,20.2,69.287,43.855,0,0,23.136,14.607,35-13.156,5.49-24.724-20.253-39.625-20.253-39.625-24.535-14.382-48.258-22.86-70.841-23" transform="translate(-19.7 -123.24)" fill="none" stroke="#2a3f40" stroke-miterlimit="10" stroke-width="0.913"/>
        <path id="Tracé_593" data-name="Tracé 593" d="M311.418,321.222c48.931-17.456,67.63,23.015,34.635,47.981" transform="translate(-6.063 -189.384)" fill="#84c7cb" stroke="#2a3f40" stroke-miterlimit="10" stroke-width="0.913"/>
        <path id="Tracé_594" data-name="Tracé 594" d="M327.324,330.276c9.41-9.928,17.456-19.648,21.617-28.765,0,0,11.43-26.745-10.808-35.757-20.2-8.806-37.6,5.68-37.6,5.68" transform="translate(-15.77 -237.579)" fill="none" stroke="#2a3f40" stroke-miterlimit="10" stroke-width="0.913"/>
        <path id="Tracé_595" data-name="Tracé 595" d="M313.764,347.374c25.829-18.077,51.21-30.577,75.537-29.939-1.709-25.968-18.405-37.864-52.159-33.737" transform="translate(-3.971 -219.766)" fill="none" stroke="#2a3f40" stroke-miterlimit="10" stroke-width="0.913"/>
        <path id="Tracé_596" data-name="Tracé 596" d="M336.1,370.273c33.478-9.738,70.789-17.3,56.8-53.938-5.4-10.739-13.985-14.054-23.5-15.177" transform="translate(15.94 -203.489)" fill="none" stroke="#2a3f40" stroke-miterlimit="10" stroke-width="0.913"/>
        <path id="Tracé_597" data-name="Tracé 597" d="M393.494,383.131c11.136-26.848,11.292-50.778-25.726-64.884" transform="translate(44.168 -188.256)" fill="#84c7cb" stroke="#2a3f40" stroke-miterlimit="10" stroke-width="0.913"/>
        <path id="Tracé_598" data-name="Tracé 598" d="M418.9,370.644c32.149,40.194,10.325,64.988-8.788,67.578q-28.8-.544-57.633-14.417" transform="translate(30.538 -141.549)" fill="none" stroke="#2a3f40" stroke-miterlimit="10" stroke-width="0.913"/>
        <path id="Tracé_599" data-name="Tracé 599" d="M347.512,348.948c32.528-3.609,63.089-3.8,76.832,25.121,3.4,33.392-32.857,31.7-65.126,33.53" transform="translate(26.112 -162.378)" fill="none" stroke="#2a3f40" stroke-miterlimit="10" stroke-width="0.913"/>
        <path id="Tracé_600" data-name="Tracé 600" d="M291.044,370.64c23.43-17.646,52.436-27.055,88.435-26.158,0,0,30.077,4.057,30.077,27.919s-18.509,29.11-18.509,29.11" transform="translate(-24.225 -164.922)" fill="none" stroke="#2a3f40" stroke-miterlimit="10" stroke-width="0.913"/>
        <path id="Tracé_601" data-name="Tracé 601" d="M347.512,451.264s50.8,37.242,70.565,9.859c17.628-23.758-3.539-54.749-3.539-54.749" transform="translate(26.112 -109.7)" fill="none" stroke="#2a3f40" stroke-miterlimit="10" stroke-width="0.913"/>
        <path id="Tracé_602" data-name="Tracé 602" d="M300.327,378.141c30.75-10.964,63.71-11.361,100.952,8.633,26.831,21.53,9.254,33.547-2.314,37.018l-26.3,7.459" transform="translate(-15.949 -141.552)" fill="none" stroke="#2a3f40" stroke-miterlimit="10" stroke-width="0.913"/>
        <path id="Tracé_603" data-name="Tracé 603" d="M230.79,396.029c-23.5,4.955-46.272,5.767-66.68-7.027-27.124,19.061-9.859,52.867,7.269,55.768a52.579,52.579,0,0,0,30.077,1.45l24.638-7.528" transform="translate(-149.974 -125.185)" fill="none" stroke="#2a3f40" stroke-miterlimit="10" stroke-width="0.913"/>
      </g>
      <path id="Tracé_604" data-name="Tracé 604" d="M216.281,408.235" transform="translate(-86.696 -107.383)" fill="none" stroke="#2a3f40" stroke-miterlimit="10" stroke-width="0.913"/>
      <g id="Groupe_829" data-name="Groupe 829" transform="translate(126.374 268.98)">
        <line id="Ligne_188" data-name="Ligne 188" y1="9.98" x2="28.195" transform="translate(3.211 21.893)" fill="none" stroke="#7ac0ad" stroke-miterlimit="10" stroke-width="0.913"/>
        <path id="Tracé_605" data-name="Tracé 605" d="M214.583,394.059c.017,7.459,3.315,15.781,8.184,24.535-1.658,8.115-.708,15.971,1.329,23.706" transform="translate(-214.583 -389)" fill="none" stroke="#7ac0ad" stroke-miterlimit="10" stroke-width="0.913"/>
        <path id="Tracé_606" data-name="Tracé 606" d="M220.5,392.79c1.433,9.047,3.747,17.162,7.562,23.706a40.52,40.52,0,0,0,.38,22.739" transform="translate(-209.311 -390.131)" fill="none" stroke="#7ac0ad" stroke-miterlimit="10" stroke-width="0.913"/>
        <path id="Tracé_607" data-name="Tracé 607" d="M225.948,391.941a52.007,52.007,0,0,0,7.476,21.686c-1.26,4.593.224,12.051,1.882,19.683" transform="translate(-204.453 -390.888)" fill="none" stroke="#7ac0ad" stroke-miterlimit="10" stroke-width="0.913"/>
        <path id="Tracé_608" data-name="Tracé 608" d="M231.329,391.384q-1.191,3.729,2.365,6.44" transform="translate(-199.922 -391.384)" fill="none" stroke="#7ac0ad" stroke-miterlimit="10" stroke-width="0.913"/>
        <path id="Tracé_609" data-name="Tracé 609" d="M235.569,407.085a11.282,11.282,0,0,0,.639,8.357" transform="translate(-196.341 -377.388)" fill="none" stroke="#7ac0ad" stroke-miterlimit="10" stroke-width="0.913"/>
      </g>
      <g id="Groupe_830" data-name="Groupe 830" transform="translate(331.957 294.748)">
        <ellipse id="Ellipse_200" data-name="Ellipse 200" cx="13.346" cy="19.457" rx="13.346" ry="19.457" transform="translate(0 21.758) rotate(-54.364)" fill="#22ae5c"/>
        <ellipse id="Ellipse_201" data-name="Ellipse 201" cx="12.828" cy="14.295" rx="12.828" ry="14.295" transform="translate(0.434 20.851) rotate(-54.364)" fill="#e9d086"/>
        <ellipse id="Ellipse_202" data-name="Ellipse 202" cx="10.065" cy="11.861" rx="10.065" ry="11.861" transform="translate(2.724 19.364) rotate(-54.364)" fill="#2e8fa3"/>
      </g>
      <g id="Groupe_831" data-name="Groupe 831" transform="translate(398.097 307.694)">
        <ellipse id="Ellipse_203" data-name="Ellipse 203" cx="13.346" cy="19.457" rx="13.346" ry="19.457" transform="translate(0 21.758) rotate(-54.364)" fill="#22ae5c"/>
        <ellipse id="Ellipse_204" data-name="Ellipse 204" cx="12.828" cy="14.295" rx="12.828" ry="14.295" transform="translate(0.434 20.851) rotate(-54.364)" fill="#e9d086"/>
        <ellipse id="Ellipse_205" data-name="Ellipse 205" cx="10.065" cy="11.861" rx="10.065" ry="11.861" transform="translate(2.714 19.378) rotate(-54.364)" fill="#2e8fa3"/>
      </g>
      <path id="Tracé_610" data-name="Tracé 610" d="M282.044,348.67c-18.267-1.658-26.831,6.613-18.7,22.894-9.237-9.962-34.687,12.621-14.054,29.11-23.481-.173-24.983,23.723-6.319,31.907-18.82,1.485-14.814,29.248,4.575,27.97" transform="translate(-74.297 -160.666)" fill="#2e5058" stroke="#2a3f40" stroke-miterlimit="10" stroke-width="0.913"/>
      <path id="Tracé_611" data-name="Tracé 611" d="M268.588,354.466c11.067-12.483,31.579-4.23,24.276,13.761C313.409,356.5,330.485,382,310.992,392.985c28.264,1.986,31.544,20.961,12.949,31.579,22.221,4.955,21.858,32.045-3.229,34.773" transform="translate(-40.07 -160.643)" fill="#2e5058" stroke="#2a3f40" stroke-miterlimit="10" stroke-width="0.913"/>
      <path id="Tracé_612" data-name="Tracé 612" d="M267.018,432.632s-1.468,13.726-8.529,14.279-9.859-21.582-9.859-21.582-.052,6.975-4.748,7.718-8.46-28.506-2.659-47.532" transform="translate(-67.092 -127.636)" fill="#77c1b0" stroke="#2a3f40" stroke-miterlimit="10" stroke-width="0.913"/>
      <rect id="Rectangle_414" data-name="Rectangle 414" width="21.012" height="19.631" transform="translate(165.55 162.727)" fill="#eca93f" stroke="#2a3f40" stroke-miterlimit="10" stroke-width="0.913"/>
      <path id="Tracé_613" data-name="Tracé 613" d="M239.762,334.422c-2.089,7.148-4.921,13.036-9.5,16.005,10.532,9.548,20.218,5.421,29.714-2.314l5.421.363s-3.488,15.608-15.781,16.316c-2.918-.967-2.659-9.7-2.659-9.7" transform="translate(-74.229 -173.18)" fill="#eca93f" stroke="#2a3f40" stroke-miterlimit="10" stroke-width="0.913"/>
      <path id="Tracé_614" data-name="Tracé 614" d="M304.116,457.978l11.361,30.284c5.093,11.1,11.309,19.338,19.424,22.6,2.642.725,3.764-.967,3.091-5.577l-8.011-14.227c6.095,12.6,14.244,23.9,20.443,22.014s.673-17.041-1.571-29.265c0,0,4.4,17.766,9.444,16.627,7.977-5.456-19.838-94.132-58.427-96.6,0,0,8.287-13.364,17.646-39.573,9.358-26.192,9.151-57.426-25.933-67.094-36.292-10.014-61.742,27.556-59.342,52.125,5.473,47.049,46.03,35.032,65.23,23-6.06,3.142-11.361,6.406-14.831,7.182.829,11.758-3.85,23.568-13.433,36.81-14,16.42-22.739,33.426-22.48,51.383,1.191,46.41,40.885,60.205,82.046,40.246" transform="translate(-72.611 -207.87)" fill="#77c1b0" stroke="#2a3f40" stroke-miterlimit="10" stroke-width="0.913"/>
      <path id="Tracé_615" data-name="Tracé 615" d="M225.182,377.919" transform="translate(-78.762 -134.406)" fill="none"/>
      <path id="Tracé_616" data-name="Tracé 616" d="M284.114,425.162c-25.622,14.987-50.726,28.195-71.031,25.622,0,0-19.873,2.5-22.842-14.037-2.262-42.353,82.892-45.564,82.892-45.564" transform="translate(-109.948 -122.583)" fill="none" stroke="#2a3f40" stroke-miterlimit="10" stroke-width="0.913"/>
      <g id="Groupe_832" data-name="Groupe 832" transform="translate(167.661 13.158)">
        <ellipse id="Ellipse_206" data-name="Ellipse 206" cx="13.346" cy="19.458" rx="13.346" ry="19.458" transform="translate(0 0.467) rotate(-1.003)" fill="#22ae5c"/>
        <ellipse id="Ellipse_207" data-name="Ellipse 207" cx="12.828" cy="14.295" rx="12.828" ry="14.295" transform="translate(0.246 10.971) rotate(-1.003)" fill="#e9d086"/>
        <ellipse id="Ellipse_208" data-name="Ellipse 208" cx="10.065" cy="11.861" rx="10.065" ry="11.861" transform="translate(3.292 14.79) rotate(-1.003)" fill="#2e8fa3"/>
      </g>
      <path id="Tracé_617" data-name="Tracé 617" d="M251.063,319.471c-15.315-8.616-43.561-7.511-34.635-24.31C224.751,284.957,240.911,299.322,251.063,319.471Z" transform="translate(-88.086 -211.182)" fill="#eca93f" stroke="#2a3f40" stroke-miterlimit="10" stroke-width="0.913"/>
      <path id="Tracé_618" data-name="Tracé 618" d="M252.925,319.445c-5.007-11.862-12.051-21.03-23.723-24.068-11.1-2.486-10.342-10.929-1.847-16.316C242.116,272.327,250.231,287.158,252.925,319.445Z" transform="translate(-82.557 -223.95)" fill="#eca93f" stroke="#2a3f40" stroke-miterlimit="10" stroke-width="0.913"/>
      <path id="Tracé_619" data-name="Tracé 619" d="M250.571,313.016c-3.332-11.672-6.734-22.739-11.033-27.245-6.423-8.892,3.988-16.9,11.033-3.867C253.558,291.192,252.574,301.879,250.571,313.016Z" transform="translate(-67.756 -226.102)" fill="#eca93f" stroke="#2a3f40" stroke-miterlimit="10" stroke-width="0.913"/>
      <path id="Tracé_620" data-name="Tracé 620" d="M245.049,340.986c3.85,3,8.616,4.454,15.177,2.918,12.984-3.436,15.4-13.709,13.83-26.572C254.855,313.81,244.738,321.165,245.049,340.986Z" transform="translate(-61.059 -189.171)" fill="#fefdfc"/>
      <path id="Tracé_621" data-name="Tracé 621" d="M260.909,328.736c.224,3.453-.742,5.594-3.867,5.784-4.247.259-10.584-2.78-11.015-6.975-.449-4.489.881-7.165,3.194-7.7C253.364,318.877,260.6,324.16,260.909,328.736Z" transform="translate(-60.258 -186.278)" fill="#21b061"/>
      <path id="Tracé_622" data-name="Tracé 622" d="M245.071,341.707q-1.062-29.654,28.972-24.621" transform="translate(-61.064 -189.288)" fill="none" stroke="#2a3f40" stroke-miterlimit="10" stroke-width="0.913"/>
      <path id="Tracé_623" data-name="Tracé 623" d="M260.7,325.7s.363,3.85-2.348,5.145c-6.492,1.209-12.742-7.113-12.742-7.113" transform="translate(-60.551 -182.709)" fill="none" stroke="#2a3f40" stroke-miterlimit="10" stroke-width="0.913"/>
      <path id="Tracé_624" data-name="Tracé 624" d="M253.772,334.849q6.423-.881,10.273-7.355" transform="translate(-53.276 -179.356)" fill="none" stroke="#2a3f40" stroke-miterlimit="10" stroke-width="0.913"/>
      <path id="Tracé_625" data-name="Tracé 625" d="M246.451,321.46s4.593,6.06,5.957,5.18.449-3.211.449-3.211" transform="translate(-59.802 -184.735)" fill="none" stroke="#2a3f40" stroke-miterlimit="10" stroke-width="0.913"/>
      <g id="Groupe_833" data-name="Groupe 833" transform="translate(88.859 288.964)">
        <ellipse id="Ellipse_209" data-name="Ellipse 209" cx="19.458" cy="13.346" rx="19.458" ry="13.346" transform="translate(0 9.025) rotate(-13.409)" fill="#22ae5c"/>
        <ellipse id="Ellipse_210" data-name="Ellipse 210" cx="14.295" cy="12.828" rx="14.295" ry="12.828" transform="translate(10.444 7.553) rotate(-13.409)" fill="#e9d086"/>
        <ellipse id="Ellipse_211" data-name="Ellipse 211" cx="11.861" cy="10.065" rx="11.861" ry="10.065" transform="translate(14.799 9.124) rotate(-13.409)" fill="#2e8fa3"/>
      </g>
      <g id="Groupe_834" data-name="Groupe 834" transform="translate(83.678 234.462)">
        <ellipse id="Ellipse_212" data-name="Ellipse 212" cx="19.457" cy="13.346" rx="19.457" ry="13.346" transform="matrix(0.995, -0.1, 0.1, 0.995, 0, 3.907)" fill="#22ae5c"/>
        <ellipse id="Ellipse_213" data-name="Ellipse 213" cx="14.295" cy="12.828" rx="14.295" ry="12.828" transform="matrix(0.995, -0.1, 0.1, 0.995, 10.541, 3.835)" fill="#e9d086"/>
        <ellipse id="Ellipse_214" data-name="Ellipse 214" cx="11.861" cy="10.065" rx="11.861" ry="10.065" transform="matrix(0.995, -0.1, 0.1, 0.995, 14.638, 5.961)" fill="#2e8fa3"/>
      </g>
      <g id="Groupe_835" data-name="Groupe 835" transform="translate(17.181 280.287)">
        <ellipse id="Ellipse_215" data-name="Ellipse 215" cx="13.346" cy="19.458" rx="13.346" ry="19.458" transform="translate(0 26.477) rotate(-82.709)" fill="#22ae5c"/>
        <ellipse id="Ellipse_216" data-name="Ellipse 216" cx="12.828" cy="14.296" rx="12.828" ry="14.296" transform="translate(10.422 27.756) rotate(-82.709)" fill="#e9d086"/>
        <ellipse id="Ellipse_217" data-name="Ellipse 217" cx="10.066" cy="11.861" rx="10.066" ry="11.861" transform="translate(14.651 25.273) rotate(-82.709)" fill="#2e8fa3"/>
      </g>
      <g id="Groupe_836" data-name="Groupe 836" transform="translate(16.216 228.884)">
        <ellipse id="Ellipse_218" data-name="Ellipse 218" cx="13.347" cy="19.459" rx="13.347" ry="19.459" transform="matrix(0.222, -0.975, 0.975, 0.222, 0, 26.025)" fill="#22ae5c"/>
        <ellipse id="Ellipse_219" data-name="Ellipse 219" cx="12.829" cy="14.296" rx="12.829" ry="14.296" transform="matrix(0.222, -0.975, 0.975, 0.222, 10.248, 28.311)" fill="#e9d086"/>
        <ellipse id="Ellipse_220" data-name="Ellipse 220" cx="10.066" cy="11.862" rx="10.066" ry="11.862" transform="matrix(0.222, -0.975, 0.975, 0.222, 14.692, 26.262)" fill="#2e8fa3"/>
      </g>
      <g id="Groupe_837" data-name="Groupe 837" transform="translate(86.397 176.973)">
        <ellipse id="Ellipse_221" data-name="Ellipse 221" cx="13.347" cy="19.459" rx="13.347" ry="19.459" transform="translate(0 26.089) rotate(-77.784)" fill="#22ae5c"/>
        <ellipse id="Ellipse_222" data-name="Ellipse 222" cx="12.829" cy="14.297" rx="12.829" ry="14.297" transform="translate(10.281 28.247) rotate(-77.784)" fill="#e9d086"/>
        <ellipse id="Ellipse_223" data-name="Ellipse 223" cx="10.066" cy="11.862" rx="10.066" ry="11.862" transform="translate(14.7 26.15) rotate(-77.784)" fill="#2e8fa3"/>
      </g>
      <g id="Groupe_838" data-name="Groupe 838" transform="translate(29.787 138.996)">
        <ellipse id="Ellipse_224" data-name="Ellipse 224" cx="13.347" cy="19.459" rx="13.347" ry="19.459" transform="translate(0 22.139) rotate(-56.035)" fill="#22ae5c"/>
        <ellipse id="Ellipse_225" data-name="Ellipse 225" cx="12.829" cy="14.296" rx="12.829" ry="14.296" transform="translate(8.746 27.949) rotate(-56.035)" fill="#e9d086"/>
        <ellipse id="Ellipse_226" data-name="Ellipse 226" cx="10.066" cy="11.862" rx="10.066" ry="11.862" transform="translate(13.613 27.634) rotate(-56.035)" fill="#2e8fa3"/>
      </g>
      <g id="Groupe_839" data-name="Groupe 839" transform="translate(13.073 178.967)">
        <ellipse id="Ellipse_227" data-name="Ellipse 227" cx="13.347" cy="19.459" rx="13.347" ry="19.459" transform="translate(0 22.139) rotate(-56.035)" fill="#22ae5c"/>
        <ellipse id="Ellipse_228" data-name="Ellipse 228" cx="12.829" cy="14.296" rx="12.829" ry="14.296" transform="translate(8.736 27.963) rotate(-56.035)" fill="#e9d086"/>
        <ellipse id="Ellipse_229" data-name="Ellipse 229" cx="10.066" cy="11.862" rx="10.066" ry="11.862" transform="translate(13.613 27.634) rotate(-56.035)" fill="#2e8fa3"/>
      </g>
      <g id="Groupe_840" data-name="Groupe 840" transform="translate(56.007 85.049)">
        <ellipse id="Ellipse_230" data-name="Ellipse 230" cx="13.347" cy="19.459" rx="13.347" ry="19.459" transform="translate(0 22.139) rotate(-56.035)" fill="#22ae5c"/>
        <ellipse id="Ellipse_231" data-name="Ellipse 231" cx="12.829" cy="14.296" rx="12.829" ry="14.296" transform="translate(8.736 27.963) rotate(-56.035)" fill="#e9d086"/>
        <ellipse id="Ellipse_232" data-name="Ellipse 232" cx="10.066" cy="11.862" rx="10.066" ry="11.862" transform="translate(13.603 27.648) rotate(-56.035)" fill="#2e8fa3"/>
      </g>
      <g id="Groupe_841" data-name="Groupe 841" transform="translate(101.818 119.807)">
        <ellipse id="Ellipse_233" data-name="Ellipse 233" cx="13.347" cy="19.459" rx="13.347" ry="19.459" transform="translate(0 22.139) rotate(-56.035)" fill="#22ae5c"/>
        <ellipse id="Ellipse_234" data-name="Ellipse 234" cx="12.829" cy="14.296" rx="12.829" ry="14.296" transform="translate(8.736 27.963) rotate(-56.035)" fill="#e9d086"/>
        <ellipse id="Ellipse_235" data-name="Ellipse 235" cx="10.066" cy="11.862" rx="10.066" ry="11.862" transform="translate(13.613 27.634) rotate(-56.035)" fill="#2e8fa3"/>
      </g>
      <g id="Groupe_842" data-name="Groupe 842" transform="translate(92.904 31.482)">
        <ellipse id="Ellipse_236" data-name="Ellipse 236" cx="13.346" cy="19.458" rx="13.346" ry="19.458" transform="matrix(0.658, -0.753, 0.753, 0.658, 0, 20.102)" fill="#22ae5c"/>
        <ellipse id="Ellipse_237" data-name="Ellipse 237" cx="12.828" cy="14.296" rx="12.828" ry="14.296" transform="matrix(0.658, -0.753, 0.753, 0.658, 7.935, 26.963)" fill="#e9d086"/>
        <ellipse id="Ellipse_238" data-name="Ellipse 238" cx="10.066" cy="11.861" rx="10.066" ry="11.861" transform="matrix(0.658, -0.753, 0.753, 0.658, 12.814, 27.266)" fill="#2e8fa3"/>
      </g>
      <g id="Groupe_843" data-name="Groupe 843" transform="translate(230.879 8.078)">
        <ellipse id="Ellipse_239" data-name="Ellipse 239" cx="19.458" cy="13.346" rx="19.458" ry="13.346" transform="matrix(0.628, -0.778, 0.778, 0.628, 0.062, 30.285)" fill="#22ae5c"/>
        <ellipse id="Ellipse_240" data-name="Ellipse 240" cx="14.296" cy="12.828" rx="14.296" ry="12.828" transform="matrix(0.628, -0.778, 0.778, 0.628, 0, 30.459)" fill="#e9d086"/>
        <ellipse id="Ellipse_241" data-name="Ellipse 241" cx="11.861" cy="10.066" rx="11.861" ry="10.066" transform="matrix(0.628, -0.778, 0.778, 0.628, 2.951, 31.558)" fill="#2e8fa3"/>
      </g>
      <g id="Groupe_844" data-name="Groupe 844" transform="translate(224.836 62.36)">
        <ellipse id="Ellipse_242" data-name="Ellipse 242" cx="15.798" cy="10.359" rx="15.798" ry="10.359" transform="matrix(0.628, -0.778, 0.778, 0.628, 0.062, 24.588)" fill="#22ae5c"/>
        <ellipse id="Ellipse_243" data-name="Ellipse 243" cx="11.602" cy="9.962" rx="11.602" ry="9.962" transform="matrix(0.628, -0.778, 0.778, 0.628, 0, 24.719)" fill="#e9d086"/>
        <ellipse id="Ellipse_244" data-name="Ellipse 244" cx="9.634" cy="7.804" rx="9.634" ry="7.804" transform="matrix(0.628, -0.778, 0.778, 0.628, 2.313, 25.567)" fill="#2e8fa3"/>
      </g>
      <g id="Groupe_845" data-name="Groupe 845" transform="translate(287.407 30.511)">
        <ellipse id="Ellipse_245" data-name="Ellipse 245" cx="19.458" cy="13.346" rx="19.458" ry="13.346" transform="matrix(0.628, -0.778, 0.778, 0.628, 0.062, 30.285)" fill="#22ae5c"/>
        <ellipse id="Ellipse_246" data-name="Ellipse 246" cx="14.296" cy="12.828" rx="14.296" ry="12.828" transform="matrix(0.628, -0.778, 0.778, 0.628, 0, 30.459)" fill="#e9d086"/>
        <ellipse id="Ellipse_247" data-name="Ellipse 247" cx="11.861" cy="10.066" rx="11.861" ry="10.066" transform="matrix(0.628, -0.778, 0.778, 0.628, 2.951, 31.558)" fill="#2e8fa3"/>
      </g>
      <g id="Groupe_846" data-name="Groupe 846" transform="translate(265.658 91.853)">
        <ellipse id="Ellipse_248" data-name="Ellipse 248" cx="19.459" cy="13.347" rx="19.459" ry="13.347" transform="translate(0.116 22.299) rotate(-34.958)" fill="#22ae5c"/>
        <ellipse id="Ellipse_249" data-name="Ellipse 249" cx="14.296" cy="12.829" rx="14.296" ry="12.829" transform="translate(0 22.446) rotate(-34.958)" fill="#e9d086"/>
        <ellipse id="Ellipse_250" data-name="Ellipse 250" cx="11.862" cy="10.066" rx="11.862" ry="10.066" transform="translate(2.531 24.334) rotate(-34.958)" fill="#2e8fa3"/>
      </g>
      <g id="Groupe_847" data-name="Groupe 847" transform="translate(305 132.405)">
        <ellipse id="Ellipse_251" data-name="Ellipse 251" cx="19.458" cy="13.346" rx="19.458" ry="13.346" transform="translate(0.11 21.085) rotate(-32.806)" fill="#22ae5c"/>
        <ellipse id="Ellipse_252" data-name="Ellipse 252" cx="14.296" cy="12.828" rx="14.296" ry="12.828" transform="translate(0 21.224) rotate(-32.806)" fill="#e9d086"/>
        <ellipse id="Ellipse_253" data-name="Ellipse 253" cx="11.861" cy="10.066" rx="11.861" ry="10.066" transform="translate(2.454 23.195) rotate(-32.806)" fill="#2e8fa3"/>
      </g>
      <g id="Groupe_848" data-name="Groupe 848" transform="translate(357.866 104.894)">
        <ellipse id="Ellipse_254" data-name="Ellipse 254" cx="19.459" cy="13.346" rx="19.459" ry="13.346" transform="translate(0.123 19.12) rotate(-29.426)" fill="#22ae5c"/>
        <ellipse id="Ellipse_255" data-name="Ellipse 255" cx="14.296" cy="12.828" rx="14.296" ry="12.828" transform="translate(0 19.243) rotate(-29.426)" fill="#e9d086"/>
        <ellipse id="Ellipse_256" data-name="Ellipse 256" cx="11.862" cy="10.066" rx="11.862" ry="10.066" transform="translate(2.328 21.374) rotate(-29.426)" fill="#2e8fa3"/>
      </g>
      <g id="Groupe_849" data-name="Groupe 849" transform="translate(326.407 65.386)">
        <ellipse id="Ellipse_257" data-name="Ellipse 257" cx="19.459" cy="13.347" rx="19.459" ry="13.347" transform="translate(0.116 22.299) rotate(-34.958)" fill="#22ae5c"/>
        <ellipse id="Ellipse_258" data-name="Ellipse 258" cx="14.296" cy="12.829" rx="14.296" ry="12.829" transform="translate(0 22.446) rotate(-34.958)" fill="#e9d086"/>
        <ellipse id="Ellipse_259" data-name="Ellipse 259" cx="11.862" cy="10.066" rx="11.862" ry="10.066" transform="translate(2.535 24.31) rotate(-34.958)" fill="#2e8fa3"/>
      </g>
      <g id="Groupe_850" data-name="Groupe 850" transform="translate(340.306 194.052)">
        <ellipse id="Ellipse_260" data-name="Ellipse 260" cx="13.347" cy="19.459" rx="13.347" ry="19.459" transform="matrix(0.075, -0.997, 0.997, 0.075, 0.098, 26.618)" fill="#22ae5c"/>
        <ellipse id="Ellipse_261" data-name="Ellipse 261" cx="12.829" cy="14.296" rx="12.829" ry="14.296" transform="matrix(0.075, -0.997, 0.997, 0.075, 0, 25.625)" fill="#e9d086"/>
        <ellipse id="Ellipse_262" data-name="Ellipse 262" cx="10.066" cy="11.862" rx="10.066" ry="11.862" transform="matrix(0.075, -0.997, 0.997, 0.075, 1.171, 23.167)" fill="#2e8fa3"/>
      </g>
      <g id="Groupe_851" data-name="Groupe 851" transform="translate(402.69 201.059)">
        <ellipse id="Ellipse_263" data-name="Ellipse 263" cx="13.347" cy="19.459" rx="13.347" ry="19.459" transform="matrix(0.075, -0.997, 0.997, 0.075, 0.098, 26.618)" fill="#22ae5c"/>
        <ellipse id="Ellipse_264" data-name="Ellipse 264" cx="12.829" cy="14.296" rx="12.829" ry="14.296" transform="matrix(0.075, -0.997, 0.997, 0.075, 0, 25.625)" fill="#e9d086"/>
        <ellipse id="Ellipse_265" data-name="Ellipse 265" cx="10.066" cy="11.862" rx="10.066" ry="11.862" transform="matrix(0.075, -0.997, 0.997, 0.075, 1.188, 23.169)" fill="#2e8fa3"/>
      </g>
      <g id="Groupe_852" data-name="Groupe 852" transform="translate(395.926 149.452)">
        <ellipse id="Ellipse_266" data-name="Ellipse 266" cx="19.459" cy="13.347" rx="19.459" ry="13.347" transform="translate(0.17 8.62) rotate(-12.797)" fill="#22ae5c"/>
        <ellipse id="Ellipse_267" data-name="Ellipse 267" cx="14.297" cy="12.829" rx="14.297" ry="12.829" transform="translate(0 8.71) rotate(-12.797)" fill="#e9d086"/>
        <ellipse id="Ellipse_268" data-name="Ellipse 268" cx="11.862" cy="10.066" rx="11.862" ry="10.066" transform="translate(1.638 11.399) rotate(-12.797)" fill="#2e8fa3"/>
      </g>
      <g id="Groupe_853" data-name="Groupe 853" transform="translate(346.119 246.747)">
        <ellipse id="Ellipse_269" data-name="Ellipse 269" cx="13.347" cy="19.459" rx="13.347" ry="19.459" transform="translate(0 26.079) rotate(-77.684)" fill="#22ae5c"/>
        <ellipse id="Ellipse_270" data-name="Ellipse 270" cx="12.829" cy="14.296" rx="12.829" ry="14.296" transform="translate(0.043 25.081) rotate(-77.684)" fill="#e9d086"/>
        <ellipse id="Ellipse_271" data-name="Ellipse 271" cx="10.066" cy="11.862" rx="10.066" ry="11.862" transform="translate(1.558 22.811) rotate(-77.684)" fill="#2e8fa3"/>
      </g>
      <g id="Groupe_854" data-name="Groupe 854" transform="translate(420.671 253.932)">
        <ellipse id="Ellipse_272" data-name="Ellipse 272" cx="13.347" cy="19.459" rx="13.347" ry="19.459" transform="matrix(0.075, -0.997, 0.997, 0.075, 0.098, 26.618)" fill="#22ae5c"/>
        <ellipse id="Ellipse_273" data-name="Ellipse 273" cx="12.829" cy="14.296" rx="12.829" ry="14.296" transform="matrix(0.075, -0.997, 0.997, 0.075, 0, 25.625)" fill="#e9d086"/>
        <ellipse id="Ellipse_274" data-name="Ellipse 274" cx="10.066" cy="11.862" rx="10.066" ry="11.862" transform="matrix(0.075, -0.997, 0.997, 0.075, 1.188, 23.169)" fill="#2e8fa3"/>
      </g>
    </g>
  </g>
</svg>
