<svg xmlns="http://www.w3.org/2000/svg" xmlns:xlink="http://www.w3.org/1999/xlink" width="210" height="152" viewBox="0 0 210 152">
  <defs>
    <clipPath id="clip-path">
      <rect id="Rectangle_504" data-name="Rectangle 504" width="210" height="152" transform="translate(0.09 0.48)" fill="#fff" stroke="#707070" stroke-width="1"/>
    </clipPath>
  </defs>
  <g id="Groupe_de_masques_13" data-name="Groupe de masques 13" transform="translate(-0.09 -0.48)" clip-path="url(#clip-path)">
    <g id="CARTE" transform="translate(5.855 0.129)">
      <g id="Calque_5" transform="translate(0)">
        <g id="Calque_4_00000068640253746253458680000013772745730879485372_" transform="translate(0)">
          <g id="Groupe_1521" data-name="Groupe 1521">
            <path id="Tracé_2445" data-name="Tracé 2445" d="M130.8,204.957c.072,3.972-1.3,8.015-1.589,9.676s3.105,1.228,3.105,1.228a1.223,1.223,0,0,0,1.155,1.083c1.011,0,4.621-1.3,4.766-3.177s-1.516-8.16-1.516-8.16" transform="translate(-43.782 -76.288)" fill="#eca93f" stroke="#2a3f40" stroke-miterlimit="10" stroke-width="0.304"/>
            <path id="Tracé_2446" data-name="Tracé 2446" d="M133.981,206.185a15.805,15.805,0,0,1-1.011,8.882c.722,1.372,2.311,1.733,4.044,1.95,0,0,1.155,1.083,1.733,1.083s1.3-1.516,1.95-1.877,1.95,1.083,3.177-.144c.361-1.805-2.6-11.626-2.094-11.7" transform="translate(-38.588 -77.082)" fill="#eca93f" stroke="#2a3f40" stroke-miterlimit="10" stroke-width="0.304"/>
            <path id="Tracé_2447" data-name="Tracé 2447" d="M236.707,184.449v-.939c0-15.02-17.4-27.223-38.777-27.223a49.633,49.633,0,0,0-25.2,6.5c-22.457-2.022-55.674,11.987-42.821,15.092a12.524,12.524,0,0,0-15.814,1.733c-4.477,4.694-3.683,12.492.578,18.919-5.127-1.228-9.6-1.228-12.276,2.744-5.2,4.4-1.228,16.1,1.877,16.825-7.293-8.81-14.442,14.659-2.455,11.554.722-.217.578-1.372.65-.578-.144,6.21-5.416,11.626-5.849,16.608-1.155,13.359,15.309,26.79,38.777,27.223,19.786.361,36.033-10.326,38.488-23.757a40.571,40.571,0,0,0,3.755-8.015c7,16.319,25.274,28.018,46.575,28.018,27.44,0,52.064-15.742,51.2-43.687C274.761,205.318,261.547,188.348,236.707,184.449Z" transform="translate(-90.261 -143.226)" fill="#84c7cb"/>
            <ellipse id="Ellipse_909" data-name="Ellipse 909" cx="22.024" cy="19.713" rx="22.024" ry="19.713" transform="translate(143.124 104.335)" fill="#84c7cb"/>
            <ellipse id="Ellipse_910" data-name="Ellipse 910" cx="19.136" cy="12.781" rx="19.136" ry="12.781" transform="translate(124.566 26.276)" fill="#84c7cb"/>
            <ellipse id="Ellipse_911" data-name="Ellipse 911" cx="8.737" cy="9.098" rx="8.737" ry="9.098" transform="translate(172.947 91.12)" fill="#84c7cb"/>
            <ellipse id="Ellipse_912" data-name="Ellipse 912" cx="19.136" cy="12.781" rx="19.136" ry="12.781" transform="translate(125.432 32.919)" fill="#84c7cb"/>
            <ellipse id="Ellipse_913" data-name="Ellipse 913" cx="9.46" cy="11.193" rx="9.46" ry="11.193" transform="matrix(0.739, -0.674, 0.674, 0.739, 0, 80.692)" fill="#84c7cb"/>
            <path id="Tracé_2448" data-name="Tracé 2448" d="M148.853,203.164c.867,3.466-2.094,3.538-18.63,12.131-10.831,5.632-22.674,1.733-22.818-2.888-.144-3.538,6.354-9.965,21.446-8.376C140.983,205.258,147.987,199.7,148.853,203.164Z" transform="translate(-73.751 -80.343)" fill="#84c7cb"/>
            <path id="Tracé_2449" data-name="Tracé 2449" d="M119.387,173.826c-.867-12.926,1.372-19.28,12.637-21.807,9.532-2.094,15.092,7.365,15.02,16.536" transform="translate(-57.5 -149.5)" fill="#84c7cb"/>
            <path id="Tracé_2450" data-name="Tracé 2450" d="M138.727,171.546c0,7.943-8.81,12.131-16.753,12.131s-13.72-7.221-13.72-15.164,5.055-12.926,13-12.926S138.727,163.6,138.727,171.546Z" transform="translate(-72.579 -144.187)" fill="#84c7cb"/>
            <path id="Tracé_2451" data-name="Tracé 2451" d="M130.494,207.706c.144,8.81-3.972,15.02-20.219,16.031-9.748.65-16.247-5.488-16.247-13.359,0-8.665,8.015-14.3,17.908-14.3S130.421,199.836,130.494,207.706Z" transform="translate(-92.147 -88.496)" fill="#84c7cb"/>
            <path id="Tracé_2452" data-name="Tracé 2452" d="M94.677,195.059C92.583,201.63,99.66,207.7,99.66,207.7l2.816-17.908S95.977,191.449,94.677,195.059Z" transform="translate(-91.786 -97.151)" fill="#84c7cb"/>
            <g id="Groupe_1473" data-name="Groupe 1473" transform="translate(22.822 39.923)">
              <path id="Tracé_2453" data-name="Tracé 2453" d="M116.054,194.925c-4.983,1.228-9.676,1.95-13,.722" transform="translate(-102.551 -130.008)" fill="none" stroke="#7ac0ad" stroke-miterlimit="10" stroke-width="0.304"/>
              <path id="Tracé_2454" data-name="Tracé 2454" d="M102.844,190.7a21.972,21.972,0,0,0,3.827,11.409,15.254,15.254,0,0,0-3.538,9.315" transform="translate(-102.844 -135.82)" fill="none" stroke="#7ac0ad" stroke-miterlimit="10" stroke-width="0.304"/>
              <path id="Tracé_2455" data-name="Tracé 2455" d="M105.648,210.39a11.8,11.8,0,0,1,3.683-8.737,43.767,43.767,0,0,1-5.271-10.831" transform="translate(-101.171 -135.653)" fill="none" stroke="#7ac0ad" stroke-miterlimit="10" stroke-width="0.304"/>
              <path id="Tracé_2456" data-name="Tracé 2456" d="M111.045,200.733a21.448,21.448,0,0,1-5.344-9.821" transform="translate(-98.913 -135.527)" fill="none" stroke="#7ac0ad" stroke-miterlimit="10" stroke-width="0.304"/>
              <path id="Tracé_2457" data-name="Tracé 2457" d="M112.66,198.783a21.845,21.845,0,0,1-5.56-7.871" transform="translate(-96.99 -135.527)" fill="none" stroke="#7ac0ad" stroke-miterlimit="10" stroke-width="0.304"/>
              <g id="Groupe_1472" data-name="Groupe 1472" transform="translate(7.654)">
                <path id="Tracé_2458" data-name="Tracé 2458" d="M114.476,174.8c-1.444-1.95-1.661-2.311-5.127-3.105" transform="translate(-101.55 -161.951)" fill="none" stroke="#7ac0ad" stroke-miterlimit="10" stroke-width="0.304"/>
                <path id="Tracé_2459" data-name="Tracé 2459" d="M106.066,187.67a27.832,27.832,0,0,1,10.832-8.81,21.4,21.4,0,0,1,3.538-11.265" transform="translate(-106.066 -167.596)" fill="none" stroke="#7ac0ad" stroke-miterlimit="10" stroke-width="0.304"/>
                <path id="Tracé_2460" data-name="Tracé 2460" d="M121.716,168.964c-2.239,3.177-4.982,5.7-4.694,9.821-4.477,2.166-6.788,5.56-9.893,8.3" transform="translate(-104.603 -165.714)" fill="none" stroke="#7ac0ad" stroke-miterlimit="10" stroke-width="0.304"/>
                <path id="Tracé_2461" data-name="Tracé 2461" d="M113.841,175.773c-3.9,1.155-4.188,2.022-5.344,4.26" transform="translate(-102.721 -156.349)" fill="none" stroke="#7ac0ad" stroke-miterlimit="10" stroke-width="0.304"/>
                <path id="Tracé_2462" data-name="Tracé 2462" d="M113.347,177.385c-2.094.433-2.744.433-3.755,2.527" transform="translate(-101.216 -154.133)" fill="none" stroke="#7ac0ad" stroke-miterlimit="10" stroke-width="0.304"/>
              </g>
            </g>
            <g id="Groupe_1474" data-name="Groupe 1474" transform="translate(24.844 61.875)">
              <path id="Tracé_2463" data-name="Tracé 2463" d="M112.257,184.692c-3.466-.794-3.972-.867-6.86-3.538" transform="translate(-101.353 -170.9)" fill="none" stroke="#7ac0ad" stroke-miterlimit="10" stroke-width="0.304"/>
              <path id="Tracé_2464" data-name="Tracé 2464" d="M111.277,176.837c-1.444,3.611-1.444,7.727-.433,12.348a14.373,14.373,0,0,0-7.149,7" transform="translate(-103.695 -176.837)" fill="none" stroke="#7ac0ad" stroke-miterlimit="10" stroke-width="0.304"/>
              <path id="Tracé_2465" data-name="Tracé 2465" d="M105.61,196.353c1.228-2.961,1.733-5.488,5.344-6.643-1.011-4.549.144-8.521.505-12.2" transform="translate(-101.061 -175.918)" fill="none" stroke="#7ac0ad" stroke-miterlimit="10" stroke-width="0.304"/>
              <path id="Tracé_2466" data-name="Tracé 2466" d="M110.93,185.362c-1.516-3.755-1.589-3.033-1.083-7" transform="translate(-95.621 -174.747)" fill="none" stroke="#7ac0ad" stroke-miterlimit="10" stroke-width="0.304"/>
              <path id="Tracé_2467" data-name="Tracé 2467" d="M112.06,183.629c-1.589-2.888-1.155-3.1-.65-4.694" transform="translate(-93.719 -173.952)" fill="none" stroke="#7ac0ad" stroke-miterlimit="10" stroke-width="0.304"/>
            </g>
            <g id="Groupe_1475" data-name="Groupe 1475" transform="translate(22.316 80.867)">
              <line id="Ligne_264" data-name="Ligne 264" x2="16.825" y2="2.816" transform="translate(0 7.293)" fill="none" stroke="#7ac0ad" stroke-miterlimit="10" stroke-width="0.304"/>
              <path id="Tracé_2468" data-name="Tracé 2468" d="M104.158,184.833a11.763,11.763,0,0,0,1.589,7.871,6.03,6.03,0,0,0-2.816,6.5" transform="translate(-102.353 -184.833)" fill="none" stroke="#7ac0ad" stroke-miterlimit="10" stroke-width="0.304"/>
              <path id="Tracé_2469" data-name="Tracé 2469" d="M105.926,185.137a10.574,10.574,0,0,0,1.589,7.871c-1.516,1.444-2.239,3.9-2.816,6.5" transform="translate(-99.788 -184.415)" fill="none" stroke="#7ac0ad" stroke-miterlimit="10" stroke-width="0.304"/>
              <path id="Tracé_2470" data-name="Tracé 2470" d="M107.9,185.927a8.2,8.2,0,0,0,1.589,6.788c-2.094,1.083-2.455,3.394-2.816,5.632" transform="translate(-97.07 -183.327)" fill="none" stroke="#7ac0ad" stroke-miterlimit="10" stroke-width="0.304"/>
              <path id="Tracé_2471" data-name="Tracé 2471" d="M109.634,185.805l1.589,6.788a9.551,9.551,0,0,0-2.816,5.632" transform="translate(-94.687 -183.495)" fill="none" stroke="#7ac0ad" stroke-miterlimit="10" stroke-width="0.304"/>
            </g>
            <g id="Groupe_1476" data-name="Groupe 1476" transform="translate(22.1 114.228)">
              <path id="Tracé_2472" data-name="Tracé 2472" d="M116.111,202.434c-4.766,1.733-9.315,2.961-12.781,2.238" transform="translate(-101.452 -193.986)" fill="none" stroke="#7ac0ad" stroke-miterlimit="10" stroke-width="0.304"/>
              <path id="Tracé_2473" data-name="Tracé 2473" d="M102.54,199.181a19.924,19.924,0,0,0,5.271,10.109,13.238,13.238,0,0,0-2.311,8.954" transform="translate(-102.54 -198.459)" fill="none" stroke="#7ac0ad" stroke-miterlimit="10" stroke-width="0.304"/>
              <path id="Tracé_2474" data-name="Tracé 2474" d="M107.83,217.017a10.441,10.441,0,0,1,2.527-8.521,39.545,39.545,0,0,1-6.571-9.315" transform="translate(-100.825 -198.459)" fill="none" stroke="#7ac0ad" stroke-miterlimit="10" stroke-width="0.304"/>
              <path id="Tracé_2475" data-name="Tracé 2475" d="M112,207.508a19.942,19.942,0,0,1-6.571-8.449" transform="translate(-98.568 -198.627)" fill="none" stroke="#7ac0ad" stroke-miterlimit="10" stroke-width="0.304"/>
              <path id="Tracé_2476" data-name="Tracé 2476" d="M113.367,205.521a22.184,22.184,0,0,1-6.571-6.643" transform="translate(-96.686 -198.877)" fill="none" stroke="#7ac0ad" stroke-miterlimit="10" stroke-width="0.304"/>
            </g>
            <g id="Groupe_1477" data-name="Groupe 1477" transform="translate(51.489 93.214)">
              <line id="Ligne_265" data-name="Ligne 265" y1="1.805" x2="14.225" transform="translate(0 10.615)" fill="none" stroke="#7ac0ad" stroke-miterlimit="10" stroke-width="0.304"/>
              <path id="Tracé_2477" data-name="Tracé 2477" d="M115.156,190.031c-.578,3.1.506,7.943,2.022,11.915a20.3,20.3,0,0,0-1.228,9.893" transform="translate(-114.795 -190.031)" fill="none" stroke="#7ac0ad" stroke-miterlimit="10" stroke-width="0.304"/>
              <path id="Tracé_2478" data-name="Tracé 2478" d="M117.348,190.153a30.63,30.63,0,0,0,1.733,11.193,15.865,15.865,0,0,0-1.589,9.46" transform="translate(-111.571 -189.864)" fill="none" stroke="#7ac0ad" stroke-miterlimit="10" stroke-width="0.304"/>
              <path id="Tracé_2479" data-name="Tracé 2479" d="M119.448,190.548a20.591,20.591,0,0,0,1.733,9.6c-.939,1.805-.794,4.983-.65,8.3" transform="translate(-108.761 -189.32)" fill="none" stroke="#7ac0ad" stroke-miterlimit="10" stroke-width="0.304"/>
              <path id="Tracé_2480" data-name="Tracé 2480" d="M121.453,190.7c-.578.939.072,5.993,1.011,6.932" transform="translate(-106.217 -189.111)" fill="none" stroke="#7ac0ad" stroke-miterlimit="10" stroke-width="0.304"/>
              <path id="Tracé_2481" data-name="Tracé 2481" d="M121.722,197.631" transform="translate(-105.547 -179.578)" fill="none" stroke="#7ac0ad" stroke-miterlimit="10" stroke-width="0.304"/>
              <path id="Tracé_2482" data-name="Tracé 2482" d="M121.874,196.172" transform="translate(-105.338 -181.585)" fill="none" stroke="#7ac0ad" stroke-miterlimit="10" stroke-width="0.304"/>
            </g>
            <g id="Groupe_1478" data-name="Groupe 1478" transform="translate(53.222 72.201)">
              <line id="Ligne_266" data-name="Ligne 266" x2="24.551" y2="0.578" transform="translate(0 11.698)" fill="none" stroke="#7ac0ad" stroke-miterlimit="10" stroke-width="0.304"/>
              <path id="Tracé_2483" data-name="Tracé 2483" d="M116.426,181.185c-.578,2.6-.578,7.871,2.239,11.7a12.007,12.007,0,0,0-1.589,9.532" transform="translate(-114.982 -181.185)" fill="none" stroke="#7ac0ad" stroke-miterlimit="10" stroke-width="0.304"/>
              <path id="Tracé_2484" data-name="Tracé 2484" d="M119.176,182.036a23.956,23.956,0,0,0,1.877,9.748c-1.805,2.888-2.744,7.149-2.311,9.676" transform="translate(-111.522 -180.014)" fill="none" stroke="#7ac0ad" stroke-miterlimit="10" stroke-width="0.304"/>
              <path id="Tracé_2485" data-name="Tracé 2485" d="M121.039,182.34c-.289,3.972.144,5.416,2.311,9.532-1.372,2.094-1.083,6.282-.722,10.4" transform="translate(-108.33 -179.596)" fill="none" stroke="#7ac0ad" stroke-miterlimit="10" stroke-width="0.304"/>
              <path id="Tracé_2486" data-name="Tracé 2486" d="M125.283,183.252c-.794.722.722,5.271,2.311,6.282" transform="translate(-102.682 -178.341)" fill="none" stroke="#7ac0ad" stroke-miterlimit="10" stroke-width="0.304"/>
              <path id="Tracé_2487" data-name="Tracé 2487" d="M126.495,189.393" transform="translate(-100.716 -169.896)" fill="none" stroke="#7ac0ad" stroke-miterlimit="10" stroke-width="0.304"/>
              <path id="Tracé_2488" data-name="Tracé 2488" d="M126.556,188.116" transform="translate(-100.632 -171.652)" fill="none" stroke="#7ac0ad" stroke-miterlimit="10" stroke-width="0.304"/>
              <path id="Tracé_2489" data-name="Tracé 2489" d="M123.2,183.069c-.217,2.961.433,4.622,2.094,7.727-1.083,1.589-1.95,2.527-1.661,5.632" transform="translate(-105.296 -178.592)" fill="none" stroke="#7ac0ad" stroke-miterlimit="10" stroke-width="0.304"/>
            </g>
            <path id="Tracé_2490" data-name="Tracé 2490" d="M119.77,185.6c-.505-1.3,3.755-5.7,6.282-5.993" transform="translate(-56.799 -111.157)" fill="none" stroke="#7ac0ad" stroke-miterlimit="10" stroke-width="0.304"/>
            <g id="Groupe_1479" data-name="Groupe 1479" transform="translate(55.028 51.405)">
              <path id="Tracé_2491" data-name="Tracé 2491" d="M130.308,181.546c-5.055-.867-9.676-2.022-12.2-4.4" transform="translate(-114.061 -165.949)" fill="none" stroke="#7ac0ad" stroke-miterlimit="10" stroke-width="0.304"/>
              <path id="Tracé_2492" data-name="Tracé 2492" d="M124.273,172.429a25.4,25.4,0,0,0-.939,13.07,15.792,15.792,0,0,0-6.932,7.149" transform="translate(-116.402 -172.429)" fill="none" stroke="#7ac0ad" stroke-miterlimit="10" stroke-width="0.304"/>
              <path id="Tracé_2493" data-name="Tracé 2493" d="M118.135,192.929a11.515,11.515,0,0,1,6.788-6.571,49.164,49.164,0,0,1,.217-13.5" transform="translate(-114.019 -171.844)" fill="none" stroke="#7ac0ad" stroke-miterlimit="10" stroke-width="0.304"/>
              <path id="Tracé_2494" data-name="Tracé 2494" d="M123.495,185.313a21.431,21.431,0,0,1-1.083-11.12" transform="translate(-108.547 -170.004)" fill="none" stroke="#7ac0ad" stroke-miterlimit="10" stroke-width="0.304"/>
              <path id="Tracé_2495" data-name="Tracé 2495" d="M125.568,184.169a21.941,21.941,0,0,1-2.022-9.459" transform="translate(-106.577 -169.294)" fill="none" stroke="#7ac0ad" stroke-miterlimit="10" stroke-width="0.304"/>
            </g>
            <path id="Tracé_2496" data-name="Tracé 2496" d="M130.295,167.388c4.91-10.615,17.908-21.446,27.007-14.3,12.492,9.821,2.239,20.363-6.427,24.7" transform="translate(-42.267 -150.788)" fill="#84c7cb"/>
            <path id="Tracé_2497" data-name="Tracé 2497" d="M127.487,181.367c-.722.722.722,5.271,2.311,6.282" transform="translate(-46.392 -108.732)" fill="none" stroke="#7ac0ad" stroke-miterlimit="10" stroke-width="0.304"/>
            <path id="Tracé_2498" data-name="Tracé 2498" d="M116.912,169.937c-3.322,1.589-3.249,2.311-3.611,4.188" transform="translate(-65.639 -124.453)" fill="none" stroke="#7ac0ad" stroke-miterlimit="10" stroke-width="0.304"/>
            <g id="Groupe_1480" data-name="Groupe 1480" transform="translate(41.235 23.46)">
              <path id="Tracé_2499" data-name="Tracé 2499" d="M116.037,162.853c1.733,5.344,9.026,11.554,16.1,17.836" transform="translate(-103.112 -157.654)" fill="none" stroke="#7ac0ad" stroke-miterlimit="10" stroke-width="0.304"/>
              <path id="Tracé_2500" data-name="Tracé 2500" d="M110.6,174.168a60.341,60.341,0,0,1,15.092-4.188c1.155-2.672,5.416-5.993,9.748-9.315" transform="translate(-110.596 -160.665)" fill="none" stroke="#7ac0ad" stroke-miterlimit="10" stroke-width="0.304"/>
              <path id="Tracé_2501" data-name="Tracé 2501" d="M112.541,176.486c2.672-2.455,7.654-3.322,13.287-3.755,1.95-3.538,5.416-7.149,9.46-10.759" transform="translate(-107.92 -158.867)" fill="none" stroke="#7ac0ad" stroke-miterlimit="10" stroke-width="0.304"/>
              <path id="Tracé_2502" data-name="Tracé 2502" d="M114.821,177.28c2.744-2.311,6.86-3.466,11.554-3.972,1.228-2.961,4.116-5.921,7.582-9.026" transform="translate(-104.784 -155.689)" fill="none" stroke="#7ac0ad" stroke-miterlimit="10" stroke-width="0.304"/>
              <path id="Tracé_2503" data-name="Tracé 2503" d="M131.965,166.228c-2.527,2.455-4.694,4.983-4.621,7.943-4.4.794-8.232,2.022-9.6,4.549" transform="translate(-100.77 -153.013)" fill="none" stroke="#7ac0ad" stroke-miterlimit="10" stroke-width="0.304"/>
            </g>
            <g id="Groupe_1481" data-name="Groupe 1481" transform="translate(63.043 20.282)">
              <path id="Tracé_2504" data-name="Tracé 2504" d="M125.644,159.327c-1.3,5.488,1.661,14.586,4.549,23.613" transform="translate(-112.14 -159.327)" fill="none" stroke="#7ac0ad" stroke-miterlimit="10" stroke-width="0.304"/>
              <path id="Tracé_2505" data-name="Tracé 2505" d="M120.263,159.661c5.344.794,7.365,1.877,12.131,3.9,2.383-1.661,4.26-2.744,9.748-3.394" transform="translate(-119.107 -158.867)" fill="none" stroke="#7ac0ad" stroke-miterlimit="10" stroke-width="0.304"/>
              <path id="Tracé_2506" data-name="Tracé 2506" d="M119.776,162.181c3.538-.722,8.3,1.083,13.287,3.683,3.538-2.022,3.466-3.033,8.81-4.044" transform="translate(-119.776 -155.898)" fill="none" stroke="#7ac0ad" stroke-miterlimit="10" stroke-width="0.304"/>
              <path id="Tracé_2507" data-name="Tracé 2507" d="M120.84,165.2c3.611-.578,7.654.65,11.987,2.6,2.6-1.877,2.383-2.744,6.932-3.61" transform="translate(-118.313 -152.637)" fill="none" stroke="#7ac0ad" stroke-miterlimit="10" stroke-width="0.304"/>
              <path id="Tracé_2508" data-name="Tracé 2508" d="M139.033,166.2c-3.394.794-6.571,1.805-8.088,4.333-4.188-1.589-3.683-2.166-7-2.166" transform="translate(-114.048 -149.878)" fill="none" stroke="#7ac0ad" stroke-miterlimit="10" stroke-width="0.304"/>
            </g>
            <path id="Tracé_2509" data-name="Tracé 2509" d="M134.672,179.817c2.744,1.228,6.066,3.249,6.5,5.271" transform="translate(-36.247 -110.865)" fill="none" stroke="#7ac0ad" stroke-miterlimit="10" stroke-width="0.304"/>
            <path id="Tracé_2510" data-name="Tracé 2510" d="M133.335,180.577c2.888,1.444,6.5,3.9,6.932,6.427" transform="translate(-38.086 -109.819)" fill="none" stroke="#7ac0ad" stroke-miterlimit="10" stroke-width="0.304"/>
            <g id="Groupe_1482" data-name="Groupe 1482" transform="translate(83.767 13.206)">
              <path id="Tracé_2511" data-name="Tracé 2511" d="M138.864,159.053c-4.621,4.26-2.961,4.477-4.4,6.571" transform="translate(-120.306 -152.627)" fill="none" stroke="#7ac0ad" stroke-miterlimit="10" stroke-width="0.304"/>
              <path id="Tracé_2512" data-name="Tracé 2512" d="M130.994,156.348c4.4,3.538,6.427,6.138,9.532,10.543,3.177-.217,5.632-.217,10.976,2.094" transform="translate(-125.073 -156.348)" fill="none" stroke="#7ac0ad" stroke-miterlimit="10" stroke-width="0.304"/>
              <path id="Tracé_2513" data-name="Tracé 2513" d="M129.93,158.567c3.683,1.3,5.7,3.466,8.737,8.449" transform="translate(-126.536 -153.296)" fill="none" stroke="#7ac0ad" stroke-miterlimit="10" stroke-width="0.304"/>
              <path id="Tracé_2514" data-name="Tracé 2514" d="M128.805,161.394c3.611,1.372,4.188,1.733,6.932,5.777" transform="translate(-128.083 -149.407)" fill="none" stroke="#7ac0ad" stroke-miterlimit="10" stroke-width="0.304"/>
              <path id="Tracé_2515" data-name="Tracé 2515" d="M132.256,168.752c-2.166-2.961-1.589-3.105-3.755-4.621" transform="translate(-128.501 -145.644)" fill="none" stroke="#7ac0ad" stroke-miterlimit="10" stroke-width="0.304"/>
            </g>
            <g id="Groupe_1483" data-name="Groupe 1483" transform="translate(104.853 61.225)">
              <path id="Tracé_2516" data-name="Tracé 2516" d="M162.37,179.969c-7.654,3.394-18.486,8.882-24.263,15.092" transform="translate(-136.375 -171.881)" fill="none" stroke="#7ac0ad" stroke-miterlimit="10" stroke-width="0.304"/>
              <path id="Tracé_2517" data-name="Tracé 2517" d="M144.248,176.564c2.311,4.621,2.311,6.643,2.961,11.265,3.249,1.3,3.538,1.3,7.51,5.416" transform="translate(-127.929 -176.564)" fill="none" stroke="#7ac0ad" stroke-miterlimit="10" stroke-width="0.304"/>
              <path id="Tracé_2518" data-name="Tracé 2518" d="M142,178.114c2.888,2.6,2.744,5.416,2.888,10.47,2.166,1.083,3.61,1.155,5.777,4.766" transform="translate(-131.023 -174.431)" fill="none" stroke="#7ac0ad" stroke-miterlimit="10" stroke-width="0.304"/>
              <path id="Tracé_2519" data-name="Tracé 2519" d="M139.628,180.06c2.744,2.672,3.249,4.621,3.61,8.81,3.611,1.372,4.621,2.311,5.993,3.827" transform="translate(-134.284 -171.756)" fill="none" stroke="#7ac0ad" stroke-miterlimit="10" stroke-width="0.304"/>
              <path id="Tracé_2520" data-name="Tracé 2520" d="M147.7,193.323c-1.372-1.733-2.455-2.744-6.21-3.033-.722-4.044-1.805-5.56-4.116-8.376" transform="translate(-137.378 -169.205)" fill="none" stroke="#7ac0ad" stroke-miterlimit="10" stroke-width="0.304"/>
            </g>
            <g id="Groupe_1484" data-name="Groupe 1484" transform="translate(99.437 45.267)">
              <path id="Tracé_2521" data-name="Tracé 2521" d="M149.829,172.612c-2.239,4.621-8.521,9.243-14.731,13.937" transform="translate(-135.098 -166.041)" fill="none" stroke="#7ac0ad" stroke-miterlimit="10" stroke-width="0.304"/>
              <path id="Tracé_2522" data-name="Tracé 2522" d="M152.816,186.02a34.723,34.723,0,0,0-9.676-6.138c-.289-2.6-2.527-6.282-4.91-10.037" transform="translate(-130.792 -169.845)" fill="none" stroke="#7ac0ad" stroke-miterlimit="10" stroke-width="0.304"/>
              <path id="Tracé_2523" data-name="Tracé 2523" d="M150.14,187.62c-1.372-2.672-4.621-4.188-8.449-5.416a40.3,40.3,0,0,0-4.4-11.265" transform="translate(-132.088 -168.34)" fill="none" stroke="#7ac0ad" stroke-miterlimit="10" stroke-width="0.304"/>
              <path id="Tracé_2524" data-name="Tracé 2524" d="M146.94,187.719c-1.444-2.6-4.116-4.188-7.221-5.416-.289-2.888-1.661-6.066-3.466-9.387" transform="translate(-133.509 -165.622)" fill="none" stroke="#7ac0ad" stroke-miterlimit="10" stroke-width="0.304"/>
              <path id="Tracé_2525" data-name="Tracé 2525" d="M135.311,174.588c1.3,2.6,2.238,5.271,1.661,7.943,2.888,1.444,6.5,3.9,6.932,6.427" transform="translate(-134.805 -163.323)" fill="none" stroke="#7ac0ad" stroke-miterlimit="10" stroke-width="0.304"/>
            </g>
            <g id="Groupe_1485" data-name="Groupe 1485" transform="translate(145.796 64.258)">
              <line id="Ligne_267" data-name="Ligne 267" x1="21.158" y2="3.611" transform="translate(0 6.571)" fill="none" stroke="#7ac0ad" stroke-miterlimit="10" stroke-width="0.304"/>
              <path id="Tracé_2526" data-name="Tracé 2526" d="M165.978,192.066a9.918,9.918,0,0,0-4.188-6.932c2.6-2.6,2.672-4.983,1.516-7.293" transform="translate(-144.748 -177.841)" fill="none" stroke="#7ac0ad" stroke-miterlimit="10" stroke-width="0.304"/>
              <path id="Tracé_2527" data-name="Tracé 2527" d="M163.139,191.306c-.144-2.744-1.083-4.116-3.538-5.56,1.516-1.805,1.228-4.983,1.228-7.51" transform="translate(-147.758 -177.297)" fill="none" stroke="#7ac0ad" stroke-miterlimit="10" stroke-width="0.304"/>
              <path id="Tracé_2528" data-name="Tracé 2528" d="M159.628,188.341c-.217-1.155-1.877-2.455-2.672-2.888,2.238-1.805,2.022-4.116,1.805-6.427" transform="translate(-151.396 -176.21)" fill="none" stroke="#7ac0ad" stroke-miterlimit="10" stroke-width="0.304"/>
            </g>
            <g id="Groupe_1486" data-name="Groupe 1486" transform="translate(108.03 21.077)">
              <line id="Ligne_268" data-name="Ligne 268" x1="15.886" y2="14.442" transform="translate(0 7.077)" fill="none" stroke="#7ac0ad" stroke-miterlimit="10" stroke-width="0.304"/>
              <path id="Tracé_2529" data-name="Tracé 2529" d="M161.112,176.053c-1.877-2.022-9.387-6.282-12.565-6.354.65-3.611-5.344-8.81-7.582-10.037" transform="translate(-135.622 -159.661)" fill="none" stroke="#7ac0ad" stroke-miterlimit="10" stroke-width="0.304"/>
              <path id="Tracé_2530" data-name="Tracé 2530" d="M157.08,173.921c-1.95-2.311-7.8-2.527-10.832-2.383.072-2.383-4.838-8.16-6.5-10.326" transform="translate(-137.294 -157.529)" fill="none" stroke="#7ac0ad" stroke-miterlimit="10" stroke-width="0.304"/>
              <path id="Tracé_2531" data-name="Tracé 2531" d="M141.406,169.694c.794-2.744.072-2.816-1.444-4.622" transform="translate(-137.001 -152.219)" fill="none" stroke="#7ac0ad" stroke-miterlimit="10" stroke-width="0.304"/>
              <path id="Tracé_2532" data-name="Tracé 2532" d="M143.488,168.417" transform="translate(-132.151 -147.62)" fill="none" stroke="#7ac0ad" stroke-miterlimit="10" stroke-width="0.304"/>
            </g>
            <g id="Groupe_1487" data-name="Groupe 1487" transform="translate(116.262 76.534)">
              <path id="Tracé_2533" data-name="Tracé 2533" d="M169.982,187.508c-8.3.867-20.363,2.672-27.8,6.715" transform="translate(-142.181 -176.821)" fill="none" stroke="#7ac0ad" stroke-miterlimit="10" stroke-width="0.304"/>
              <path id="Tracé_2534" data-name="Tracé 2534" d="M151.507,183.009c.722,5.055.144,7.077-.722,11.626,2.672,2.238,3.177,2.816,5.56,8.015" transform="translate(-130.349 -183.009)" fill="none" stroke="#7ac0ad" stroke-miterlimit="10" stroke-width="0.304"/>
              <path id="Tracé_2535" data-name="Tracé 2535" d="M148.767,183.769c1.95,3.394.939,5.993-.505,10.831,1.733,1.733,2.888,2.672,3.827,6.788" transform="translate(-133.819 -181.963)" fill="none" stroke="#7ac0ad" stroke-miterlimit="10" stroke-width="0.304"/>
              <path id="Tracé_2536" data-name="Tracé 2536" d="M145.677,184.529c1.805,3.394,1.444,6.21.505,10.326a14.23,14.23,0,0,1,4.477,6.21" transform="translate(-137.373 -180.918)" fill="none" stroke="#7ac0ad" stroke-miterlimit="10" stroke-width="0.304"/>
              <path id="Tracé_2537" data-name="Tracé 2537" d="M149.121,200.544c-.794-2.094-1.444-3.972-4.91-5.344.578-4.044,0-5.849-1.3-9.243" transform="translate(-141.178 -178.953)" fill="none" stroke="#7ac0ad" stroke-miterlimit="10" stroke-width="0.304"/>
            </g>
            <path id="Tracé_2538" data-name="Tracé 2538" d="M192.122,219.571c0,8.449-5.416,14.3-13.142,12.637-10.326-2.239-26.285-8.232-15.6-12.637,7.8-3.249,9.243-17.836,17.186-17.836S192.122,211.122,192.122,219.571Z" transform="translate(-1.628 -80.72)" fill="#84c7cb"/>
            <path id="Tracé_2539" data-name="Tracé 2539" d="M187.244,220.872c-8.232,7.077-10.037,6.354-27.44-7.8-5.2-4.188-15.164-7.365-18.414-8.737,0-3.249,21.23-.867,27.945-.867C175.98,203.541,190.2,218.417,187.244,220.872Z" transform="translate(-27.006 -79.493)" fill="#84c7cb"/>
            <g id="Groupe_1488" data-name="Groupe 1488" transform="translate(121.822 96.175)">
              <path id="Tracé_2540" data-name="Tracé 2540" d="M172.9,199.068c-8.088-2.094-20-4.549-28.379-3.394" transform="translate(-144.522 -185.637)" fill="none" stroke="#7ac0ad" stroke-miterlimit="10" stroke-width="0.304"/>
              <path id="Tracé_2541" data-name="Tracé 2541" d="M158.2,191.764c-1.083,5.055-2.311,6.643-4.766,10.615,1.733,3.033,1.878,4.333,2.383,10.109" transform="translate(-132.272 -190.608)" fill="none" stroke="#7ac0ad" stroke-miterlimit="10" stroke-width="0.304"/>
              <path id="Tracé_2542" data-name="Tracé 2542" d="M154.836,191.308c.65,3.9-.939,6.571-3.9,10.615,1.011,2.239,1.661,4.188,1.083,8.376" transform="translate(-135.7 -191.236)" fill="none" stroke="#7ac0ad" stroke-miterlimit="10" stroke-width="0.304"/>
              <path id="Tracé_2543" data-name="Tracé 2543" d="M151.609,191.277c.505,3.827-.794,6.282-3.105,9.893a13.648,13.648,0,0,1,2.022,7.365" transform="translate(-139.045 -191.277)" fill="none" stroke="#7ac0ad" stroke-miterlimit="10" stroke-width="0.304"/>
              <path id="Tracé_2544" data-name="Tracé 2544" d="M148.6,207.487c0-2.238,0-4.188-2.744-6.716,1.95-3.61,2.022-5.488,2.022-9.1" transform="translate(-142.682 -190.734)" fill="none" stroke="#7ac0ad" stroke-miterlimit="10" stroke-width="0.304"/>
            </g>
            <path id="Tracé_2545" data-name="Tracé 2545" d="M149.812,169.572c1.95.578,3.394,2.383,4.766,4.4" transform="translate(-15.425 -124.955)" fill="none" stroke="#7ac0ad" stroke-miterlimit="10" stroke-width="0.304"/>
            <g id="Groupe_1489" data-name="Groupe 1489" transform="translate(119.006 112.639)">
              <path id="Tracé_2546" data-name="Tracé 2546" d="M167.888,214.923c-6.571-5.2-16.392-12.276-24.551-14.587" transform="translate(-143.336 -195.282)" fill="none" stroke="#7ac0ad" stroke-miterlimit="10" stroke-width="0.304"/>
              <path id="Tracé_2547" data-name="Tracé 2547" d="M161.206,200.793a35.8,35.8,0,0,1-9.387,9.026c.361,3.466.794,2.816-1.155,8.232" transform="translate(-133.26 -194.655)" fill="none" stroke="#7ac0ad" stroke-miterlimit="10" stroke-width="0.304"/>
              <path id="Tracé_2548" data-name="Tracé 2548" d="M158.165,199.668c-1.011,3.755-3.538,5.777-7.943,8.232a10.91,10.91,0,0,1-2.022,7.51" transform="translate(-136.647 -196.202)" fill="none" stroke="#7ac0ad" stroke-miterlimit="10" stroke-width="0.304"/>
              <path id="Tracé_2549" data-name="Tracé 2549" d="M154.555,198.6c-1.083,3.683-3.249,5.416-6.86,7.727a14.128,14.128,0,0,1-1.228,7.726" transform="translate(-139.03 -197.665)" fill="none" stroke="#7ac0ad" stroke-miterlimit="10" stroke-width="0.304"/>
              <path id="Tracé_2550" data-name="Tracé 2550" d="M144.4,212.073c.939-2.022,1.877-4.116.361-7.582,3.249-2.527,3.683-2.888,5.127-6.282" transform="translate(-141.873 -198.209)" fill="none" stroke="#7ac0ad" stroke-miterlimit="10" stroke-width="0.304"/>
            </g>
            <path id="Tracé_2551" data-name="Tracé 2551" d="M161.789,168.234c8.737.867,10.9,6.21,10.831,13.07l-10.47-7.149Z" transform="translate(1.048 -126.794)" fill="#84c7cb"/>
            <path id="Tracé_2552" data-name="Tracé 2552" d="M161.112,176.053c-1.877-2.022-9.387-6.282-12.565-6.354.65-3.611-5.344-8.81-7.582-10.037" transform="translate(-27.592 -138.585)" fill="none" stroke="#7ac0ad" stroke-miterlimit="10" stroke-width="0.304"/>
            <path id="Tracé_2553" data-name="Tracé 2553" d="M165.133,170.743c.505.361,4.044-11.337-3.755-14.081-9.6-3.9-17.98,3.177-17.98,3.177" transform="translate(-24.247 -144.323)" fill="#84c7cb"/>
            <path id="Tracé_2554" data-name="Tracé 2554" d="M181.734,194.326c0,4.622-3.249,8.3-7.221,8.3s-7.221-3.755-7.221-8.3,2.022-9.1,5.993-9.1S181.734,189.777,181.734,194.326Z" transform="translate(8.616 -103.422)" fill="#84c7cb"/>
            <path id="Tracé_2555" data-name="Tracé 2555" d="M188.072,209.615c-1.589,8.232-3.683,9.387-10.037,11.915-5.488,2.239-10.759-6.643-10.759-14.731,0-8.16-1.083-17.042,4.838-17.042S186.628,195.679,188.072,209.615Z" transform="translate(8.487 -97.193)" fill="#84c7cb"/>
            <g id="Groupe_1490" data-name="Groupe 1490" transform="translate(161.465 77.834)">
              <line id="Ligne_269" data-name="Ligne 269" y1="0.217" x2="6.066" transform="translate(1.3 11.915)" fill="none" stroke="#7ac0ad" stroke-miterlimit="10" stroke-width="0.304"/>
              <path id="Tracé_2556" data-name="Tracé 2556" d="M163.047,208.426c.65-4.116,2.094-9.6-.65-12.926,1.95-1.95,1.95-8.232,2.744-11.915" transform="translate(-159.581 -183.514)" fill="none" stroke="#7ac0ad" stroke-miterlimit="10" stroke-width="0.304"/>
              <path id="Tracé_2557" data-name="Tracé 2557" d="M164.13,201.467c.65-4.116,2.094-9.6-.578-12.926" transform="translate(-157.992 -176.699)" fill="none" stroke="#7ac0ad" stroke-miterlimit="10" stroke-width="0.304"/>
              <path id="Tracé_2558" data-name="Tracé 2558" d="M161.645,198.126c.217-2.888.867-5.271-.433-7.943" transform="translate(-161.212 -174.441)" fill="none" stroke="#7ac0ad" stroke-miterlimit="10" stroke-width="0.304"/>
              <path id="Tracé_2559" data-name="Tracé 2559" d="M163.522,195.976c1.95-3.683,5.055-8.449,3.538-12.42" transform="translate(-158.034 -183.556)" fill="none" stroke="#7ac0ad" stroke-miterlimit="10" stroke-width="0.304"/>
            </g>
            <path id="Tracé_2560" data-name="Tracé 2560" d="M149.416,166.562c2.022,1.589,2.022,3.466.939,5.344" transform="translate(-15.969 -129.094)" fill="none" stroke="#7ac0ad" stroke-miterlimit="10" stroke-width="0.304"/>
            <path id="Tracé_2561" data-name="Tracé 2561" d="M149.812,168.842c2.383,0,6.282,2.166,7.654,4.188" transform="translate(-15.425 -125.958)" fill="none" stroke="#7ac0ad" stroke-miterlimit="10" stroke-width="0.304"/>
            <g id="Groupe_1491" data-name="Groupe 1491" transform="translate(151.5 119.427)">
              <path id="Tracé_2562" data-name="Tracé 2562" d="M175.863,213.543c-6.427-5.416-10.759-9.1-18.847-11.626" transform="translate(-157.016 -199.896)" fill="none" stroke="#7ac0ad" stroke-miterlimit="10" stroke-width="0.304"/>
              <path id="Tracé_2563" data-name="Tracé 2563" d="M175.6,202.677c-3.105,4.044-3.827,4.983-7.726,7.51.217,3.466-3.105,10.687-6.788,14.659" transform="translate(-151.414 -198.85)" fill="none" stroke="#7ac0ad" stroke-miterlimit="10" stroke-width="0.304"/>
              <path id="Tracé_2564" data-name="Tracé 2564" d="M171.982,202.069c-1.083,3.755-2.672,4.333-7.149,6.643,0,2.455-1.372,5.344-3.683,8.81" transform="translate(-151.33 -199.687)" fill="none" stroke="#7ac0ad" stroke-miterlimit="10" stroke-width="0.304"/>
              <path id="Tracé_2565" data-name="Tracé 2565" d="M166.567,201.218c-1.228,3.683-2.166,3.322-5.849,5.488a6.383,6.383,0,0,1-.144,5.271" transform="translate(-152.125 -200.857)" fill="none" stroke="#7ac0ad" stroke-miterlimit="10" stroke-width="0.304"/>
              <path id="Tracé_2566" data-name="Tracé 2566" d="M158.233,204.388c.217-.361,2.022,0,3.538-3.322" transform="translate(-155.344 -201.066)" fill="none" stroke="#7ac0ad" stroke-miterlimit="10" stroke-width="0.304"/>
            </g>
            <path id="Tracé_2567" data-name="Tracé 2567" d="M150.511,172.034a2.3,2.3,0,0,1,.867,3.249" transform="translate(-14.464 -121.568)" fill="none" stroke="#7ac0ad" stroke-miterlimit="10" stroke-width="0.304"/>
            <path id="Tracé_2568" data-name="Tracé 2568" d="M161.889,184.822c.217-3.322-2.455-6.282-5.632-9.171" transform="translate(-6.561 -116.593)" fill="none" stroke="#7ac0ad" stroke-miterlimit="10" stroke-width="0.304"/>
            <g id="Groupe_1492" data-name="Groupe 1492" transform="translate(168.036 102.313)">
              <line id="Ligne_270" data-name="Ligne 270" y1="0.289" x2="7.438" transform="translate(0.939 9.171)" fill="none" stroke="#7ac0ad" stroke-miterlimit="10" stroke-width="0.304"/>
              <path id="Tracé_2569" data-name="Tracé 2569" d="M166.361,213.894c.794-4.116,2.094-7.438-1.228-10.759,2.383-1.95,2.383-5.777,1.011-9.243" transform="translate(-162.389 -193.82)" fill="none" stroke="#7ac0ad" stroke-miterlimit="10" stroke-width="0.304"/>
              <path id="Tracé_2570" data-name="Tracé 2570" d="M167.326,209.534c.794-4.116,2.527-8.521-.794-11.842" transform="translate(-160.466 -188.593)" fill="none" stroke="#7ac0ad" stroke-miterlimit="10" stroke-width="0.304"/>
              <path id="Tracé_2571" data-name="Tracé 2571" d="M165.422,206.71c.794-3.322,1.877-5.271-1.444-8.015" transform="translate(-163.978 -187.214)" fill="none" stroke="#7ac0ad" stroke-miterlimit="10" stroke-width="0.304"/>
              <path id="Tracé_2572" data-name="Tracé 2572" d="M166.532,203.61c2.383-3.683,3.105-5.777,1.3-9.748" transform="translate(-160.466 -193.861)" fill="none" stroke="#7ac0ad" stroke-miterlimit="10" stroke-width="0.304"/>
            </g>
            <line id="Ligne_271" data-name="Ligne 271" x1="5.055" y2="1.733" transform="translate(134.459 41.151)" fill="none" stroke="#7ac0ad" stroke-miterlimit="10" stroke-width="0.304"/>
            <path id="Tracé_2573" data-name="Tracé 2573" d="M165.24,202c.794-3.322,1.877-5.271-1.444-8.015" transform="translate(3.807 -91.381)" fill="none" stroke="#7ac0ad" stroke-miterlimit="10" stroke-width="0.304"/>
            <g id="Groupe_1493" data-name="Groupe 1493" transform="translate(144.568 45.7)">
              <line id="Ligne_272" data-name="Ligne 272" y1="2.094" x2="5.199" transform="translate(4.044 10.759)" fill="none" stroke="#7ac0ad" stroke-miterlimit="10" stroke-width="0.304"/>
              <path id="Tracé_2574" data-name="Tracé 2574" d="M169.407,191.113c-.794-1.877-6.932-8.737-9.532-9.026,1.877-2.961-4.333-10.832-5.777-12.059" transform="translate(-154.098 -170.028)" fill="none" stroke="#7ac0ad" stroke-miterlimit="10" stroke-width="0.304"/>
            </g>
            <g id="Groupe_1494" data-name="Groupe 1494" transform="translate(1.75 0.271)">
              <path id="Tracé_2575" data-name="Tracé 2575" d="M145.86,191.71c-11.915-1.444-23.974-3.105-31.411.361-14.514,7-9.026,18.7,3.683,20.435a41.431,41.431,0,0,0,8.882-.578" transform="translate(-77.707 -97.105)" fill="none" stroke="#2a3f40" stroke-miterlimit="10" stroke-width="0.304"/>
              <path id="Tracé_2576" data-name="Tracé 2576" d="M136.937,184.217c-4.694-1.444-9.1-3.033-16.392-3.61-13,.722-17.908,12.276-8.376,19.425,2.744,2.094,6.282,2.6,9.893,2.961" transform="translate(-75.789 -110.048)" fill="none" stroke="#2a3f40" stroke-miterlimit="10" stroke-width="0.304"/>
              <path id="Tracé_2577" data-name="Tracé 2577" d="M136.52,175.744c-4.694-1.95-9.676-4.333-13.359-4.621-11.987.361-15.958,9.893-8.954,17.908a33.506,33.506,0,0,0,9.1,5.777" transform="translate(-70.895 -123.093)" fill="none" stroke="#2a3f40" stroke-miterlimit="10" stroke-width="0.304"/>
              <path id="Tracé_2578" data-name="Tracé 2578" d="M99.612,208.019c-7.149-7.582-8.376-14.153,3.177-18.414,9.821,4.044,18.775,3.9,27.656,3.033" transform="translate(-93.704 -97.673)" fill="none" stroke="#2a3f40" stroke-miterlimit="10" stroke-width="0.304"/>
              <path id="Tracé_2579" data-name="Tracé 2579" d="M124.322,192.617c-9.387-1.877-17.4-5.127-22.169-11.554-8.81,2.311-10.037,11.987-.578,20.291" transform="translate(-92.563 -109.421)" fill="none" stroke="#2a3f40" stroke-miterlimit="10" stroke-width="0.304"/>
              <path id="Tracé_2580" data-name="Tracé 2580" d="M139.654,190.2c-11.048-4.766-21.3-9.676-27.584-15.453-10.182-3.9-18.269,3.322-13.142,16.536" transform="translate(-89.337 -119.565)" fill="none" stroke="#2a3f40" stroke-miterlimit="10" stroke-width="0.304"/>
              <path id="Tracé_2581" data-name="Tracé 2581" d="M105.643,187.643c-8.665-13.142-.867-27.44,13.431-22.241,4.621,6.066,11.626,11.193,19.786,15.886" transform="translate(-82.911 -132.465)" fill="none" stroke="#2a3f40" stroke-miterlimit="10" stroke-width="0.304"/>
              <path id="Tracé_2582" data-name="Tracé 2582" d="M146.829,185.914c-3.249-9.676-9.965-24.84-19.713-29.389-15.236-4.4-23.035,7.438-16.608,20.8" transform="translate(-74.344 -144.457)" fill="none" stroke="#2a3f40" stroke-miterlimit="10" stroke-width="0.304"/>
              <path id="Tracé_2583" data-name="Tracé 2583" d="M152.487,170.879c3.466,2.022,4.694,4.549,4.549,7.365" transform="translate(-13.496 -123.428)" fill="none" stroke="#7ac0ad" stroke-miterlimit="10" stroke-width="0.304"/>
              <path id="Tracé_2584" data-name="Tracé 2584" d="M140.975,186.419a52.19,52.19,0,0,1,5.127-21.663c-.939-21.446-30.545-13.648-26.5,3.827" transform="translate(-59.247 -149.727)" fill="none" stroke="#2a3f40" stroke-miterlimit="10" stroke-width="0.304"/>
              <path id="Tracé_2585" data-name="Tracé 2585" d="M129.778,187.305c5.849-7.51,11.626-15.453,21.735-9.676,3.827-4.983,7.726-10.037,12.276-12.565,0-14.442-14.8-18.414-23.9-9.243a26.715,26.715,0,0,0-8.3,10.182" transform="translate(-44.728 -150.902)" fill="none" stroke="#2a3f40" stroke-miterlimit="10" stroke-width="0.304"/>
              <path id="Tracé_2586" data-name="Tracé 2586" d="M135.919,213.784c5.632-8.882,23.54-19.208,28.09-23.179,6.354-4.621,10.615-21.663-11.265-18.775-8.593,2.527-14.37,11.626-14.37,11.626s12.709-15.6,4.766-21.3" transform="translate(-36.283 -135.427)" fill="none" stroke="#2a3f40" stroke-miterlimit="10" stroke-width="0.304"/>
              <path id="Tracé_2587" data-name="Tracé 2587" d="M141.391,210.61c5.777.289,19.786,9.315,31.917,19.208,0,0,9.676,6.138,14.659-5.488,2.311-10.326-8.449-16.608-8.449-16.608-10.254-5.993-20.219-9.532-29.606-9.6" transform="translate(-28.757 -85.966)" fill="none" stroke="#2a3f40" stroke-miterlimit="10" stroke-width="0.304"/>
              <path id="Tracé_2588" data-name="Tracé 2588" d="M147.714,175.158c20.435-7.293,28.306,9.6,14.514,20.074" transform="translate(-20.06 -119.98)" fill="#84c7cb" stroke="#2a3f40" stroke-miterlimit="10" stroke-width="0.304"/>
              <path id="Tracé_2589" data-name="Tracé 2589" d="M155.331,183.555c3.9-4.188,7.293-8.232,9.026-12.059,0,0,4.766-11.193-4.549-14.948-8.449-3.683-15.742,2.383-15.742,2.383" transform="translate(-25.077 -144.769)" fill="none" stroke="#2a3f40" stroke-miterlimit="10" stroke-width="0.304"/>
              <path id="Tracé_2590" data-name="Tracé 2590" d="M148.5,188.953c10.832-7.582,21.446-12.781,31.628-12.492-.722-10.832-7.727-15.814-21.807-14.081" transform="translate(-18.973 -135.581)" fill="none" stroke="#2a3f40" stroke-miterlimit="10" stroke-width="0.304"/>
              <path id="Tracé_2591" data-name="Tracé 2591" d="M155.952,197c14.009-4.044,29.606-7.221,23.757-22.53-2.238-4.477-5.849-5.849-9.821-6.354" transform="translate(-8.73 -127.232)" fill="none" stroke="#2a3f40" stroke-miterlimit="10" stroke-width="0.304"/>
              <path id="Tracé_2592" data-name="Tracé 2592" d="M177.23,200.948c4.694-11.193,4.694-21.23-10.759-27.151" transform="translate(5.737 -119.414)" fill="#84c7cb" stroke="#2a3f40" stroke-miterlimit="10" stroke-width="0.304"/>
              <path id="Tracé_2593" data-name="Tracé 2593" d="M189.2,191.247c13.431,16.825,4.333,27.151-3.683,28.234a58.5,58.5,0,0,1-24.118-5.993" transform="translate(-1.246 -95.415)" fill="none" stroke="#2a3f40" stroke-miterlimit="10" stroke-width="0.304"/>
              <path id="Tracé_2594" data-name="Tracé 2594" d="M159.753,184.175c13.575-1.516,26.357-1.589,32.133,10.47,1.444,13.937-13.72,13.287-27.223,14.009" transform="translate(-3.504 -106.107)" fill="none" stroke="#2a3f40" stroke-miterlimit="10" stroke-width="0.304"/>
              <path id="Tracé_2595" data-name="Tracé 2595" d="M140.935,193.511c9.821-7.365,21.952-11.337,36.972-10.976,0,0,12.565,1.733,12.565,11.7s-7.726,12.2-7.726,12.2" transform="translate(-29.384 -107.428)" fill="none" stroke="#2a3f40" stroke-miterlimit="10" stroke-width="0.304"/>
              <path id="Tracé_2596" data-name="Tracé 2596" d="M159.753,221.938s21.23,15.6,29.534,4.116c7.365-9.965-1.444-22.891-1.444-22.891" transform="translate(-3.504 -79.025)" fill="none" stroke="#2a3f40" stroke-miterlimit="10" stroke-width="0.304"/>
              <path id="Tracé_2597" data-name="Tracé 2597" d="M144.036,194.412c12.853-4.622,26.646-4.766,42.243,3.61,11.193,9.026,3.9,14.009-.939,15.453l-10.976,3.105" transform="translate(-25.119 -95.403)" fill="none" stroke="#2a3f40" stroke-miterlimit="10" stroke-width="0.304"/>
              <path id="Tracé_2598" data-name="Tracé 2598" d="M127.753,200.318c-9.821,2.094-19.352,2.383-27.873-2.961-11.337,7.943-4.116,22.1,3.033,23.324a21.96,21.96,0,0,0,12.565.578l10.326-3.177" transform="translate(-93.972 -87.011)" fill="none" stroke="#2a3f40" stroke-miterlimit="10" stroke-width="0.304"/>
            </g>
            <path id="Tracé_2599" data-name="Tracé 2599" d="M116.037,203.772" transform="translate(-61.876 -77.918)" fill="none" stroke="#2a3f40" stroke-miterlimit="10" stroke-width="0.304"/>
            <g id="Groupe_1495" data-name="Groupe 1495" transform="translate(52.789 112.495)">
              <line id="Ligne_273" data-name="Ligne 273" y1="4.188" x2="11.77" transform="translate(1.372 9.171)" fill="none" stroke="#7ac0ad" stroke-miterlimit="10" stroke-width="0.304"/>
              <path id="Tracé_2600" data-name="Tracé 2600" d="M115.46,199.06c0,3.105,1.372,6.571,3.394,10.254a20.83,20.83,0,0,0,.578,9.893" transform="translate(-115.46 -196.894)" fill="none" stroke="#7ac0ad" stroke-miterlimit="10" stroke-width="0.304"/>
              <path id="Tracé_2601" data-name="Tracé 2601" d="M117.436,198.634a28.476,28.476,0,0,0,3.177,9.893,16.909,16.909,0,0,0,.144,9.532" transform="translate(-112.742 -197.479)" fill="none" stroke="#7ac0ad" stroke-miterlimit="10" stroke-width="0.304"/>
              <path id="Tracé_2602" data-name="Tracé 2602" d="M119.26,198.361a22.393,22.393,0,0,0,3.105,9.1c-.505,1.95.072,5.055.794,8.232" transform="translate(-110.233 -197.855)" fill="none" stroke="#7ac0ad" stroke-miterlimit="10" stroke-width="0.304"/>
              <path id="Tracé_2603" data-name="Tracé 2603" d="M121.071,198.148a2.218,2.218,0,0,0,1.011,2.672" transform="translate(-107.929 -198.148)" fill="none" stroke="#7ac0ad" stroke-miterlimit="10" stroke-width="0.304"/>
              <path id="Tracé_2604" data-name="Tracé 2604" d="M122.519,203.407a4.485,4.485,0,0,0,.289,3.466" transform="translate(-106.055 -190.915)" fill="none" stroke="#7ac0ad" stroke-miterlimit="10" stroke-width="0.304"/>
            </g>
            <g id="Groupe_1496" data-name="Groupe 1496" transform="translate(138.694 123.277)">
              <ellipse id="Ellipse_914" data-name="Ellipse 914" cx="5.56" cy="8.159" rx="5.56" ry="8.159" transform="matrix(0.583, -0.813, 0.813, 0.583, 0, 9.038)" fill="#22ae5c"/>
              <ellipse id="Ellipse_915" data-name="Ellipse 915" cx="5.343" cy="5.993" rx="5.343" ry="5.993" transform="matrix(0.583, -0.813, 0.813, 0.583, 0.128, 8.686)" fill="#e9d086"/>
              <ellipse id="Ellipse_916" data-name="Ellipse 916" cx="4.188" cy="4.982" rx="4.188" ry="4.982" transform="matrix(0.583, -0.813, 0.813, 0.583, 1.249, 8.118)" fill="#2e8fa3"/>
            </g>
            <g id="Groupe_1497" data-name="Groupe 1497" transform="translate(166.344 128.693)">
              <ellipse id="Ellipse_917" data-name="Ellipse 917" cx="5.56" cy="8.159" rx="5.56" ry="8.159" transform="matrix(0.583, -0.813, 0.813, 0.583, 0, 9.038)" fill="#22ae5c"/>
              <ellipse id="Ellipse_918" data-name="Ellipse 918" cx="5.343" cy="5.993" rx="5.343" ry="5.993" transform="matrix(0.583, -0.813, 0.813, 0.583, 0.147, 8.785)" fill="#e9d086"/>
              <ellipse id="Ellipse_919" data-name="Ellipse 919" cx="4.188" cy="4.982" rx="4.188" ry="4.982" transform="matrix(0.583, -0.813, 0.813, 0.583, 1.149, 8.04)" fill="#2e8fa3"/>
            </g>
            <path id="Tracé_2605" data-name="Tracé 2605" d="M142.344,183.945c-7.654-.722-11.193,2.744-7.8,9.6-3.9-4.188-14.514,5.271-5.849,12.2-9.821-.072-10.47,9.893-2.672,13.359-7.871.65-2.816,14.153,7.293,9.821" transform="translate(-55.471 -105.316)" fill="#2e5058" stroke="#2a3f40" stroke-miterlimit="10" stroke-width="0.304"/>
            <path id="Tracé_2606" data-name="Tracé 2606" d="M133.456,186.37c4.621-5.2,13.214-1.805,10.182,5.777,8.593-4.91,15.742,5.777,7.582,10.326,11.842.867,13.214,8.737,5.416,13.214,9.315,2.094,4.477,17.475-9.026,13.648" transform="translate(-37.919 -105.287)" fill="#2e5058" stroke="#2a3f40" stroke-miterlimit="10" stroke-width="0.304"/>
            <rect id="Rectangle_505" data-name="Rectangle 505" width="8.81" height="8.232" transform="translate(69.181 68.085)" fill="#eca93f" stroke="#2a3f40" stroke-miterlimit="10" stroke-width="0.304"/>
            <path id="Tracé_2607" data-name="Tracé 2607" d="M124.66,179.209c-.867,2.961-2.094,5.416-3.972,6.716,4.4,3.972,8.449,2.238,12.42-.939l2.238.144s-1.444,6.5-6.571,6.86c-1.228-.433-1.083-4.044-1.083-4.044" transform="translate(-55.479 -111.701)" fill="#eca93f" stroke="#2a3f40" stroke-miterlimit="10" stroke-width="0.304"/>
            <path id="Tracé_2608" data-name="Tracé 2608" d="M170.293,233.769c-1.083-3.827-4.477-21.23-20.652-22.241,0,0,3.466-5.56,7.365-16.536s3.827-24.046-10.832-28.09c-15.164-4.188-25.851,11.554-24.84,21.807,2.311,19.641,19.28,14.659,27.3,9.6-2.527,1.3-4.766,2.672-6.21,3.033.361,4.91-1.589,9.821-5.632,15.381-5.849,6.86-9.532,14.009-9.387,21.519.505,19.425,17.114,25.2,34.3,16.825,7.727-4.477,11.193-12.564,8.593-21.3" transform="translate(-54.681 -129.579)" fill="#77c1b0" stroke="#2a3f40" stroke-miterlimit="10" stroke-width="0.304"/>
            <path id="Tracé_2609" data-name="Tracé 2609" d="M139.415,204.167" transform="translate(-29.724 -77.375)" fill="#77c1b0" stroke="#2a3f40" stroke-miterlimit="10" stroke-width="0.304"/>
            <path id="Tracé_2610" data-name="Tracé 2610" d="M119.016,193.679" transform="translate(-57.779 -91.799)" fill="none"/>
            <path id="Tracé_2611" data-name="Tracé 2611" d="M151.618,209.28c-10.687,6.282-26.212,14.8-34.733,13.72,0,0-8.3,1.083-9.532-5.849-.939-17.691,34.661-19.063,34.661-19.063" transform="translate(-73.844 -85.737)" fill="none" stroke="#2a3f40" stroke-miterlimit="10" stroke-width="0.304"/>
            <g id="Groupe_1498" data-name="Groupe 1498" transform="translate(70.108 5.511)">
              <ellipse id="Ellipse_920" data-name="Ellipse 920" cx="5.56" cy="8.159" rx="5.56" ry="8.159" transform="translate(0 0.195) rotate(-1.003)" fill="#22ae5c"/>
              <ellipse id="Ellipse_921" data-name="Ellipse 921" cx="5.343" cy="5.993" rx="5.343" ry="5.993" transform="translate(0.11 4.595) rotate(-1.003)" fill="#e9d086"/>
              <ellipse id="Ellipse_922" data-name="Ellipse 922" cx="4.188" cy="4.982" rx="4.188" ry="4.982" transform="translate(1.355 6.163) rotate(-1.003)" fill="#2e8fa3"/>
            </g>
            <path id="Tracé_2612" data-name="Tracé 2612" d="M130.713,176.586c-6.427-3.611-18.2-3.177-14.514-10.182C119.737,162.144,126.524,168.137,130.713,176.586Z" transform="translate(-62.615 -131.247)" fill="#eca93f" stroke="#2a3f40" stroke-miterlimit="10" stroke-width="0.304"/>
            <path id="Tracé_2613" data-name="Tracé 2613" d="M130.943,177.8c-2.094-4.982-5.055-8.81-9.893-10.037-4.621-1.011-4.333-4.549-.794-6.86C126.466,158.082,129.86,164.292,130.943,177.8Z" transform="translate(-59.74 -137.8)" fill="#eca93f" stroke="#2a3f40" stroke-miterlimit="10" stroke-width="0.304"/>
            <path id="Tracé_2614" data-name="Tracé 2614" d="M128.56,175.3c-1.372-4.91-2.816-9.532-4.621-11.409-2.672-3.683,1.661-7.077,4.621-1.589C129.86,166.2,129.427,170.678,128.56,175.3Z" transform="translate(-52.158 -138.914)" fill="#eca93f" stroke="#2a3f40" stroke-miterlimit="10" stroke-width="0.304"/>
            <path id="Tracé_2615" data-name="Tracé 2615" d="M125.615,183.479a7.107,7.107,0,0,0,6.354,1.228c5.416-1.444,6.427-5.7,5.777-11.12C129.731,172.07,125.471,175.175,125.615,183.479Z" transform="translate(-48.708 -119.943)" fill="none"/>
            <g id="Groupe_1499" data-name="Groupe 1499" transform="translate(37.126 120.917)">
              <ellipse id="Ellipse_923" data-name="Ellipse 923" cx="8.159" cy="5.56" rx="8.159" ry="5.56" transform="translate(0 3.784) rotate(-13.409)" fill="#22ae5c"/>
              <ellipse id="Ellipse_924" data-name="Ellipse 924" cx="5.993" cy="5.343" rx="5.993" ry="5.343" transform="translate(4.324 3.131) rotate(-13.409)" fill="#e9d086"/>
              <ellipse id="Ellipse_925" data-name="Ellipse 925" cx="4.982" cy="4.188" rx="4.982" ry="4.188" transform="translate(6.153 3.804) rotate(-13.409)" fill="#2e8fa3"/>
            </g>
            <g id="Groupe_1500" data-name="Groupe 1500" transform="translate(34.93 98.106)">
              <ellipse id="Ellipse_926" data-name="Ellipse 926" cx="8.159" cy="5.56" rx="8.159" ry="5.56" transform="translate(0 1.638) rotate(-5.762)" fill="#22ae5c"/>
              <ellipse id="Ellipse_927" data-name="Ellipse 927" cx="5.993" cy="5.343" rx="5.993" ry="5.343" transform="translate(4.415 1.564) rotate(-5.762)" fill="#e9d086"/>
              <ellipse id="Ellipse_928" data-name="Ellipse 928" cx="4.982" cy="4.188" rx="4.982" ry="4.188" transform="translate(6.115 2.468) rotate(-5.762)" fill="#2e8fa3"/>
            </g>
            <g id="Groupe_1501" data-name="Groupe 1501" transform="translate(7.135 117.241)">
              <ellipse id="Ellipse_929" data-name="Ellipse 929" cx="5.56" cy="8.16" rx="5.56" ry="8.16" transform="translate(0 11.03) rotate(-82.709)" fill="#22ae5c"/>
              <ellipse id="Ellipse_930" data-name="Ellipse 930" cx="5.343" cy="5.993" rx="5.343" ry="5.993" transform="translate(4.298 11.615) rotate(-82.709)" fill="#e9d086"/>
              <ellipse id="Ellipse_931" data-name="Ellipse 931" cx="4.188" cy="4.982" rx="4.188" ry="4.982" transform="translate(6.136 10.615) rotate(-82.709)" fill="#2e8fa3"/>
            </g>
            <g id="Groupe_1502" data-name="Groupe 1502" transform="translate(6.773 95.774)">
              <ellipse id="Ellipse_932" data-name="Ellipse 932" cx="5.56" cy="8.16" rx="5.56" ry="8.16" transform="translate(0 10.842) rotate(-77.156)" fill="#22ae5c"/>
              <ellipse id="Ellipse_933" data-name="Ellipse 933" cx="5.344" cy="5.994" rx="5.344" ry="5.994" transform="translate(4.256 11.779) rotate(-77.156)" fill="#e9d086"/>
              <ellipse id="Ellipse_934" data-name="Ellipse 934" cx="4.188" cy="4.983" rx="4.188" ry="4.983" transform="translate(6.16 10.927) rotate(-77.156)" fill="#2e8fa3"/>
            </g>
            <g id="Groupe_1503" data-name="Groupe 1503" transform="translate(36.145 74.026)">
              <ellipse id="Ellipse_935" data-name="Ellipse 935" cx="5.56" cy="8.16" rx="5.56" ry="8.16" transform="matrix(0.212, -0.977, 0.977, 0.212, 0, 10.869)" fill="#22ae5c"/>
              <ellipse id="Ellipse_936" data-name="Ellipse 936" cx="5.344" cy="5.994" rx="5.344" ry="5.994" transform="matrix(0.212, -0.977, 0.977, 0.212, 4.278, 11.826)" fill="#e9d086"/>
              <ellipse id="Ellipse_937" data-name="Ellipse 937" cx="4.188" cy="4.983" rx="4.188" ry="4.983" transform="matrix(0.212, -0.977, 0.977, 0.212, 6.164, 10.976)" fill="#2e8fa3"/>
            </g>
            <g id="Groupe_1504" data-name="Groupe 1504" transform="translate(12.514 58.175)">
              <ellipse id="Ellipse_938" data-name="Ellipse 938" cx="5.56" cy="8.16" rx="5.56" ry="8.16" transform="translate(0 9.223) rotate(-56.035)" fill="#22ae5c"/>
              <ellipse id="Ellipse_939" data-name="Ellipse 939" cx="5.344" cy="5.994" rx="5.344" ry="5.994" transform="translate(3.606 11.654) rotate(-56.035)" fill="#e9d086"/>
              <ellipse id="Ellipse_940" data-name="Ellipse 940" cx="4.188" cy="4.983" rx="4.188" ry="4.983" transform="translate(5.615 11.608) rotate(-56.035)" fill="#2e8fa3"/>
            </g>
            <g id="Groupe_1505" data-name="Groupe 1505" transform="translate(5.46 74.885)">
              <ellipse id="Ellipse_941" data-name="Ellipse 941" cx="5.56" cy="8.16" rx="5.56" ry="8.16" transform="translate(0 9.223) rotate(-56.035)" fill="#22ae5c"/>
              <ellipse id="Ellipse_942" data-name="Ellipse 942" cx="5.344" cy="5.994" rx="5.344" ry="5.994" transform="translate(3.641 11.726) rotate(-56.035)" fill="#e9d086"/>
              <ellipse id="Ellipse_943" data-name="Ellipse 943" cx="4.188" cy="4.983" rx="4.188" ry="4.983" transform="translate(5.728 11.514) rotate(-56.035)" fill="#2e8fa3"/>
            </g>
            <g id="Groupe_1506" data-name="Groupe 1506" transform="translate(23.333 35.59)">
              <ellipse id="Ellipse_944" data-name="Ellipse 944" cx="5.56" cy="8.16" rx="5.56" ry="8.16" transform="translate(0 9.223) rotate(-56.035)" fill="#22ae5c"/>
              <ellipse id="Ellipse_945" data-name="Ellipse 945" cx="5.344" cy="5.994" rx="5.344" ry="5.994" transform="translate(3.813 11.673) rotate(-56.035)" fill="#e9d086"/>
              <ellipse id="Ellipse_946" data-name="Ellipse 946" cx="4.188" cy="4.983" rx="4.188" ry="4.983" transform="translate(5.724 11.519) rotate(-56.035)" fill="#2e8fa3"/>
            </g>
            <g id="Groupe_1507" data-name="Groupe 1507" transform="translate(42.618 50.162)">
              <ellipse id="Ellipse_947" data-name="Ellipse 947" cx="5.56" cy="8.16" rx="5.56" ry="8.16" transform="translate(0 9.223) rotate(-56.035)" fill="#22ae5c"/>
              <ellipse id="Ellipse_948" data-name="Ellipse 948" cx="5.344" cy="5.994" rx="5.344" ry="5.994" transform="translate(3.603 11.659) rotate(-56.035)" fill="#e9d086"/>
              <ellipse id="Ellipse_949" data-name="Ellipse 949" cx="4.188" cy="4.983" rx="4.188" ry="4.983" transform="translate(5.63 11.471) rotate(-56.035)" fill="#2e8fa3"/>
            </g>
            <g id="Groupe_1508" data-name="Groupe 1508" transform="translate(38.796 13.168)">
              <ellipse id="Ellipse_950" data-name="Ellipse 950" cx="5.56" cy="8.16" rx="5.56" ry="8.16" transform="matrix(0.658, -0.753, 0.753, 0.658, 0, 8.375)" fill="#22ae5c"/>
              <ellipse id="Ellipse_951" data-name="Ellipse 951" cx="5.344" cy="5.993" rx="5.344" ry="5.993" transform="matrix(0.658, -0.753, 0.753, 0.658, 3.373, 11.327)" fill="#e9d086"/>
              <ellipse id="Ellipse_952" data-name="Ellipse 952" cx="4.188" cy="4.982" rx="4.188" ry="4.982" transform="matrix(0.658, -0.753, 0.753, 0.658, 5.398, 11.391)" fill="#2e8fa3"/>
            </g>
            <g id="Groupe_1509" data-name="Groupe 1509" transform="translate(96.471 3.449)">
              <ellipse id="Ellipse_953" data-name="Ellipse 953" cx="8.16" cy="5.56" rx="8.16" ry="5.56" transform="matrix(0.628, -0.778, 0.778, 0.628, 0.079, 12.7)" fill="#22ae5c"/>
              <ellipse id="Ellipse_954" data-name="Ellipse 954" cx="5.993" cy="5.343" rx="5.993" ry="5.343" transform="matrix(0.628, -0.778, 0.778, 0.628, 0, 12.715)" fill="#e9d086"/>
              <ellipse id="Ellipse_955" data-name="Ellipse 955" cx="4.982" cy="4.188" rx="4.982" ry="4.188" transform="matrix(0.628, -0.778, 0.778, 0.628, 1.258, 13.149)" fill="#2e8fa3"/>
            </g>
            <g id="Groupe_1510" data-name="Groupe 1510" transform="translate(94.017 26.177)">
              <ellipse id="Ellipse_956" data-name="Ellipse 956" cx="6.571" cy="4.333" rx="6.571" ry="4.333" transform="matrix(0.628, -0.778, 0.778, 0.628, 0.006, 10.227)" fill="#22ae5c"/>
              <ellipse id="Ellipse_957" data-name="Ellipse 957" cx="4.838" cy="4.188" rx="4.838" ry="4.188" transform="matrix(0.628, -0.778, 0.778, 0.628, 0, 10.263)" fill="#e9d086"/>
              <ellipse id="Ellipse_958" data-name="Ellipse 958" cx="4.044" cy="3.249" rx="4.044" ry="3.249" transform="matrix(0.628, -0.778, 0.778, 0.628, 0.913, 10.668)" fill="#2e8fa3"/>
            </g>
            <g id="Groupe_1511" data-name="Groupe 1511" transform="translate(120.144 12.835)">
              <ellipse id="Ellipse_959" data-name="Ellipse 959" cx="8.16" cy="5.56" rx="8.16" ry="5.56" transform="matrix(0.628, -0.778, 0.778, 0.628, 0, 12.7)" fill="#22ae5c"/>
              <ellipse id="Ellipse_960" data-name="Ellipse 960" cx="5.993" cy="5.343" rx="5.993" ry="5.343" transform="matrix(0.628, -0.778, 0.778, 0.628, 0.038, 12.726)" fill="#e9d086"/>
              <ellipse id="Ellipse_961" data-name="Ellipse 961" cx="4.982" cy="4.188" rx="4.982" ry="4.188" transform="matrix(0.628, -0.778, 0.778, 0.628, 1.296, 13.159)" fill="#2e8fa3"/>
            </g>
            <g id="Groupe_1512" data-name="Groupe 1512" transform="translate(111.123 38.495)">
              <ellipse id="Ellipse_962" data-name="Ellipse 962" cx="8.16" cy="5.56" rx="8.16" ry="5.56" transform="translate(0.057 9.351) rotate(-34.958)" fill="#22ae5c"/>
              <ellipse id="Ellipse_963" data-name="Ellipse 963" cx="5.994" cy="5.344" rx="5.994" ry="5.344" transform="translate(0 9.387) rotate(-34.958)" fill="#e9d086"/>
              <ellipse id="Ellipse_964" data-name="Ellipse 964" cx="4.983" cy="4.188" rx="4.983" ry="4.188" transform="translate(0.973 10.182) rotate(-34.958)" fill="#2e8fa3"/>
            </g>
            <g id="Groupe_1513" data-name="Groupe 1513" transform="translate(127.536 55.371)">
              <ellipse id="Ellipse_965" data-name="Ellipse 965" cx="8.16" cy="5.56" rx="8.16" ry="5.56" transform="translate(0.012 8.842) rotate(-32.806)" fill="#22ae5c"/>
              <ellipse id="Ellipse_966" data-name="Ellipse 966" cx="5.993" cy="5.344" rx="5.993" ry="5.344" transform="translate(0 8.942) rotate(-32.806)" fill="#e9d086"/>
              <ellipse id="Ellipse_967" data-name="Ellipse 967" cx="4.982" cy="4.188" rx="4.982" ry="4.188" transform="translate(1.051 9.723) rotate(-32.806)" fill="#2e8fa3"/>
            </g>
            <g id="Groupe_1514" data-name="Groupe 1514" transform="translate(149.651 43.93)">
              <ellipse id="Ellipse_968" data-name="Ellipse 968" cx="8.16" cy="5.56" rx="8.16" ry="5.56" transform="matrix(0.871, -0.491, 0.491, 0.871, 0.029, 8.018)" fill="#22ae5c"/>
              <ellipse id="Ellipse_969" data-name="Ellipse 969" cx="5.993" cy="5.344" rx="5.993" ry="5.344" transform="matrix(0.871, -0.491, 0.491, 0.871, 0, 8.084)" fill="#e9d086"/>
              <ellipse id="Ellipse_970" data-name="Ellipse 970" cx="4.983" cy="4.188" rx="4.983" ry="4.188" transform="matrix(0.871, -0.491, 0.491, 0.871, 0.941, 8.951)" fill="#2e8fa3"/>
            </g>
            <g id="Groupe_1515" data-name="Groupe 1515" transform="translate(136.456 27.383)">
              <ellipse id="Ellipse_971" data-name="Ellipse 971" cx="8.16" cy="5.56" rx="8.16" ry="5.56" transform="translate(0.056 9.351) rotate(-34.958)" fill="#22ae5c"/>
              <ellipse id="Ellipse_972" data-name="Ellipse 972" cx="5.994" cy="5.344" rx="5.994" ry="5.344" transform="translate(0 9.448) rotate(-34.958)" fill="#e9d086"/>
              <ellipse id="Ellipse_973" data-name="Ellipse 973" cx="4.983" cy="4.188" rx="4.983" ry="4.188" transform="translate(1.151 10.234) rotate(-34.958)" fill="#2e8fa3"/>
            </g>
            <g id="Groupe_1516" data-name="Groupe 1516" transform="translate(142.282 81.114)">
              <ellipse id="Ellipse_974" data-name="Ellipse 974" cx="5.56" cy="8.16" rx="5.56" ry="8.16" transform="translate(0.037 11.221) rotate(-85.688)" fill="#22ae5c"/>
              <ellipse id="Ellipse_975" data-name="Ellipse 975" cx="5.344" cy="5.994" rx="5.344" ry="5.994" transform="translate(0 10.657) rotate(-85.689)" fill="#e9d086"/>
              <ellipse id="Ellipse_976" data-name="Ellipse 976" cx="4.188" cy="4.983" rx="4.188" ry="4.983" transform="translate(0.539 9.714) rotate(-85.688)" fill="#2e8fa3"/>
            </g>
            <g id="Groupe_1517" data-name="Groupe 1517" transform="translate(168.447 84.1)">
              <ellipse id="Ellipse_977" data-name="Ellipse 977" cx="5.56" cy="8.16" rx="5.56" ry="8.16" transform="translate(0 11.089) rotate(-85.688)" fill="#22ae5c"/>
              <ellipse id="Ellipse_978" data-name="Ellipse 978" cx="5.344" cy="5.994" rx="5.344" ry="5.994" transform="translate(0.026 10.664) rotate(-85.688)" fill="#e9d086"/>
              <ellipse id="Ellipse_979" data-name="Ellipse 979" cx="4.188" cy="4.983" rx="4.188" ry="4.983" transform="translate(0.45 9.639) rotate(-85.688)" fill="#2e8fa3"/>
            </g>
            <g id="Groupe_1518" data-name="Groupe 1518" transform="translate(165.572 62.605)">
              <ellipse id="Ellipse_980" data-name="Ellipse 980" cx="8.16" cy="5.56" rx="8.16" ry="5.56" transform="translate(0.005 3.615) rotate(-12.797)" fill="#22ae5c"/>
              <ellipse id="Ellipse_981" data-name="Ellipse 981" cx="5.994" cy="5.344" rx="5.994" ry="5.344" transform="translate(0 3.635) rotate(-12.797)" fill="#e9d086"/>
              <ellipse id="Ellipse_982" data-name="Ellipse 982" cx="4.983" cy="4.188" rx="4.983" ry="4.188" transform="translate(0.664 4.755) rotate(-12.797)" fill="#2e8fa3"/>
            </g>
            <g id="Groupe_1519" data-name="Groupe 1519" transform="translate(144.713 103.194)">
              <ellipse id="Ellipse_983" data-name="Ellipse 983" cx="5.56" cy="8.16" rx="5.56" ry="8.16" transform="translate(0.046 10.865) rotate(-77.684)" fill="#22ae5c"/>
              <ellipse id="Ellipse_984" data-name="Ellipse 984" cx="5.344" cy="5.994" rx="5.344" ry="5.994" transform="translate(0 10.511) rotate(-77.684)" fill="#e9d086"/>
              <ellipse id="Ellipse_985" data-name="Ellipse 985" cx="4.188" cy="4.983" rx="4.188" ry="4.983" transform="translate(0.704 9.551) rotate(-77.684)" fill="#2e8fa3"/>
            </g>
            <g id="Groupe_1520" data-name="Groupe 1520" transform="translate(175.922 106.196)">
              <ellipse id="Ellipse_986" data-name="Ellipse 986" cx="5.56" cy="8.16" rx="5.56" ry="8.16" transform="translate(0 11.089) rotate(-85.688)" fill="#22ae5c"/>
              <ellipse id="Ellipse_987" data-name="Ellipse 987" cx="5.344" cy="5.994" rx="5.344" ry="5.994" transform="translate(0.026 10.664) rotate(-85.688)" fill="#e9d086"/>
              <ellipse id="Ellipse_988" data-name="Ellipse 988" cx="4.188" cy="4.983" rx="4.188" ry="4.983" transform="translate(0.513 9.638) rotate(-85.688)" fill="#2e8fa3"/>
            </g>
          </g>
        </g>
        <g id="Groupe_1525" data-name="Groupe 1525" transform="translate(80.666 99.899)">
          <g id="Groupe_1522" data-name="Groupe 1522" transform="translate(0 1.487)">
            <path id="Tracé_2616" data-name="Tracé 2616" d="M127.264,195.481c-.217-.939.072-1.444,1.011-1.444l4.188-.505c.722-.217,1.083.144,1.083,1.228l.794,6.86c.217.867,0,1.516-1.155,1.444l-3.538.433c-.578.217-1.083.144-1.228-.939Z" transform="translate(-127.196 -193.471)" fill="#eca93f" stroke="#2a3f40" stroke-miterlimit="10" stroke-width="0.304"/>
            <path id="Tracé_2617" data-name="Tracé 2617" d="M129.3,201.227a14.082,14.082,0,0,1-1.3-2.744c-.217-.794.867.289.867.289-.722-.072-.289-4.91.794-4.694.939.217.794,4.333.722,4.621-.072.361-.144.289-.144.289.144-.217,1.444-1.228,1.083-.361-.072.144-1.516,2.6-1.516,2.6Z" transform="translate(-126.127 -192.646)" fill="#84c7cb"/>
          </g>
          <g id="Groupe_1523" data-name="Groupe 1523" transform="translate(7.842 1.276)">
            <path id="Tracé_2618" data-name="Tracé 2618" d="M130.955,194.592c0-.939.433-1.372,1.3-1.155l4.188.505c.722-.072,1.011.433.794,1.372l-.794,6.86c0,.939-.361,1.444-1.444,1.155l-3.538-.433c-.578.072-1.083-.072-.939-1.228Z" transform="translate(-130.497 -193.382)" fill="#eca93f" stroke="#2a3f40" stroke-miterlimit="10" stroke-width="0.304"/>
            <path id="Tracé_2619" data-name="Tracé 2619" d="M131.735,200.932a12.333,12.333,0,0,1-.65-2.961c0-.794.794.433.794.433-.722-.217.867-4.838,1.877-4.4.867.361-.217,4.4-.361,4.694s-.217.289-.217.289c.217-.217,1.661-.867,1.155-.144-.144.144-2.094,2.166-2.094,2.239Z" transform="translate(-129.688 -192.573)" fill="#84c7cb"/>
          </g>
          <g id="Groupe_1524" data-name="Groupe 1524" transform="translate(3.066)">
            <path id="Tracé_2620" data-name="Tracé 2620" d="M128.522,194.464c-.144-.939.144-1.444,1.083-1.372l4.188-.217c.722-.144,1.083.217,1.011,1.228l.361,6.86c.144.866-.072,1.516-1.3,1.372l-3.538.144c-.578.144-1.083.072-1.155-1.083Z" transform="translate(-128.486 -192.845)" fill="#2e5058" stroke="#2a3f40" stroke-miterlimit="10" stroke-width="0.304"/>
            <path id="Tracé_2621" data-name="Tracé 2621" d="M130.292,200.489a11.168,11.168,0,0,1-1.083-2.816c-.144-.794.794.361.794.361-.722-.072,0-4.91,1.083-4.621.867.289.506,4.333.361,4.694-.072.361-.144.289-.144.289.144-.217,1.516-1.155,1.083-.289-.072.144-1.733,2.527-1.661,2.527Z" transform="translate(-127.513 -192.082)" fill="#84c7cb"/>
          </g>
        </g>
        <g id="Groupe_1527" data-name="Groupe 1527" transform="translate(77.653 52.378)">
          <path id="Tracé_2622" data-name="Tracé 2622" d="M154.713,190.548s3.177,9.748,2.527,11.409c-1.083,2.816-13.864,7.221-15.236,7.871s-5.7,1.589-6.571.578,5.488-4.838,5.488-4.838-10.109,5.849-10.47,3.61c-.289-2.238,8.665-7.582,8.665-7.582s-7.654,5.127-8.088,3.1,9.1-7.365,9.1-7.365" transform="translate(-119.715 -148.484)" fill="#77c1b0" stroke="#2a3f40" stroke-miterlimit="10" stroke-width="0.304"/>
          <g id="Groupe_1526" data-name="Groupe 1526">
            <path id="Tracé_2623" data-name="Tracé 2623" d="M126.092,182.7a7.318,7.318,0,0,0,6.138.505c4.982-1.733,5.488-5.632,4.4-10.254C128.835,172.377,125.153,175.482,126.092,182.7Z" transform="translate(-125.898 -172.773)" fill="#fefdfc"/>
            <path id="Tracé_2624" data-name="Tracé 2624" d="M132.125,177.081c.433,1.228.217,2.094-.939,2.383-1.589.433-4.333-.072-4.91-1.589-.578-1.589-.289-2.672.505-3.033C128.37,174.192,131.619,175.42,132.125,177.081Z" transform="translate(-125.866 -170.328)" fill="#21b061"/>
            <path id="Tracé_2625" data-name="Tracé 2625" d="M126.12,182.986c-1.083-7.221,2.383-10.543,10.47-10.109" transform="translate(-125.927 -172.839)" fill="none" stroke="#2a3f40" stroke-miterlimit="10" stroke-width="0.304"/>
            <path id="Tracé_2626" data-name="Tracé 2626" d="M131.971,175.773s.505,1.372-.433,2.022c-2.383,1.011-5.56-1.444-5.56-1.444" transform="translate(-125.857 -168.804)" fill="none" stroke="#2a3f40" stroke-miterlimit="10" stroke-width="0.304"/>
            <path id="Tracé_2627" data-name="Tracé 2627" d="M128.805,179.122a5.347,5.347,0,0,0,3.755-3.105" transform="translate(-121.969 -168.469)" fill="none" stroke="#2a3f40" stroke-miterlimit="10" stroke-width="0.304"/>
            <path id="Tracé_2628" data-name="Tracé 2628" d="M126.069,175.317s2.311,1.805,2.744,1.372-.144-1.155-.144-1.155" transform="translate(-125.731 -169.431)" fill="none" stroke="#2a3f40" stroke-miterlimit="10" stroke-width="0.304"/>
          </g>
        </g>
        <path id="Tracé_2629" data-name="Tracé 2629" d="M126.624,194.773s6.571,4.116,6.21,4.982c-.361.939-3.755-.578-3.755-.578s5.632,1.589,5.488,3.61-7-1.3-7-1.3,3.322,1.3,3.177,2.383c-.289,1.733-5.127-.578-5.127-.578" transform="translate(-48.706 -90.294)" fill="#77c1b0" stroke="#2a3f40" stroke-miterlimit="10" stroke-width="0.304"/>
      </g>
    </g>
  </g>
</svg>
