<svg xmlns="http://www.w3.org/2000/svg" xmlns:xlink="http://www.w3.org/1999/xlink" width="212" height="144" viewBox="0 0 212 144">
  <defs>
    <clipPath id="clip-path">
      <rect id="Rectangle_507" data-name="Rectangle 507" width="212" height="144" transform="translate(0.059 -0.082)" fill="#fff" stroke="#707070" stroke-width="1"/>
    </clipPath>
  </defs>
  <g id="Groupe_de_masques_15" data-name="Groupe de masques 15" transform="translate(-0.059 0.082)" clip-path="url(#clip-path)">
    <g id="Calque_8" transform="translate(0.57 0.05)">
      <g id="Groupe_1596" data-name="Groupe 1596" transform="translate(0 0)">
        <g id="Groupe_1594" data-name="Groupe 1594">
          <g id="Calque_2_00000170238699786388545730000004902425253493158273_">
            <g id="Groupe_1591" data-name="Groupe 1591">
              <path id="Tracé_2630" data-name="Tracé 2630" d="M158.965,72.614c0-.283.057-.567.057-.85,0-14.164-16.373-25.608-36.543-25.608A46.856,46.856,0,0,0,98.74,52.275C77.551,50.349,46.277,63.55,58.4,66.439a11.8,11.8,0,0,0-14.9,1.586c-4.193,4.419-3.513,11.728.567,17.847C39.195,84.739,35,84.739,32.51,88.421c-3.116,4.589-1.02,15.184,1.813,15.864-6.912-8.272-13.6,13.767-2.323,10.878.68-.17.567-1.3.623-.567-.17,5.892-5.1,10.935-5.5,15.637C25.994,142.868,41.518,155.5,63.67,155.842c18.64.283,33.993-9.745,36.26-22.379a34.2,34.2,0,0,0,3.513-7.592c6.629,15.41,23.8,26.4,43.908,26.4,25.835,0,49.064-14.844,48.214-41.189C194.828,92.331,182.421,76.3,158.965,72.614Z" transform="translate(4.657 -33.997)" fill="#84c7cc"/>
              <ellipse id="Ellipse_989" data-name="Ellipse 989" cx="20.736" cy="18.583" rx="20.736" ry="18.583" transform="translate(160.902 98.333)" fill="#84c7cc"/>
              <ellipse id="Ellipse_990" data-name="Ellipse 990" cx="18.073" cy="12.011" rx="18.073" ry="12.011" transform="translate(143.396 24.85)" fill="#84c7cc"/>
              <ellipse id="Ellipse_991" data-name="Ellipse 991" cx="8.215" cy="8.555" rx="8.215" ry="8.555" transform="translate(189.06 85.925)" fill="#84c7cc"/>
              <ellipse id="Ellipse_992" data-name="Ellipse 992" cx="18.073" cy="12.011" rx="18.073" ry="12.011" transform="translate(144.189 31.139)" fill="#84c7cc"/>
              <ellipse id="Ellipse_993" data-name="Ellipse 993" cx="8.895" cy="10.538" rx="8.895" ry="10.538" transform="matrix(0.739, -0.674, 0.674, 0.739, 26.057, 76.144)" fill="#84c7cc"/>
              <path id="Tracé_2631" data-name="Tracé 2631" d="M78.288,93.308c.793,3.286-2.946,4.249-18.526,12.351-10.2,5.326-21.359,1.643-21.473-2.719-.113-3.343,5.949-9.348,20.226-7.932C69.9,96.2,77.494,90.021,78.288,93.308Z" transform="translate(19.5 21.569)" fill="#84c7cc"/>
              <path id="Tracé_2632" data-name="Tracé 2632" d="M50.431,62.478c-.793-12.181,1.246-18.186,11.9-20.566,9.008-1.983,14.221,6.912,14.107,15.58" transform="translate(33.929 -39.441)" fill="#84c7cc"/>
              <path id="Tracé_2633" data-name="Tracé 2633" d="M67.835,60.579c0,7.479-8.328,11.444-15.807,11.444s-12.918-6.8-12.918-14.277S43.87,45.565,51.348,45.565,67.835,53.1,67.835,60.579Z" transform="translate(20.491 -34.709)" fill="#84c7cc"/>
              <path id="Tracé_2634" data-name="Tracé 2634" d="M59.075,97.678c.113,8.328-3.739,14.107-19.093,15.07-9.178.567-15.3-5.156-15.3-12.634,0-8.158,7.535-13.484,16.883-13.484S58.962,90.256,59.075,97.678Z" transform="translate(3.133 14.706)" fill="#84c7cc"/>
              <path id="Tracé_2635" data-name="Tracé 2635" d="M25.3,85.207c-1.983,6.175,4.7,11.9,4.7,11.9l2.663-16.827C32.719,80.278,26.544,81.865,25.3,85.207Z" transform="translate(3.427 7.063)" fill="#84c7cc"/>
              <g id="Groupe_1529" data-name="Groupe 1529" transform="translate(47.251 37.484)">
                <path id="Tracé_2636" data-name="Tracé 2636" d="M37.81,87.208a11.318,11.318,0,0,1-4.023-.623l.227-.51c3.286,1.246,8.158.283,12.068-.68l.113.567A40.45,40.45,0,0,1,37.81,87.208Z" transform="translate(-33.165 -24.264)" fill="#7bc1ae"/>
                <path id="Tracé_2637" data-name="Tracé 2637" d="M34.355,100.725l-.567-.057a15.178,15.178,0,0,1,3.286-8.725,20.606,20.606,0,0,1-3.569-10.765h.567a20.069,20.069,0,0,0,3.569,10.595l.113.17-.113.17A15.139,15.139,0,0,0,34.355,100.725Z" transform="translate(-33.505 -29.338)" fill="#7bc1ae"/>
                <path id="Tracé_2638" data-name="Tracé 2638" d="M36.779,99.864h-.567a11.6,11.6,0,0,1,3.4-8.328,37.64,37.64,0,0,1-4.872-10.085l.567-.17a41.032,41.032,0,0,0,4.929,10.141l.113.17-.17.17A11,11,0,0,0,36.779,99.864Z" transform="translate(-32.02 -29.215)" fill="#7bc1ae"/>
                <path id="Tracé_2639" data-name="Tracé 2639" d="M41.535,90.871a20.067,20.067,0,0,1-5.1-9.348L37,81.41a19.635,19.635,0,0,0,4.986,9.122Z" transform="translate(-29.978 -29.06)" fill="#7bc1ae"/>
                <path id="Tracé_2640" data-name="Tracé 2640" d="M43.176,89.12a21.8,21.8,0,0,1-5.326-7.535l.51-.227a19.946,19.946,0,0,0,5.212,7.309Z" transform="translate(-28.276 -29.122)" fill="#7bc1ae"/>
                <g id="Groupe_1528" data-name="Groupe 1528" transform="translate(7.309)">
                  <path id="Tracé_2641" data-name="Tracé 2641" d="M44.893,65.19l-.17-.17c-1.246-1.643-1.416-1.926-4.532-2.663l.113-.567c3.173.793,3.513,1.076,4.816,2.833l.17.17Z" transform="translate(-32.769 -52.669)" fill="#7bc1ae"/>
                  <path id="Tracé_2642" data-name="Tracé 2642" d="M37.275,76.913l-.453-.34a27,27,0,0,1,10.2-8.328A20.31,20.31,0,0,1,50.363,57.65l.453.283a19.754,19.754,0,0,0-3.229,10.425v.17l-.17.057A28.362,28.362,0,0,0,37.275,76.913Z" transform="translate(-36.822 -57.65)" fill="#7bc1ae"/>
                  <path id="Tracé_2643" data-name="Tracé 2643" d="M38.324,76.54l-.4-.4a30.814,30.814,0,0,0,2.38-2.323,26.089,26.089,0,0,1,6.855-5.5c-.17-3.173,1.53-5.326,3.286-7.649.4-.51.793-1.02,1.19-1.586l.453.34c-.4.567-.793,1.076-1.19,1.586-1.756,2.266-3.4,4.419-3.173,7.422v.17l-.17.057a25,25,0,0,0-6.855,5.5Z" transform="translate(-35.492 -55.918)" fill="#7bc1ae"/>
                  <path id="Tracé_2644" data-name="Tracé 2644" d="M39.8,70.267l-.51-.283.17-.283c.963-1.813,1.416-2.776,5.042-3.8l.17.567c-3.4.963-3.8,1.756-4.7,3.513Z" transform="translate(-33.852 -47.718)" fill="#7bc1ae"/>
                  <path id="Tracé_2645" data-name="Tracé 2645" d="M40.906,70.3l-.51-.227c.963-1.983,1.7-2.1,3.4-2.436l.34-.057.113.567-.34.057C42.209,68.482,41.7,68.6,40.906,70.3Z" transform="translate(-32.521 -45.707)" fill="#7bc1ae"/>
                </g>
              </g>
              <g id="Groupe_1530" data-name="Groupe 1530" transform="translate(49.234 58.22)">
                <path id="Tracé_2646" data-name="Tracé 2646" d="M42.726,75.229l.057-.283-.057.283c-3.229-.737-3.8-.85-6.572-3.4l.4-.4c2.663,2.436,3.173,2.55,6.289,3.286Z" transform="translate(-32.301 -61.801)" fill="#7bc1ae"/>
                <path id="Tracé_2647" data-name="Tracé 2647" d="M34.915,85.475l-.51-.227a13.823,13.823,0,0,1,6.685-6.629,19.214,19.214,0,0,1,.453-11.558l.51.227c-1.3,3.229-1.416,7.082-.4,11.444l.057.227-.227.113A12.929,12.929,0,0,0,34.915,85.475Z" transform="translate(-34.405 -67.062)" fill="#7bc1ae"/>
                <path id="Tracé_2648" data-name="Tracé 2648" d="M36.843,85.71l-.51-.227c.113-.34.227-.623.34-.963.906-2.323,1.643-4.362,4.589-5.439a23.537,23.537,0,0,1,.17-8.5,26.4,26.4,0,0,0,.34-2.776l.567.057c-.057.907-.227,1.87-.34,2.833a22.439,22.439,0,0,0-.113,8.5l.057.227-.227.057c-2.889.963-3.626,2.833-4.476,5.156C37.07,85.031,36.957,85.37,36.843,85.71Z" transform="translate(-32.084 -66.164)" fill="#7bc1ae"/>
                <path id="Tracé_2649" data-name="Tracé 2649" d="M41.655,75.429c-.17-.453-.34-.793-.453-1.133-.963-2.21-.963-2.266-.567-5.156l.057-.51.567.057-.057.51c-.4,2.719-.4,2.719.51,4.816.113.34.283.68.453,1.133Z" transform="translate(-27.208 -65.174)" fill="#7bc1ae"/>
                <path id="Tracé_2650" data-name="Tracé 2650" d="M42.843,73.867c-1.36-2.493-1.246-3-.737-4.306l.17-.34.51.227-.17.34c-.453,1.133-.567,1.473.68,3.8Z" transform="translate(-25.563 -64.462)" fill="#7bc1ae"/>
              </g>
              <g id="Groupe_1531" data-name="Groupe 1531" transform="translate(47.014 76.237)">
                <rect id="Rectangle_509" data-name="Rectangle 509" width="0.567" height="16.09" transform="translate(0 7.181) rotate(-80.474)" fill="#7bc1ae"/>
                <path id="Tracé_2651" data-name="Tracé 2651" d="M33.582,88.893A6,6,0,0,1,36.132,82.6a11.4,11.4,0,0,1-1.36-7.365l.567.057a11.026,11.026,0,0,0,1.416,7.252l.113.227-.227.17a5.5,5.5,0,0,0-2.55,5.892Z" transform="translate(-33.289 -75.238)" fill="#7bc1ae"/>
                <path id="Tracé_2652" data-name="Tracé 2652" d="M35.949,89.258l-.567-.113c.567-2.493,1.19-4.816,2.55-6.175a10.069,10.069,0,0,1-1.36-7.422l.567.113a9.739,9.739,0,0,0,1.416,7.2l.113.227-.17.17C37.138,84.442,36.515,86.765,35.949,89.258Z" transform="translate(-31.01 -74.867)" fill="#7bc1ae"/>
                <path id="Tracé_2653" data-name="Tracé 2653" d="M37.954,88.072h-.283l-.283-.057c.34-2.1.68-4.193,2.55-5.326a7.751,7.751,0,0,1-1.36-6.345l.567.113a7.421,7.421,0,0,0,1.416,6.175l.17.283-.283.17C38.634,83.993,38.294,85.976,37.954,88.072Z" transform="translate(-28.596 -73.908)" fill="#7bc1ae"/>
                <path id="Tracé_2654" data-name="Tracé 2654" d="M39.729,87.943l-.567-.057a9.13,9.13,0,0,1,2.606-5.326l-1.416-6.232.567-.113,1.53,6.572-.113.113A8.115,8.115,0,0,0,39.729,87.943Z" transform="translate(-26.461 -74.063)" fill="#7bc1ae"/>
              </g>
              <g id="Groupe_1532" data-name="Groupe 1532" transform="translate(46.628 107.511)">
                <path id="Tracé_2655" data-name="Tracé 2655" d="M36.275,95.845a8.96,8.96,0,0,1-2.153-.227l.113-.567c3.4.737,8.158-.737,11.841-2.1l.17.51C43.017,94.712,39.391,95.845,36.275,95.845Z" transform="translate(-32.139 -85.193)" fill="#7bc1ae"/>
                <path id="Tracé_2656" data-name="Tracé 2656" d="M36,107.84A13.07,13.07,0,0,1,38.151,99.4a18.86,18.86,0,0,1-4.929-9.518l.567-.113c.453,3.173,2.153,6.289,4.929,9.348l.17.17-.113.17a12.68,12.68,0,0,0-2.153,8.272Z" transform="translate(-33.222 -89.03)" fill="#7bc1ae"/>
                <path id="Tracé_2657" data-name="Tracé 2657" d="M38.283,106.733a10.252,10.252,0,0,1,2.266-8.045,37.963,37.963,0,0,1-6.119-8.668l.51-.227a38.6,38.6,0,0,0,6.175,8.725l.17.17-.17.17a9.669,9.669,0,0,0-2.323,7.762Z" transform="translate(-31.768 -88.999)" fill="#7bc1ae"/>
                <path id="Tracé_2658" data-name="Tracé 2658" d="M42.448,97.936A20.182,20.182,0,0,1,36.1,89.891l.51-.227a19.326,19.326,0,0,0,6.119,7.818Z" transform="translate(-29.757 -89.154)" fill="#7bc1ae"/>
                <path id="Tracé_2659" data-name="Tracé 2659" d="M43.831,96.061a21.423,21.423,0,0,1-6.289-6.289l.453-.34a20.369,20.369,0,0,0,6.062,6.175Z" transform="translate(-28.024 -89.432)" fill="#7bc1ae"/>
              </g>
              <g id="Groupe_1533" data-name="Groupe 1533" transform="translate(74.491 87.738)">
                <rect id="Rectangle_510" data-name="Rectangle 510" width="13.54" height="0.567" transform="translate(0.026 11.583) rotate(-7.458)" fill="#7bc1ae"/>
                <path id="Tracé_2660" data-name="Tracé 2660" d="M46.786,101.194a18.109,18.109,0,0,1,1.133-9.4c-1.3-3.4-2.436-8.158-1.926-11.331l.567.113c-.453,2.606.283,6.855,1.926,11.1l.057.113-.057.113a18.358,18.358,0,0,0-1.133,9.178Z" transform="translate(-45.868 -80.458)" fill="#7bc1ae"/>
                <path id="Tracé_2661" data-name="Tracé 2661" d="M48.442,100.1a15.5,15.5,0,0,1,1.416-8.952,28.588,28.588,0,0,1-1.643-10.538h.567a27.755,27.755,0,0,0,1.643,10.425l.057.113-.057.113a14.426,14.426,0,0,0-1.473,8.725Z" transform="translate(-43.048 -80.273)" fill="#7bc1ae"/>
                <path id="Tracé_2662" data-name="Tracé 2662" d="M51.359,97.933c-.17-2.946-.227-6.006.623-7.818a20.448,20.448,0,0,1-1.643-9.065l.567.057a19.231,19.231,0,0,0,1.643,8.952l.057.113-.057.113c-.85,1.7-.737,4.872-.567,7.649Z" transform="translate(-40.526 -79.747)" fill="#7bc1ae"/>
                <path id="Tracé_2663" data-name="Tracé 2663" d="M53.465,88.065c-.963-.963-1.586-5.892-1.02-6.912l.51.283c-.453.793.113,5.439.906,6.232Z" transform="translate(-38.213 -79.623)" fill="#7bc1ae"/>
                <path id="Tracé_2664" data-name="Tracé 2664" d="M52.816,88.25" transform="translate(-37.507 -71.083)" fill="none" stroke="#7bc1ae" stroke-miterlimit="10" stroke-width="0.257"/>
                <path id="Tracé_2665" data-name="Tracé 2665" d="M52.97,86.758" transform="translate(-37.322 -72.878)" fill="none" stroke="#7bc1ae" stroke-miterlimit="10" stroke-width="0.257"/>
              </g>
              <g id="Groupe_1534" data-name="Groupe 1534" transform="translate(76.13 68.022)">
                <rect id="Rectangle_511" data-name="Rectangle 511" width="0.567" height="23.172" transform="translate(0 11.304) rotate(-88.6)" fill="#7bc1ae"/>
                <path id="Tracé_2666" data-name="Tracé 2666" d="M47.858,91.566a11.514,11.514,0,0,1,1.473-9.008c-2.663-3.739-2.55-8.668-2.04-11.048l.567.113c-.51,2.323-.567,7.2,2.04,10.765l.113.17-.113.17a11.036,11.036,0,0,0-1.473,8.725Z" transform="translate(-46.143 -71.51)" fill="#7bc1ae"/>
                <path id="Tracé_2667" data-name="Tracé 2667" d="M49.689,90.71c-.453-2.493.51-6.459,2.1-9.122a23.481,23.481,0,0,1-1.7-9.178h.567a21.912,21.912,0,0,0,1.756,9.065l.057.113-.057.113a14.947,14.947,0,0,0-2.1,8.895Z" transform="translate(-43.044 -70.427)" fill="#7bc1ae"/>
                <path id="Tracé_2668" data-name="Tracé 2668" d="M53.513,91.5c-.4-4.193-.567-7.818.623-9.858-1.983-3.739-2.436-5.156-2.153-8.952l.567.057c-.283,3.683.17,5.042,2.153,8.782l.057.17-.113.113c-1.3,1.983-.906,6.4-.623,9.631Z" transform="translate(-40.24 -70.087)" fill="#7bc1ae"/>
                <path id="Tracé_2669" data-name="Tracé 2669" d="M58.557,79.943c-1.246-.793-2.323-3.626-2.493-5.156a1.515,1.515,0,0,1,.283-1.246l.4.4s-.17.17-.113.793c.113,1.53,1.246,4.079,2.21,4.759Z" transform="translate(-35.255 -69.066)" fill="#7bc1ae"/>
                <path id="Tracé_2670" data-name="Tracé 2670" d="M57.65,79.893" transform="translate(-33.329 -61.423)" fill="none" stroke="#7bc1ae" stroke-miterlimit="10" stroke-width="0.257"/>
                <path id="Tracé_2671" data-name="Tracé 2671" d="M57.727,78.607" transform="translate(-33.236 -62.97)" fill="none" stroke="#7bc1ae" stroke-miterlimit="10" stroke-width="0.257"/>
                <path id="Tracé_2672" data-name="Tracé 2672" d="M54.6,86.016a6.646,6.646,0,0,1,1.36-5.1l.17-.227c-1.416-2.776-2.153-4.419-1.926-7.252l.567.057c-.227,2.663.34,4.023,1.926,7.082l.057.17-.34.51a5.811,5.811,0,0,0-1.246,4.759Z" transform="translate(-37.528 -69.189)" fill="#7bc1ae"/>
              </g>
              <path id="Tracé_2673" data-name="Tracé 2673" d="M50.749,75.875c-.17-.34-.057-.85.34-1.473.963-1.7,3.853-4.363,5.779-4.589l.057.567c-1.586.17-4.419,2.606-5.382,4.306-.4.623-.34.906-.283.963Z" transform="translate(34.404 -5.53)" fill="#7bc1ae"/>
              <g id="Groupe_1535" data-name="Groupe 1535" transform="translate(77.675 48.362)">
                <path id="Tracé_2674" data-name="Tracé 2674" d="M60.707,71.964c-4.306-.737-9.122-1.756-11.671-4.249l.4-.4c2.436,2.38,7.082,3.4,11.331,4.136Z" transform="translate(-45.24 -56.894)" fill="#7bc1ae"/>
                <path id="Tracé_2675" data-name="Tracé 2675" d="M47.823,81.85l-.51-.227a14.984,14.984,0,0,1,6.459-6.8c-.737-4.419-.4-9.065.963-12.238l.51.227c-1.3,3.116-1.643,7.762-.906,12.124l.057.227-.17.113A13.6,13.6,0,0,0,47.823,81.85Z" transform="translate(-47.313 -62.587)" fill="#7bc1ae"/>
                <path id="Tracé_2676" data-name="Tracé 2676" d="M49.572,82.112l-.51-.227A11.7,11.7,0,0,1,55.407,75.6a49.731,49.731,0,0,1,.227-12.521l.567.057a47.618,47.618,0,0,0-.17,12.634l.057.227-.227.113A10.465,10.465,0,0,0,49.572,82.112Z" transform="translate(-45.209 -61.999)" fill="#7bc1ae"/>
                <path id="Tracé_2677" data-name="Tracé 2677" d="M54.387,75.09a20.312,20.312,0,0,1-1.02-10.651l.567.113a20.287,20.287,0,0,0,1.02,10.311Z" transform="translate(-40.393 -60.359)" fill="#7bc1ae"/>
                <path id="Tracé_2678" data-name="Tracé 2678" d="M56.434,73.987a20.033,20.033,0,0,1-1.87-9.008h.567A19.982,19.982,0,0,0,57,73.76Z" transform="translate(-38.588 -59.71)" fill="#7bc1ae"/>
              </g>
              <path id="Tracé_2679" data-name="Tracé 2679" d="M61.507,56.3C66.1,46.325,78.391,36.127,86.946,42.869c11.728,9.292,2.1,19.206-6.062,23.286" transform="translate(47.442 -40.568)" fill="#84c7cc"/>
              <path id="Tracé_2680" data-name="Tracé 2680" d="M60.845,78.041c-1.246-.793-2.323-3.626-2.493-5.156a1.515,1.515,0,0,1,.283-1.246l.4.4s-.17.17-.113.793c.113,1.53,1.246,4.079,2.21,4.759Z" transform="translate(43.628 -3.333)" fill="#7bc1ae"/>
              <path id="Tracé_2681" data-name="Tracé 2681" d="M44.717,64.265l-.567-.113.057-.283c.283-1.7.567-2.493,3.513-3.853l.227.51c-2.776,1.3-2.889,1.926-3.173,3.456Z" transform="translate(26.556 -17.319)" fill="#7bc1ae"/>
              <g id="Groupe_1536" data-name="Groupe 1536" transform="translate(64.814 21.961)">
                <path id="Tracé_2682" data-name="Tracé 2682" d="M62.2,69.978l-.51-.453C55.23,63.859,48.545,58.023,46.9,53.037l.567-.17c1.586,4.872,8.215,10.651,14.617,16.2l.51.453Z" transform="translate(-34.948 -47.882)" fill="#7bc1ae"/>
                <path id="Tracé_2683" data-name="Tracé 2683" d="M41.7,63.805l-.227-.51A56.062,56.062,0,0,1,55.64,59.33c1.246-2.606,5.269-5.722,9.178-8.725l.34.453c-3.739,2.889-7.988,6.175-9.122,8.668l-.057.113h-.17A58.8,58.8,0,0,0,41.7,63.805Z" transform="translate(-41.476 -50.605)" fill="#7bc1ae"/>
                <path id="Tracé_2684" data-name="Tracé 2684" d="M43.8,66.018l-.4-.4c2.776-2.493,7.875-3.229,12.521-3.569,1.586-2.889,4.362-6.062,8.895-10.085l.4.4c-4.476,4.023-7.309,7.2-8.838,10.085l-.057.113h-.17C51.507,62.9,46.408,63.582,43.8,66.018Z" transform="translate(-39.156 -48.965)" fill="#7bc1ae"/>
                <path id="Tracé_2685" data-name="Tracé 2685" d="M46.085,67l-.34-.453c2.323-1.983,5.722-3.173,10.935-3.853,1.076-2.436,3.343-5.1,7.139-8.442l.4.453c-3.8,3.343-6.062,6.006-7.082,8.385l-.057.17h-.17C51.694,63.888,48.351,65.077,46.085,67Z" transform="translate(-36.34 -46.211)" fill="#7bc1ae"/>
                <path id="Tracé_2686" data-name="Tracé 2686" d="M49.16,68.386l-.51-.283c1.473-2.719,5.552-3.8,9.008-4.419.057-2.889,2.153-5.269,4.476-7.422l.4.4c-2.266,2.153-4.306,4.532-4.249,7.252v.227l-.227.057C54.6,64.817,50.52,65.837,49.16,68.386Z" transform="translate(-32.843 -43.797)" fill="#7bc1ae"/>
              </g>
              <g id="Groupe_1537" data-name="Groupe 1537" transform="translate(85.38 19.071)">
                <path id="Tracé_2687" data-name="Tracé 2687" d="M60.958,71.672l-.227-.793c-2.606-8.1-5.269-16.487-4.079-21.586l.567.113c-1.19,4.929,1.473,13.257,4.023,21.246l.227.793Z" transform="translate(-44.132 -49.293)" fill="#7bc1ae"/>
                <path id="Tracé_2688" data-name="Tracé 2688" d="M62.826,53.8l-.113-.057c-.623-.227-1.19-.51-1.7-.737a33.014,33.014,0,0,0-9.688-2.889l.057-.567a33.783,33.783,0,0,1,9.8,2.946c.51.227,1.02.4,1.586.68,2.38-1.586,4.193-2.606,9.178-3.116l.057.567c-5.042.567-6.685,1.53-9.065,3.116Z" transform="translate(-50.192 -48.984)" fill="#7bc1ae"/>
                <path id="Tracé_2689" data-name="Tracé 2689" d="M63.388,56.212l-.113-.057c-3.909-1.983-8.838-4.136-12.351-3.456l-.113-.567c3.626-.737,8.385,1.3,12.578,3.4.793-.51,1.416-.906,1.983-1.3a13.073,13.073,0,0,1,6.345-2.493l.113.567a12.117,12.117,0,0,0-6.119,2.38,24.964,24.964,0,0,1-2.153,1.36Z" transform="translate(-50.81 -46.354)" fill="#7bc1ae"/>
                <path id="Tracé_2690" data-name="Tracé 2690" d="M63.273,58.176l-.17-.057c-4.476-2.1-8.1-2.889-11.1-2.436l-.057-.567c3.116-.453,6.8.34,11.274,2.38.567-.4.963-.793,1.36-1.076,1.133-1.02,1.926-1.643,5.156-2.266l.113.567c-3.116.567-3.8,1.133-4.872,2.153-.4.34-.85.737-1.53,1.246Z" transform="translate(-49.449 -43.445)" fill="#7bc1ae"/>
                <path id="Tracé_2691" data-name="Tracé 2691" d="M61.764,61l-.227-.113a17.517,17.517,0,0,1-2.776-1.246,6.144,6.144,0,0,0-3.683-.793v-.567a6.679,6.679,0,0,1,3.909.85c.567.283,1.36.623,2.55,1.133,1.586-2.493,4.759-3.4,7.649-4.079l.113.567c-3.513.793-6.119,1.813-7.422,4.023Z" transform="translate(-45.674 -41.001)" fill="#7bc1ae"/>
              </g>
              <path id="Tracé_2692" data-name="Tracé 2692" d="M71.879,75.313c-.34-1.756-3.286-3.626-5.949-4.759l.227-.51c1.36.623,5.779,2.719,6.289,5.212Z" transform="translate(52.764 -5.252)" fill="#7bc1ae"/>
              <path id="Tracé_2693" data-name="Tracé 2693" d="M70.913,77.161c-.4-2.266-3.683-4.589-6.345-5.836l.227-.51c2.946,1.416,6.289,3.739,6.685,6.289Z" transform="translate(51.124 -4.324)" fill="#7bc1ae"/>
              <g id="Groupe_1538" data-name="Groupe 1538" transform="translate(104.757 12.273)">
                <path id="Tracé_2694" data-name="Tracé 2694" d="M66.1,55.588l-.453-.34a4.886,4.886,0,0,0,.68-1.53c.283-.963.623-1.983,3.513-4.759l.4.4c-2.833,2.663-3.116,3.569-3.4,4.476A4.314,4.314,0,0,1,66.1,55.588Z" transform="translate(-52.333 -42.897)" fill="#7bc1ae"/>
                <path id="Tracé_2695" data-name="Tracé 2695" d="M81.583,58.615c-4.929-2.153-7.252-2.21-10.255-1.983h-.17l-.113-.113a41.185,41.185,0,0,0-8.895-9.858l.34-.453a41.184,41.184,0,0,1,8.895,9.858c3-.227,5.382-.17,10.368,2.04Z" transform="translate(-56.541 -46.208)" fill="#7bc1ae"/>
                <path id="Tracé_2696" data-name="Tracé 2696" d="M69.167,56.83c-2.663-4.476-4.476-6.629-8.045-7.875l.17-.51c3.739,1.246,5.666,3.626,8.385,8.1Z" transform="translate(-57.779 -43.516)" fill="#7bc1ae"/>
                <path id="Tracé_2697" data-name="Tracé 2697" d="M66.367,57.186c-2.493-3.8-2.946-4.023-6.4-5.326l.227-.51c3.513,1.3,4.079,1.643,6.629,5.552Z" transform="translate(-59.171 -40.019)" fill="#7bc1ae"/>
                <path id="Tracé_2698" data-name="Tracé 2698" d="M63.117,58.887A16.543,16.543,0,0,1,61.7,56.734a5.306,5.306,0,0,0-2.1-2.153l.34-.453a5.781,5.781,0,0,1,2.266,2.323,16.93,16.93,0,0,0,1.416,2.1Z" transform="translate(-59.604 -36.677)" fill="#7bc1ae"/>
              </g>
              <g id="Groupe_1539" data-name="Groupe 1539" transform="translate(124.586 57.654)">
                <path id="Tracé_2699" data-name="Tracé 2699" d="M69.747,84.847l-.4-.4c4.249-4.532,11.954-9.348,23-14.277l.227.51C81.588,75.612,73.882,80.371,69.747,84.847Z" transform="translate(-67.707 -62.751)" fill="#7bc1ae"/>
                <path id="Tracé_2700" data-name="Tracé 2700" d="M85.431,82.838c-3.513-3.739-3.853-3.909-6.572-4.929l-.51-.227v-.17c-.057-.453-.113-.906-.17-1.3a23.09,23.09,0,0,0-2.606-9.178l.51-.227a24.786,24.786,0,0,1,2.663,9.348c.057.34.113.737.17,1.133l.227.057c2.776,1.076,3.173,1.246,6.742,5.1Z" transform="translate(-60.219 -66.804)" fill="#7bc1ae"/>
                <path id="Tracé_2701" data-name="Tracé 2701" d="M81.525,83a7.991,7.991,0,0,0-4.249-3.909c-.34-.17-.68-.283-1.076-.51l-.17-.057-.057-1.133c-.113-4.136-.227-6.459-2.663-8.668l.4-.4c2.606,2.38,2.719,4.929,2.833,9.065v.793a5.718,5.718,0,0,0,.85.4,8.254,8.254,0,0,1,4.532,4.136Z" transform="translate(-62.942 -64.979)" fill="#7bc1ae"/>
                <path id="Tracé_2702" data-name="Tracé 2702" d="M79.9,82.627c-1.246-1.416-2.1-2.266-5.5-3.569L74.236,79v-.17c-.34-4.079-.85-5.722-3.343-8.158l.4-.4c2.719,2.663,3.116,4.476,3.456,8.328,3.4,1.3,4.306,2.21,5.552,3.626Z" transform="translate(-65.85 -62.627)" fill="#7bc1ae"/>
                <path id="Tracé_2703" data-name="Tracé 2703" d="M78.349,83.278C77.1,81.691,76.2,80.785,72.74,80.558h-.227l-.057-.227c-.68-3.8-1.756-5.212-3.853-7.762l.453-.34c2.153,2.606,3.229,4.023,3.909,7.762,3.513.283,4.532,1.3,5.836,2.946Z" transform="translate(-68.604 -60.276)" fill="#7bc1ae"/>
              </g>
              <g id="Groupe_1540" data-name="Groupe 1540" transform="translate(119.6 42.583)">
                <path id="Tracé_2704" data-name="Tracé 2704" d="M66.681,76.251l-.34-.453.51-.4C72.4,71.266,78.126,66.96,80.165,62.767l.51.227C78.636,67.3,72.8,71.606,67.191,75.8Z" transform="translate(-66.341 -56.592)" fill="#7bc1ae"/>
                <path id="Tracé_2705" data-name="Tracé 2705" d="M83.272,75.545a33.175,33.175,0,0,0-9.008-5.722l-.17-.057V69.6c-.283-2.323-2.323-5.666-4.532-9.235l-.057-.113.51-.283.057.113c2.153,3.513,4.249,6.855,4.589,9.292a34.815,34.815,0,0,1,9.008,5.779Z" transform="translate(-62.536 -59.964)" fill="#7bc1ae"/>
                <path id="Tracé_2706" data-name="Tracé 2706" d="M80.688,77.109c-1.076-2.1-3.513-3.626-7.818-4.986l-.17-.057-.057-.17A38.028,38.028,0,0,0,68.45,61.3l.51-.283a38.938,38.938,0,0,1,4.193,10.538c3,.963,6.515,2.38,7.988,5.212Z" transform="translate(-63.804 -58.696)" fill="#7bc1ae"/>
                <path id="Tracé_2707" data-name="Tracé 2707" d="M77.527,77.3c-1.19-2.1-3.286-3.683-6.629-4.986l-.17-.057v-.17c-.227-2.323-1.3-5.1-3.229-8.725l.51-.283c1.983,3.626,3,6.4,3.286,8.782,3.4,1.36,5.552,3,6.8,5.156Z" transform="translate(-64.949 -56.221)" fill="#7bc1ae"/>
                <path id="Tracé_2708" data-name="Tracé 2708" d="M74.515,78.54c-.4-2.266-3.683-4.589-6.345-5.836l-.227-.113L68,72.365c.567-2.38-.17-4.646-1.53-7.365l.51-.227c1.076,2.21,2.153,4.759,1.586,7.479,2.889,1.416,6.062,3.739,6.459,6.175Z" transform="translate(-66.187 -54.178)" fill="#7bc1ae"/>
              </g>
              <g id="Groupe_1541" data-name="Groupe 1541" transform="translate(163.437 60.6)">
                <rect id="Rectangle_512" data-name="Rectangle 512" width="20.226" height="0.567" transform="translate(0 9.342) rotate(-9.666)" fill="#7bc1ae"/>
                <path id="Tracé_2709" data-name="Tracé 2709" d="M97.425,81.626a8.849,8.849,0,0,0-3.853-6.345l-.283-.17.227-.227c2.1-2.1,2.549-4.136,1.36-6.515l.51-.227c1.246,2.493.85,4.759-1.246,6.969a9.3,9.3,0,0,1,3.8,6.515Z" transform="translate(-77.751 -68.141)" fill="#7bc1ae"/>
                <path id="Tracé_2710" data-name="Tracé 2710" d="M94.591,80.878c-.17-2.493-.963-3.739-3.229-5.042l-.283-.17.227-.283c1.133-1.36,1.133-3.739,1.076-5.836v-1.02h.567v1.02c.057,2.04.057,4.363-1.02,5.892a5.858,5.858,0,0,1,3.229,5.326Z" transform="translate(-80.412 -67.677)" fill="#7bc1ae"/>
                <path id="Tracé_2711" data-name="Tracé 2711" d="M91.123,78.219c-.17-.906-1.586-2.1-2.323-2.493l-.4-.227.34-.283c1.926-1.586,1.756-3.569,1.586-5.666v-.17l.567-.057v.17c.17,2.04.34,4.193-1.53,5.892.85.567,2.153,1.643,2.266,2.719Z" transform="translate(-83.63 -66.718)" fill="#7bc1ae"/>
              </g>
              <g id="Groupe_1542" data-name="Groupe 1542" transform="translate(127.647 19.694)">
                <rect id="Rectangle_513" data-name="Rectangle 513" width="20.226" height="0.567" transform="translate(0 20.294) rotate(-42.268)" fill="#7bc1ae"/>
                <path id="Tracé_2712" data-name="Tracé 2712" d="M91.2,65.44C89.448,63.513,82.423,59.6,79.59,59.6h-.34l.057-.34c.623-3.286-4.986-8.1-7.025-9.178l.283-.51c1.87,1.02,7.649,5.779,7.365,9.462,3.173.283,9.915,4.023,11.728,6.006Z" transform="translate(-67.241 -49.576)" fill="#7bc1ae"/>
                <path id="Tracé_2713" data-name="Tracé 2713" d="M87.338,63.521c-1.53-1.813-6.175-2.323-9.971-2.153h-.283v-.283c.057-1.7-3-5.666-4.872-7.988-.453-.623-.907-1.133-1.19-1.586l.453-.34c.283.4.737.963,1.19,1.53,2.04,2.606,4.759,6.062,4.986,8.045,2.21-.057,8.158,0,10.141,2.38Z" transform="translate(-68.757 -47.658)" fill="#7bc1ae"/>
                <path id="Tracé_2714" data-name="Tracé 2714" d="M73.122,59.694l-.567-.17c.567-2.04.283-2.323-.623-3.343a7.421,7.421,0,0,0-.68-.737l.453-.34c.227.283.453.51.623.737C73.349,56.918,73.8,57.371,73.122,59.694Z" transform="translate(-68.479 -42.924)" fill="#7bc1ae"/>
                <path id="Tracé_2715" data-name="Tracé 2715" d="M74.9,58.576" transform="translate(-64.085 -38.746)" fill="none" stroke="#7bc1ae" stroke-miterlimit="10" stroke-width="0.257"/>
              </g>
              <g id="Groupe_1543" data-name="Groupe 1543" transform="translate(135.464 72.158)">
                <path id="Tracé_2716" data-name="Tracé 2716" d="M73.825,84.722l-.283-.51c7.025-3.8,18.187-5.552,26.288-6.4l.057.567C91.785,79.226,80.737,80.983,73.825,84.722Z" transform="translate(-73.541 -68.065)" fill="#7bc1ae"/>
                <path id="Tracé_2717" data-name="Tracé 2717" d="M87.533,91.97c-2.323-4.986-2.776-5.439-5.212-7.422l-.113-.113.057-.17c.113-.51.17-.963.283-1.416a23.314,23.314,0,0,0,.4-9.4l.567-.057a24.284,24.284,0,0,1-.4,9.631c-.057.4-.17.793-.227,1.246,2.55,2.1,2.946,2.719,5.212,7.535Z" transform="translate(-63.114 -73.387)" fill="#7bc1ae"/>
                <path id="Tracé_2718" data-name="Tracé 2718" d="M83.318,90.851c-.85-3.513-1.756-4.476-3.229-5.892l-.453-.453.283-.907c1.246-4.023,1.87-6.289.227-9.235l.51-.283c1.756,3.173,1.02,5.609-.227,9.631l-.17.623.227.227c1.473,1.416,2.493,2.493,3.4,6.175Z" transform="translate(-66.208 -72.552)" fill="#7bc1ae"/>
                <path id="Tracé_2719" data-name="Tracé 2719" d="M81.71,90.716l-.057-.17a11.9,11.9,0,0,0-4.023-5.552l-.113-.113.057-.17c.963-4.079,1.133-6.515-.51-9.575l.51-.283c1.643,3.116,1.53,5.666.567,9.745a12.446,12.446,0,0,1,4.079,5.666l.057.17Z" transform="translate(-69.302 -71.623)" fill="#7bc1ae"/>
                <path id="Tracé_2720" data-name="Tracé 2720" d="M80.076,90.281v-.057c-.737-1.926-1.3-3.569-4.476-4.816l-.227-.057.057-.227c.51-3.683,0-5.326-1.246-8.555l.51-.227c1.246,3.229,1.756,4.929,1.3,8.612,3.173,1.3,3.853,3.116,4.589,5.042v.057Z" transform="translate(-72.768 -69.829)" fill="#7bc1ae"/>
              </g>
              <path id="Tracé_2721" data-name="Tracé 2721" d="M121.955,109.211c0,7.988-5.1,13.484-12.408,11.9-9.745-2.153-24.759-7.762-14.731-11.9,7.365-3,8.725-16.77,16.2-16.77S121.955,101.223,121.955,109.211Z" transform="translate(83.536 21.699)" fill="#84c7cc"/>
              <path id="Tracé_2722" data-name="Tracé 2722" d="M115.22,110.516c-7.762,6.685-9.462,6.006-25.892-7.365-4.872-3.966-12.8-6.912-15.864-8.215,0-3.059,18.526-.793,24.815-.793S117.939,108.193,115.22,110.516Z" transform="translate(61.83 22.774)" fill="#84c7cc"/>
              <g id="Groupe_1544" data-name="Groupe 1544" transform="translate(140.79 90.627)">
                <path id="Tracé_2723" data-name="Tracé 2723" d="M102.643,89.891c-7.932-2.04-18.98-4.249-26.628-3.173l-.057-.567c7.762-1.133,18.866,1.133,26.855,3.173Z" transform="translate(-75.958 -76.861)" fill="#7bc1ae"/>
                <path id="Tracé_2724" data-name="Tracé 2724" d="M87.147,101.923c-.453-5.326-.567-6.515-2.21-9.4l-.057-.17.113-.17c.227-.4.453-.737.68-1.133a22.084,22.084,0,0,0,3.739-8.838l.567.113a23.931,23.931,0,0,1-3.853,9.008c-.17.283-.4.623-.567.963,1.643,2.889,1.756,4.193,2.21,9.462Z" transform="translate(-65.222 -81.244)" fill="#7bc1ae"/>
                <path id="Tracé_2725" data-name="Tracé 2725" d="M83.953,99.724l-.567-.057c.51-4.023-.113-5.779-1.02-7.705l-.057-.17.113-.113c3-4.023,4.193-6.345,3.626-9.745l.567-.113c.68,3.853-1.076,6.629-3.626,10.028C83.839,93.719,84.463,95.645,83.953,99.724Z" transform="translate(-68.316 -81.708)" fill="#7bc1ae"/>
                <path id="Tracé_2726" data-name="Tracé 2726" d="M81.824,98.087v-.34a12.345,12.345,0,0,0-1.87-6.459l-.113-.17.113-.17c2.323-3.569,3.343-5.722,2.889-9.122l.567-.057c.453,3.8-.906,6.289-2.889,9.348a13.087,13.087,0,0,1,1.87,6.515v.34Z" transform="translate(-71.286 -81.77)" fill="#7bc1ae"/>
                <path id="Tracé_2727" data-name="Tracé 2727" d="M80.4,97.107H79.83c0-2.04,0-3.853-2.493-6.119l-.17-.17.113-.17c1.756-3.286,1.87-4.929,1.813-8.442h.567c.057,3.456-.113,5.212-1.813,8.5C80.4,93.085,80.4,95.011,80.4,97.107Z" transform="translate(-74.504 -81.244)" fill="#7bc1ae"/>
              </g>
              <path id="Tracé_2728" data-name="Tracé 2728" d="M85.613,64.219C84.14,61.9,82.78,60.65,81.307,60.2l.17-.567c1.643.51,3.059,1.813,4.646,4.249Z" transform="translate(71.267 -17.783)" fill="#7bc1ae"/>
              <g id="Groupe_1545" data-name="Groupe 1545" transform="translate(138.07 106.094)">
                <path id="Tracé_2729" data-name="Tracé 2729" d="M97.783,105.124c-6.4-5.1-15.58-11.614-23.059-13.711l.17-.567c7.592,2.1,16.827,8.668,23.286,13.824Z" transform="translate(-74.724 -86.314)" fill="#7bc1ae"/>
                <path id="Tracé_2730" data-name="Tracé 2730" d="M82.64,107.93l-.51-.17c1.473-4.193,1.473-4.476,1.246-6.289-.057-.4-.113-.793-.17-1.36v-.17l.113-.113A32.379,32.379,0,0,0,92.1,91.387l.453.34a32.64,32.64,0,0,1-8.782,8.5,10.811,10.811,0,0,1,.113,1.133C84.113,103.284,84.169,103.568,82.64,107.93Z" transform="translate(-65.813 -85.664)" fill="#7bc1ae"/>
                <path id="Tracé_2731" data-name="Tracé 2731" d="M80.12,105.295l-.51-.283c1.926-3.229,1.87-4.532,1.813-6.685v-.4l.17-.057c4.193-2.323,6.459-4.136,7.365-7.592l.567.113c-.907,3.626-3.229,5.5-7.479,7.875v.057C82.1,100.536,82.159,101.952,80.12,105.295Z" transform="translate(-68.845 -86.995)" fill="#7bc1ae"/>
                <path id="Tracé_2732" data-name="Tracé 2732" d="M78.371,103.962l-.51-.227.17-.453a12.8,12.8,0,0,0,.963-6.685v-.17l.17-.113c3.513-2.21,5.382-3.853,6.345-7.139l.567.17c-1.02,3.4-2.946,5.156-6.459,7.365a12.718,12.718,0,0,1-1.02,6.742Z" transform="translate(-70.949 -88.325)" fill="#7bc1ae"/>
                <path id="Tracé_2733" data-name="Tracé 2733" d="M76.263,102.047l-.51-.227v-.057c.793-1.87,1.643-3.739.34-6.855l-.113-.227.17-.113c3.059-2.323,3.4-2.776,4.7-5.779l.51.227c-1.36,3.059-1.756,3.626-4.7,5.892,1.3,3.173.453,5.156-.4,7.082Z" transform="translate(-73.486 -88.79)" fill="#7bc1ae"/>
              </g>
              <path id="Tracé_2734" data-name="Tracé 2734" d="M93.521,58.37c8.272.85,10.311,5.836,10.2,12.351L93.8,63.979Z" transform="translate(85.965 -19.3)" fill="#84c7cc"/>
              <path id="Tracé_2735" data-name="Tracé 2735" d="M91.2,65.44C89.448,63.513,82.423,59.6,79.59,59.6h-.34l.057-.34c.623-3.286-4.986-8.1-7.025-9.178l.283-.51c1.87,1.02,7.649,5.779,7.365,9.462,3.173.283,9.915,4.023,11.728,6.006Z" transform="translate(60.406 -29.882)" fill="#7bc1ae"/>
              <path id="Tracé_2736" data-name="Tracé 2736" d="M95.336,59.813c.453.34,3.853-10.708-3.569-13.257-9.065-3.683-16.94,3-16.94,3" transform="translate(63.47 -34.849)" fill="#84c7cc"/>
              <path id="Tracé_2737" data-name="Tracé 2737" d="M112.662,84.262c0,4.306-3,7.875-6.742,7.875s-6.742-3.513-6.742-7.875,1.87-8.612,5.609-8.612C108.47,75.65,112.662,79.9,112.662,84.262Z" transform="translate(92.772 1.493)" fill="#84c7cc"/>
              <path id="Tracé_2738" data-name="Tracé 2738" d="M118.667,98.949c-1.53,7.705-3.456,8.838-9.462,11.274-5.212,2.1-10.141-6.232-10.141-13.881,0-7.705-1.02-16.09,4.532-16.09C109.262,80.253,117.307,85.8,118.667,98.949Z" transform="translate(92.546 7.032)" fill="#84c7cc"/>
              <g id="Groupe_1546" data-name="Groupe 1546" transform="translate(177.956 73.291)">
                <rect id="Rectangle_514" data-name="Rectangle 514" width="5.722" height="0.567" transform="translate(1.456 11.267) rotate(-2.237)" fill="#7bc1ae"/>
                <path id="Tracé_2739" data-name="Tracé 2739" d="M95.174,97.491l-.567-.113c.057-.453.17-.963.283-1.473.623-3.513,1.416-7.818-.737-10.481l-.17-.17.17-.17c1.246-1.246,1.643-4.646,1.983-7.592.17-1.246.283-2.493.51-3.513l.567.113c-.17,1.02-.34,2.21-.51,3.456-.34,3.059-.737,6.232-1.983,7.705,2.153,2.833,1.36,7.2.737,10.765A13.482,13.482,0,0,0,95.174,97.491Z" transform="translate(-91.434 -73.809)" fill="#7bc1ae"/>
                <path id="Tracé_2740" data-name="Tracé 2740" d="M96.238,91.349l-.567-.113c.057-.453.17-.963.283-1.473.623-3.513,1.416-7.818-.737-10.481l.453-.34c2.323,2.833,1.53,7.309.906,10.935A6.92,6.92,0,0,0,96.238,91.349Z" transform="translate(-89.949 -67.837)" fill="#7bc1ae"/>
                <path id="Tracé_2741" data-name="Tracé 2741" d="M93.733,88.23l-.567-.057.17-1.53c.227-2.1.453-3.853-.51-5.779l.51-.227c1.02,2.1.793,4.023.567,6.119C93.846,87.21,93.79,87.72,93.733,88.23Z" transform="translate(-92.827 -65.795)" fill="#7bc1ae"/>
                <path id="Tracé_2742" data-name="Tracé 2742" d="M95.7,85.856l-.51-.283c.227-.453.453-.907.737-1.36,1.756-3.229,3.8-6.969,2.606-10.141l.51-.17c1.3,3.456-.906,7.422-2.606,10.595C96.155,85.006,95.929,85.459,95.7,85.856Z" transform="translate(-89.98 -73.901)" fill="#7bc1ae"/>
              </g>
              <path id="Tracé_2743" data-name="Tracé 2743" d="M82.147,61.978l-.51-.283c1.133-1.87.85-3.4-.793-4.646l.34-.453C83.167,58.012,83.45,59.882,82.147,61.978Z" transform="translate(70.71 -21.435)" fill="#7bc1ae"/>
              <path id="Tracé_2744" data-name="Tracé 2744" d="M88.3,63.278a10.323,10.323,0,0,0-6.969-3.853v-.567a10.9,10.9,0,0,1,7.422,4.079Z" transform="translate(71.298 -18.712)" fill="#7bc1ae"/>
              <g id="Groupe_1547" data-name="Groupe 1547" transform="translate(168.721 112.44)">
                <path id="Tracé_2745" data-name="Tracé 2745" d="M106.312,103.942h0c-6.062-5.156-10.085-8.555-17.677-10.935l.17-.567c7.705,2.38,11.954,6.006,17.9,11.048Z" transform="translate(-88.635 -90.741)" fill="#7bc1ae"/>
                <path id="Tracé_2746" data-name="Tracé 2746" d="M93.095,114.535l-.4-.4c3.4-3.569,6.572-10.311,6.345-13.541v-.17l.113-.113c3.683-2.436,4.363-3.343,7.252-7.025l.453.34c-2.889,3.739-3.569,4.646-7.252,7.082C99.667,104.167,96.551,110.966,93.095,114.535Z" transform="translate(-83.746 -89.72)" fill="#7bc1ae"/>
                <path id="Tracé_2747" data-name="Tracé 2747" d="M93.2,107.531l-.453-.283c2.323-3.569,3.343-6.119,3.4-8.158v-.17l.17-.057a8.556,8.556,0,0,1,1.02-.51c3.4-1.756,4.7-2.436,5.552-5.552l.567.17c-.963,3.4-2.38,4.136-5.836,5.949-.283.17-.567.283-.907.453C96.6,101.356,95.582,103.849,93.2,107.531Z" transform="translate(-83.685 -90.308)" fill="#7bc1ae"/>
                <path id="Tracé_2748" data-name="Tracé 2748" d="M92.668,102.243l-.51-.227a5.83,5.83,0,0,0,.17-4.759l-.057-.227.227-.113c.737-.453,1.36-.737,1.87-1.02,1.983-1.02,2.606-1.416,3.456-4.023l.567.17c-.907,2.833-1.756,3.286-3.739,4.362-.51.283-1.02.567-1.643.906A6.827,6.827,0,0,1,92.668,102.243Z" transform="translate(-84.396 -91.422)" fill="#7bc1ae"/>
                <path id="Tracé_2749" data-name="Tracé 2749" d="M90.271,95.126l-.453-.34c.113-.17.283-.227.567-.283.623-.227,1.756-.567,2.776-2.833l.51.227c-1.133,2.493-2.493,2.946-3.116,3.116A.957.957,0,0,1,90.271,95.126Z" transform="translate(-87.212 -91.67)" fill="#7bc1ae"/>
              </g>
              <path id="Tracé_2750" data-name="Tracé 2750" d="M83.248,65.55l-.51-.227A1.958,1.958,0,0,0,82,62.6l.34-.453A2.529,2.529,0,0,1,83.248,65.55Z" transform="translate(72.103 -14.751)" fill="#7bc1ae"/>
              <path id="Tracé_2751" data-name="Tracé 2751" d="M93.591,74.7l-.567-.057c.227-3.173-2.493-6.006-5.212-8.385l.4-.453C90.985,68.294,93.818,71.3,93.591,74.7Z" transform="translate(79.095 -10.357)" fill="#7bc1ae"/>
              <g id="Groupe_1548" data-name="Groupe 1548" transform="translate(184.245 96.35)">
                <rect id="Rectangle_515" data-name="Rectangle 515" width="7.082" height="0.567" transform="translate(0.96 8.73) rotate(-1.846)" fill="#7bc1ae"/>
                <path id="Tracé_2752" data-name="Tracé 2752" d="M98.579,103.4l-.567-.113c.113-.51.227-1.02.283-1.473.68-3.229,1.246-5.779-1.36-8.385l-.227-.227.227-.227c2.323-1.926,1.926-5.552.85-8.328l.51-.227c1.133,2.889,1.53,6.629-.737,8.782,2.549,2.719,1.983,5.5,1.3,8.725C98.806,102.378,98.692,102.888,98.579,103.4Z" transform="translate(-94.443 -84.305)" fill="#7bc1ae"/>
                <path id="Tracé_2753" data-name="Tracé 2753" d="M99.468,99.637l-.567-.113c.113-.623.227-1.19.4-1.813.737-3.229,1.473-6.572-1.02-9.065l.4-.4c2.719,2.719,1.983,6.232,1.19,9.631A15.959,15.959,0,0,0,99.468,99.637Z" transform="translate(-92.556 -79.695)" fill="#7bc1ae"/>
                <path id="Tracé_2754" data-name="Tracé 2754" d="M97.437,97.071l-.567-.113c.113-.453.227-.85.34-1.246.623-2.436,1.02-3.909-1.53-6.006l.34-.453c2.833,2.323,2.38,4.136,1.7,6.572A12.75,12.75,0,0,1,97.437,97.071Z" transform="translate(-95.681 -78.488)" fill="#7bc1ae"/>
                <path id="Tracé_2755" data-name="Tracé 2755" d="M98.68,93.828l-.453-.283c2.323-3.513,2.833-5.382,1.246-8.952l.51-.227C101.683,88.163,101,90.259,98.68,93.828Z" transform="translate(-92.618 -84.367)" fill="#7bc1ae"/>
              </g>
              <rect id="Rectangle_516" data-name="Rectangle 516" width="5.042" height="0.567" transform="matrix(0.949, -0.316, 0.316, 0.949, 152.672, 40.166)" fill="#7bc1ae"/>
              <path id="Tracé_2756" data-name="Tracé 2756" d="M97.257,92.262l-.567-.113c.113-.453.227-.85.34-1.246.623-2.436,1.02-3.909-1.53-6.006l.34-.453c2.833,2.323,2.38,4.136,1.7,6.572A12.736,12.736,0,0,1,97.257,92.262Z" transform="translate(88.347 12.076)" fill="#7bc1ae"/>
              <g id="Groupe_1549" data-name="Groupe 1549" transform="translate(162.149 42.923)">
                <rect id="Rectangle_517" data-name="Rectangle 517" width="5.269" height="0.567" transform="translate(3.833 12.063) rotate(-22.688)" fill="#7bc1ae"/>
                <path id="Tracé_2757" data-name="Tracé 2757" d="M99.986,80.345c-.68-1.586-6.4-8.1-8.782-8.385l-.453-.057.227-.4c1.643-2.55-3.966-9.8-5.326-10.935l.34-.453C87.239,61.2,92.9,68.277,91.6,71.45c2.776.793,8.1,6.855,8.838,8.668Z" transform="translate(-85.653 -60.119)" fill="#7bc1ae"/>
              </g>
              <g id="Groupe_1552" data-name="Groupe 1552" transform="translate(27.366)">
                <path id="Tracé_2758" data-name="Tracé 2758" d="M49.981,102.226a14.324,14.324,0,0,1-1.586-.057c-6.345-.85-11.1-4.419-11.784-8.838-.623-4.136,2.323-8.1,8.215-10.935,6.8-3.229,17.9-1.87,28.611-.567l1.133.113-.057.567L73.379,82.4c-10.651-1.3-21.643-2.606-28.271.51-5.609,2.719-8.5,6.459-7.875,10.368.68,4.193,5.212,7.535,11.275,8.385a35.369,35.369,0,0,0,8.215-.567l.113.567A49.293,49.293,0,0,1,49.981,102.226Z" transform="translate(-9.983 7.211)" fill="#2b3f40"/>
                <path id="Tracé_2759" data-name="Tracé 2759" d="M52.18,92.484c-3.343-.34-6.8-.85-9.462-2.833-3.909-2.946-5.552-7.025-4.419-10.878,1.36-4.476,6.289-7.592,12.464-7.932a54.219,54.219,0,0,1,14.5,3.116l.963.34a109.325,109.325,0,0,0,14.73,2.946l-.057.567a110.933,110.933,0,0,1-14.844-2.946l-.963-.34a53.342,53.342,0,0,0-14.334-3.059C44.815,71.748,40.113,74.751,38.81,79c-1.133,3.626.453,7.422,4.193,10.255,2.55,1.926,5.892,2.38,9.122,2.719Z" transform="translate(-8.274 -4.293)" fill="#2b3f40"/>
                <path id="Tracé_2760" data-name="Tracé 2760" d="M53.5,83.98a31.115,31.115,0,0,1-8.612-5.5c-3.173-3.569-4.136-7.705-2.663-11.161,1.643-3.739,5.722-6.006,11.274-6.175,2.889.227,6.572,1.813,10.141,3.286.85.34,1.7.737,2.55,1.076l-.227.51c-.85-.34-1.7-.737-2.55-1.076-3.513-1.473-7.139-3.059-9.915-3.286-5.326.17-9.235,2.266-10.765,5.836-1.416,3.229-.453,7.139,2.55,10.538a32.644,32.644,0,0,0,8.442,5.382Z" transform="translate(-3.932 -15.958)" fill="#2b3f40"/>
                <path id="Tracé_2761" data-name="Tracé 2761" d="M29.841,97.816c-4.079-4.419-5.722-8.045-4.986-11.048.68-2.776,3.343-5.042,8.1-6.742l.113-.057.113.057c9.631,3.966,18.413,3.513,25.948,2.833l.057.567c-7.535.737-16.43,1.133-26.118-2.833-4.476,1.643-7.025,3.8-7.649,6.345-.68,2.833.906,6.232,4.872,10.538Z" transform="translate(-24.234 6.692)" fill="#2b3f40"/>
                <path id="Tracé_2762" data-name="Tracé 2762" d="M31.874,90.995c-4.816-4.193-7.082-9.235-6.119-13.371.737-3.116,3.116-5.326,6.742-6.289l.17-.057.113.17C36.8,76.774,43.432,80.23,53.517,82.213l-.113.567C43.262,80.8,36.577,77.341,32.441,71.958c-3.286.907-5.439,3-6.119,5.779-.906,3.966,1.3,8.725,5.892,12.8Z" transform="translate(-23.208 -3.767)" fill="#2b3f40"/>
                <path id="Tracé_2763" data-name="Tracé 2763" d="M29.448,80.756c-2.38-6.119-1.926-11.388,1.133-14.447,2.663-2.663,7.025-3.229,11.558-1.473l.113.057C48.371,70.5,58.342,75.147,68.2,79.4l-.227.51c-9.858-4.249-19.83-8.952-26.062-14.561-4.306-1.643-8.385-1.133-10.935,1.36-2.946,2.946-3.286,7.988-1.02,13.881Z" transform="translate(-20.327 -12.734)" fill="#2b3f40"/>
                <path id="Tracé_2764" data-name="Tracé 2764" d="M36.107,76.679C31.858,70.22,31.518,62.8,35.2,58.153c3.059-3.853,8.272-4.929,13.937-2.833h.057l.057.057c3.909,5.042,9.971,9.915,18.583,14.9l-.283.51c-8.612-4.986-14.73-9.858-18.7-14.957-5.5-1.983-10.311-1.02-13.257,2.663-3.513,4.476-3.116,11.671.963,17.9Z" transform="translate(-14.636 -24.238)" fill="#2b3f40"/>
                <path id="Tracé_2765" data-name="Tracé 2765" d="M75.336,74.321c-2.266-6.742-8.612-22.946-18.413-27.478-6.289-1.813-11.671-.737-14.787,3-3.286,3.909-3.456,10.085-.453,16.2l-.51.227c-3.059-6.345-2.889-12.8.51-16.827,3.286-3.909,8.895-5.042,15.41-3.173C67.177,50.923,73.579,67.3,75.845,74.095Z" transform="translate(-7.01 -34.911)" fill="#2b3f40"/>
                <path id="Tracé_2766" data-name="Tracé 2766" d="M88.74,68.194h-.567c.057-2.889-1.246-5.042-4.193-6.742l.283-.51C87.381,62.755,88.8,65.134,88.74,68.194Z" transform="translate(47.119 -16.205)" fill="#7bc1ae"/>
                <path id="Tracé_2767" data-name="Tracé 2767" d="M72.191,77.277h-.567v-.567c.227-6.742.51-15.92,3.853-22.719-.283-5.326-2.55-9.235-6.4-10.935-4.193-1.87-9.915-.906-13.881,2.38a11.83,11.83,0,0,0-4.136,12.181l-.567.113a12.334,12.334,0,0,1,4.362-12.748c4.193-3.456,10.028-4.419,14.447-2.436,4.079,1.813,6.459,5.892,6.742,11.5V54.1l-.057.057c-3.286,6.685-3.569,15.864-3.8,22.549Z" transform="translate(6.389 -39.566)" fill="#2b3f40"/>
                <path id="Tracé_2768" data-name="Tracé 2768" d="M60.366,78.519l-.453-.34c.283-.4.623-.793.963-1.19,5.382-6.855,12.691-16.2,21.869-11.161l.057-.057c3.513-4.532,7.082-9.178,11.331-11.614-.057-5.779-2.663-10.141-7.2-12.011-4.816-1.983-10.651-.567-14.787,3.626a25.739,25.739,0,0,0-7.762,9.462l-.51-.227a26.082,26.082,0,0,1,7.932-9.688c4.306-4.362,10.368-5.836,15.41-3.739,4.816,1.983,7.535,6.629,7.535,12.691v.17l-.17.057c-4.193,2.323-7.818,6.969-11.275,11.5l-.34.453-.227-.113c-8.838-5.1-15.807,3.8-21.359,10.935C60.99,77.725,60.65,78.122,60.366,78.519Z" transform="translate(18.157 -40.638)" fill="#2b3f40"/>
                <path id="Tracé_2769" data-name="Tracé 2769" d="M67.566,101.036l-.453-.283C70.965,94.691,80.6,88.062,87.622,83.246c2.606-1.813,4.816-3.343,6.006-4.362,4.079-2.946,5.552-9.008,4.193-12.464-1.133-2.889-4.589-6.006-14.561-4.7-5.269,1.53-9.4,5.836-11.614,8.555-.963,1.36-1.643,2.266-1.756,2.38l-.453-.34s.623-.907,1.643-2.21c2.21-3.173,5.779-9.122,5.212-13.6a5.361,5.361,0,0,0-2.266-3.853l.34-.453a5.934,5.934,0,0,1,2.493,4.249c.453,3.456-1.416,7.705-3.343,10.935a23.587,23.587,0,0,1,9.631-6.175c10.368-1.36,13.994,1.983,15.24,5.042,1.756,4.476-.85,10.595-4.362,13.144-1.19,1.02-3.343,2.493-6.062,4.362C81.334,88.175,71.362,95.031,67.566,101.036Z" transform="translate(26.821 -26.726)" fill="#2b3f40"/>
                <path id="Tracé_2770" data-name="Tracé 2770" d="M108.149,120.569a10.651,10.651,0,0,1-5.5-1.586c-16.26-13.2-26.232-18.073-29.858-18.187v-.567c5.892.227,19.943,10.028,30.141,18.3,0,0,3.683,2.266,7.479,1.133,2.493-.793,4.476-2.889,5.892-6.232,2.04-9.4-7.762-15.24-7.875-15.3-10.311-6.006-19.376-8.952-27.818-9.008v-.567c8.5.057,17.677,3.059,28.045,9.122a20.087,20.087,0,0,1,4.872,4.249,13.352,13.352,0,0,1,3.229,11.728c-1.473,3.569-3.569,5.779-6.232,6.572A8.332,8.332,0,0,1,108.149,120.569Z" transform="translate(33.659 17.026)" fill="#2b3f40"/>
                <g id="Groupe_1550" data-name="Groupe 1550" transform="translate(120.562 50.477)">
                  <path id="Tracé_2771" data-name="Tracé 2771" d="M79.224,65.3c19.263-6.855,26.628,9.065,13.654,18.923" transform="translate(-79.167 -63.444)" fill="#84c7cc"/>
                  <path id="Tracé_2772" data-name="Tracé 2772" d="M93.079,84.548l-.34-.453c6.629-5.042,7.479-11.161,5.382-15.014-2.776-5.156-10.141-6.459-18.753-3.4l-.17-.51c6.742-2.38,15.92-2.889,19.433,3.683C100.841,72.877,99.991,79.336,93.079,84.548Z" transform="translate(-79.198 -63.547)" fill="#2b3f40"/>
                </g>
                <path id="Tracé_2773" data-name="Tracé 2773" d="M86.4,72.222l-.4-.4c4.362-4.646,7.025-8.215,8.442-11.274,0-.057,2.153-5.212.453-9.4A7.74,7.74,0,0,0,90.37,46.84c-7.762-3.343-14.5,2.153-14.561,2.21l-.34-.453c.057-.057,7.082-5.779,15.127-2.323a8.393,8.393,0,0,1,4.872,4.646c1.813,4.419-.34,9.631-.453,9.858C93.486,63.95,90.767,67.576,86.4,72.222Z" transform="translate(36.877 -35.19)" fill="#2b3f40"/>
                <path id="Tracé_2774" data-name="Tracé 2774" d="M80.284,77.863l-.34-.453c11.728-8.215,21.133-12.011,29.574-11.841-.34-4.363-1.813-7.705-4.419-9.858-3.343-2.776-8.668-3.739-15.807-2.889l-.057-.567c7.309-.85,12.748.17,16.2,3,2.776,2.323,4.363,5.836,4.646,10.538v.283H109.8C101.473,65.852,92.068,69.591,80.284,77.863Z" transform="translate(42.261 -27.008)" fill="#2b3f40"/>
                <path id="Tracé_2775" data-name="Tracé 2775" d="M87.725,85.988l-.17-.567c.963-.283,1.87-.567,2.833-.793,8.272-2.38,16.827-4.759,19.546-10.311,1.36-2.663,1.246-5.892-.227-9.8-2.266-4.419-5.836-5.439-9.008-5.836l.057-.567c3.116.4,7.082,1.416,9.462,6.175,1.53,4.079,1.643,7.422.227,10.255-2.889,5.722-11.558,8.215-19.943,10.595C89.595,85.421,88.632,85.7,87.725,85.988Z" transform="translate(51.42 -19.609)" fill="#2b3f40"/>
                <g id="Groupe_1551" data-name="Groupe 1551" transform="translate(162.544 51.308)">
                  <path id="Tracé_2776" data-name="Tracé 2776" d="M108.419,89.6c4.363-10.595,4.476-20-10.141-25.552" transform="translate(-98.221 -63.77)" fill="#84c7cc"/>
                  <path id="Tracé_2777" data-name="Tracé 2777" d="M108.734,89.873l-.51-.227c2.776-6.8,3.286-11.841,1.53-15.977-1.7-3.909-5.439-6.912-11.5-9.235l.227-.51c6.175,2.323,10.028,5.5,11.784,9.518C112.076,77.692,111.566,82.9,108.734,89.873Z" transform="translate(-98.252 -63.924)" fill="#2b3f40"/>
                </g>
                <path id="Tracé_2778" data-name="Tracé 2778" d="M115.947,108.743a55.406,55.406,0,0,1-22.889-5.666l.227-.51a54.38,54.38,0,0,0,22.606,5.666,11.243,11.243,0,0,0,8.782-6.912c2.1-5.269.113-12.124-5.552-19.263l.453-.34c7.479,9.348,7.2,15.92,5.666,19.83A11.96,11.96,0,0,1,115.947,108.743Z" transform="translate(58.041 8.796)" fill="#2b3f40"/>
                <path id="Tracé_2779" data-name="Tracé 2779" d="M96.089,98.041l-.057-.567L99.6,97.3c7.988-.4,16.26-.793,19.886-4.986,1.643-1.87,2.266-4.419,1.926-7.649-5.439-11.444-17.79-11.048-29.971-9.688l-.057-.567c12.408-1.36,24.985-1.7,30.537,10.085v.113c.34,3.456-.34,6.119-2.04,8.158-3.8,4.419-12.181,4.816-20.339,5.212C98.469,97.928,97.279,97.985,96.089,98.041Z" transform="translate(56.03 -0.785)" fill="#2b3f40"/>
                <path id="Tracé_2780" data-name="Tracé 2780" d="M111.915,95.81l-.17-.567c.283-.057,7.082-2.1,7.082-11.161s-11.5-10.708-11.614-10.708C93.672,73.035,82,76.491,72.6,83.629l-.34-.453c9.575-7.2,21.359-10.708,35.013-10.368a18.747,18.747,0,0,1,6.062,1.983c3.966,2.1,6.062,5.326,6.062,9.292,0,4.986-2.04,7.875-3.739,9.462A11.491,11.491,0,0,1,111.915,95.81Z" transform="translate(33.009 -1.953)" fill="#2b3f40"/>
                <path id="Tracé_2781" data-name="Tracé 2781" d="M111.077,119.757c-4.306,0-8.952-1.813-12.294-3.513a57.627,57.627,0,0,1-7.422-4.419l.34-.453c.113.113,12.464,9.065,21.3,7.649a9.029,9.029,0,0,0,6.119-3.683c6.742-9.065-1.36-21.133-1.416-21.246l.453-.34c.057.113,8.442,12.521,1.416,21.926a9.692,9.692,0,0,1-6.459,3.909A8.275,8.275,0,0,1,111.077,119.757Z" transform="translate(55.999 23.277)" fill="#2b3f40"/>
                <path id="Tracé_2782" data-name="Tracé 2782" d="M104.112,106.026l-.17-.567,10.368-2.946c2.663-.793,5.666-2.606,6.175-5.269.51-2.55-1.3-5.552-5.382-8.782C102.016,81.437,89.042,80.3,75.614,85.12l-.17-.51c13.6-4.816,26.685-3.739,40,3.4,4.306,3.456,6.175,6.572,5.609,9.4-.567,2.889-3.8,4.872-6.572,5.722Z" transform="translate(36.846 8.737)" fill="#2b3f40"/>
                <path id="Tracé_2783" data-name="Tracé 2783" d="M40.059,111.634a20.869,20.869,0,0,1-6.912-1.19c-3.683-.623-7.252-4.646-8.328-9.348-1.19-5.1.793-9.915,5.382-13.144l.17-.113.17.113c8.668,5.439,18.47,4.306,26.062,2.719l.113.567c-7.649,1.586-17.507,2.719-26.345-2.719-4.249,3.059-6.119,7.592-4.986,12.408,1.02,4.532,4.419,8.385,7.932,8.952a20.218,20.218,0,0,0,11.728.567l9.688-2.946.17.567-9.688,2.946A23.3,23.3,0,0,1,40.059,111.634Z" transform="translate(-24.48 16.16)" fill="#2b3f40"/>
              </g>
              <path id="Tracé_2784" data-name="Tracé 2784" d="M47.03,94.5" transform="translate(30.021 24.174)" fill="none" stroke="#2b3f40" stroke-miterlimit="10" stroke-width="0.257"/>
              <g id="Groupe_1553" data-name="Groupe 1553" transform="translate(75.522 105.981)">
                <rect id="Rectangle_518" data-name="Rectangle 518" width="11.841" height="0.567" transform="translate(1.432 12.422) rotate(-19.586)" fill="#7bc1ae"/>
                <path id="Tracé_2785" data-name="Tracé 2785" d="M50.075,108.783a19.209,19.209,0,0,1-.51-9.348c-2.21-3.966-3.229-7.025-3.229-9.745H46.9c0,2.606,1.02,5.666,3.173,9.575l.057.113v.113a20.181,20.181,0,0,0,.51,9.235Z" transform="translate(-46.336 -87.593)" fill="#7bc1ae"/>
                <path id="Tracé_2786" data-name="Tracé 2786" d="M51.546,107.7a16.759,16.759,0,0,1-.227-9.008,27.469,27.469,0,0,1-3-9.348l.567-.113a26.826,26.826,0,0,0,2.946,9.235l.057.113-.057.113A15.431,15.431,0,0,0,52,107.47Z" transform="translate(-43.954 -88.15)" fill="#7bc1ae"/>
                <path id="Tracé_2787" data-name="Tracé 2787" d="M53.876,105.343v-.113c-.623-3-1.19-5.779-.737-7.648a21.153,21.153,0,0,1-2.946-8.555l.567-.057a20.56,20.56,0,0,0,2.889,8.442l.057.113-.057.113c-.51,1.7.113,4.646.737,7.535v.113Z" transform="translate(-41.695 -88.46)" fill="#7bc1ae"/>
                <path id="Tracé_2788" data-name="Tracé 2788" d="M53.056,91.628a2.507,2.507,0,0,1-1.02-2.889l.51.17a1.911,1.911,0,0,0,.793,2.21Z" transform="translate(-39.629 -88.738)" fill="#7bc1ae"/>
                <path id="Tracé_2789" data-name="Tracé 2789" d="M53.739,97.574a4.717,4.717,0,0,1-.227-3.513l.567.17a4.094,4.094,0,0,0,.227,3.059Z" transform="translate(-37.988 -82.333)" fill="#7bc1ae"/>
              </g>
              <g id="Groupe_1554" data-name="Groupe 1554" transform="translate(156.816 116.275)">
                <ellipse id="Ellipse_994" data-name="Ellipse 994" cx="5.269" cy="7.648" rx="5.269" ry="7.648" transform="matrix(0.583, -0.813, 0.813, 0.583, 0, 8.564)" fill="#2fab5d"/>
                <ellipse id="Ellipse_995" data-name="Ellipse 995" cx="5.042" cy="5.609" rx="5.042" ry="5.609" transform="matrix(0.583, -0.813, 0.813, 0.583, 0.222, 8.207)" fill="#e9d086"/>
                <ellipse id="Ellipse_996" data-name="Ellipse 996" cx="3.966" cy="4.646" rx="3.966" ry="4.646" transform="matrix(0.583, -0.813, 0.813, 0.583, 1.105, 7.592)" fill="#318fa3"/>
              </g>
              <g id="Groupe_1555" data-name="Groupe 1555" transform="translate(182.874 121.374)">
                <ellipse id="Ellipse_997" data-name="Ellipse 997" cx="5.269" cy="7.648" rx="5.269" ry="7.648" transform="matrix(0.583, -0.813, 0.813, 0.583, 0, 8.564)" fill="#2fab5d"/>
                <ellipse id="Ellipse_998" data-name="Ellipse 998" cx="5.042" cy="5.609" rx="5.042" ry="5.609" transform="matrix(0.583, -0.813, 0.813, 0.583, 0.22, 8.201)" fill="#e9d086"/>
                <ellipse id="Ellipse_999" data-name="Ellipse 999" cx="3.966" cy="4.646" rx="3.966" ry="4.646" transform="matrix(0.583, -0.813, 0.813, 0.583, 1.106, 7.592)" fill="#318fa3"/>
              </g>
              <g id="Groupe_1556" data-name="Groupe 1556" transform="translate(84.236 72.459)">
                <path id="Tracé_2790" data-name="Tracé 2790" d="M70.9,73.718c-7.2-.68-10.595,2.606-7.365,9.008-3.626-3.909-13.654,4.986-5.552,11.444-9.235-.057-9.858,9.348-2.493,12.578-7.422.567-1.02,17.167,7.819,10.368" transform="translate(-50.094 -73.396)" fill="#2f5159"/>
                <path id="Tracé_2791" data-name="Tracé 2791" d="M59.254,119.171a5.728,5.728,0,0,1-3.229-1.02c-2.719-1.813-4.476-5.892-3.739-8.782a3.375,3.375,0,0,1,2.436-2.606c-3.173-1.7-4.929-4.816-4.306-7.818.51-2.266,2.55-4.7,6.912-4.872a6.84,6.84,0,0,1-2.493-6.515,7.887,7.887,0,0,1,5.212-5.722A3.975,3.975,0,0,1,62.88,82c-1.02-2.493-1.02-4.532,0-6.062,1.3-1.87,4.193-2.719,8.158-2.323l-.057.567c-3.739-.34-6.459.4-7.592,2.1-1.02,1.53-.85,3.739.51,6.515l.906,1.813-1.36-1.473a3.062,3.062,0,0,0-3.229-.68A7.346,7.346,0,0,0,55.4,87.727c-.34,1.643-.113,4.079,2.833,6.459l.623.51h-.793c-4.589-.057-6.685,2.266-7.139,4.476-.623,2.946,1.3,6.062,4.759,7.592l1.02.453-1.133.113a2.96,2.96,0,0,0-2.833,2.323c-.68,2.663.963,6.515,3.513,8.158,1.473,1.02,3.909,1.7,6.969-.68l.34.453A7.222,7.222,0,0,1,59.254,119.171Z" transform="translate(-50.291 -73.524)" fill="#2b3f40"/>
              </g>
              <g id="Groupe_1557" data-name="Groupe 1557" transform="translate(116.768 73.503)">
                <path id="Tracé_2792" data-name="Tracé 2792" d="M65.107,75.968c5.156-4.079,13.371-.85,9.292,5.666,8.782-3.173,13.711,7.875,5.382,10.821C90.6,95.118,90.6,102.71,82.671,105.6c8.272,3.4,6.912,15.41-6.232,11.444" transform="translate(-64.994 -73.801)" fill="#2f5159"/>
                <path id="Tracé_2793" data-name="Tracé 2793" d="M81.316,118.317a17.322,17.322,0,0,1-4.929-.793l.17-.567c6.515,1.983,9.858-.057,10.765-2.663.963-2.719-.51-6.572-4.7-8.272l-.68-.283.68-.227c3.513-1.246,5.552-3.569,5.439-6.006-.17-2.889-3.286-5.382-8.272-6.572l-.906-.227.906-.34c2.266-.793,3.683-2.266,4.023-4.136a5.734,5.734,0,0,0-1.983-5.212,7.134,7.134,0,0,0-7.2-.963l-.793.283.453-.68c1.416-2.323,1.416-4.419-.113-5.779-1.87-1.643-5.722-1.926-8.782.453l-.34-.453c3.286-2.606,7.479-2.266,9.518-.453,1.586,1.416,1.813,3.513.567,5.836a7.423,7.423,0,0,1,7.025,1.3,6.209,6.209,0,0,1,2.21,5.722,5.81,5.81,0,0,1-3.569,4.249c4.816,1.36,7.762,3.909,7.875,6.912.113,2.55-1.813,4.929-5.156,6.345,4.023,1.983,5.382,5.892,4.419,8.668C87.152,116.561,85.055,118.317,81.316,118.317Z" transform="translate(-65.056 -73.998)" fill="#2b3f40"/>
              </g>
              <path id="Tracé_2794" data-name="Tracé 2794" d="M50.065,84.238" transform="translate(33.673 11.828)" fill="none"/>
              <path id="Tracé_2795" data-name="Tracé 2795" d="M48.939,112.776a12.927,12.927,0,0,1-1.53-.113c-.623.057-8.1.68-9.292-5.779a11.146,11.146,0,0,1,3.116-8.5C45.483,93.74,53.358,91.3,59.25,90.114a81.974,81.974,0,0,1,11.841-1.53v.567c-.227,0-21.529.907-29.461,9.631a10.583,10.583,0,0,0-2.946,8.045c1.133,6.119,8.612,5.269,8.668,5.269h.113c8.158,1.02,21.869-6.969,30.934-12.238l.283.51C70.072,105.354,57.381,112.776,48.939,112.776Z" transform="translate(19.275 17.057)" fill="#2b3f40"/>
              <g id="Groupe_1558" data-name="Groupe 1558" transform="translate(92.097 5.322)">
                <ellipse id="Ellipse_1000" data-name="Ellipse 1000" cx="5.269" cy="7.648" rx="5.269" ry="7.648" transform="translate(0 0.184) rotate(-1.003)" fill="#2fab5d"/>
                <ellipse id="Ellipse_1001" data-name="Ellipse 1001" cx="5.042" cy="5.609" rx="5.042" ry="5.609" transform="translate(0.092 4.316) rotate(-1.003)" fill="#e9d086"/>
                <ellipse id="Ellipse_1002" data-name="Ellipse 1002" cx="3.966" cy="4.646" rx="3.966" ry="4.646" transform="translate(1.299 5.826) rotate(-1.003)" fill="#318fa3"/>
              </g>
              <g id="Groupe_1559" data-name="Groupe 1559" transform="translate(85.153 23.51)">
                <path id="Tracé_2796" data-name="Tracé 2796" d="M61.034,66.3c-4.079-5.609-14.334-9.915-8.385-14.447C57.351,49.583,60.751,57.4,61.034,66.3Z" transform="translate(-50.552 -51.132)" fill="#ecaa3f"/>
                <path id="Tracé_2797" data-name="Tracé 2797" d="M61.529,67.379l-.567-.737a34.539,34.539,0,0,0-4.986-4.986c-2.719-2.323-5.326-4.589-5.269-6.8A4.237,4.237,0,0,1,52.634,51.8l.057-.057a3.6,3.6,0,0,1,3.626.113c2.833,1.756,4.929,7.592,5.156,14.561ZM52.974,52.252a3.762,3.762,0,0,0-1.7,2.606c-.057,1.983,2.436,4.136,5.042,6.4a36.886,36.886,0,0,1,4.532,4.362c-.34-6.4-2.266-11.671-4.816-13.2A2.964,2.964,0,0,0,52.974,52.252Z" transform="translate(-50.707 -51.308)" fill="#2b3f40"/>
              </g>
              <g id="Groupe_1560" data-name="Groupe 1560" transform="translate(92.834 13.406)">
                <path id="Tracé_2798" data-name="Tracé 2798" d="M60.751,65.49c.17-5.042-.85-9.518-4.476-12.521-3.569-2.719-1.87-5.609,2.04-6.119C64.717,46.85,65.113,53.536,60.751,65.49Z" transform="translate(-54.04 -46.567)" fill="#ecaa3f"/>
                <path id="Tracé_2799" data-name="Tracé 2799" d="M60.564,67.4l.057-1.756c.17-5.779-1.19-9.688-4.362-12.294-1.586-1.246-2.323-2.606-1.983-3.909.4-1.416,1.983-2.436,4.136-2.719h0A5.233,5.233,0,0,1,62.943,48.7c1.983,2.776,1.36,8.385-1.813,17Zm-2.1-20.113c-1.926.227-3.343,1.133-3.626,2.323-.283,1.02.34,2.21,1.756,3.286,2.946,2.436,4.476,6.062,4.589,11.048,2.549-7.479,3-12.464,1.3-14.9A4.479,4.479,0,0,0,58.467,47.288Z" transform="translate(-54.193 -46.722)" fill="#2b3f40"/>
              </g>
              <g id="Groupe_1561" data-name="Groupe 1561" transform="translate(105.493 18.291)">
                <path id="Tracé_2800" data-name="Tracé 2800" d="M60.222,63.838c1.3-4.589,2.436-9.008,1.926-11.444-.34-4.306,4.816-4.872,4.476.963C65.717,57.153,63.168,60.5,60.222,63.838Z" transform="translate(-59.598 -48.78)" fill="#ecaa3f"/>
                <path id="Tracé_2801" data-name="Tracé 2801" d="M59.939,65.13l.34-1.19c1.246-4.419,2.436-8.895,1.926-11.331a3.565,3.565,0,0,1,1.3-3.343,2.1,2.1,0,0,1,2.153-.057c1.076.68,1.643,2.21,1.53,4.306-.963,3.966-3.683,7.479-6.459,10.651Zm4.7-15.637a1.3,1.3,0,0,0-.793.227A2.8,2.8,0,0,0,62.772,52.5c.453,2.266-.453,6.289-1.586,10.311,2.436-2.889,4.7-5.949,5.5-9.4.113-1.813-.34-3.173-1.246-3.739A1.81,1.81,0,0,0,64.641,49.493Z" transform="translate(-59.939 -48.939)" fill="#2b3f40"/>
              </g>
              <g id="Groupe_1562" data-name="Groupe 1562" transform="translate(61.024 113.976)">
                <ellipse id="Ellipse_1003" data-name="Ellipse 1003" cx="7.648" cy="5.269" rx="7.648" ry="5.269" transform="translate(0 3.547) rotate(-13.409)" fill="#2fab5d"/>
                <ellipse id="Ellipse_1004" data-name="Ellipse 1004" cx="5.609" cy="5.042" rx="5.609" ry="5.042" transform="translate(4.133 2.953) rotate(-13.409)" fill="#e9d086"/>
                <ellipse id="Ellipse_1005" data-name="Ellipse 1005" cx="4.646" cy="3.966" rx="4.646" ry="3.966" transform="translate(5.828 3.55) rotate(-13.409)" fill="#318fa3"/>
              </g>
              <g id="Groupe_1563" data-name="Groupe 1563" transform="translate(58.996 92.484)">
                <ellipse id="Ellipse_1006" data-name="Ellipse 1006" cx="7.648" cy="5.269" rx="7.648" ry="5.269" transform="translate(0 1.536) rotate(-5.762)" fill="#2fab5d"/>
                <ellipse id="Ellipse_1007" data-name="Ellipse 1007" cx="5.609" cy="5.042" rx="5.609" ry="5.042" transform="translate(4.148 1.5) rotate(-5.762)" fill="#e9d086"/>
                <ellipse id="Ellipse_1008" data-name="Ellipse 1008" cx="4.646" cy="3.966" rx="4.646" ry="3.966" transform="translate(5.781 2.361) rotate(-5.762)" fill="#318fa3"/>
              </g>
              <g id="Groupe_1564" data-name="Groupe 1564" transform="translate(32.837 110.524)">
                <ellipse id="Ellipse_1009" data-name="Ellipse 1009" cx="5.269" cy="7.648" rx="5.269" ry="7.648" transform="translate(0 10.453) rotate(-82.709)" fill="#2fab5d"/>
                <ellipse id="Ellipse_1010" data-name="Ellipse 1010" cx="5.042" cy="5.609" rx="5.042" ry="5.609" transform="translate(4.094 10.981) rotate(-82.709)" fill="#e9d086"/>
                <ellipse id="Ellipse_1011" data-name="Ellipse 1011" cx="3.966" cy="4.646" rx="3.966" ry="4.646" transform="translate(5.784 9.988) rotate(-82.709)" fill="#318fa3"/>
              </g>
              <g id="Groupe_1565" data-name="Groupe 1565" transform="translate(32.432 90.306)">
                <ellipse id="Ellipse_1012" data-name="Ellipse 1012" cx="5.269" cy="7.649" rx="5.269" ry="7.649" transform="translate(0 10.275) rotate(-77.156)" fill="#2fab5d"/>
                <ellipse id="Ellipse_1013" data-name="Ellipse 1013" cx="5.042" cy="5.609" rx="5.042" ry="5.609" transform="translate(4.054 11.127) rotate(-77.156)" fill="#e9d086"/>
                <ellipse id="Ellipse_1014" data-name="Ellipse 1014" cx="3.966" cy="4.703" rx="3.966" ry="4.703" transform="translate(5.765 10.351) rotate(-77.156)" fill="#318fa3"/>
              </g>
              <g id="Groupe_1566" data-name="Groupe 1566" transform="translate(60.072 69.809)">
                <ellipse id="Ellipse_1015" data-name="Ellipse 1015" cx="5.269" cy="7.649" rx="5.269" ry="7.649" transform="matrix(0.212, -0.977, 0.977, 0.212, 0, 10.3)" fill="#2fab5d"/>
                <ellipse id="Ellipse_1016" data-name="Ellipse 1016" cx="5.043" cy="5.609" rx="5.043" ry="5.609" transform="matrix(0.212, -0.977, 0.977, 0.212, 4.113, 11.197)" fill="#e9d086"/>
                <ellipse id="Ellipse_1017" data-name="Ellipse 1017" cx="3.966" cy="4.703" rx="3.966" ry="4.703" transform="matrix(0.212, -0.977, 0.977, 0.212, 5.755, 10.296)" fill="#318fa3"/>
              </g>
              <g id="Groupe_1567" data-name="Groupe 1567" transform="translate(37.796 54.896)">
                <ellipse id="Ellipse_1018" data-name="Ellipse 1018" cx="5.269" cy="7.649" rx="5.269" ry="7.649" transform="translate(0 8.74) rotate(-56.035)" fill="#2fab5d"/>
                <ellipse id="Ellipse_1019" data-name="Ellipse 1019" cx="5.042" cy="5.609" rx="5.042" ry="5.609" transform="translate(3.412 11.028) rotate(-56.035)" fill="#e9d086"/>
                <ellipse id="Ellipse_1020" data-name="Ellipse 1020" cx="3.966" cy="4.703" rx="3.966" ry="4.703" transform="translate(5.343 10.83) rotate(-56.035)" fill="#318fa3"/>
              </g>
              <g id="Groupe_1568" data-name="Groupe 1568" transform="translate(31.231 70.637)">
                <ellipse id="Ellipse_1021" data-name="Ellipse 1021" cx="5.269" cy="7.649" rx="5.269" ry="7.649" transform="translate(0 8.74) rotate(-56.035)" fill="#2fab5d"/>
                <ellipse id="Ellipse_1022" data-name="Ellipse 1022" cx="5.042" cy="5.609" rx="5.042" ry="5.609" transform="translate(3.412 11.028) rotate(-56.035)" fill="#e9d086"/>
                <ellipse id="Ellipse_1023" data-name="Ellipse 1023" cx="3.966" cy="4.703" rx="3.966" ry="4.703" transform="translate(5.259 10.872) rotate(-56.035)" fill="#318fa3"/>
              </g>
              <g id="Groupe_1569" data-name="Groupe 1569" transform="translate(48.115 33.585)">
                <ellipse id="Ellipse_1024" data-name="Ellipse 1024" cx="5.269" cy="7.649" rx="5.269" ry="7.649" transform="translate(0 8.74) rotate(-56.035)" fill="#2fab5d"/>
                <ellipse id="Ellipse_1025" data-name="Ellipse 1025" cx="5.042" cy="5.609" rx="5.042" ry="5.609" transform="translate(3.441 11.04) rotate(-56.035)" fill="#e9d086"/>
                <ellipse id="Ellipse_1026" data-name="Ellipse 1026" cx="3.966" cy="4.703" rx="3.966" ry="4.703" transform="translate(5.332 10.909) rotate(-56.035)" fill="#318fa3"/>
              </g>
              <g id="Groupe_1570" data-name="Groupe 1570" transform="translate(66.128 47.335)">
                <ellipse id="Ellipse_1027" data-name="Ellipse 1027" cx="5.269" cy="7.649" rx="5.269" ry="7.649" transform="translate(0 8.74) rotate(-56.035)" fill="#2fab5d"/>
                <ellipse id="Ellipse_1028" data-name="Ellipse 1028" cx="5.042" cy="5.609" rx="5.042" ry="5.609" transform="translate(3.444 10.981) rotate(-56.035)" fill="#e9d086"/>
                <ellipse id="Ellipse_1029" data-name="Ellipse 1029" cx="3.966" cy="4.703" rx="3.966" ry="4.703" transform="translate(5.361 10.857) rotate(-56.035)" fill="#318fa3"/>
              </g>
              <g id="Groupe_1571" data-name="Groupe 1571" transform="translate(62.618 12.518)">
                <ellipse id="Ellipse_1030" data-name="Ellipse 1030" cx="5.269" cy="7.648" rx="5.269" ry="7.648" transform="matrix(0.658, -0.753, 0.753, 0.658, 0, 7.936)" fill="#2fab5d"/>
                <ellipse id="Ellipse_1031" data-name="Ellipse 1031" cx="5.042" cy="5.609" rx="5.042" ry="5.609" transform="matrix(0.658, -0.753, 0.753, 0.658, 3.165, 10.636)" fill="#e9d086"/>
                <ellipse id="Ellipse_1032" data-name="Ellipse 1032" cx="3.966" cy="4.646" rx="3.966" ry="4.646" transform="matrix(0.658, -0.753, 0.753, 0.658, 5.108, 10.722)" fill="#318fa3"/>
              </g>
              <g id="Groupe_1572" data-name="Groupe 1572" transform="translate(117.044 3.29)">
                <ellipse id="Ellipse_1033" data-name="Ellipse 1033" cx="7.648" cy="5.269" rx="7.648" ry="5.269" transform="matrix(0.628, -0.778, 0.778, 0.628, 0.018, 11.904)" fill="#2fab5d"/>
                <ellipse id="Ellipse_1034" data-name="Ellipse 1034" cx="5.609" cy="5.042" rx="5.609" ry="5.042" transform="matrix(0.628, -0.778, 0.778, 0.628, 0, 11.999)" fill="#e9d086"/>
                <ellipse id="Ellipse_1035" data-name="Ellipse 1035" cx="4.646" cy="3.966" rx="4.646" ry="3.966" transform="matrix(0.628, -0.778, 0.778, 0.628, 1.136, 12.357)" fill="#318fa3"/>
              </g>
              <g id="Groupe_1573" data-name="Groupe 1573" transform="translate(114.564 24.671)">
                <ellipse id="Ellipse_1036" data-name="Ellipse 1036" cx="6.232" cy="4.079" rx="6.232" ry="4.079" transform="matrix(0.628, -0.778, 0.778, 0.628, 0.093, 9.7)" fill="#2fab5d"/>
                <ellipse id="Ellipse_1037" data-name="Ellipse 1037" cx="4.589" cy="3.909" rx="4.589" ry="3.909" transform="matrix(0.628, -0.778, 0.778, 0.628, 0, 9.741)" fill="#e9d086"/>
                <ellipse id="Ellipse_1038" data-name="Ellipse 1038" cx="3.796" cy="3.059" rx="3.796" ry="3.059" transform="matrix(0.628, -0.778, 0.778, 0.628, 0.935, 10.05)" fill="#318fa3"/>
              </g>
              <g id="Groupe_1574" data-name="Groupe 1574" transform="translate(139.304 12.133)">
                <ellipse id="Ellipse_1039" data-name="Ellipse 1039" cx="7.648" cy="5.269" rx="7.648" ry="5.269" transform="matrix(0.628, -0.778, 0.778, 0.628, 0.018, 11.904)" fill="#2fab5d"/>
                <ellipse id="Ellipse_1040" data-name="Ellipse 1040" cx="5.609" cy="5.042" rx="5.609" ry="5.042" transform="matrix(0.628, -0.778, 0.778, 0.628, 0, 11.999)" fill="#e9d086"/>
                <ellipse id="Ellipse_1041" data-name="Ellipse 1041" cx="4.646" cy="3.966" rx="4.646" ry="3.966" transform="matrix(0.628, -0.778, 0.778, 0.628, 1.169, 12.44)" fill="#318fa3"/>
              </g>
              <g id="Groupe_1575" data-name="Groupe 1575" transform="translate(130.699 36.332)">
                <ellipse id="Ellipse_1042" data-name="Ellipse 1042" cx="7.649" cy="5.269" rx="7.649" ry="5.269" transform="translate(0.088 8.765) rotate(-34.958)" fill="#2fab5d"/>
                <ellipse id="Ellipse_1043" data-name="Ellipse 1043" cx="5.609" cy="5.043" rx="5.609" ry="5.043" transform="translate(0 8.802) rotate(-34.958)" fill="#e9d086"/>
                <ellipse id="Ellipse_1044" data-name="Ellipse 1044" cx="4.703" cy="3.966" rx="4.703" ry="3.966" transform="translate(0.969 9.557) rotate(-34.958)" fill="#318fa3"/>
              </g>
              <g id="Groupe_1576" data-name="Groupe 1576" transform="translate(146.205 52.253)">
                <ellipse id="Ellipse_1045" data-name="Ellipse 1045" cx="7.648" cy="5.269" rx="7.648" ry="5.269" transform="translate(0.028 8.288) rotate(-32.806)" fill="#2fab5d"/>
                <ellipse id="Ellipse_1046" data-name="Ellipse 1046" cx="5.609" cy="5.042" rx="5.609" ry="5.042" transform="translate(0 8.403) rotate(-32.806)" fill="#e9d086"/>
                <ellipse id="Ellipse_1047" data-name="Ellipse 1047" cx="4.646" cy="3.966" rx="4.646" ry="3.966" transform="translate(1.007 9.181) rotate(-32.806)" fill="#318fa3"/>
              </g>
              <g id="Groupe_1577" data-name="Groupe 1577" transform="translate(167.063 41.442)">
                <ellipse id="Ellipse_1048" data-name="Ellipse 1048" cx="7.649" cy="5.269" rx="7.649" ry="5.269" transform="matrix(0.871, -0.491, 0.491, 0.871, 0, 7.515)" fill="#2fab5d"/>
                <ellipse id="Ellipse_1049" data-name="Ellipse 1049" cx="5.609" cy="5.042" rx="5.609" ry="5.042" transform="matrix(0.871, -0.491, 0.491, 0.871, 0.027, 7.547)" fill="#e9d086"/>
                <ellipse id="Ellipse_1050" data-name="Ellipse 1050" cx="4.646" cy="3.966" rx="4.646" ry="3.966" transform="matrix(0.871, -0.491, 0.491, 0.871, 0.946, 8.418)" fill="#318fa3"/>
              </g>
              <g id="Groupe_1578" data-name="Groupe 1578" transform="translate(154.677 25.844)">
                <ellipse id="Ellipse_1051" data-name="Ellipse 1051" cx="7.649" cy="5.269" rx="7.649" ry="5.269" transform="translate(0.002 8.765) rotate(-34.958)" fill="#2fab5d"/>
                <ellipse id="Ellipse_1052" data-name="Ellipse 1052" cx="5.609" cy="5.043" rx="5.609" ry="5.043" transform="translate(0 8.861) rotate(-34.958)" fill="#e9d086"/>
                <ellipse id="Ellipse_1053" data-name="Ellipse 1053" cx="4.703" cy="3.966" rx="4.703" ry="3.966" transform="translate(0.967 9.616) rotate(-34.958)" fill="#318fa3"/>
              </g>
              <g id="Groupe_1579" data-name="Groupe 1579" transform="translate(160.166 76.537)">
                <ellipse id="Ellipse_1054" data-name="Ellipse 1054" cx="5.269" cy="7.649" rx="5.269" ry="7.649" transform="translate(0.04 10.508) rotate(-85.688)" fill="#2fab5d"/>
                <ellipse id="Ellipse_1055" data-name="Ellipse 1055" cx="5.043" cy="5.609" rx="5.043" ry="5.609" transform="translate(0 10.067) rotate(-85.687)" fill="#e9d086"/>
                <ellipse id="Ellipse_1056" data-name="Ellipse 1056" cx="3.966" cy="4.703" rx="3.966" ry="4.703" transform="translate(0.387 9.109) rotate(-85.687)" fill="#318fa3"/>
              </g>
              <g id="Groupe_1580" data-name="Groupe 1580" transform="translate(184.77 79.257)">
                <ellipse id="Ellipse_1057" data-name="Ellipse 1057" cx="5.269" cy="7.649" rx="5.269" ry="7.649" transform="translate(0.006 10.508) rotate(-85.687)" fill="#2fab5d"/>
                <ellipse id="Ellipse_1058" data-name="Ellipse 1058" cx="5.043" cy="5.609" rx="5.043" ry="5.609" transform="translate(0 10.124) rotate(-85.687)" fill="#e9d086"/>
                <ellipse id="Ellipse_1059" data-name="Ellipse 1059" cx="3.966" cy="4.703" rx="3.966" ry="4.703" transform="translate(0.389 9.153) rotate(-85.687)" fill="#318fa3"/>
              </g>
              <g id="Groupe_1581" data-name="Groupe 1581" transform="translate(182.085 58.989)">
                <ellipse id="Ellipse_1060" data-name="Ellipse 1060" cx="7.649" cy="5.269" rx="7.649" ry="5.269" transform="translate(0 3.388) rotate(-12.797)" fill="#2fab5d"/>
                <ellipse id="Ellipse_1061" data-name="Ellipse 1061" cx="5.609" cy="5.043" rx="5.609" ry="5.043" transform="translate(0.002 3.44) rotate(-12.797)" fill="#e9d086"/>
                <ellipse id="Ellipse_1062" data-name="Ellipse 1062" cx="4.703" cy="3.966" rx="4.703" ry="3.966" transform="translate(0.556 4.517) rotate(-12.797)" fill="#318fa3"/>
              </g>
              <g id="Groupe_1582" data-name="Groupe 1582" transform="translate(162.434 97.285)">
                <ellipse id="Ellipse_1063" data-name="Ellipse 1063" cx="5.269" cy="7.649" rx="5.269" ry="7.649" transform="translate(0 10.296) rotate(-77.684)" fill="#2fab5d"/>
                <ellipse id="Ellipse_1064" data-name="Ellipse 1064" cx="5.042" cy="5.609" rx="5.042" ry="5.609" transform="translate(0.055 9.939) rotate(-77.684)" fill="#e9d086"/>
                <ellipse id="Ellipse_1065" data-name="Ellipse 1065" cx="3.966" cy="4.702" rx="3.966" ry="4.702" transform="translate(0.564 9.002) rotate(-77.684)" fill="#318fa3"/>
              </g>
              <g id="Groupe_1583" data-name="Groupe 1583" transform="translate(191.84 100.115)">
                <ellipse id="Ellipse_1066" data-name="Ellipse 1066" cx="5.269" cy="7.649" rx="5.269" ry="7.649" transform="translate(0.046 10.508) rotate(-85.687)" fill="#2fab5d"/>
                <ellipse id="Ellipse_1067" data-name="Ellipse 1067" cx="5.043" cy="5.609" rx="5.043" ry="5.609" transform="translate(0 10.122) rotate(-85.687)" fill="#e9d086"/>
                <ellipse id="Ellipse_1068" data-name="Ellipse 1068" cx="3.966" cy="4.703" rx="3.966" ry="4.703" transform="translate(0.385 9.151) rotate(-85.687)" fill="#318fa3"/>
              </g>
              <g id="Groupe_1584" data-name="Groupe 1584" transform="translate(114.955 118.672)">
                <path id="Tracé_2802" data-name="Tracé 2802" d="M65.18,96.017a12.4,12.4,0,0,1-.793,6.969c.567,1.076,1.87,1.36,3.229,1.53,0,0,.906.85,1.36.85s1.02-1.19,1.53-1.473,1.53.85,2.55-.113c.283-1.416-2.1-9.122-1.643-9.178" transform="translate(-64.047 -94.374)" fill="#eca93f"/>
                <path id="Tracé_2803" data-name="Tracé 2803" d="M69.162,105.773c-.51,0-1.19-.623-1.53-.85-1.3-.17-2.719-.453-3.343-1.643l-.057-.113.057-.113a11.966,11.966,0,0,0,.793-6.8l.567-.057a12.518,12.518,0,0,1-.793,6.969c.51.793,1.53,1.076,2.946,1.246h.113l.057.057a2.835,2.835,0,0,0,1.19.793c.113,0,.453-.4.623-.623a2.639,2.639,0,0,1,.793-.793c.283-.17.623-.057,1.02.057.51.17.963.34,1.416-.057.113-.85-.567-3.513-1.02-5.552-.68-2.889-.793-3.4-.623-3.626l.057-.113.17-.057.057.283.227.113a22,22,0,0,0,.68,3.286c.68,2.946,1.19,5.1,1.02,5.836v.057l-.057.057a1.772,1.772,0,0,1-2.04.283c-.227-.057-.453-.17-.567-.113a3.826,3.826,0,0,0-.623.68C69.9,105.376,69.559,105.773,69.162,105.773Z" transform="translate(-64.233 -94.498)" fill="#2a3f40"/>
              </g>
              <g id="Groupe_1585" data-name="Groupe 1585" transform="translate(105.415 119.522)">
                <path id="Tracé_2804" data-name="Tracé 2804" d="M61.953,94.884c-.227,3.116-1.53,6.175-1.87,7.479s2.323,1.133,2.323,1.133a.961.961,0,0,0,.85.907c.793.057,3.683-.737,3.909-2.153.227-1.473-.68-6.459-.68-6.459" transform="translate(-59.723 -94.884)" fill="#eca93f"/>
                <path id="Tracé_2805" data-name="Tracé 2805" d="M63.494,104.685h-.113a1.162,1.162,0,0,1-1.076-.907c-.567,0-1.756-.057-2.21-.68a1.067,1.067,0,0,1-.17-.85c.113-.34.227-.793.4-1.3a23.3,23.3,0,0,0,1.416-6.062l.567.057a25.874,25.874,0,0,1-1.473,6.232,10.385,10.385,0,0,0-.4,1.3.317.317,0,0,0,.057.34c.283.4,1.416.453,1.983.453h.283v.283c0,.057.057.623.567.68.68.057,3.4-.68,3.626-1.926a31.8,31.8,0,0,0-.68-6.4l.567-.113c.057.227.906,5.1.68,6.572C67.4,103.892,64.457,104.685,63.494,104.685Z" transform="translate(-59.903 -94.884)" fill="#2a3f40"/>
              </g>
              <g id="Groupe_1586" data-name="Groupe 1586" transform="translate(83.07 82.696)">
                <path id="Tracé_2806" data-name="Tracé 2806" d="M63.781,78.273S50.75,84.958,49.957,89.547c-.737,4.532,9.631,10.935,9.631,10.935l.623.453" transform="translate(-49.572 -78.046)" fill="#77c2b1"/>
                <path id="Tracé_2807" data-name="Tracé 2807" d="M60.174,101.285l-.623-.453c-.4-.227-10.538-6.515-9.745-11.218C50.6,84.969,63.233,78.4,63.743,78.17l.283.51c-.113.057-12.918,6.685-13.654,11.048-.737,4.306,9.4,10.595,9.462,10.651l.623.453Z" transform="translate(-49.762 -78.17)" fill="#2b3f40"/>
              </g>
              <g id="Groupe_1587" data-name="Groupe 1587" transform="translate(92.343 66.209)">
                <path id="Tracé_2808" data-name="Tracé 2808" d="M61.7,82.77c2.833-3.966.51-6.8-1.02-10.991l13.994-.963c-.793,3.626-1.3,5.439,1.926,8.782,0,0,14.5,4.023,17.337,18.923,1.586,11.048,4.362,24.362-16.034,27.365-20.453,2.946-23.909-16.94-23.8-24.362C54.16,94.045,59.2,86,61.7,82.77Z" transform="translate(-53.814 -70.532)" fill="#77c2b1"/>
                <path id="Tracé_2809" data-name="Tracé 2809" d="M74.089,126.663a18.121,18.121,0,0,1-12.238-4.306c-6.4-5.666-7.988-15.637-7.875-20.623.057-7.309,4.872-15.3,7.705-18.923,2.21-3.059,1.19-5.439-.113-8.442-.34-.737-.623-1.473-.963-2.323l-.113-.34,14.731-1.02-.17.68c-.737,3.343-1.133,5.042,1.87,8.215,1.133.34,14.73,4.816,17.45,19.093l.17,1.3c1.586,10.991,3.456,23.455-16.487,26.4A32.648,32.648,0,0,1,74.089,126.663Zm-12.8-54.446c.283.68.51,1.3.793,1.926,1.3,3.059,2.436,5.666.057,9.008h0c-2.776,3.513-7.479,11.388-7.535,18.583-.113,4.929,1.416,14.674,7.705,20.226,3.966,3.513,9.292,4.816,15.75,3.909,19.376-2.833,17.563-15.014,16.034-25.778l-.17-1.246c-2.719-14.5-17-18.64-17.11-18.7h-.057l-.057-.057c-3.229-3.4-2.833-5.269-2.1-8.668Z" transform="translate(-53.971 -70.687)" fill="#2b3f40"/>
              </g>
              <path id="Tracé_2810" data-name="Tracé 2810" d="M58.438,79.533s4.646,2.889,8.215,2.606c3.626-.283,5.156-4.023,5.156-4.023a10.762,10.762,0,0,1-3-5.836L57.985,73.924A9.591,9.591,0,0,1,58.438,79.533Z" transform="translate(43.203 -2.56)" fill="#55ab99"/>
              <g id="Groupe_1588" data-name="Groupe 1588" transform="translate(86.343 38.164)">
                <ellipse id="Ellipse_1069" data-name="Ellipse 1069" cx="18.47" cy="17.337" rx="18.47" ry="17.337" transform="translate(0.283 0.283)" fill="#77c2b1"/>
                <path id="Tracé_2811" data-name="Tracé 2811" d="M70,93.2c-10.368,0-18.753-7.932-18.753-17.62S59.633,57.959,70,57.959s18.753,7.932,18.753,17.62C88.754,85.324,80.369,93.2,70,93.2Zm0-34.673c-10.028,0-18.187,7.649-18.187,17.053S59.973,92.632,70,92.632s18.187-7.649,18.187-17.053S80.029,58.525,70,58.525Z" transform="translate(-51.248 -57.959)" fill="#2b3f40"/>
              </g>
              <path id="Tracé_2812" data-name="Tracé 2812" d="M57.907,70.231a5.423,5.423,0,0,0,5.269,5.156c5.326-.737,4.532-6.345,4.532-6.345Z" transform="translate(43.11 -6.459)" fill="#55ab99"/>
              <g id="Groupe_1589" data-name="Groupe 1589" transform="translate(101.458 61.676)">
                <path id="Tracé_2813" data-name="Tracé 2813" d="M66.318,69.222c.34,1.246-1.87,4.589-4.023,4.816-2.1.227-4.193-3-4.023-3.739C58.5,69.505,65.978,67.975,66.318,69.222Z" transform="translate(-57.92 -68.485)" fill="#ecaa3f"/>
                <path id="Tracé_2814" data-name="Tracé 2814" d="M62.256,74.466a4.529,4.529,0,0,1-2.889-1.586c-.68-.793-1.36-1.926-1.246-2.493.227-.907,4.7-1.756,6.742-1.756h.057c1.076,0,1.7.227,1.813.68a4.13,4.13,0,0,1-.907,2.719,5.1,5.1,0,0,1-3.343,2.436ZM64.862,69.2c-2.21,0-5.892.963-6.175,1.36a3.631,3.631,0,0,0,1.133,1.926A3.482,3.482,0,0,0,62.426,73.9a4.83,4.83,0,0,0,2.946-2.153,3.625,3.625,0,0,0,.85-2.266h0c0-.057-.113-.17-.51-.227A3.754,3.754,0,0,0,64.862,69.2Z" transform="translate(-58.107 -68.63)" fill="#2b3f40"/>
              </g>
              <path id="Tracé_2815" data-name="Tracé 2815" d="M58.936,70.03s1.246,2.266,2.493,2.21c1.246-.113,2.663-2.889,2.663-2.889Z" transform="translate(44.348 -6.087)" fill="#c56faa"/>
              <g id="Groupe_1590" data-name="Groupe 1590" transform="translate(100.469 57.812)">
                <path id="Tracé_2816" data-name="Tracé 2816" d="M57.845,72.421c-.34-1.473,2.55-5.212,5.212-5.382,2.606-.17,5.042,3.569,4.759,4.476S58.185,73.838,57.845,72.421Z" transform="translate(-57.466 -66.687)" fill="#ecaa3f"/>
                <path id="Tracé_2817" data-name="Tracé 2817" d="M60.247,73.46h-.453c-1.3-.057-1.926-.283-2.1-.793h0a3.831,3.831,0,0,1,1.02-2.776c.963-1.3,2.663-2.833,4.476-3,1.87-.17,3.4,1.53,3.966,2.21.68.85,1.3,2.04,1.133,2.606-.057.17-.227.623-3.343,1.246A24.724,24.724,0,0,1,60.247,73.46Zm3.173-6.006h-.17c-1.586.113-3.173,1.53-4.023,2.776a3.469,3.469,0,0,0-.906,2.323h0c0,.057.17.17.567.283,2.38.51,8.442-.68,8.838-1.246a4.143,4.143,0,0,0-1.02-2.04A4.457,4.457,0,0,0,63.419,67.455Z" transform="translate(-57.658 -66.876)" fill="#2b3f40"/>
              </g>
              <path id="Tracé_2818" data-name="Tracé 2818" d="M12.06,81.435" transform="translate(-12.06 8.455)" fill="#c7143b"/>
              <path id="Tracé_2819" data-name="Tracé 2819" d="M17.9,81.538" transform="translate(-5.036 8.579)" fill="#c7143b"/>
              <path id="Tracé_2820" data-name="Tracé 2820" d="M17.562,82.515" transform="translate(-5.438 9.755)" fill="#c7143b"/>
              <path id="Tracé_2821" data-name="Tracé 2821" d="M12.291,82.258" transform="translate(-11.781 9.446)" fill="#c7143b"/>
            </g>
            <path id="Tracé_2822" data-name="Tracé 2822" d="M61.332,70.091a.6.6,0,0,1-.51-.283c-1.19-2.266-2.493-3.569-3.8-3.853a3.673,3.673,0,0,0-3,.906.567.567,0,1,1-.68-.906,4.724,4.724,0,0,1,3.909-1.133c1.643.34,3.116,1.813,4.532,4.419a.573.573,0,0,1-.227.793C61.5,70.091,61.445,70.091,61.332,70.091Z" transform="translate(37.363 -11.644)" fill="#2b3f40"/>
          </g>
          <path id="Tracé_2823" data-name="Tracé 2823" d="M62.587,69.366a.511.511,0,0,1-.283-.057.627.627,0,0,1-.227-.793c1.473-2.606,3.059-4.079,4.872-4.419a5.875,5.875,0,0,1,4.759,1.473.567.567,0,1,1-.68.906,4.78,4.78,0,0,0-3.853-1.246c-1.416.283-2.833,1.586-4.136,3.853A.449.449,0,0,1,62.587,69.366Z" transform="translate(48.062 -12.506)" fill="#2b3f40"/>
          <path id="Tracé_2824" data-name="Tracé 2824" d="M58.644,71.422s-1.3-.567-.963-1.133c.85-1.19,1.756.34,1.7.567,0,.963,2.833.17,4.646-.113a11.951,11.951,0,0,1-3.909,2.493,3.292,3.292,0,0,1-2.776-.4s-1.586-1.246-.737-2.1C57.4,69.836,58.644,71.422,58.644,71.422Z" transform="translate(41.24 -5.497)" fill="#fff"/>
          <g id="Groupe_1592" data-name="Groupe 1592" transform="translate(91.018 99.664)">
            <line id="Ligne_274" data-name="Ligne 274" x2="1.473" y2="1.53" transform="translate(0.312 0.255)" fill="#77c2b1"/>
            <path id="Tracé_2825" data-name="Tracé 2825" d="M55.154,87.939a.34.34,0,0,1-.227-.057l-1.473-1.53a.28.28,0,1,1,.4-.4l1.473,1.53a.274.274,0,0,1,0,.4C55.267,87.882,55.21,87.939,55.154,87.939Z" transform="translate(-53.369 -85.871)" fill="#2b3f40"/>
          </g>
          <g id="Groupe_1593" data-name="Groupe 1593" transform="translate(90.848 95.188)">
            <line id="Ligne_275" data-name="Ligne 275" x2="1.473" y2="1.473" transform="translate(0.312 0.312)" fill="#77c2b1"/>
            <path id="Tracé_2826" data-name="Tracé 2826" d="M55.076,85.908a.341.341,0,0,1-.227-.057l-1.473-1.53a.28.28,0,0,1,.4-.4l1.473,1.53a.274.274,0,0,1,0,.4C55.246,85.908,55.19,85.908,55.076,85.908Z" transform="translate(-53.292 -83.84)" fill="#2b3f40"/>
          </g>
        </g>
        <g id="Groupe_1595" data-name="Groupe 1595" transform="translate(120.337 40.539)">
          <path id="Tracé_2827" data-name="Tracé 2827" d="M66.83,97.545c7.365-8.328,9.462-14.674,9.065-17.167,0,0-4.136-14.051-2.946-14.787S78.1,71.54,78.1,71.54s-4.419-8.1-4.362-11.784c.906-3.4,8.385,9.8,8.385,9.8S77.821,61.512,79.351,61s8.782,12.634,8.782,12.634c3.286,4.929,3.229,14.9-1.076,20.4L75.385,109.16" transform="translate(-66.49 -58.845)" fill="#77c2b1"/>
          <path id="Tracé_2828" data-name="Tracé 2828" d="M75.684,109.465l-.453-.34L86.9,94c4.363-5.666,4.136-15.41,1.02-20.113-3.343-6.062-7.479-12.521-8.385-12.521H79.48s-.057,0-.113.113c-.4,1.02,1.643,5.5,3.059,8.045l-.51.283C79.48,65.5,75.571,59.551,74.381,59.551h-.057c-.113,0-.17.113-.227.283C74.041,63.4,78.4,71.335,78.4,71.449l-.51.283c-1.246-2.153-3.626-5.609-4.646-5.836h-.113c-.567.623,1.133,7.818,3.059,14.447.51,3-2.1,9.518-9.122,17.45l-.4-.4c6.855-7.762,9.462-14.221,8.952-16.94-1.246-4.249-4.079-14.334-2.833-15.07a.824.824,0,0,1,.567-.057c.68.17,1.586,1.19,2.493,2.38-1.19-2.606-2.436-5.892-2.38-7.875v-.057c.17-.567.453-.737.68-.737.567-.057,1.7.4,4.929,5.212a3.212,3.212,0,0,1,.453.737c-.623-1.53-1.02-3-.793-3.683a.709.709,0,0,1,.453-.453c.4-.113,1.19-.4,5.269,6.232,1.983,3.173,3.8,6.515,3.8,6.515,3.173,4.816,3.4,14.9-1.076,20.736Z" transform="translate(-66.676 -59.037)" fill="#2b3f40"/>
        </g>
      </g>
    </g>
  </g>
</svg>
