<svg xmlns="http://www.w3.org/2000/svg" xmlns:xlink="http://www.w3.org/1999/xlink" width="316" height="304" viewBox="0 0 316 304">
  <defs>
    <clipPath id="clip-path">
      <rect id="Rectangle_477" data-name="Rectangle 477" width="316" height="304" transform="translate(-0.126 -0.232)" fill="#fff" stroke="#707070" stroke-width="1"/>
    </clipPath>
  </defs>
  <g id="Groupe_de_masques_1" data-name="Groupe de masques 1" transform="translate(0.126 0.232)" clip-path="url(#clip-path)">
    <g id="Calque_3" transform="translate(-1.481 30.356)">
      <g id="Groupe_1181" data-name="Groupe 1181" transform="translate(0)">
        <path id="Tracé_1086" data-name="Tracé 1086" d="M54.139,163.742c.163,6.4-2.119,12.957-2.515,15.553s4.994,1.956,4.994,1.956.291,1.77,1.921,1.77,7.462-2.107,7.637-5.111S63.755,164.7,63.755,164.7" transform="translate(86.21 43.592)" fill="#eca93f" stroke="#2a3f40" stroke-miterlimit="10" stroke-width="0.323"/>
        <path id="Tracé_1087" data-name="Tracé 1087" d="M57.272,166.1a24.617,24.617,0,0,1-1.688,14.342c1.187,2.212,3.76,2.771,6.531,3.1,0,0,1.839,1.7,2.806,1.7s2.107-2.468,3.108-3,3.132,1.735,5.076-.233c.605-2.945-4.226-18.72-3.329-18.906" transform="translate(96.593 41.918)" fill="#eca93f" stroke="#2a3f40" stroke-miterlimit="10" stroke-width="0.323"/>
        <path id="Tracé_1088" data-name="Tracé 1088" d="M243.591,157.347c.023-.489.058-.99.058-1.478,0-24.214-28.01-43.842-62.562-43.842-15.495,0-29.663,3.958-40.583,10.489-36.229-3.295-89.745,19.337-69.046,24.273a20.292,20.292,0,0,0-25.518,2.747c-7.171,7.532-5.972,20.1.955,30.547-8.312-1.944-15.53-1.921-19.779,4.389-5.285,7.846-1.7,26.007,3.073,27.1-11.781-14.156-23.237,23.6-3.993,18.6,1.211-.314.955-2.2,1.024-.966-.279,10.047-8.72,18.755-9.43,26.776-1.909,21.572,24.622,43.225,62.562,43.842,31.863.524,58.15-16.706,62.05-38.3a59.73,59.73,0,0,0,6.007-12.969c11.339,26.356,40.687,45.134,75.111,45.134,44.25,0,83.971-25.437,82.5-70.431C304.954,191.015,283.684,163.634,243.591,157.347Z" transform="translate(-6.954 -91.306)" fill="#84c7cb"/>
        <ellipse id="Ellipse_358" data-name="Ellipse 358" cx="35.483" cy="31.816" rx="35.483" ry="31.816" transform="translate(230.769 168.08)" fill="#84c7cb"/>
        <ellipse id="Ellipse_359" data-name="Ellipse 359" cx="30.885" cy="20.582" rx="30.885" ry="20.582" transform="translate(200.862 42.351)" fill="#84c7cb"/>
        <ellipse id="Ellipse_360" data-name="Ellipse 360" cx="14.04" cy="14.622" rx="14.04" ry="14.622" transform="translate(278.965 146.904)" fill="#84c7cb"/>
        <ellipse id="Ellipse_361" data-name="Ellipse 361" cx="30.885" cy="20.582" rx="30.885" ry="20.582" transform="translate(202.282 53.038)" fill="#84c7cb"/>
        <ellipse id="Ellipse_362" data-name="Ellipse 362" cx="15.25" cy="18.056" rx="15.25" ry="18.056" transform="matrix(0.739, -0.674, 0.674, 0.739, 0, 130.091)" fill="#84c7cb"/>
        <path id="Tracé_1089" data-name="Tracé 1089" d="M90.888,163.383c1.35,5.588,1.048,3.446-25.646,17.358-17.474,9.1-36.52,2.782-36.787-4.61-.21-5.728,10.21-16.019,34.6-13.551C82.657,164.57,89.526,157.818,90.888,163.383Z" transform="translate(25.817 36.781)" fill="#84c7cb"/>
        <path id="Tracé_1090" data-name="Tracé 1090" d="M41.26,142.924c-1.35-20.815,2.154-31.118,20.349-35.169,15.39-3.423,24.3,11.851,24.156,26.648" transform="translate(58.553 -103.716)" fill="#84c7cb"/>
        <path id="Tracé_1091" data-name="Tracé 1091" d="M78.5,137.063c0,12.794-14.226,19.6-27.02,19.6S29.346,144.99,29.346,132.2s8.149-20.815,20.943-20.815S78.5,124.268,78.5,137.063Z" transform="translate(28.151 -92.989)" fill="#84c7cb"/>
        <path id="Tracé_1092" data-name="Tracé 1092" d="M73.057,173.1c.2,14.238-6.438,24.168-32.631,25.833-15.739,1-26.147-8.859-26.147-21.572,0-13.912,12.934-23.039,28.894-23.039S72.883,160.372,73.057,173.1Z" transform="translate(-11.149 19.011)" fill="#84c7cb"/>
        <path id="Tracé_1093" data-name="Tracé 1093" d="M15.165,156.134c-3.388,10.605,8.056,20.326,8.056,20.326l4.552-28.813S17.272,150.359,15.165,156.134Z" transform="translate(-10.475 1.608)" fill="#84c7cb"/>
        <g id="Groupe_1133" data-name="Groupe 1133" transform="translate(36.856 64.26)">
          <path id="Tracé_1094" data-name="Tracé 1094" d="M44.754,153.112c-8.056,1.991-15.565,3.178-20.9,1.2" transform="translate(-23.02 -48.396)" fill="none" stroke="#7ac0ad" stroke-miterlimit="10" stroke-width="0.323"/>
          <path id="Tracé_1095" data-name="Tracé 1095" d="M23.625,148.612c.081,6.228,2.293,12.375,6.217,18.429a24.857,24.857,0,0,0-5.7,14.971" transform="translate(-23.625 -60.136)" fill="none" stroke="#7ac0ad" stroke-miterlimit="10" stroke-width="0.323"/>
          <path id="Tracé_1096" data-name="Tracé 1096" d="M27.5,180.3a19.047,19.047,0,0,1,5.891-14.11c-3.842-6.019-6.915-11.863-8.487-17.416" transform="translate(-20.301 -59.715)" fill="none" stroke="#7ac0ad" stroke-miterlimit="10" stroke-width="0.323"/>
          <path id="Tracé_1097" data-name="Tracé 1097" d="M35.328,164.7a35.03,35.03,0,0,1-8.673-15.844" transform="translate(-15.723 -59.488)" fill="none" stroke="#7ac0ad" stroke-miterlimit="10" stroke-width="0.323"/>
          <path id="Tracé_1098" data-name="Tracé 1098" d="M37.129,161.552a35.484,35.484,0,0,1-8.987-12.724" transform="translate(-11.844 -59.572)" fill="none" stroke="#7ac0ad" stroke-miterlimit="10" stroke-width="0.323"/>
          <g id="Groupe_1132" data-name="Groupe 1132" transform="translate(12.352)">
            <path id="Tracé_1099" data-name="Tracé 1099" d="M38.76,133.476c-2.387-3.19-2.643-3.679-8.231-5.006" transform="translate(-17.968 -112.673)" fill="none" stroke="#7ac0ad" stroke-miterlimit="10" stroke-width="0.323"/>
            <path id="Tracé_1100" data-name="Tracé 1100" d="M27.048,156.456c4.307-6.054,10.268-10.7,17.521-14.238a34.362,34.362,0,0,1,5.669-18.126" transform="translate(-27.048 -124.093)" fill="none" stroke="#7ac0ad" stroke-miterlimit="10" stroke-width="0.323"/>
            <path id="Tracé_1101" data-name="Tracé 1101" d="M51.745,125.57c-3.562,5.076-8.056,9.22-7.579,15.833-7.16,3.539-10.966,8.964-16,13.434" transform="translate(-24.12 -120.238)" fill="none" stroke="#7ac0ad" stroke-miterlimit="10" stroke-width="0.323"/>
            <path id="Tracé_1102" data-name="Tracé 1102" d="M38.279,132.771c-6.321,1.839-6.752,3.271-8.65,6.822" transform="translate(-20.316 -101.455)" fill="none" stroke="#7ac0ad" stroke-miterlimit="10" stroke-width="0.323"/>
            <path id="Tracé_1103" data-name="Tracé 1103" d="M36.856,134.481c-3.4.664-4.47.664-6.065,4.063" transform="translate(-17.287 -96.995)" fill="none" stroke="#7ac0ad" stroke-miterlimit="10" stroke-width="0.323"/>
          </g>
        </g>
        <g id="Groupe_1134" data-name="Groupe 1134" transform="translate(40.15 99.674)">
          <path id="Tracé_1104" data-name="Tracé 1104" d="M37.4,144.192c-5.541-1.246-6.4-1.455-11.083-5.7" transform="translate(-19.902 -121.957)" fill="none" stroke="#7ac0ad" stroke-miterlimit="10" stroke-width="0.323"/>
          <path id="Tracé_1105" data-name="Tracé 1105" d="M36.774,133.907c-2.305,5.809-2.387,12.5-.71,19.884a22.833,22.833,0,0,0-11.525,11.281" transform="translate(-24.538 -133.907)" fill="none" stroke="#7ac0ad" stroke-miterlimit="10" stroke-width="0.323"/>
          <path id="Tracé_1106" data-name="Tracé 1106" d="M26.558,165.017c1.956-4.82,2.771-8.8,8.591-10.768-1.618-7.311.279-13.76.792-19.616" transform="translate(-19.27 -132.013)" fill="none" stroke="#7ac0ad" stroke-miterlimit="10" stroke-width="0.323"/>
          <path id="Tracé_1107" data-name="Tracé 1107" d="M32.965,146.8c-2.491-6-2.55-4.855-1.688-11.292" transform="translate(-8.273 -129.724)" fill="none" stroke="#7ac0ad" stroke-miterlimit="10" stroke-width="0.323"/>
          <path id="Tracé_1108" data-name="Tracé 1108" d="M34.02,143.684c-2.538-4.692-1.909-5.029-1.013-7.532" transform="translate(-4.497 -128.05)" fill="none" stroke="#7ac0ad" stroke-miterlimit="10" stroke-width="0.323"/>
        </g>
        <g id="Groupe_1135" data-name="Groupe 1135" transform="translate(36.087 130.314)">
          <line id="Ligne_202" data-name="Ligne 202" x2="27.078" y2="4.517" transform="translate(0 11.781)" fill="none" stroke="#7ac0ad" stroke-miterlimit="10" stroke-width="0.323"/>
          <path id="Tracé_1109" data-name="Tracé 1109" d="M25.778,142.4A18.926,18.926,0,0,0,28.3,155.087c-4.156,2.712-5.1,6.391-4.587,10.524" transform="translate(-22.949 -142.398)" fill="none" stroke="#7ac0ad" stroke-miterlimit="10" stroke-width="0.323"/>
          <path id="Tracé_1110" data-name="Tracé 1110" d="M27.625,142.727a16.921,16.921,0,0,0,2.526,12.689c-2.48,2.27-3.632,6.275-4.587,10.524" transform="translate(-17.799 -141.54)" fill="none" stroke="#7ac0ad" stroke-miterlimit="10" stroke-width="0.323"/>
          <path id="Tracé_1111" data-name="Tracé 1111" d="M29.728,143.569a13.266,13.266,0,0,0,2.526,10.92c-3.411,1.723-3.958,5.413-4.587,9.057" transform="translate(-12.313 -139.343)" fill="none" stroke="#7ac0ad" stroke-miterlimit="10" stroke-width="0.323"/>
          <path id="Tracé_1112" data-name="Tracé 1112" d="M31.574,143.443l2.526,10.92a15.516,15.516,0,0,0-4.587,9.057" transform="translate(-7.499 -139.671)" fill="none" stroke="#7ac0ad" stroke-miterlimit="10" stroke-width="0.323"/>
        </g>
        <g id="Groupe_1136" data-name="Groupe 1136" transform="translate(35.738 184.075)">
          <path id="Tracé_1113" data-name="Tracé 1113" d="M44.737,161.068C37,163.85,29.7,165.829,24.155,164.642" transform="translate(-21.128 -147.459)" fill="none" stroke="#7ac0ad" stroke-miterlimit="10" stroke-width="0.323"/>
          <path id="Tracé_1114" data-name="Tracé 1114" d="M23.316,157.629c.873,5.739,3.842,11.129,8.51,16.263a21.836,21.836,0,0,0-3.76,14.47" transform="translate(-23.316 -156.43)" fill="none" stroke="#7ac0ad" stroke-miterlimit="10" stroke-width="0.323"/>
          <path id="Tracé_1115" data-name="Tracé 1115" d="M31.174,186.383a16.821,16.821,0,0,1,4.051-13.7c-4.575-5.087-8.37-10.128-10.629-15.052" transform="translate(-19.975 -156.43)" fill="none" stroke="#7ac0ad" stroke-miterlimit="10" stroke-width="0.323"/>
          <path id="Tracé_1116" data-name="Tracé 1116" d="M36.965,171.089A32.777,32.777,0,0,1,26.348,157.5" transform="translate(-15.405 -156.758)" fill="none" stroke="#7ac0ad" stroke-miterlimit="10" stroke-width="0.323"/>
          <path id="Tracé_1117" data-name="Tracé 1117" d="M38.355,167.972A34.184,34.184,0,0,1,27.82,157.3" transform="translate(-11.568 -157.297)" fill="none" stroke="#7ac0ad" stroke-miterlimit="10" stroke-width="0.323"/>
        </g>
        <g id="Groupe_1137" data-name="Groupe 1137" transform="translate(83.026 150.175)">
          <line id="Ligne_203" data-name="Ligne 203" y1="2.969" x2="22.992" transform="translate(0 17.125)" fill="none" stroke="#7ac0ad" stroke-miterlimit="10" stroke-width="0.323"/>
          <path id="Tracé_1118" data-name="Tracé 1118" d="M36.785,147.9c-.9,4.983.768,12.748,3.271,19.255-2.212,5.192-2.48,10.559-1.944,16" transform="translate(-36.11 -147.902)" fill="none" stroke="#7ac0ad" stroke-miterlimit="10" stroke-width="0.323"/>
          <path id="Tracé_1119" data-name="Tracé 1119" d="M39.007,148.034c-.058,6.228.78,13.167,2.782,18.044a25.043,25.043,0,0,0-2.526,15.227" transform="translate(-29.682 -147.557)" fill="none" stroke="#7ac0ad" stroke-miterlimit="10" stroke-width="0.323"/>
          <path id="Tracé_1120" data-name="Tracé 1120" d="M41.257,148.46a33.061,33.061,0,0,0,2.829,15.483c-1.49,2.9-1.327,8.068-1.048,13.4" transform="translate(-24.027 -146.446)" fill="none" stroke="#7ac0ad" stroke-miterlimit="10" stroke-width="0.323"/>
          <path id="Tracé_1121" data-name="Tracé 1121" d="M43.492,148.637c-.885,1.548.1,9.7,1.63,11.234" transform="translate(-18.846 -145.983)" fill="none" stroke="#7ac0ad" stroke-miterlimit="10" stroke-width="0.323"/>
          <path id="Tracé_1122" data-name="Tracé 1122" d="M43.673,155.993" transform="translate(-17.503 -126.796)" fill="none" stroke="#7ac0ad" stroke-miterlimit="10" stroke-width="0.323"/>
          <path id="Tracé_1123" data-name="Tracé 1123" d="M43.828,154.422" transform="translate(-17.099 -130.894)" fill="none" stroke="#7ac0ad" stroke-miterlimit="10" stroke-width="0.323"/>
        </g>
        <g id="Groupe_1138" data-name="Groupe 1138" transform="translate(85.82 116.321)">
          <line id="Ligne_204" data-name="Ligne 204" x2="39.651" y2="0.943" transform="translate(0 18.836)" fill="none" stroke="#7ac0ad" stroke-miterlimit="10" stroke-width="0.323"/>
          <path id="Tracé_1124" data-name="Tracé 1124" d="M38.209,138.52c-.885,4.2-.955,12.643,3.609,18.8a19.258,19.258,0,0,0-2.584,15.32" transform="translate(-35.787 -138.52)" fill="none" stroke="#7ac0ad" stroke-miterlimit="10" stroke-width="0.323"/>
          <path id="Tracé_1125" data-name="Tracé 1125" d="M41.242,139.43c-.012,5.332.931,11.339,3.038,15.658-2.9,4.633-4.377,11.49-3.714,15.541" transform="translate(-28.809 -136.147)" fill="none" stroke="#7ac0ad" stroke-miterlimit="10" stroke-width="0.323"/>
          <path id="Tracé_1126" data-name="Tracé 1126" d="M42.974,139.759c-.5,6.356.244,8.685,3.76,15.32-2.258,3.423-1.758,10.151-1.187,16.787" transform="translate(-22.485 -135.289)" fill="none" stroke="#7ac0ad" stroke-miterlimit="10" stroke-width="0.323"/>
          <path id="Tracé_1127" data-name="Tracé 1127" d="M47.534,140.714c-1.222,1.2,1.176,8.533,3.69,10.151" transform="translate(-11.084 -132.798)" fill="none" stroke="#7ac0ad" stroke-miterlimit="10" stroke-width="0.323"/>
          <path id="Tracé_1128" data-name="Tracé 1128" d="M48.716,147.244" transform="translate(-7.144 -115.765)" fill="none" stroke="#7ac0ad" stroke-miterlimit="10" stroke-width="0.323"/>
          <path id="Tracé_1129" data-name="Tracé 1129" d="M48.793,145.9" transform="translate(-6.942 -119.282)" fill="none" stroke="#7ac0ad" stroke-miterlimit="10" stroke-width="0.323"/>
          <path id="Tracé_1130" data-name="Tracé 1130" d="M45.26,140.517c-.373,4.8.733,7.392,3.388,12.4-1.711,2.584-3.143,4.1-2.712,9.1" transform="translate(-16.342 -133.311)" fill="none" stroke="#7ac0ad" stroke-miterlimit="10" stroke-width="0.323"/>
        </g>
        <path id="Tracé_1131" data-name="Tracé 1131" d="M41.624,146.543c-.85-2.049,6.089-9.208,10.093-9.7" transform="translate(59.993 -26.566)" fill="none" stroke="#7ac0ad" stroke-miterlimit="10" stroke-width="0.323"/>
        <g id="Groupe_1139" data-name="Groupe 1139" transform="translate(88.719 82.77)">
          <path id="Tracé_1132" data-name="Tracé 1132" d="M59.5,141.358c-8.2-1.35-15.565-3.225-19.674-7.148" transform="translate(-33.227 -116.212)" fill="none" stroke="#7ac0ad" stroke-miterlimit="10" stroke-width="0.323"/>
          <path id="Tracé_1133" data-name="Tracé 1133" d="M50.711,129.222c-2.387,5.763-2.771,13.912-1.56,21.025A24.894,24.894,0,0,0,38,161.749" transform="translate(-37.998 -129.222)" fill="none" stroke="#7ac0ad" stroke-miterlimit="10" stroke-width="0.323"/>
          <path id="Tracé_1134" data-name="Tracé 1134" d="M39.844,162.034a19.027,19.027,0,0,1,10.978-10.64c-1.164-7.043-.419-16.007.326-21.723" transform="translate(-33.185 -128.052)" fill="none" stroke="#7ac0ad" stroke-miterlimit="10" stroke-width="0.323"/>
          <path id="Tracé_1135" data-name="Tracé 1135" d="M46.283,149.081a34.968,34.968,0,0,1-1.723-17.975" transform="translate(-22.162 -124.308)" fill="none" stroke="#7ac0ad" stroke-miterlimit="10" stroke-width="0.323"/>
          <path id="Tracé_1136" data-name="Tracé 1136" d="M48.823,146.9a35.427,35.427,0,0,1-3.236-15.239" transform="translate(-18.205 -122.869)" fill="none" stroke="#7ac0ad" stroke-miterlimit="10" stroke-width="0.323"/>
        </g>
        <path id="Tracé_1137" data-name="Tracé 1137" d="M52.745,133C60.626,115.922,81.651,98.46,96.3,110.008c20.1,15.856,3.562,32.887-10.419,39.814" transform="translate(89.187 -106.284)" fill="#84c7cb"/>
        <path id="Tracé_1138" data-name="Tracé 1138" d="M49.908,138.727c-1.222,1.2,1.176,8.533,3.69,10.152" transform="translate(80.93 -21.66)" fill="none" stroke="#7ac0ad" stroke-miterlimit="10" stroke-width="0.323"/>
        <path id="Tracé_1139" data-name="Tracé 1139" d="M40.579,126.586c-5.309,2.526-5.239,3.7-5.856,6.752" transform="translate(42.179 -53.327)" fill="none" stroke="#7ac0ad" stroke-miterlimit="10" stroke-width="0.323"/>
        <g id="Groupe_1140" data-name="Groupe 1140" transform="translate(66.588 37.752)">
          <path id="Tracé_1140" data-name="Tracé 1140" d="M37.621,119.066c2.771,8.615,14.517,18.685,26,28.708" transform="translate(-16.852 -110.696)" fill="none" stroke="#7ac0ad" stroke-miterlimit="10" stroke-width="0.323"/>
          <path id="Tracé_1141" data-name="Tracé 1141" d="M31.865,138.551a98.883,98.883,0,0,1,24.343-6.775c1.9-4.261,8.7-9.616,15.716-15.029" transform="translate(-31.865 -116.746)" fill="none" stroke="#7ac0ad" stroke-miterlimit="10" stroke-width="0.323"/>
          <path id="Tracé_1142" data-name="Tracé 1142" d="M33.907,141.52c4.342-3.958,12.34-5.378,21.42-6.042,3.143-5.728,8.7-11.513,15.25-17.334" transform="translate(-26.538 -113.103)" fill="none" stroke="#7ac0ad" stroke-miterlimit="10" stroke-width="0.323"/>
          <path id="Tracé_1143" data-name="Tracé 1143" d="M36.346,141.582c4.459-3.783,11.083-5.553,18.673-6.449,2.026-4.726,6.612-9.6,12.189-14.54" transform="translate(-20.176 -106.715)" fill="none" stroke="#7ac0ad" stroke-miterlimit="10" stroke-width="0.323"/>
          <path id="Tracé_1144" data-name="Tracé 1144" d="M62.383,122.663c-4.051,3.923-7.532,7.986-7.5,12.782-7.148,1.3-13.271,3.2-15.472,7.381" transform="translate(-12.173 -101.313)" fill="none" stroke="#7ac0ad" stroke-miterlimit="10" stroke-width="0.323"/>
        </g>
        <g id="Groupe_1141" data-name="Groupe 1141" transform="translate(101.641 32.618)">
          <path id="Tracé_1145" data-name="Tracé 1145" d="M48,115.324c-2.1,8.8,2.724,23.5,7.334,38.033" transform="translate(-26.157 -115.324)" fill="none" stroke="#7ac0ad" stroke-miterlimit="10" stroke-width="0.323"/>
          <path id="Tracé_1146" data-name="Tracé 1146" d="M42.108,115.685c8.557,1.257,11.863,2.992,19.546,6.252,3.83-2.666,6.868-4.447,15.67-5.425" transform="translate(-40.199 -114.381)" fill="none" stroke="#7ac0ad" stroke-miterlimit="10" stroke-width="0.323"/>
          <path id="Tracé_1147" data-name="Tracé 1147" d="M41.579,118.559c5.763-1.129,13.341,1.8,21.444,5.937,5.658-3.26,5.576-4.936,14.2-6.508" transform="translate(-41.579 -108.373)" fill="none" stroke="#7ac0ad" stroke-miterlimit="10" stroke-width="0.323"/>
          <path id="Tracé_1148" data-name="Tracé 1148" d="M42.737,122.093c5.774-.92,12.363,1,19.313,4.179,4.179-2.992,3.807-4.447,11.141-5.774" transform="translate(-38.558 -101.825)" fill="none" stroke="#7ac0ad" stroke-miterlimit="10" stroke-width="0.323"/>
          <path id="Tracé_1149" data-name="Tracé 1149" d="M70.316,122.628c-5.506,1.257-10.582,2.922-13.039,7.031-6.787-2.584-5.914-3.516-11.269-3.516" transform="translate(-30.025 -96.271)" fill="none" stroke="#7ac0ad" stroke-miterlimit="10" stroke-width="0.323"/>
        </g>
        <path id="Tracé_1150" data-name="Tracé 1150" d="M57.407,137.065c4.366,1.932,9.744,5.239,10.5,8.545" transform="translate(101.348 -25.994)" fill="none" stroke="#7ac0ad" stroke-miterlimit="10" stroke-width="0.323"/>
        <path id="Tracé_1151" data-name="Tracé 1151" d="M56,137.878c4.7,2.27,10.442,6.252,11.141,10.408" transform="translate(97.67 -23.874)" fill="none" stroke="#7ac0ad" stroke-miterlimit="10" stroke-width="0.323"/>
        <g id="Groupe_1142" data-name="Groupe 1142" transform="translate(135.041 21.279)">
          <path id="Tracé_1152" data-name="Tracé 1152" d="M64.317,115.04c-7.4,6.892-4.82,7.218-7.136,10.64" transform="translate(-34.282 -104.725)" fill="none" stroke="#7ac0ad" stroke-miterlimit="10" stroke-width="0.323"/>
          <path id="Tracé_1153" data-name="Tracé 1153" d="M53.5,112.181c7.066,5.716,10.326,9.907,15.344,16.973,5.169-.384,9.069-.384,17.753,3.423" transform="translate(-43.876 -112.181)" fill="none" stroke="#7ac0ad" stroke-miterlimit="10" stroke-width="0.323"/>
          <path id="Tracé_1154" data-name="Tracé 1154" d="M52.374,114.537c6,2.049,9.243,5.576,14.1,13.667" transform="translate(-46.821 -106.038)" fill="none" stroke="#7ac0ad" stroke-miterlimit="10" stroke-width="0.323"/>
          <path id="Tracé_1155" data-name="Tracé 1155" d="M51.174,117.537c5.867,2.235,6.775,2.747,11.176,9.348" transform="translate(-49.952 -98.212)" fill="none" stroke="#7ac0ad" stroke-miterlimit="10" stroke-width="0.323"/>
          <path id="Tracé_1156" data-name="Tracé 1156" d="M56.912,127.878c-3.481-4.8-2.538-5.017-6.077-7.451" transform="translate(-50.835 -90.672)" fill="none" stroke="#7ac0ad" stroke-miterlimit="10" stroke-width="0.323"/>
        </g>
        <g id="Groupe_1143" data-name="Groupe 1143" transform="translate(169.139 98.626)">
          <path id="Tracé_1157" data-name="Tracé 1157" d="M100.177,137.239c-12.352,5.483-29.814,14.354-39.151,24.3" transform="translate(-58.349 -124.166)" fill="none" stroke="#7ac0ad" stroke-miterlimit="10" stroke-width="0.323"/>
          <path id="Tracé_1158" data-name="Tracé 1158" d="M67.576,133.616c3.69,7.4,3.76,10.722,4.715,18.172,5.239,2.084,5.716,2.037,12.049,8.789" transform="translate(-41.266 -133.616)" fill="none" stroke="#7ac0ad" stroke-miterlimit="10" stroke-width="0.323"/>
          <path id="Tracé_1159" data-name="Tracé 1159" d="M65.182,135.271c4.692,4.238,4.47,8.7,4.7,16.822,3.516,1.758,5.832,1.886,9.313,7.7" transform="translate(-47.51 -129.299)" fill="none" stroke="#7ac0ad" stroke-miterlimit="10" stroke-width="0.323"/>
          <path id="Tracé_1160" data-name="Tracé 1160" d="M62.65,137.32c4.459,4.319,5.227,7.416,5.832,14.238,5.809,2.247,7.392,3.714,9.628,6.2" transform="translate(-54.116 -123.955)" fill="none" stroke="#7ac0ad" stroke-miterlimit="10" stroke-width="0.323"/>
          <path id="Tracé_1161" data-name="Tracé 1161" d="M76.9,157.679c-2.224-2.829-3.912-4.47-9.954-4.889-1.164-6.473-2.91-8.941-6.659-13.469" transform="translate(-60.285 -118.738)" fill="none" stroke="#7ac0ad" stroke-miterlimit="10" stroke-width="0.323"/>
        </g>
        <g id="Groupe_1144" data-name="Groupe 1144" transform="translate(160.396 72.98)">
          <path id="Tracé_1162" data-name="Tracé 1162" d="M81.6,129.438c-3.632,7.486-13.784,14.959-23.737,22.433" transform="translate(-57.862 -118.868)" fill="none" stroke="#7ac0ad" stroke-miterlimit="10" stroke-width="0.323"/>
          <path id="Tracé_1163" data-name="Tracé 1163" d="M84.652,152.528a57.65,57.65,0,0,0-15.541-9.872c-.466-4.191-4.121-10.128-7.916-16.147" transform="translate(-49.169 -126.509)" fill="none" stroke="#7ac0ad" stroke-miterlimit="10" stroke-width="0.323"/>
          <path id="Tracé_1164" data-name="Tracé 1164" d="M80.944,154.584c-2.224-4.284-7.5-6.787-13.656-8.766-1.048-5.728-3.749-11.874-7.136-18.2" transform="translate(-51.887 -123.606)" fill="none" stroke="#7ac0ad" stroke-miterlimit="10" stroke-width="0.323"/>
          <path id="Tracé_1165" data-name="Tracé 1165" d="M76.337,153.633c-2.34-4.144-6.589-6.764-11.676-8.72-.466-4.645-2.678-9.8-5.576-15.169" transform="translate(-54.672 -118.068)" fill="none" stroke="#7ac0ad" stroke-miterlimit="10" stroke-width="0.323"/>
          <path id="Tracé_1166" data-name="Tracé 1166" d="M58.065,131.513c2.037,4.214,3.644,8.452,2.666,12.852,4.7,2.27,10.443,6.252,11.141,10.408" transform="translate(-57.332 -113.457)" fill="none" stroke="#7ac0ad" stroke-miterlimit="10" stroke-width="0.323"/>
        </g>
        <g id="Groupe_1145" data-name="Groupe 1145" transform="translate(235.147 103.55)">
          <line id="Ligne_205" data-name="Ligne 205" x1="34.121" y2="5.809" transform="translate(0 10.629)" fill="none" stroke="#7ac0ad" stroke-miterlimit="10" stroke-width="0.323"/>
          <path id="Tracé_1167" data-name="Tracé 1167" d="M92.972,157.926a15.655,15.655,0,0,0-6.81-11.176c4.238-4.144,4.3-8.021,2.445-11.77" transform="translate(-58.793 -134.981)" fill="none" stroke="#7ac0ad" stroke-miterlimit="10" stroke-width="0.323"/>
          <path id="Tracé_1168" data-name="Tracé 1168" d="M89.6,156.43c-.279-4.447-1.746-6.659-5.751-8.987,2.4-2.91,1.967-7.974,1.979-12.049" transform="translate(-64.827 -133.904)" fill="none" stroke="#7ac0ad" stroke-miterlimit="10" stroke-width="0.323"/>
          <path id="Tracé_1169" data-name="Tracé 1169" d="M85.372,151.282c-.326-1.816-2.992-3.958-4.307-4.68,3.621-2.922,3.2-6.659,2.887-10.373" transform="translate(-72.089 -131.724)" fill="none" stroke="#7ac0ad" stroke-miterlimit="10" stroke-width="0.323"/>
        </g>
        <g id="Groupe_1146" data-name="Groupe 1146" transform="translate(174.226 33.957)">
          <line id="Ligne_206" data-name="Ligne 206" x1="25.6" y2="23.26" transform="translate(0 11.362)" fill="none" stroke="#7ac0ad" stroke-miterlimit="10" stroke-width="0.323"/>
          <path id="Tracé_1170" data-name="Tracé 1170" d="M96.6,142.109c-3-3.271-15.181-10.163-20.28-10.186,1.036-5.832-8.591-14.249-12.27-16.228" transform="translate(-55.551 -115.695)" fill="none" stroke="#7ac0ad" stroke-miterlimit="10" stroke-width="0.323"/>
          <path id="Tracé_1171" data-name="Tracé 1171" d="M90.7,137.843c-3.132-3.7-12.538-4.1-17.416-3.853.1-3.877-7.846-13.12-10.489-16.659" transform="translate(-58.833 -111.428)" fill="none" stroke="#7ac0ad" stroke-miterlimit="10" stroke-width="0.323"/>
          <path id="Tracé_1172" data-name="Tracé 1172" d="M65.315,128.868c1.246-4.482.128-4.587-2.282-7.427" transform="translate(-58.202 -100.707)" fill="none" stroke="#7ac0ad" stroke-miterlimit="10" stroke-width="0.323"/>
          <path id="Tracé_1173" data-name="Tracé 1173" d="M66.75,124.98" transform="translate(-48.508 -91.475)" fill="none" stroke="#7ac0ad" stroke-miterlimit="10" stroke-width="0.323"/>
        </g>
        <g id="Groupe_1147" data-name="Groupe 1147" transform="translate(187.509 123.271)">
          <path id="Tracé_1174" data-name="Tracé 1174" d="M110.161,145.227c-13.446,1.35-32.806,4.319-44.785,10.85" transform="translate(-65.376 -127.974)" fill="none" stroke="#7ac0ad" stroke-miterlimit="10" stroke-width="0.323"/>
          <path id="Tracé_1175" data-name="Tracé 1175" d="M75.7,140.446c1.2,8.184.221,11.362-1.2,18.731,4.319,3.621,5.087,4.505,9,12.9" transform="translate(-41.569 -140.446)" fill="none" stroke="#7ac0ad" stroke-miterlimit="10" stroke-width="0.323"/>
          <path id="Tracé_1176" data-name="Tracé 1176" d="M72.617,141.269c3.132,5.495,1.525,9.662-.792,17.451,2.794,2.771,4.68,4.3,6.17,10.9" transform="translate(-48.553 -138.3)" fill="none" stroke="#7ac0ad" stroke-miterlimit="10" stroke-width="0.323"/>
          <path id="Tracé_1177" data-name="Tracé 1177" d="M69.07,142.066c2.887,5.495,2.387,9.965.827,16.636,4.82,3.946,5.867,6.927,7.206,9.977" transform="translate(-55.74 -136.222)" fill="none" stroke="#7ac0ad" stroke-miterlimit="10" stroke-width="0.323"/>
          <path id="Tracé_1178" data-name="Tracé 1178" d="M76.171,167.121c-1.234-3.388-2.317-6.368-7.928-8.661.92-6.519.023-9.395-2.119-14.878" transform="translate(-63.423 -132.266)" fill="none" stroke="#7ac0ad" stroke-miterlimit="10" stroke-width="0.323"/>
        </g>
        <path id="Tracé_1179" data-name="Tracé 1179" d="M136.155,189.063c0,13.632-8.685,23.074-21.188,20.338-16.694-3.644-42.352-13.283-25.192-20.338,12.608-5.18,14.89-28.708,27.7-28.708S136.155,175.431,136.155,189.063Z" transform="translate(170.972 34.756)" fill="#84c7cb"/>
        <path id="Tracé_1180" data-name="Tracé 1180" d="M134.674,190.252c-13.306,11.42-16.147,10.3-44.3-12.585-8.382-6.81-19.185-10.85-24.389-13.015,0-5.25,28.929-2.421,39.733-2.421S139.377,186.213,134.674,190.252Z" transform="translate(123.732 37.665)" fill="#84c7cb"/>
        <g id="Groupe_1148" data-name="Groupe 1148" transform="translate(196.415 155.041)">
          <path id="Tracé_1181" data-name="Tracé 1181" d="M113.607,159.553c-13.073-3.423-32.259-7.381-45.763-5.437" transform="translate(-67.844 -137.899)" fill="none" stroke="#7ac0ad" stroke-miterlimit="10" stroke-width="0.323"/>
          <path id="Tracé_1182" data-name="Tracé 1182" d="M84.963,149.741c-1.735,8.091-3.749,10.734-7.66,17.136,2.794,4.9,3.085,7.008,3.83,16.24" transform="translate(-43.17 -147.971)" fill="none" stroke="#7ac0ad" stroke-miterlimit="10" stroke-width="0.323"/>
          <path id="Tracé_1183" data-name="Tracé 1183" d="M80.98,149.257c1.024,6.24-1.467,10.605-6.345,17.1,1.653,3.574,2.666,6.775,1.77,13.481" transform="translate(-50.129 -149.234)" fill="none" stroke="#7ac0ad" stroke-miterlimit="10" stroke-width="0.323"/>
          <path id="Tracé_1184" data-name="Tracé 1184" d="M77.093,149.25c.792,6.158-1.246,10.175-5.029,15.891,3.143,5.378,3.085,8.533,3.271,11.863" transform="translate(-56.836 -149.25)" fill="none" stroke="#7ac0ad" stroke-miterlimit="10" stroke-width="0.323"/>
          <path id="Tracé_1185" data-name="Tracé 1185" d="M73.692,175.209c.023-3.609.047-6.775-4.412-10.885,3.132-5.786,3.306-8.8,3.2-14.68" transform="translate(-64.099 -148.224)" fill="none" stroke="#7ac0ad" stroke-miterlimit="10" stroke-width="0.323"/>
        </g>
        <path id="Tracé_1186" data-name="Tracé 1186" d="M73.461,126.2c3.108.978,5.483,3.818,7.672,7.125" transform="translate(143.222 -54.329)" fill="none" stroke="#7ac0ad" stroke-miterlimit="10" stroke-width="0.323"/>
        <g id="Groupe_1149" data-name="Groupe 1149" transform="translate(191.84 181.502)">
          <path id="Tracé_1187" data-name="Tracé 1187" d="M106.18,182.38c-10.559-8.428-26.473-19.837-39.6-23.551" transform="translate(-66.576 -150.727)" fill="none" stroke="#7ac0ad" stroke-miterlimit="10" stroke-width="0.323"/>
          <path id="Tracé_1188" data-name="Tracé 1188" d="M91.307,159.332A55.747,55.747,0,0,1,76.22,173.838c.559,5.611,1.269,4.529-1.8,13.26" transform="translate(-46.127 -149.414)" fill="none" stroke="#7ac0ad" stroke-miterlimit="10" stroke-width="0.323"/>
          <path id="Tracé_1189" data-name="Tracé 1189" d="M87.75,158.139c-1.595,6.112-5.658,9.325-12.759,13.271.058,3.935.338,6.333-3.2,12.107" transform="translate(-52.977 -152.527)" fill="none" stroke="#7ac0ad" stroke-miterlimit="10" stroke-width="0.323"/>
          <path id="Tracé_1190" data-name="Tracé 1190" d="M82.932,157c-1.77,5.949-5.262,8.789-11.036,12.48.687,6.193-.792,9.337-1.967,12.445" transform="translate(-57.832 -155.49)" fill="none" stroke="#7ac0ad" stroke-miterlimit="10" stroke-width="0.323"/>
          <path id="Tracé_1191" data-name="Tracé 1191" d="M67.731,178.912c1.49-3.283,3.015-6.659.617-12.212,5.2-4.016,5.937-4.7,8.231-10.117" transform="translate(-63.563 -156.584)" fill="none" stroke="#7ac0ad" stroke-miterlimit="10" stroke-width="0.323"/>
        </g>
        <path id="Tracé_1192" data-name="Tracé 1192" d="M86.194,124.77c14.11,1.409,17.614,10.012,17.451,21.095L86.718,134.328Z" transform="translate(176.438 -58.065)" fill="#84c7cb"/>
        <path id="Tracé_1193" data-name="Tracé 1193" d="M96.6,142.109c-3-3.271-15.181-10.163-20.28-10.186,1.036-5.832-8.591-14.249-12.27-16.228" transform="translate(118.675 -81.738)" fill="none" stroke="#7ac0ad" stroke-miterlimit="10" stroke-width="0.323"/>
        <path id="Tracé_1194" data-name="Tracé 1194" d="M101.736,135.872c.8.57,6.554-18.277-6.089-22.724-15.483-6.275-28.987,5.122-28.987,5.122" transform="translate(125.483 -93.3)" fill="#84c7cb"/>
        <path id="Tracé_1195" data-name="Tracé 1195" d="M115.226,157.512c0,7.416-5.18,13.434-11.583,13.434S92.06,164.928,92.06,157.512s3.236-14.692,9.628-14.692S115.226,150.1,115.226,157.512Z" transform="translate(191.737 -10.981)" fill="#84c7cb"/>
        <path id="Tracé_1196" data-name="Tracé 1196" d="M125.522,179.67c-2.619,13.225-5.937,15.157-16.147,19.267-8.883,3.574-17.323-10.652-17.323-23.8s-1.77-27.521,7.8-27.521S123.194,157.179,125.522,179.67Z" transform="translate(191.383 1.541)" fill="#84c7cb"/>
        <g id="Groupe_1150" data-name="Groupe 1150" transform="translate(260.409 125.413)">
          <line id="Ligne_207" data-name="Ligne 207" y1="0.407" x2="9.756" transform="translate(2.107 19.162)" fill="none" stroke="#7ac0ad" stroke-miterlimit="10" stroke-width="0.323"/>
          <path id="Tracé_1197" data-name="Tracé 1197" d="M87.823,181.107c1.048-6.624,3.353-15.483-.99-20.838,3.143-3.178,3.178-13.236,4.389-19.174" transform="translate(-82.305 -140.897)" fill="none" stroke="#7ac0ad" stroke-miterlimit="10" stroke-width="0.323"/>
          <path id="Tracé_1198" data-name="Tracé 1198" d="M89.023,167.163c1.048-6.624,3.353-15.483-.99-20.838" transform="translate(-79.174 -127.255)" fill="none" stroke="#7ac0ad" stroke-miterlimit="10" stroke-width="0.323"/>
          <path id="Tracé_1199" data-name="Tracé 1199" d="M86.242,160.864c.4-4.668,1.444-8.5-.664-12.794" transform="translate(-85.578 -122.703)" fill="none" stroke="#7ac0ad" stroke-miterlimit="10" stroke-width="0.323"/>
          <path id="Tracé_1200" data-name="Tracé 1200" d="M88.033,161.11c3.1-5.937,8.1-13.609,5.693-20.07" transform="translate(-79.174 -141.04)" fill="none" stroke="#7ac0ad" stroke-miterlimit="10" stroke-width="0.323"/>
        </g>
        <path id="Tracé_1201" data-name="Tracé 1201" d="M73.048,123.015c3.248,2.561,3.248,5.53,1.5,8.65" transform="translate(142.145 -62.643)" fill="none" stroke="#7ac0ad" stroke-miterlimit="10" stroke-width="0.323"/>
        <path id="Tracé_1202" data-name="Tracé 1202" d="M73.461,125.412c3.842,0,10.175,3.434,12.352,6.752" transform="translate(143.222 -56.39)" fill="none" stroke="#7ac0ad" stroke-miterlimit="10" stroke-width="0.323"/>
        <g id="Groupe_1151" data-name="Groupe 1151" transform="translate(244.285 192.41)">
          <path id="Tracé_1203" data-name="Tracé 1203" d="M111.506,179.3c-10.314-8.743-17.381-14.692-30.4-18.79" transform="translate(-81.11 -157.25)" fill="none" stroke="#7ac0ad" stroke-miterlimit="10" stroke-width="0.323"/>
          <path id="Tracé_1204" data-name="Tracé 1204" d="M108.864,161.345c-5.052,6.543-6.193,7.986-12.48,12.084.4,5.623-4.971,17.218-10.955,23.6" transform="translate(-69.842 -155.071)" fill="none" stroke="#7ac0ad" stroke-miterlimit="10" stroke-width="0.323"/>
          <path id="Tracé_1205" data-name="Tracé 1205" d="M102.992,160.7c-1.77,6.065-4.354,6.985-11.572,10.734-.058,3.935-2.235,8.568-5.949,14.226" transform="translate(-69.732 -156.754)" fill="none" stroke="#7ac0ad" stroke-miterlimit="10" stroke-width="0.323"/>
          <path id="Tracé_1206" data-name="Tracé 1206" d="M94.552,159.784c-1.944,5.891-3.5,5.39-9.395,8.906a10.4,10.4,0,0,1-.279,8.487" transform="translate(-71.281 -159.144)" fill="none" stroke="#7ac0ad" stroke-miterlimit="10" stroke-width="0.323"/>
          <path id="Tracé_1207" data-name="Tracé 1207" d="M82.42,165.02c.384-.57,3.271-.058,5.728-5.413" transform="translate(-77.693 -159.607)" fill="none" stroke="#7ac0ad" stroke-miterlimit="10" stroke-width="0.323"/>
        </g>
        <path id="Tracé_1208" data-name="Tracé 1208" d="M74.219,128.819a3.744,3.744,0,0,1,1.409,5.262" transform="translate(145.2 -47.504)" fill="none" stroke="#7ac0ad" stroke-miterlimit="10" stroke-width="0.323"/>
        <path id="Tracé_1209" data-name="Tracé 1209" d="M89.4,147.409c.384-5.4-3.912-10.14-9.1-14.738" transform="translate(161.055 -37.456)" fill="none" stroke="#7ac0ad" stroke-miterlimit="10" stroke-width="0.323"/>
        <g id="Groupe_1152" data-name="Groupe 1152" transform="translate(271.003 164.82)">
          <line id="Ligne_208" data-name="Ligne 208" y1="0.407" x2="12.037" transform="translate(1.432 14.866)" fill="none" stroke="#7ac0ad" stroke-miterlimit="10" stroke-width="0.323"/>
          <path id="Tracé_1210" data-name="Tracé 1210" d="M91.692,184.234c1.292-6.624,3.4-12-1.956-17.369,3.888-3.178,3.8-9.278,1.595-14.843" transform="translate(-85.325 -151.801)" fill="none" stroke="#7ac0ad" stroke-miterlimit="10" stroke-width="0.323"/>
          <path id="Tracé_1211" data-name="Tracé 1211" d="M92.49,175.138c1.292-6.624,4.086-13.725-1.269-19.081" transform="translate(-81.453 -141.273)" fill="none" stroke="#7ac0ad" stroke-miterlimit="10" stroke-width="0.323"/>
          <path id="Tracé_1212" data-name="Tracé 1212" d="M90.784,170.041c1.292-5.4,3.085-8.556-2.27-12.922" transform="translate(-88.514 -138.504)" fill="none" stroke="#7ac0ad" stroke-miterlimit="10" stroke-width="0.323"/>
          <path id="Tracé_1213" data-name="Tracé 1213" d="M91.221,167.735c3.83-5.937,5.064-9.313,2.1-15.774" transform="translate(-81.453 -151.96)" fill="none" stroke="#7ac0ad" stroke-miterlimit="10" stroke-width="0.323"/>
        </g>
        <line id="Ligne_209" data-name="Ligne 209" x1="8.184" y2="2.736" transform="translate(216.846 66.297)" fill="none" stroke="#7ac0ad" stroke-miterlimit="10" stroke-width="0.323"/>
        <path id="Tracé_1214" data-name="Tracé 1214" d="M90.6,165.025c1.292-5.4,3.085-8.557-2.27-12.922" transform="translate(182.009 13.23)" fill="none" stroke="#7ac0ad" stroke-miterlimit="10" stroke-width="0.323"/>
        <g id="Groupe_1153" data-name="Groupe 1153" transform="translate(233.167 73.62)">
          <line id="Ligne_210" data-name="Ligne 210" y1="3.469" x2="8.347" transform="translate(6.461 17.288)" fill="none" stroke="#7ac0ad" stroke-miterlimit="10" stroke-width="0.323"/>
          <path id="Tracé_1215" data-name="Tracé 1215" d="M102.674,160.715c-1.292-3-11.164-14.121-15.39-14.61,3.015-4.738-6.927-17.427-9.255-19.418" transform="translate(-78.029 -126.686)" fill="none" stroke="#7ac0ad" stroke-miterlimit="10" stroke-width="0.323"/>
        </g>
        <g id="Groupe_1154" data-name="Groupe 1154" transform="translate(2.807 0.443)">
          <path id="Tracé_1216" data-name="Tracé 1216" d="M91.336,150.6c-19.2-2.317-38.708-4.971-50.641.64-23.388,11.292-14.575,30.117,5.937,32.969a67.643,67.643,0,0,0,14.3-.943" transform="translate(18.569 1.832)" fill="none" stroke="#2a3f40" stroke-miterlimit="10" stroke-width="0.323"/>
          <path id="Tracé_1217" data-name="Tracé 1217" d="M76.153,143.7c-7.59-2.375-14.645-4.936-26.391-5.786-20.932,1.129-28.836,19.767-13.551,31.339,4.424,3.376,10.1,4.238,15.937,4.8" transform="translate(22.471 -24.215)" fill="none" stroke="#2a3f40" stroke-miterlimit="10" stroke-width="0.323"/>
          <path id="Tracé_1218" data-name="Tracé 1218" d="M73.531,135.3c-7.52-3.085-15.541-7-21.49-7.462-19.325.559-25.763,15.949-14.412,28.813,4.319,4.1,9.406,6.857,14.657,9.336" transform="translate(32.335 -50.513)" fill="none" stroke="#2a3f40" stroke-miterlimit="10" stroke-width="0.323"/>
          <path id="Tracé_1219" data-name="Tracé 1219" d="M23.159,177.137C11.681,164.855,9.679,154.3,28.282,147.486c15.809,6.519,30.28,6.24,44.61,4.843" transform="translate(-13.616 0.745)" fill="none" stroke="#2a3f40" stroke-miterlimit="10" stroke-width="0.323"/>
          <path id="Tracé_1220" data-name="Tracé 1220" d="M62.579,157c-15.181-3.015-28.045-8.289-35.763-18.592-14.214,3.749-16.124,19.36-.873,32.759" transform="translate(-11.278 -22.936)" fill="none" stroke="#2a3f40" stroke-miterlimit="10" stroke-width="0.323"/>
          <path id="Tracé_1221" data-name="Tracé 1221" d="M86,157.213c-17.87-7.683-34.354-15.646-44.517-24.96-16.38-6.275-29.407,5.332-21.141,26.648" transform="translate(-4.806 -43.418)" fill="none" stroke="#2a3f40" stroke-miterlimit="10" stroke-width="0.323"/>
          <path id="Tracé_1222" data-name="Tracé 1222" d="M28.6,158.236c-14-21.223-1.444-44.3,21.7-35.856,7.509,9.732,18.789,18.021,31.875,25.6" transform="translate(8.072 -69.401)" fill="none" stroke="#2a3f40" stroke-miterlimit="10" stroke-width="0.323"/>
          <path id="Tracé_1223" data-name="Tracé 1223" d="M91.581,160.2c-5.192-15.646-16.03-40.047-31.8-47.323-24.587-7.055-37.183,12-26.741,33.539" transform="translate(25.344 -93.434)" fill="none" stroke="#2a3f40" stroke-miterlimit="10" stroke-width="0.323"/>
          <path id="Tracé_1224" data-name="Tracé 1224" d="M76.3,127.58c5.576,3.283,7.509,7.357,7.381,11.886" transform="translate(147.829 -51.178)" fill="none" stroke="#7ac0ad" stroke-miterlimit="10" stroke-width="0.323"/>
          <path id="Tracé_1225" data-name="Tracé 1225" d="M76.033,163.154c.419-11.525,2.468-23.12,8.312-34.89-1.548-34.564-49.232-22-42.736,6.2" transform="translate(55.747 -104.04)" fill="none" stroke="#2a3f40" stroke-miterlimit="10" stroke-width="0.323"/>
          <path id="Tracé_1226" data-name="Tracé 1226" d="M52.206,165.067c9.488-12.049,18.7-24.96,35.076-15.565,6.217-8.056,12.422-16.159,19.744-20.28,0-23.272-23.842-29.628-38.51-14.948-9.872,7.614-13.4,16.368-13.4,16.368" transform="translate(84.975 -106.407)" fill="none" stroke="#2a3f40" stroke-miterlimit="10" stroke-width="0.323"/>
          <path id="Tracé_1227" data-name="Tracé 1227" d="M58.714,201.506c9.069-14.319,37.917-31.013,45.239-37.358,10.245-7.416,17.067-34.913-18.138-30.233-13.853,4.1-23.167,18.778-23.167,18.778s20.443-25.134,7.672-34.343" transform="translate(101.949 -75.255)" fill="none" stroke="#2a3f40" stroke-miterlimit="10" stroke-width="0.323"/>
          <path id="Tracé_1228" data-name="Tracé 1228" d="M65.843,178c9.29.419,27.09,13.621,46.718,29.57,0,0,15.6,9.849,23.6-8.871,3.7-16.671-13.656-26.717-13.656-26.717-16.543-9.7-32.538-15.413-47.765-15.507" transform="translate(120.547 24.19)" fill="none" stroke="#2a3f40" stroke-miterlimit="10" stroke-width="0.323"/>
          <path id="Tracé_1229" data-name="Tracé 1229" d="M71.251,133.109c32.992-11.77,45.6,15.518,23.353,32.352" transform="translate(134.651 -44.216)" fill="#84c7cb" stroke="#2a3f40" stroke-miterlimit="10" stroke-width="0.323"/>
          <path id="Tracé_1230" data-name="Tracé 1230" d="M85.469,156.557c6.345-6.694,11.77-13.248,14.575-19.395,0,0,7.707-18.033-7.288-24.11-13.621-5.937-25.355,3.83-25.355,3.83" transform="translate(124.611 -94.067)" fill="none" stroke="#2a3f40" stroke-miterlimit="10" stroke-width="0.323"/>
          <path id="Tracé_1231" data-name="Tracé 1231" d="M72.08,161.674c17.416-12.189,34.529-20.617,50.932-20.186-1.152-17.509-12.41-25.53-35.169-22.748" transform="translate(136.814 -75.645)" fill="none" stroke="#2a3f40" stroke-miterlimit="10" stroke-width="0.323"/>
          <path id="Tracé_1232" data-name="Tracé 1232" d="M79.974,171.258c22.573-6.566,47.73-11.665,38.3-36.368-3.644-7.241-9.43-9.476-15.844-10.233" transform="translate(157.406 -58.802)" fill="none" stroke="#2a3f40" stroke-miterlimit="10" stroke-width="0.323"/>
          <path id="Tracé_1233" data-name="Tracé 1233" d="M108.509,174.446c7.509-18.1,7.614-34.238-17.346-43.749" transform="translate(186.59 -43.049)" fill="#84c7cb" stroke="#2a3f40" stroke-miterlimit="10" stroke-width="0.323"/>
          <path id="Tracé_1234" data-name="Tracé 1234" d="M130.544,149.212c21.677,27.1,6.962,43.819-5.926,45.565q-19.418-.367-38.86-9.721" transform="translate(172.495 5.247)" fill="none" stroke="#2a3f40" stroke-miterlimit="10" stroke-width="0.323"/>
          <path id="Tracé_1235" data-name="Tracé 1235" d="M84.007,142.083c21.933-2.433,42.538-2.561,51.8,16.939,2.293,22.515-22.154,21.374-43.912,22.608" transform="translate(167.925 -16.286)" fill="none" stroke="#2a3f40" stroke-miterlimit="10" stroke-width="0.323"/>
          <path id="Tracé_1236" data-name="Tracé 1236" d="M64.05,157.625c15.8-11.9,35.355-18.242,59.628-17.637,0,0,20.28,2.736,20.28,18.824s-12.48,19.628-12.48,19.628" transform="translate(115.868 -18.917)" fill="none" stroke="#2a3f40" stroke-miterlimit="10" stroke-width="0.323"/>
          <path id="Tracé_1237" data-name="Tracé 1237" d="M84.007,192.107s34.249,25.111,47.579,6.647c11.886-16.019-2.386-36.915-2.386-36.915" transform="translate(167.925 38.185)" fill="none" stroke="#2a3f40" stroke-miterlimit="10" stroke-width="0.323"/>
          <path id="Tracé_1238" data-name="Tracé 1238" d="M67.331,154.271c20.734-7.392,42.957-7.66,68.068,5.821,18.091,14.517,6.24,22.62-1.56,24.96l-17.73,5.029" transform="translate(124.426 5.251)" fill="none" stroke="#2a3f40" stroke-miterlimit="10" stroke-width="0.323"/>
          <path id="Tracé_1239" data-name="Tracé 1239" d="M68.681,160.441c-15.844,3.341-31.2,3.888-44.96-4.738-18.289,12.852-6.647,35.646,4.9,37.6a35.453,35.453,0,0,0,20.28.978l16.613-5.076" transform="translate(-14.19 22.179)" fill="none" stroke="#2a3f40" stroke-miterlimit="10" stroke-width="0.323"/>
        </g>
        <path id="Tracé_1240" data-name="Tracé 1240" d="M37.627,162.5" transform="translate(49.753 40.344)" fill="none" stroke="#2a3f40" stroke-miterlimit="10" stroke-width="0.323"/>
        <g id="Groupe_1155" data-name="Groupe 1155" transform="translate(85.215 181.351)">
          <line id="Ligne_211" data-name="Ligne 211" y1="6.729" x2="19.011" transform="translate(2.165 14.762)" fill="none" stroke="#7ac0ad" stroke-miterlimit="10" stroke-width="0.323"/>
          <path id="Tracé_1241" data-name="Tracé 1241" d="M37.027,157.49c.012,5.029,2.235,10.64,5.518,16.543a34.616,34.616,0,0,0,.9,15.984" transform="translate(-37.027 -154.068)" fill="none" stroke="#7ac0ad" stroke-miterlimit="10" stroke-width="0.323"/>
          <path id="Tracé_1242" data-name="Tracé 1242" d="M39.118,157.042c.966,6.1,2.526,11.572,5.1,15.984a27.321,27.321,0,0,0,.256,15.332" transform="translate(-31.574 -155.237)" fill="none" stroke="#7ac0ad" stroke-miterlimit="10" stroke-width="0.323"/>
          <path id="Tracé_1243" data-name="Tracé 1243" d="M41.04,156.742a35.067,35.067,0,0,0,5.041,14.622c-.85,3.1.151,8.126,1.269,13.271" transform="translate(-26.558 -156.02)" fill="none" stroke="#7ac0ad" stroke-miterlimit="10" stroke-width="0.323"/>
          <path id="Tracé_1244" data-name="Tracé 1244" d="M43.041,156.542a3.706,3.706,0,0,0,1.595,4.342" transform="translate(-21.865 -156.542)" fill="none" stroke="#7ac0ad" stroke-miterlimit="10" stroke-width="0.323"/>
          <path id="Tracé_1245" data-name="Tracé 1245" d="M44.608,162.094a7.607,7.607,0,0,0,.431,5.634" transform="translate(-18.17 -142.059)" fill="none" stroke="#7ac0ad" stroke-miterlimit="10" stroke-width="0.323"/>
        </g>
        <g id="Groupe_1156" data-name="Groupe 1156" transform="translate(223.833 198.733)">
          <ellipse id="Ellipse_363" data-name="Ellipse 363" cx="8.998" cy="13.119" rx="8.998" ry="13.119" transform="matrix(0.583, -0.813, 0.813, 0.583, 0, 14.661)" fill="#22ae5c"/>
          <ellipse id="Ellipse_364" data-name="Ellipse 364" cx="8.649" cy="9.639" rx="8.649" ry="9.639" transform="matrix(0.583, -0.813, 0.813, 0.583, 0.286, 14.059)" fill="#e9d086"/>
          <ellipse id="Ellipse_365" data-name="Ellipse 365" cx="6.787" cy="7.997" rx="6.787" ry="7.997" transform="matrix(0.583, -0.813, 0.813, 0.583, 1.83, 13.056)" fill="#2e8fa3"/>
        </g>
        <g id="Groupe_1157" data-name="Groupe 1157" transform="translate(268.429 207.462)">
          <ellipse id="Ellipse_366" data-name="Ellipse 366" cx="8.998" cy="13.119" rx="8.998" ry="13.119" transform="matrix(0.583, -0.813, 0.813, 0.583, 0, 14.661)" fill="#22ae5c"/>
          <ellipse id="Ellipse_367" data-name="Ellipse 367" cx="8.649" cy="9.639" rx="8.649" ry="9.639" transform="matrix(0.583, -0.813, 0.813, 0.583, 0.286, 14.059)" fill="#e9d086"/>
          <ellipse id="Ellipse_368" data-name="Ellipse 368" cx="6.787" cy="7.997" rx="6.787" ry="7.997" transform="matrix(0.583, -0.813, 0.813, 0.583, 1.83, 13.056)" fill="#2e8fa3"/>
        </g>
        <path id="Tracé_1246" data-name="Tracé 1246" d="M77.5,141.512c-12.317-1.118-18.091,4.459-12.608,15.437-6.228-6.717-23.388,8.51-9.476,19.628-15.833-.116-16.845,16-4.261,21.514-12.689,1-9.988,19.721,3.085,18.859" transform="translate(62.567 -14.76)" fill="#2e5058" stroke="#2a3f40" stroke-miterlimit="10" stroke-width="0.323"/>
        <path id="Tracé_1247" data-name="Tracé 1247" d="M56.11,145.412C63.572,137,77.4,142.56,72.478,154.69c13.853-7.9,25.367,9.29,12.224,16.694,19.057,1.339,21.269,14.133,8.731,21.292,14.983,3.341,14.738,21.607-2.177,23.446" transform="translate(97.965 -14.737)" fill="#2e5058" stroke="#2a3f40" stroke-miterlimit="10" stroke-width="0.323"/>
        <path id="Tracé_1248" data-name="Tracé 1248" d="M64.778,186.24s-.99,9.255-5.751,9.628-6.647-14.552-6.647-14.552-.035,4.7-3.2,5.2-5.7-19.22-1.793-32.049" transform="translate(70.019 19.407)" fill="#77c1b0" stroke="#2a3f40" stroke-miterlimit="10" stroke-width="0.323"/>
        <rect id="Rectangle_478" data-name="Rectangle 478" width="14.168" height="13.236" transform="translate(111.63 109.72)" fill="#eca93f" stroke="#2a3f40" stroke-miterlimit="10" stroke-width="0.323"/>
        <path id="Tracé_1249" data-name="Tracé 1249" d="M48.973,136.413c-1.409,4.82-3.318,8.789-6.4,10.792,7.1,6.438,13.632,3.655,20.035-1.56l3.655.244s-2.352,10.524-10.64,11c-1.967-.652-1.793-6.543-1.793-6.543" transform="translate(62.645 -27.694)" fill="#eca93f" stroke="#2a3f40" stroke-miterlimit="10" stroke-width="0.323"/>
        <path id="Tracé_1250" data-name="Tracé 1250" d="M91.778,232.208l7.66,20.419c3.434,7.485,7.625,13.039,13.1,15.239,1.781.489,2.538-.652,2.084-3.76l-5.4-9.593c4.109,8.5,9.6,16.112,13.784,14.843s.454-11.49-1.059-19.732c0,0,2.969,11.979,6.368,11.211,5.378-3.679-13.376-63.47-39.4-65.135,0,0,5.588-9.01,11.9-26.682s6.17-38.72-17.486-45.239c-24.471-6.752-41.63,18.58-40.012,35.146C47,190.648,74.35,182.545,87.3,174.431c-4.086,2.119-7.66,4.319-10,4.843.559,7.928-2.6,15.891-9.057,24.82-9.441,11.071-15.332,22.538-15.157,34.645.8,31.293,27.567,40.594,55.321,27.136" transform="translate(64.311 -63.57)" fill="#77c1b0" stroke="#2a3f40" stroke-miterlimit="10" stroke-width="0.323"/>
        <path id="Tracé_1251" data-name="Tracé 1251" d="M40.773,151.786" transform="translate(57.958 12.405)" fill="none"/>
        <path id="Tracé_1252" data-name="Tracé 1252" d="M91.73,179.384c-17.276,10.1-34.2,19.011-47.893,17.276,0,0-13.4,1.688-15.4-9.465-1.525-28.557,55.891-30.722,55.891-30.722" transform="translate(25.697 24.633)" fill="none" stroke="#2a3f40" stroke-miterlimit="10" stroke-width="0.323"/>
        <g id="Groupe_1158" data-name="Groupe 1158" transform="translate(113.057 8.864)">
          <ellipse id="Ellipse_369" data-name="Ellipse 369" cx="8.999" cy="13.119" rx="8.999" ry="13.119" transform="translate(0 0.315) rotate(-1.003)" fill="#22ae5c"/>
          <ellipse id="Ellipse_370" data-name="Ellipse 370" cx="8.649" cy="9.639" rx="8.649" ry="9.639" transform="translate(0.166 7.386) rotate(-1.003)" fill="#e9d086"/>
          <ellipse id="Ellipse_371" data-name="Ellipse 371" cx="6.787" cy="7.997" rx="6.787" ry="7.997" transform="translate(2.219 9.961) rotate(-1.003)" fill="#2e8fa3"/>
        </g>
        <path id="Tracé_1253" data-name="Tracé 1253" d="M61.577,140.015c-10.326-5.809-29.372-5.064-23.353-16.391C43.846,116.732,54.743,126.417,61.577,140.015Z" transform="translate(48.307 -67)" fill="#eca93f" stroke="#2a3f40" stroke-miterlimit="10" stroke-width="0.323"/>
        <path id="Tracé_1254" data-name="Tracé 1254" d="M60.845,144.588c-3.376-8-8.126-14.179-16-16.228-7.486-1.676-6.973-7.369-1.246-11C53.557,112.818,59.017,122.818,60.845,144.588Z" transform="translate(54.033 -80.2)" fill="#eca93f" stroke="#2a3f40" stroke-miterlimit="10" stroke-width="0.323"/>
        <path id="Tracé_1255" data-name="Tracé 1255" d="M53.931,141.028c-2.247-7.87-4.54-15.332-7.439-18.37-4.331-6,2.689-11.4,7.439-2.608C55.933,126.313,55.281,133.519,53.931,141.028Z" transform="translate(69.341 -82.425)" fill="#eca93f" stroke="#2a3f40" stroke-miterlimit="10" stroke-width="0.323"/>
        <path id="Tracé_1256" data-name="Tracé 1256" d="M47.8,146.6c2.6,2.026,5.809,3,10.233,1.967,8.754-2.317,10.384-9.243,9.325-17.916C54.4,128.263,47.587,133.222,47.8,146.6Z" transform="translate(76.266 -44.235)" fill="none"/>
        <path id="Tracé_1257" data-name="Tracé 1257" d="M47.814,149.138q-.716-19.994,19.535-16.6c1.711.477,2.806-1.152,3.772-3.283" transform="translate(76.261 -46.368)" fill="none" stroke="#2a3f40" stroke-linecap="round" stroke-miterlimit="10" stroke-width="0.323"/>
        <path id="Tracé_1258" data-name="Tracé 1258" d="M58.164,131.393a9.425,9.425,0,0,0-7.206,4.54" transform="translate(84.525 -40.788)" fill="none" stroke="#2a3f40" stroke-linecap="round" stroke-miterlimit="10" stroke-width="0.323"/>
        <g id="Groupe_1159" data-name="Groupe 1159" transform="translate(59.928 194.835)">
          <ellipse id="Ellipse_372" data-name="Ellipse 372" cx="13.12" cy="8.999" rx="13.12" ry="8.999" transform="translate(0 6.085) rotate(-13.409)" fill="#22ae5c"/>
          <ellipse id="Ellipse_373" data-name="Ellipse 373" cx="9.639" cy="8.649" rx="9.639" ry="8.649" transform="translate(7.028 5.084) rotate(-13.409)" fill="#e9d086"/>
          <ellipse id="Ellipse_374" data-name="Ellipse 374" cx="7.997" cy="6.787" rx="7.997" ry="6.787" transform="translate(9.965 6.143) rotate(-13.409)" fill="#2e8fa3"/>
        </g>
        <g id="Groupe_1160" data-name="Groupe 1160" transform="translate(56.422 158.086)">
          <ellipse id="Ellipse_375" data-name="Ellipse 375" cx="13.119" cy="8.999" rx="13.119" ry="8.999" transform="translate(0 2.635) rotate(-5.762)" fill="#22ae5c"/>
          <ellipse id="Ellipse_376" data-name="Ellipse 376" cx="9.639" cy="8.649" rx="9.639" ry="8.649" transform="translate(7.106 2.575) rotate(-5.762)" fill="#e9d086"/>
          <ellipse id="Ellipse_377" data-name="Ellipse 377" cx="7.997" cy="6.787" rx="7.997" ry="6.787" transform="translate(9.881 4.018) rotate(-5.762)" fill="#2e8fa3"/>
        </g>
        <g id="Groupe_1161" data-name="Groupe 1161" transform="translate(11.595 188.973)">
          <ellipse id="Ellipse_378" data-name="Ellipse 378" cx="8.999" cy="13.12" rx="8.999" ry="13.12" transform="translate(0 17.852) rotate(-82.709)" fill="#22ae5c"/>
          <ellipse id="Ellipse_379" data-name="Ellipse 379" cx="8.65" cy="9.639" rx="8.65" ry="9.639" transform="translate(7.027 18.715) rotate(-82.709)" fill="#e9d086"/>
          <ellipse id="Ellipse_380" data-name="Ellipse 380" cx="6.787" cy="7.998" rx="6.787" ry="7.998" transform="translate(9.865 17.051) rotate(-82.709)" fill="#2e8fa3"/>
        </g>
        <g id="Groupe_1162" data-name="Groupe 1162" transform="translate(10.94 154.333)">
          <ellipse id="Ellipse_381" data-name="Ellipse 381" cx="8.999" cy="13.12" rx="8.999" ry="13.12" transform="translate(0 17.548) rotate(-77.156)" fill="#22ae5c"/>
          <ellipse id="Ellipse_382" data-name="Ellipse 382" cx="8.65" cy="9.639" rx="8.65" ry="9.639" transform="translate(6.91 19.089) rotate(-77.156)" fill="#e9d086"/>
          <ellipse id="Ellipse_383" data-name="Ellipse 383" cx="6.787" cy="7.998" rx="6.787" ry="7.998" transform="translate(9.898 17.694) rotate(-77.156)" fill="#2e8fa3"/>
        </g>
        <g id="Groupe_1163" data-name="Groupe 1163" transform="translate(58.265 119.323)">
          <ellipse id="Ellipse_384" data-name="Ellipse 384" cx="8.999" cy="13.121" rx="8.999" ry="13.121" transform="matrix(0.212, -0.977, 0.977, 0.212, 0, 17.591)" fill="#22ae5c"/>
          <ellipse id="Ellipse_385" data-name="Ellipse 385" cx="8.65" cy="9.64" rx="8.65" ry="9.64" transform="matrix(0.212, -0.977, 0.977, 0.212, 6.918, 19.055)" fill="#e9d086"/>
          <ellipse id="Ellipse_386" data-name="Ellipse 386" cx="6.787" cy="7.998" rx="6.787" ry="7.998" transform="matrix(0.212, -0.977, 0.977, 0.212, 9.9, 17.63)" fill="#2e8fa3"/>
        </g>
        <g id="Groupe_1164" data-name="Groupe 1164" transform="translate(20.084 93.711)">
          <ellipse id="Ellipse_387" data-name="Ellipse 387" cx="8.999" cy="13.12" rx="8.999" ry="13.12" transform="translate(0 14.927) rotate(-56.035)" fill="#22ae5c"/>
          <ellipse id="Ellipse_388" data-name="Ellipse 388" cx="8.65" cy="9.639" rx="8.65" ry="9.639" transform="translate(5.89 18.854) rotate(-56.035)" fill="#e9d086"/>
          <ellipse id="Ellipse_389" data-name="Ellipse 389" cx="6.787" cy="7.998" rx="6.787" ry="7.998" transform="translate(9.182 18.648) rotate(-56.035)" fill="#2e8fa3"/>
        </g>
        <g id="Groupe_1165" data-name="Groupe 1165" transform="translate(8.815 120.662)">
          <ellipse id="Ellipse_390" data-name="Ellipse 390" cx="8.999" cy="13.12" rx="8.999" ry="13.12" transform="translate(0 14.927) rotate(-56.035)" fill="#22ae5c"/>
          <ellipse id="Ellipse_391" data-name="Ellipse 391" cx="8.65" cy="9.639" rx="8.65" ry="9.639" transform="translate(5.89 18.855) rotate(-56.035)" fill="#e9d086"/>
          <ellipse id="Ellipse_392" data-name="Ellipse 392" cx="6.787" cy="7.998" rx="6.787" ry="7.998" transform="translate(9.182 18.649) rotate(-56.035)" fill="#2e8fa3"/>
        </g>
        <g id="Groupe_1166" data-name="Groupe 1166" transform="translate(37.757 57.346)">
          <ellipse id="Ellipse_393" data-name="Ellipse 393" cx="8.999" cy="13.12" rx="8.999" ry="13.12" transform="translate(0 14.927) rotate(-56.035)" fill="#22ae5c"/>
          <ellipse id="Ellipse_394" data-name="Ellipse 394" cx="8.65" cy="9.639" rx="8.65" ry="9.639" transform="translate(5.89 18.855) rotate(-56.035)" fill="#e9d086"/>
          <ellipse id="Ellipse_395" data-name="Ellipse 395" cx="6.787" cy="7.998" rx="6.787" ry="7.998" transform="translate(9.188 18.639) rotate(-56.035)" fill="#2e8fa3"/>
        </g>
        <g id="Groupe_1167" data-name="Groupe 1167" transform="translate(68.645 80.782)">
          <ellipse id="Ellipse_396" data-name="Ellipse 396" cx="8.999" cy="13.12" rx="8.999" ry="13.12" transform="translate(0 14.927) rotate(-56.035)" fill="#22ae5c"/>
          <ellipse id="Ellipse_397" data-name="Ellipse 397" cx="8.65" cy="9.639" rx="8.65" ry="9.639" transform="translate(5.897 18.845) rotate(-56.035)" fill="#e9d086"/>
          <ellipse id="Ellipse_398" data-name="Ellipse 398" cx="6.787" cy="7.998" rx="6.787" ry="7.998" transform="translate(9.188 18.639) rotate(-56.035)" fill="#2e8fa3"/>
        </g>
        <g id="Groupe_1168" data-name="Groupe 1168" transform="translate(62.623 21.219)">
          <ellipse id="Ellipse_399" data-name="Ellipse 399" cx="8.999" cy="13.12" rx="8.999" ry="13.12" transform="matrix(0.658, -0.753, 0.753, 0.658, 0, 13.554)" fill="#22ae5c"/>
          <ellipse id="Ellipse_400" data-name="Ellipse 400" cx="8.65" cy="9.639" rx="8.65" ry="9.639" transform="matrix(0.658, -0.753, 0.753, 0.658, 5.359, 18.188)" fill="#e9d086"/>
          <ellipse id="Ellipse_401" data-name="Ellipse 401" cx="6.787" cy="7.998" rx="6.787" ry="7.998" transform="matrix(0.658, -0.753, 0.753, 0.658, 8.656, 18.383)" fill="#2e8fa3"/>
        </g>
        <g id="Groupe_1169" data-name="Groupe 1169" transform="translate(155.673 5.437)">
          <ellipse id="Ellipse_402" data-name="Ellipse 402" cx="13.12" cy="8.999" rx="13.12" ry="8.999" transform="matrix(0.628, -0.778, 0.778, 0.628, 0.041, 20.42)" fill="#22ae5c"/>
          <ellipse id="Ellipse_403" data-name="Ellipse 403" cx="9.639" cy="8.65" rx="9.639" ry="8.65" transform="matrix(0.628, -0.778, 0.778, 0.628, 0, 20.538)" fill="#e9d086"/>
          <ellipse id="Ellipse_404" data-name="Ellipse 404" cx="7.998" cy="6.787" rx="7.998" ry="6.787" transform="matrix(0.628, -0.778, 0.778, 0.628, 1.99, 21.278)" fill="#2e8fa3"/>
        </g>
        <g id="Groupe_1170" data-name="Groupe 1170" transform="translate(151.582 42.039)">
          <ellipse id="Ellipse_405" data-name="Ellipse 405" cx="10.652" cy="6.985" rx="10.652" ry="6.985" transform="matrix(0.628, -0.778, 0.778, 0.628, 0.042, 16.579)" fill="#22ae5c"/>
          <ellipse id="Ellipse_406" data-name="Ellipse 406" cx="7.823" cy="6.717" rx="7.823" ry="6.717" transform="matrix(0.628, -0.778, 0.778, 0.628, 0, 16.667)" fill="#e9d086"/>
          <ellipse id="Ellipse_407" data-name="Ellipse 407" cx="6.496" cy="5.262" rx="6.496" ry="5.262" transform="matrix(0.628, -0.778, 0.778, 0.628, 1.567, 17.23)" fill="#2e8fa3"/>
        </g>
        <g id="Groupe_1171" data-name="Groupe 1171" transform="translate(193.787 20.563)">
          <ellipse id="Ellipse_408" data-name="Ellipse 408" cx="13.12" cy="8.999" rx="13.12" ry="8.999" transform="matrix(0.628, -0.778, 0.778, 0.628, 0.042, 20.42)" fill="#22ae5c"/>
          <ellipse id="Ellipse_409" data-name="Ellipse 409" cx="9.639" cy="8.65" rx="9.639" ry="8.65" transform="matrix(0.628, -0.778, 0.778, 0.628, 0, 20.538)" fill="#e9d086"/>
          <ellipse id="Ellipse_410" data-name="Ellipse 410" cx="7.998" cy="6.787" rx="7.998" ry="6.787" transform="matrix(0.628, -0.778, 0.778, 0.628, 1.99, 21.278)" fill="#2e8fa3"/>
        </g>
        <g id="Groupe_1172" data-name="Groupe 1172" transform="translate(179.127 61.94)">
          <ellipse id="Ellipse_411" data-name="Ellipse 411" cx="13.121" cy="8.999" rx="13.121" ry="8.999" transform="translate(0.069 15.036) rotate(-34.958)" fill="#22ae5c"/>
          <ellipse id="Ellipse_412" data-name="Ellipse 412" cx="9.64" cy="8.65" rx="9.64" ry="8.65" transform="translate(0 15.128) rotate(-34.958)" fill="#e9d086"/>
          <ellipse id="Ellipse_413" data-name="Ellipse 413" cx="7.998" cy="6.787" rx="7.998" ry="6.787" transform="translate(1.7 16.391) rotate(-34.958)" fill="#2e8fa3"/>
        </g>
        <g id="Groupe_1173" data-name="Groupe 1173" transform="translate(205.654 89.263)">
          <ellipse id="Ellipse_414" data-name="Ellipse 414" cx="13.12" cy="8.999" rx="13.12" ry="8.999" transform="translate(0.074 14.217) rotate(-32.806)" fill="#22ae5c"/>
          <ellipse id="Ellipse_415" data-name="Ellipse 415" cx="9.639" cy="8.65" rx="9.639" ry="8.65" transform="translate(0 14.311) rotate(-32.806)" fill="#e9d086"/>
          <ellipse id="Ellipse_416" data-name="Ellipse 416" cx="7.998" cy="6.787" rx="7.998" ry="6.787" transform="translate(1.655 15.639) rotate(-32.806)" fill="#2e8fa3"/>
        </g>
        <g id="Groupe_1174" data-name="Groupe 1174" transform="translate(241.288 70.727)">
          <ellipse id="Ellipse_417" data-name="Ellipse 417" cx="13.12" cy="8.999" rx="13.12" ry="8.999" transform="matrix(0.871, -0.491, 0.491, 0.871, 0.083, 12.892)" fill="#22ae5c"/>
          <ellipse id="Ellipse_418" data-name="Ellipse 418" cx="9.639" cy="8.65" rx="9.639" ry="8.65" transform="matrix(0.871, -0.491, 0.491, 0.871, 0, 12.975)" fill="#e9d086"/>
          <ellipse id="Ellipse_419" data-name="Ellipse 419" cx="7.998" cy="6.787" rx="7.998" ry="6.787" transform="matrix(0.871, -0.491, 0.491, 0.871, 1.574, 14.396)" fill="#2e8fa3"/>
        </g>
        <g id="Groupe_1175" data-name="Groupe 1175" transform="translate(220.08 44.078)">
          <ellipse id="Ellipse_420" data-name="Ellipse 420" cx="13.121" cy="8.999" rx="13.121" ry="8.999" transform="translate(0.078 15.036) rotate(-34.958)" fill="#22ae5c"/>
          <ellipse id="Ellipse_421" data-name="Ellipse 421" cx="9.64" cy="8.65" rx="9.64" ry="8.65" transform="translate(0 15.135) rotate(-34.958)" fill="#e9d086"/>
          <ellipse id="Ellipse_422" data-name="Ellipse 422" cx="7.998" cy="6.787" rx="7.998" ry="6.787" transform="translate(1.706 16.408) rotate(-34.958)" fill="#2e8fa3"/>
        </g>
        <g id="Groupe_1176" data-name="Groupe 1176" transform="translate(229.457 130.833)">
          <ellipse id="Ellipse_423" data-name="Ellipse 423" cx="8.999" cy="13.12" rx="8.999" ry="13.12" transform="translate(0.066 17.947) rotate(-85.687)" fill="#22ae5c"/>
          <ellipse id="Ellipse_424" data-name="Ellipse 424" cx="8.65" cy="9.64" rx="8.65" ry="9.64" transform="translate(0 17.278) rotate(-85.687)" fill="#e9d086"/>
          <ellipse id="Ellipse_425" data-name="Ellipse 425" cx="6.787" cy="7.998" rx="6.787" ry="7.998" transform="translate(0.801 15.622) rotate(-85.687)" fill="#2e8fa3"/>
        </g>
        <g id="Groupe_1177" data-name="Groupe 1177" transform="translate(271.531 135.57)">
          <ellipse id="Ellipse_426" data-name="Ellipse 426" cx="8.999" cy="13.12" rx="8.999" ry="13.12" transform="translate(0.066 17.947) rotate(-85.687)" fill="#22ae5c"/>
          <ellipse id="Ellipse_427" data-name="Ellipse 427" cx="8.65" cy="9.64" rx="8.65" ry="9.64" transform="translate(0 17.278) rotate(-85.687)" fill="#e9d086"/>
          <ellipse id="Ellipse_428" data-name="Ellipse 428" cx="6.787" cy="7.998" rx="6.787" ry="7.998" transform="translate(0.789 15.621) rotate(-85.687)" fill="#2e8fa3"/>
        </g>
        <g id="Groupe_1178" data-name="Groupe 1178" transform="translate(266.96 100.764)">
          <ellipse id="Ellipse_429" data-name="Ellipse 429" cx="13.121" cy="8.999" rx="13.121" ry="8.999" transform="translate(0.101 5.812) rotate(-12.797)" fill="#22ae5c"/>
          <ellipse id="Ellipse_430" data-name="Ellipse 430" cx="9.64" cy="8.65" rx="9.64" ry="8.65" transform="translate(0 5.882) rotate(-12.797)" fill="#e9d086"/>
          <ellipse id="Ellipse_431" data-name="Ellipse 431" cx="7.998" cy="6.787" rx="7.998" ry="6.787" transform="translate(1.105 7.695) rotate(-12.797)" fill="#2e8fa3"/>
        </g>
        <g id="Groupe_1179" data-name="Groupe 1179" transform="translate(233.382 166.365)">
          <ellipse id="Ellipse_432" data-name="Ellipse 432" cx="8.999" cy="13.12" rx="8.999" ry="13.12" transform="translate(0 17.584) rotate(-77.684)" fill="#22ae5c"/>
          <ellipse id="Ellipse_433" data-name="Ellipse 433" cx="8.65" cy="9.639" rx="8.65" ry="9.639" transform="translate(0.027 16.923) rotate(-77.684)" fill="#e9d086"/>
          <ellipse id="Ellipse_434" data-name="Ellipse 434" cx="6.787" cy="7.998" rx="6.787" ry="7.998" transform="translate(1.048 15.392) rotate(-77.684)" fill="#2e8fa3"/>
        </g>
        <g id="Groupe_1180" data-name="Groupe 1180" transform="translate(283.656 171.209)">
          <ellipse id="Ellipse_435" data-name="Ellipse 435" cx="8.999" cy="13.12" rx="8.999" ry="13.12" transform="translate(0.066 17.947) rotate(-85.687)" fill="#22ae5c"/>
          <ellipse id="Ellipse_436" data-name="Ellipse 436" cx="8.65" cy="9.64" rx="8.65" ry="9.64" transform="translate(0 17.278) rotate(-85.687)" fill="#e9d086"/>
          <ellipse id="Ellipse_437" data-name="Ellipse 437" cx="6.787" cy="7.998" rx="6.787" ry="7.998" transform="translate(0.789 15.621) rotate(-85.687)" fill="#2e8fa3"/>
        </g>
        <path id="Tracé_1259" data-name="Tracé 1259" d="M55.565,128.641c.338,2.724-.92,4.3-3.271,5.087" transform="translate(88.009 -47.967)" fill="none" stroke="#2a3f40" stroke-linecap="round" stroke-miterlimit="10" stroke-width="0.323"/>
      </g>
      <ellipse id="Ellipse_438" data-name="Ellipse 438" cx="7.823" cy="11.304" rx="7.823" ry="11.304" transform="translate(156.613 75.355)" fill="#22ae5c" stroke="#2a3f40" stroke-miterlimit="10" stroke-width="0.323"/>
      <path id="Tracé_1260" data-name="Tracé 1260" d="M48.18,127.926c15.041-.722,28.114,3.784,34.273,14.657,1.793-2.177,4.144-2.771,6.962-1.991-1.874-6.449-11.479-17.206-20.617-18.126C63.314,121.628,53.267,122,48.18,127.926Z" transform="translate(77.28 -64.947)" fill="#22ae5c" stroke="#2a3f40" stroke-miterlimit="10" stroke-width="0.323"/>
      <path id="Tracé_1261" data-name="Tracé 1261" d="M57.591,125.838a10.91,10.91,0,0,1,3.12,5.052" transform="translate(101.827 -55.28)" fill="#22ae5c" stroke="#2a3f40" stroke-miterlimit="10" stroke-width="0.323"/>
      <path id="Tracé_1262" data-name="Tracé 1262" d="M60.7,140.834a22.211,22.211,0,0,1-2.526-4.785c-.349-1.385,1.793.536,1.793.536-1.607-.151-.163-8.533,2.177-8.044,1.932.407,1.234,7.5,1.059,8.068s-.326.5-.326.5c.314-.407,3.2-1.991,2.352-.57-.175.3-3.562,4.366-3.516,4.424Z" transform="translate(103.238 -48.285)" fill="#84c7cb"/>
      <line id="Ligne_212" data-name="Ligne 212" y2="2.98" transform="translate(164.506 91.385)" fill="none" stroke="#84c7cb" stroke-miterlimit="10" stroke-width="0.323"/>
    </g>
  </g>
</svg>
