<svg xmlns="http://www.w3.org/2000/svg" xmlns:xlink="http://www.w3.org/1999/xlink" width="196" height="133" viewBox="0 0 196 133">
  <defs>
    <clipPath id="clip-path">
      <rect id="Rectangle_481" data-name="Rectangle 481" width="196" height="133" transform="translate(-0.244 0.016)" fill="#fff" stroke="#707070" stroke-width="1"/>
    </clipPath>
  </defs>
  <g id="Groupe_de_masques_7" data-name="Groupe de masques 7" transform="translate(0.244 -0.016)" clip-path="url(#clip-path)">
    <g id="PAON_therapeute" data-name="PAON therapeute" transform="translate(9.613 1.203)">
      <g id="Calque_3_00000086666252254415345950000002532458563300560055_" transform="translate(0 0)">
        <g id="Groupe_1320" data-name="Groupe 1320">
          <g id="Groupe_1318" data-name="Groupe 1318">
            <path id="Tracé_1627" data-name="Tracé 1627" d="M235.159,40.656v-.891c0-14.253-16.514-25.833-36.8-25.833A47.1,47.1,0,0,0,174.448,20.1c-21.31-1.919-52.831,11.375-40.634,14.253A11.885,11.885,0,0,0,118.808,36c-4.248,4.454-3.495,11.854.548,17.953-1.645-.411-10.964-.137-11.649,2.6-4.865,3.837-1.645,14.938,1.782,15.966-4.865-7.263-10.073,5.208-8.086,10.347a27.123,27.123,0,0,0,1.508,2.535c6.989,6.921,10.347,6.989,27.82,7.332,27.957-3.974,31.452-.617,32.548,4.111,5.276,3.152,10,17.816,12.334,5.139a38.5,38.5,0,0,0,3.563-7.606c6.647,15.486,21.173-3.974,50.227,2.878,22.612,1.1,47.76,9.319,42.552-17.816C272.777,60.528,258.8,44.356,235.159,40.656Z" transform="translate(-100.969 -1.812)" fill="#84c7cb"/>
            <ellipse id="Ellipse_601" data-name="Ellipse 601" cx="18.158" cy="12.128" rx="18.158" ry="12.128" transform="translate(114.318 25.002)" fill="#84c7cb"/>
            <ellipse id="Ellipse_602" data-name="Ellipse 602" cx="18.158" cy="12.128" rx="18.158" ry="12.128" transform="translate(115.14 31.238)" fill="#84c7cb"/>
            <path id="Tracé_1628" data-name="Tracé 1628" d="M125.946,30.394c-.822-12.265,1.3-18.3,11.991-20.694,9.045-1.987,14.321,6.989,14.253,15.692" transform="translate(-71.106 -7.241)" fill="#84c7cb"/>
            <path id="Tracé_1629" data-name="Tracé 1629" d="M143.487,28.485c0,7.537-8.36,11.512-15.9,11.512s-13.019-6.852-13.019-14.39,4.8-12.265,12.334-12.265S143.487,21.016,143.487,28.485Z" transform="translate(-84.603 -2.523)" fill="#84c7cb"/>
            <g id="Groupe_1286" data-name="Groupe 1286" transform="translate(19.757 58.715)">
              <path id="Tracé_1630" data-name="Tracé 1630" d="M118.157,42.854c-3.289-.754-3.769-.822-6.51-3.358" transform="translate(-107.878 -29.766)" fill="none" stroke="#7ac0ad" stroke-miterlimit="10" stroke-width="0.311"/>
              <path id="Tracé_1631" data-name="Tracé 1631" d="M117.131,35.08c-1.37,3.426-1.37,7.332-.411,11.717a13.639,13.639,0,0,0-6.784,6.647" transform="translate(-109.936 -35.08)" fill="none" stroke="#7ac0ad" stroke-miterlimit="10" stroke-width="0.311"/>
              <path id="Tracé_1632" data-name="Tracé 1632" d="M111.865,53.642c1.165-2.809,1.645-5.208,5.071-6.3-.959-4.317.137-8.086.48-11.512" transform="translate(-107.616 -34.182)" fill="none" stroke="#7ac0ad" stroke-miterlimit="10" stroke-width="0.311"/>
              <path id="Tracé_1633" data-name="Tracé 1633" d="M117.237,43.282c-1.439-3.563-1.507-2.878-1.028-6.647" transform="translate(-102.71 -33.209)" fill="none" stroke="#7ac0ad" stroke-miterlimit="10" stroke-width="0.311"/>
              <path id="Tracé_1634" data-name="Tracé 1634" d="M118.381,41.68c-1.507-2.741-1.1-2.946-.617-4.454" transform="translate(-101.045 -32.498)" fill="none" stroke="#7ac0ad" stroke-miterlimit="10" stroke-width="0.311"/>
            </g>
            <g id="Groupe_1287" data-name="Groupe 1287" transform="translate(17.359 76.737)">
              <line id="Ligne_233" data-name="Ligne 233" x2="15.897" y2="2.604" transform="translate(0 6.989)" fill="none" stroke="#7ac0ad" stroke-miterlimit="10" stroke-width="0.311"/>
              <path id="Tracé_1635" data-name="Tracé 1635" d="M110.281,43.259a11.162,11.162,0,0,0,1.507,7.469,5.722,5.722,0,0,0-2.672,6.167" transform="translate(-108.637 -43.259)" fill="none" stroke="#7ac0ad" stroke-miterlimit="10" stroke-width="0.311"/>
              <path id="Tracé_1636" data-name="Tracé 1636" d="M112.1,43.6A9.734,9.734,0,0,0,113.6,51.07c-1.439,1.3-2.124,3.7-2.672,6.167" transform="translate(-106.341 -42.848)" fill="none" stroke="#7ac0ad" stroke-miterlimit="10" stroke-width="0.311"/>
              <path id="Tracé_1637" data-name="Tracé 1637" d="M114.118,44.41a7.779,7.779,0,0,0,1.508,6.441c-1.987,1.028-2.33,3.152-2.672,5.345" transform="translate(-103.908 -41.875)" fill="none" stroke="#7ac0ad" stroke-miterlimit="10" stroke-width="0.311"/>
              <path id="Tracé_1638" data-name="Tracé 1638" d="M114.29,45.841l2.946,3.221c-1.645,1.645-1.713,3.152-1.987,5.071" transform="translate(-102.299 -40.153)" fill="none" stroke="#7ac0ad" stroke-miterlimit="10" stroke-width="0.311"/>
            </g>
            <g id="Groupe_1288" data-name="Groupe 1288" transform="translate(46.618 68.514)">
              <line id="Ligne_234" data-name="Ligne 234" x2="23.298" y2="0.548" transform="translate(0 11.101)" fill="none" stroke="#7ac0ad" stroke-miterlimit="10" stroke-width="0.311"/>
              <path id="Tracé_1639" data-name="Tracé 1639" d="M122.938,39.527c-.548,2.467-.548,7.469,2.124,11.1a11.394,11.394,0,0,0-1.507,9.045" transform="translate(-121.499 -39.527)" fill="none" stroke="#7ac0ad" stroke-miterlimit="10" stroke-width="0.311"/>
              <path id="Tracé_1640" data-name="Tracé 1640" d="M125.734,40.4a22.183,22.183,0,0,0,1.782,9.182c-1.713,2.741-2.6,6.784-2.193,9.182" transform="translate(-118.402 -38.48)" fill="none" stroke="#7ac0ad" stroke-miterlimit="10" stroke-width="0.311"/>
              <path id="Tracé_1641" data-name="Tracé 1641" d="M127.642,40.709c-.274,3.769.137,5.139,2.193,9.045-1.3,1.987-1.028,5.961-.685,9.867" transform="translate(-115.582 -38.105)" fill="none" stroke="#7ac0ad" stroke-miterlimit="10" stroke-width="0.311"/>
              <path id="Tracé_1642" data-name="Tracé 1642" d="M131.961,41.642c-.685.685.685,5,2.193,5.961" transform="translate(-110.513 -36.983)" fill="none" stroke="#7ac0ad" stroke-miterlimit="10" stroke-width="0.311"/>
              <path id="Tracé_1643" data-name="Tracé 1643" d="M133.23,47.955" transform="translate(-108.768 -29.386)" fill="none" stroke="#7ac0ad" stroke-miterlimit="10" stroke-width="0.311"/>
              <path id="Tracé_1644" data-name="Tracé 1644" d="M133.292,46.649" transform="translate(-108.693 -30.958)" fill="none" stroke="#7ac0ad" stroke-miterlimit="10" stroke-width="0.311"/>
              <path id="Tracé_1645" data-name="Tracé 1645" d="M129.861,41.456c-.206,2.809.411,4.385,1.987,7.263-1.028,1.507-1.85,2.4-1.576,5.345" transform="translate(-112.867 -37.207)" fill="none" stroke="#7ac0ad" stroke-miterlimit="10" stroke-width="0.311"/>
            </g>
            <g id="Groupe_1289" data-name="Groupe 1289" transform="translate(48.331 48.779)">
              <path id="Tracé_1646" data-name="Tracé 1646" d="M136.227,39.571c-4.8-.822-9.182-1.919-11.58-4.18" transform="translate(-120.809 -24.77)" fill="none" stroke="#7ac0ad" stroke-miterlimit="10" stroke-width="0.311"/>
              <path id="Tracé_1647" data-name="Tracé 1647" d="M130.374,30.571a23.978,23.978,0,0,0-.891,12.4,14.649,14.649,0,0,0-6.578,6.784" transform="translate(-122.905 -30.571)" fill="none" stroke="#7ac0ad" stroke-miterlimit="10" stroke-width="0.311"/>
              <path id="Tracé_1648" data-name="Tracé 1648" d="M124.584,50.466a12.152,12.152,0,0,1,6.647-6.647,46.6,46.6,0,0,1,.206-12.814" transform="translate(-120.884 -30.047)" fill="none" stroke="#7ac0ad" stroke-miterlimit="10" stroke-width="0.311"/>
              <path id="Tracé_1649" data-name="Tracé 1649" d="M130.059,42.958a20.337,20.337,0,0,1-1.028-10.552" transform="translate(-115.874 -28.363)" fill="none" stroke="#7ac0ad" stroke-miterlimit="10" stroke-width="0.311"/>
              <path id="Tracé_1650" data-name="Tracé 1650" d="M132.132,41.88a20.82,20.82,0,0,1-1.919-8.976" transform="translate(-114.111 -27.764)" fill="none" stroke="#7ac0ad" stroke-miterlimit="10" stroke-width="0.311"/>
            </g>
            <path id="Tracé_1651" data-name="Tracé 1651" d="M137.117,24.184c4.66-10.073,16.994-20.351,25.627-13.567,11.854,9.319,2.124,19.323-6.167,23.435" transform="translate(-57.472 -8.432)" fill="#84c7cb"/>
            <g id="Groupe_1290" data-name="Groupe 1290" transform="translate(35.312 22.33)">
              <path id="Tracé_1652" data-name="Tracé 1652" d="M122.532,20.774c1.645,5.071,8.565,11.032,15.28,16.925" transform="translate(-110.335 -15.909)" fill="none" stroke="#7ac0ad" stroke-miterlimit="10" stroke-width="0.311"/>
              <path id="Tracé_1653" data-name="Tracé 1653" d="M117,31.38a57.261,57.261,0,0,1,14.321-3.974c1.1-2.535,5.139-5.687,9.25-8.839" transform="translate(-116.996 -18.566)" fill="none" stroke="#7ac0ad" stroke-miterlimit="10" stroke-width="0.311"/>
              <path id="Tracé_1654" data-name="Tracé 1654" d="M118.955,33.645c2.535-2.33,7.263-3.152,12.608-3.563,1.85-3.358,5.139-6.784,8.976-10.21" transform="translate(-114.638 -16.995)" fill="none" stroke="#7ac0ad" stroke-miterlimit="10" stroke-width="0.311"/>
              <path id="Tracé_1655" data-name="Tracé 1655" d="M121.319,34.6c2.6-2.193,6.51-3.289,10.964-3.769,1.165-2.809,3.906-5.619,7.195-8.565" transform="translate(-111.794 -14.113)" fill="none" stroke="#7ac0ad" stroke-miterlimit="10" stroke-width="0.311"/>
              <path id="Tracé_1656" data-name="Tracé 1656" d="M137.772,24.258c-2.4,2.33-4.454,4.728-4.385,7.537-4.18.754-7.812,1.919-9.113,4.317" transform="translate(-108.239 -11.718)" fill="none" stroke="#7ac0ad" stroke-miterlimit="10" stroke-width="0.311"/>
            </g>
            <g id="Groupe_1291" data-name="Groupe 1291" transform="translate(55.937 19.246)">
              <path id="Tracé_1657" data-name="Tracé 1657" d="M132.336,17.167c-1.233,5.208,1.576,13.841,4.317,22.407" transform="translate(-119.522 -17.167)" fill="none" stroke="#7ac0ad" stroke-miterlimit="10" stroke-width="0.311"/>
              <path id="Tracé_1658" data-name="Tracé 1658" d="M126.855,17.509c5.071.754,6.989,1.782,11.512,3.7,2.261-1.576,4.043-2.6,9.25-3.221" transform="translate(-125.758 -16.755)" fill="none" stroke="#7ac0ad" stroke-miterlimit="10" stroke-width="0.311"/>
              <path id="Tracé_1659" data-name="Tracé 1659" d="M126.357,20.091c3.426-.685,7.88,1.028,12.608,3.495,3.358-1.919,3.289-2.878,8.36-3.837" transform="translate(-126.357 -14.061)" fill="none" stroke="#7ac0ad" stroke-miterlimit="10" stroke-width="0.311"/>
              <path id="Tracé_1660" data-name="Tracé 1660" d="M127.477,23.1c3.426-.548,7.263.617,11.375,2.467,2.467-1.782,2.261-2.6,6.578-3.426" transform="translate(-125.01 -11.179)" fill="none" stroke="#7ac0ad" stroke-miterlimit="10" stroke-width="0.311"/>
              <path id="Tracé_1661" data-name="Tracé 1661" d="M144.939,24.226c-3.221.754-6.236,1.713-7.674,4.111-3.974-1.507-3.495-2.056-6.647-2.056" transform="translate(-121.23 -8.672)" fill="none" stroke="#7ac0ad" stroke-miterlimit="10" stroke-width="0.311"/>
            </g>
            <g id="Groupe_1292" data-name="Groupe 1292" transform="translate(75.603 12.6)">
              <path id="Tracé_1662" data-name="Tracé 1662" d="M145.589,16.887c-4.385,4.043-2.809,4.248-4.18,6.236" transform="translate(-127.91 -10.857)" fill="none" stroke="#7ac0ad" stroke-miterlimit="10" stroke-width="0.311"/>
              <path id="Tracé_1663" data-name="Tracé 1663" d="M137.833,14.15a41.617,41.617,0,0,1,9.045,10c3.015-.206,5.345-.206,10.415,1.987" transform="translate(-132.214 -14.15)" fill="none" stroke="#7ac0ad" stroke-miterlimit="10" stroke-width="0.311"/>
              <path id="Tracé_1664" data-name="Tracé 1664" d="M136.744,16.42c3.495,1.233,5.413,3.289,8.291,8.017" transform="translate(-133.524 -11.418)" fill="none" stroke="#7ac0ad" stroke-miterlimit="10" stroke-width="0.311"/>
              <path id="Tracé_1665" data-name="Tracé 1665" d="M135.594,19.313c3.426,1.3,3.974,1.645,6.578,5.482" transform="translate(-134.908 -7.938)" fill="none" stroke="#7ac0ad" stroke-miterlimit="10" stroke-width="0.311"/>
              <path id="Tracé_1666" data-name="Tracé 1666" d="M138.846,26.466c-2.056-2.809-1.508-2.946-3.563-4.385" transform="translate(-135.283 -4.607)" fill="none" stroke="#7ac0ad" stroke-miterlimit="10" stroke-width="0.311"/>
            </g>
            <g id="Groupe_1293" data-name="Groupe 1293" transform="translate(95.68 58.098)">
              <path id="Tracé_1667" data-name="Tracé 1667" d="M168.133,38.283C160.87,41.5,150.592,46.712,145.11,52.6" transform="translate(-143.534 -30.609)" fill="none" stroke="#7ac0ad" stroke-miterlimit="10" stroke-width="0.311"/>
              <path id="Tracé_1668" data-name="Tracé 1668" d="M151.423,34.8c2.193,4.385,2.193,6.3,2.741,10.689,3.084,1.233,3.358,1.165,7.126,5.139" transform="translate(-135.937 -34.8)" fill="none" stroke="#7ac0ad" stroke-miterlimit="10" stroke-width="0.311"/>
              <path id="Tracé_1669" data-name="Tracé 1669" d="M149.091,36.386c2.741,2.467,2.6,5.139,2.741,9.867,2.056,1.028,3.426,1.1,5.482,4.522" transform="translate(-138.744 -32.892)" fill="none" stroke="#7ac0ad" stroke-miterlimit="10" stroke-width="0.311"/>
              <path id="Tracé_1670" data-name="Tracé 1670" d="M146.665,38.377c2.6,2.535,3.083,4.385,3.426,8.36,3.426,1.3,4.385,2.193,5.687,3.632" transform="translate(-141.663 -30.497)" fill="none" stroke="#7ac0ad" stroke-miterlimit="10" stroke-width="0.311"/>
              <path id="Tracé_1671" data-name="Tracé 1671" d="M154.125,51.131c-1.3-1.645-2.33-2.6-5.824-2.878-.685-3.837-1.713-5.276-3.906-7.949" transform="translate(-144.395 -28.176)" fill="none" stroke="#7ac0ad" stroke-miterlimit="10" stroke-width="0.311"/>
            </g>
            <g id="Groupe_1294" data-name="Groupe 1294" transform="translate(90.472 42.955)">
              <path id="Tracé_1672" data-name="Tracé 1672" d="M156.01,30.788c-2.124,4.385-8.086,8.771-13.979,13.225" transform="translate(-142.031 -24.484)" fill="none" stroke="#7ac0ad" stroke-miterlimit="10" stroke-width="0.311"/>
              <path id="Tracé_1673" data-name="Tracé 1673" d="M159.076,43.276a32.951,32.951,0,0,0-9.182-5.824c-.274-2.467-2.4-5.961-4.66-9.525" transform="translate(-138.177 -27.927)" fill="none" stroke="#7ac0ad" stroke-miterlimit="10" stroke-width="0.311"/>
              <path id="Tracé_1674" data-name="Tracé 1674" d="M156.467,44.875c-1.3-2.535-4.385-3.974-8.017-5.139a38.241,38.241,0,0,0-4.18-10.689" transform="translate(-139.337 -26.58)" fill="none" stroke="#7ac0ad" stroke-miterlimit="10" stroke-width="0.311"/>
              <path id="Tracé_1675" data-name="Tracé 1675" d="M153.385,45.115c-1.37-2.467-3.906-3.974-6.852-5.139-.274-2.741-1.576-5.756-3.289-8.908" transform="translate(-140.572 -24.148)" fill="none" stroke="#7ac0ad" stroke-miterlimit="10" stroke-width="0.311"/>
              <path id="Tracé_1676" data-name="Tracé 1676" d="M142.249,32.779c1.233,2.467,2.124,5,1.576,7.537,2.741,1.3,6.167,3.7,6.578,6.1" transform="translate(-141.769 -22.089)" fill="none" stroke="#7ac0ad" stroke-miterlimit="10" stroke-width="0.311"/>
            </g>
            <g id="Groupe_1295" data-name="Groupe 1295" transform="translate(134.532 61.045)">
              <line id="Ligne_235" data-name="Ligne 235" x1="20.077" y2="3.426" transform="translate(0 6.236)" fill="none" stroke="#7ac0ad" stroke-miterlimit="10" stroke-width="0.311"/>
              <path id="Tracé_1677" data-name="Tracé 1677" d="M173.311,49.636a9.412,9.412,0,0,0-3.974-6.578c2.467-2.467,2.535-4.728,1.439-6.921" transform="translate(-153.234 -36.138)" fill="none" stroke="#7ac0ad" stroke-miterlimit="10" stroke-width="0.311"/>
              <path id="Tracé_1678" data-name="Tracé 1678" d="M170.455,48.876c-.137-2.6-1.028-3.906-3.358-5.276,1.439-1.713,1.165-4.66,1.165-7.058" transform="translate(-155.928 -35.651)" fill="none" stroke="#7ac0ad" stroke-miterlimit="10" stroke-width="0.311"/>
              <path id="Tracé_1679" data-name="Tracé 1679" d="M166.958,46.159c-.206-1.1-1.782-2.33-2.535-2.741,2.124-1.713,1.919-3.906,1.713-6.1" transform="translate(-159.146 -34.715)" fill="none" stroke="#7ac0ad" stroke-miterlimit="10" stroke-width="0.311"/>
            </g>
            <g id="Groupe_1296" data-name="Groupe 1296" transform="translate(98.626 20)">
              <line id="Ligne_236" data-name="Ligne 236" x1="15.075" y2="13.704" transform="translate(0 6.715)" fill="none" stroke="#7ac0ad" stroke-miterlimit="10" stroke-width="0.311"/>
              <path id="Tracé_1680" data-name="Tracé 1680" d="M167.151,33.064c-1.782-1.919-8.908-5.961-11.923-6.03.617-3.426-5.071-8.36-7.195-9.525" transform="translate(-142.963 -17.509)" fill="none" stroke="#7ac0ad" stroke-miterlimit="10" stroke-width="0.311"/>
              <path id="Tracé_1681" data-name="Tracé 1681" d="M163.235,31.155c-1.85-2.193-7.4-2.4-10.278-2.261.068-2.261-4.591-7.743-6.167-9.8" transform="translate(-144.46 -15.6)" fill="none" stroke="#7ac0ad" stroke-miterlimit="10" stroke-width="0.311"/>
              <path id="Tracé_1682" data-name="Tracé 1682" d="M148.377,27.461c.754-2.6.069-2.672-1.37-4.385" transform="translate(-144.198 -10.81)" fill="none" stroke="#7ac0ad" stroke-miterlimit="10" stroke-width="0.311"/>
              <path id="Tracé_1683" data-name="Tracé 1683" d="M150.615,26.466" transform="translate(-139.857 -6.731)" fill="none" stroke="#7ac0ad" stroke-miterlimit="10" stroke-width="0.311"/>
            </g>
            <g id="Groupe_1297" data-name="Groupe 1297" transform="translate(106.438 72.625)">
              <path id="Tracé_1684" data-name="Tracé 1684" d="M175.658,46c-7.88.822-19.323,2.535-26.381,6.373" transform="translate(-149.277 -35.855)" fill="none" stroke="#7ac0ad" stroke-miterlimit="10" stroke-width="0.311"/>
              <path id="Tracé_1685" data-name="Tracé 1685" d="M158.764,41.393c.685,4.8.137,6.715-.685,11.032,2.535,2.124,3.015,2.672,5.276,7.606" transform="translate(-138.687 -41.393)" fill="none" stroke="#7ac0ad" stroke-miterlimit="10" stroke-width="0.311"/>
              <path id="Tracé_1686" data-name="Tracé 1686" d="M155.977,42.171c1.85,3.221.891,5.687-.48,10.278a10.391,10.391,0,0,1,3.632,6.441" transform="translate(-141.793 -40.458)" fill="none" stroke="#7ac0ad" stroke-miterlimit="10" stroke-width="0.311"/>
              <path id="Tracé_1687" data-name="Tracé 1687" d="M152.854,42.948c1.713,3.221,1.37,5.893.48,9.8a13.136,13.136,0,0,1,4.248,5.893" transform="translate(-144.974 -39.522)" fill="none" stroke="#7ac0ad" stroke-miterlimit="10" stroke-width="0.311"/>
              <path id="Tracé_1688" data-name="Tracé 1688" d="M155.917,58.251c-.754-1.987-1.37-3.769-4.659-5.071.548-3.837,0-5.55-1.233-8.771" transform="translate(-148.379 -37.763)" fill="none" stroke="#7ac0ad" stroke-miterlimit="10" stroke-width="0.311"/>
            </g>
            <path id="Tracé_1689" data-name="Tracé 1689" d="M169.367,26.279c8.291.822,10.347,5.893,10.278,12.4l-10-6.784Z" transform="translate(-18.664 13.044)" fill="#84c7cb"/>
            <path id="Tracé_1690" data-name="Tracé 1690" d="M167.151,33.064c-1.782-1.919-8.908-5.961-11.923-6.03.617-3.426-5.071-8.36-7.195-9.525" transform="translate(-44.336 2.491)" fill="none" stroke="#7ac0ad" stroke-miterlimit="10" stroke-width="0.311"/>
            <path id="Tracé_1691" data-name="Tracé 1691" d="M171.146,27.746c.48.343,3.837-10.758-3.563-13.362-9.113-3.7-17.062,3.015-17.062,3.015" transform="translate(-41.343 -2.607)" fill="#84c7cb"/>
            <path id="Tracé_1692" data-name="Tracé 1692" d="M188.67,52.328c0,4.385-3.083,7.88-6.852,7.88s-6.852-3.563-6.852-7.88,1.919-8.634,5.687-8.634S188.67,47.943,188.67,52.328Z" transform="translate(-11.928 34.001)" fill="#84c7cb"/>
            <path id="Tracé_1693" data-name="Tracé 1693" d="M185.015,42.575c7.88.685,9.251,2.467,12.334,8.154,2.672,4.934,2.056,11.1-5.482,12.745-10.9,2.33-17.542,2.809-25.148-3.974S172,45.385,185.015,42.575Z" transform="translate(-24.582 32.654)" fill="#84c7cb"/>
            <ellipse id="Ellipse_603" data-name="Ellipse 603" cx="3.083" cy="5.071" rx="3.083" ry="5.071" transform="translate(0.091 70.707)" fill="#84c7cb"/>
            <g id="Groupe_1298" data-name="Groupe 1298" transform="translate(149.333 73.927)">
              <line id="Ligne_237" data-name="Ligne 237" y1="0.206" x2="5.687" transform="translate(1.302 11.238)" fill="none" stroke="#7ac0ad" stroke-miterlimit="10" stroke-width="0.311"/>
              <path id="Tracé_1694" data-name="Tracé 1694" d="M170.538,65.587c.617-3.906,1.987-9.113-.548-12.265,1.85-1.85,1.85-7.812,2.6-11.306" transform="translate(-167.249 -41.947)" fill="none" stroke="#7ac0ad" stroke-miterlimit="10" stroke-width="0.311"/>
              <path id="Tracé_1695" data-name="Tracé 1695" d="M171.688,59.319c.617-3.906,1.987-9.113-.548-12.265" transform="translate(-165.864 -35.884)" fill="none" stroke="#7ac0ad" stroke-miterlimit="10" stroke-width="0.311"/>
              <path id="Tracé_1696" data-name="Tracé 1696" d="M169.157,56.27c.206-2.741.822-5-.411-7.537" transform="translate(-168.745 -33.863)" fill="none" stroke="#7ac0ad" stroke-miterlimit="10" stroke-width="0.311"/>
              <path id="Tracé_1697" data-name="Tracé 1697" d="M171.14,53.77c1.85-3.495,4.8-8.017,3.358-11.786" transform="translate(-165.864 -41.984)" fill="none" stroke="#7ac0ad" stroke-miterlimit="10" stroke-width="0.311"/>
            </g>
            <path id="Tracé_1698" data-name="Tracé 1698" d="M169.021,42.57c.206-3.152-2.33-5.961-5.345-8.7" transform="translate(-25.513 22.176)" fill="none" stroke="#7ac0ad" stroke-miterlimit="10" stroke-width="0.311"/>
            <line id="Ligne_238" data-name="Ligne 238" x1="4.865" y2="1.645" transform="translate(123.705 39.049)" fill="none" stroke="#7ac0ad" stroke-miterlimit="10" stroke-width="0.311"/>
            <g id="Groupe_1299" data-name="Groupe 1299" transform="translate(133.298 43.366)">
              <line id="Ligne_239" data-name="Ligne 239" y1="2.056" x2="4.934" transform="translate(3.837 10.21)" fill="none" stroke="#7ac0ad" stroke-miterlimit="10" stroke-width="0.311"/>
              <path id="Tracé_1699" data-name="Tracé 1699" d="M175.995,48.191c-.754-1.782-6.578-8.291-9.045-8.634,1.782-2.809-4.111-10.278-5.482-11.443" transform="translate(-161.468 -28.114)" fill="none" stroke="#7ac0ad" stroke-miterlimit="10" stroke-width="0.311"/>
            </g>
            <g id="Groupe_1300" data-name="Groupe 1300" transform="translate(0.084 0.326)">
              <path id="Tracé_1700" data-name="Tracé 1700" d="M145.933,54.717c2.056-4.8-12.54-8.017-30.15-4.385" transform="translate(-83.228 39.784)" fill="none" stroke="#2a3f40" stroke-miterlimit="10" stroke-width="0.311"/>
              <path id="Tracé_1701" data-name="Tracé 1701" d="M147.545,62.676c-2.878-1.507-9.525-2.33-20.008-2.467-3.426-.343-6.784-.822-9.388-2.809-8.976-6.784-4.317-17.747,7.949-18.432,6.921.48,11.032,1.987,15.555,3.426,3.083,1.233,7.88,1.987,13.293,2.535" transform="translate(-86.005 27.987)" fill="none" stroke="#2a3f40" stroke-miterlimit="10" stroke-width="0.311"/>
              <path id="Tracé_1702" data-name="Tracé 1702" d="M141.577,33.619c-4.454-1.85-9.182-4.111-12.677-4.385-11.375.343-15.143,9.388-8.5,16.993a31.8,31.8,0,0,0,8.634,5.482" transform="translate(-81.613 16.274)" fill="none" stroke="#2a3f40" stroke-miterlimit="10" stroke-width="0.311"/>
              <path id="Tracé_1703" data-name="Tracé 1703" d="M103.872,48.173c9.319,3.837,17.816,3.7,26.244,2.878" transform="translate(-97.561 39.064)" fill="none" stroke="#2a3f40" stroke-miterlimit="10" stroke-width="0.311"/>
              <path id="Tracé_1704" data-name="Tracé 1704" d="M128.835,50.367C119.927,48.585,112.321,45.5,107.8,39.4c-8.36,2.193-9.525,11.375-.548,19.255" transform="translate(-101.008 28.511)" fill="none" stroke="#2a3f40" stroke-miterlimit="10" stroke-width="0.311"/>
              <path id="Tracé_1705" data-name="Tracé 1705" d="M143.558,47.523C133.005,43,123.344,38.341,117.382,32.859c-9.662-3.7-17.336,3.152-12.471,15.692" transform="translate(-98.12 19.432)" fill="none" stroke="#2a3f40" stroke-miterlimit="10" stroke-width="0.311"/>
              <path id="Tracé_1706" data-name="Tracé 1706" d="M111.63,44.418c-8.223-12.471-.822-26.107,12.745-21.1,4.454,5.756,11.032,10.621,18.775,15.075" transform="translate(-92.368 7.873)" fill="none" stroke="#2a3f40" stroke-miterlimit="10" stroke-width="0.311"/>
              <path id="Tracé_1707" data-name="Tracé 1707" d="M151.174,42.12c-3.084-9.182-9.456-23.572-18.707-27.889-14.458-4.18-21.859,7.058-15.76,19.734" transform="translate(-84.7 -2.848)" fill="none" stroke="#2a3f40" stroke-miterlimit="10" stroke-width="0.311"/>
              <path id="Tracé_1708" data-name="Tracé 1708" d="M159.82,28.985c3.289,1.919,4.454,4.317,4.317,6.989" transform="translate(-30.237 15.975)" fill="none" stroke="#7ac0ad" stroke-miterlimit="10" stroke-width="0.311"/>
              <path id="Tracé_1709" data-name="Tracé 1709" d="M146.432,42.346A49.524,49.524,0,0,1,151.3,21.789c-.891-20.351-28.985-12.951-25.148,3.632" transform="translate(-71.187 -7.528)" fill="none" stroke="#2a3f40" stroke-miterlimit="10" stroke-width="0.311"/>
              <path id="Tracé_1710" data-name="Tracé 1710" d="M136.589,43.123c5.55-7.058,11.032-14.664,20.625-9.182,3.632-4.728,7.332-9.525,11.649-11.923,0-13.7-14.047-17.473-22.681-8.771a25.35,25.35,0,0,0-7.88,9.662" transform="translate(-58.192 -8.579)" fill="none" stroke="#2a3f40" stroke-miterlimit="10" stroke-width="0.311"/>
              <path id="Tracé_1711" data-name="Tracé 1711" d="M142.871,69.052c5.345-8.428,22.338-18.227,26.655-22,6.03-4.385,10.073-20.557-10.689-17.816-8.154,2.4-13.636,11.032-13.636,11.032s12.06-14.8,4.522-20.214" transform="translate(-50.633 5.234)" fill="none" stroke="#2a3f40" stroke-miterlimit="10" stroke-width="0.311"/>
              <path id="Tracé_1712" data-name="Tracé 1712" d="M154.937,33.231C174.329,26.31,181.8,42.344,168.71,52.28" transform="translate(-36.113 19.06)" fill="#84c7cb" stroke="#2a3f40" stroke-miterlimit="10" stroke-width="0.311"/>
              <path id="Tracé_1713" data-name="Tracé 1713" d="M161.895,39.895c3.769-3.974,6.921-7.812,8.565-11.443,0,0,4.522-10.621-4.317-14.184-8.017-3.495-14.938,2.261-14.938,2.261" transform="translate(-40.603 -3.09)" fill="none" stroke="#2a3f40" stroke-miterlimit="10" stroke-width="0.311"/>
              <path id="Tracé_1714" data-name="Tracé 1714" d="M155.746,45.512c10.278-7.195,20.351-12.128,30.013-11.854-.685-10.278-7.332-15.006-20.694-13.362" transform="translate(-35.14 5.134)" fill="none" stroke="#2a3f40" stroke-miterlimit="10" stroke-width="0.311"/>
              <path id="Tracé_1715" data-name="Tracé 1715" d="M163.365,53.595c13.293-3.837,28.094-6.852,22.544-21.379-2.124-4.248-5.55-5.55-9.319-6.03" transform="translate(-25.971 12.607)" fill="none" stroke="#2a3f40" stroke-miterlimit="10" stroke-width="0.311"/>
              <path id="Tracé_1716" data-name="Tracé 1716" d="M184.367,57.735c4.454-10.689,4.454-20.146-10.21-25.764" transform="translate(-12.985 19.567)" fill="#84c7cb" stroke="#2a3f40" stroke-miterlimit="10" stroke-width="0.311"/>
              <path id="Tracé_1717" data-name="Tracé 1717" d="M167.253,42.374c12.882-1.439,28.574,1.165,30.492,10,1.919,15.486-25.833,13.293-25.833,13.293" transform="translate(-21.293 31.638)" fill="none" stroke="#2a3f40" stroke-miterlimit="10" stroke-width="0.311"/>
              <path id="Tracé_1718" data-name="Tracé 1718" d="M148,51.323c9.319-6.989,20.831-10.758,35.083-10.415,0,0,10.964,1.645,11.923,11.1,1.028,10.347-5.687,11.717-7.332,11.58-11.443.274-20.968-4.8-32.754,0,6.236-2.261,25.97,3.358,40.085,3.426" transform="translate(-44.458 30.296)" fill="none" stroke="#2a3f40" stroke-miterlimit="10" stroke-width="0.311"/>
              <path id="Tracé_1719" data-name="Tracé 1719" d="M179.319,62.012" transform="translate(-6.773 55.718)" fill="none" stroke="#2a3f40" stroke-miterlimit="10" stroke-width="0.311"/>
              <path id="Tracé_1720" data-name="Tracé 1720" d="M162.588,59.649" transform="translate(-26.907 52.873)" fill="none" stroke="#2a3f40" stroke-miterlimit="10" stroke-width="0.311"/>
              <path id="Tracé_1721" data-name="Tracé 1721" d="M102.5,56.1" transform="translate(-99.207 48.607)" fill="none" stroke="#2a3f40" stroke-miterlimit="10" stroke-width="0.311"/>
              <path id="Tracé_1722" data-name="Tracé 1722" d="M114.508,57.347" transform="translate(-84.762 50.104)" fill="none" stroke="#2a3f40" stroke-miterlimit="10" stroke-width="0.311"/>
            </g>
            <g id="Groupe_1301" data-name="Groupe 1301" transform="translate(62.641 5.244)">
              <ellipse id="Ellipse_604" data-name="Ellipse 604" cx="5.276" cy="7.743" rx="5.276" ry="7.743" transform="translate(0 0.185) rotate(-1.003)" fill="#22ae5c"/>
              <ellipse id="Ellipse_605" data-name="Ellipse 605" cx="5.07" cy="5.687" rx="5.07" ry="5.687" transform="translate(0.104 4.36) rotate(-1.003)" fill="#e9d086"/>
              <ellipse id="Ellipse_606" data-name="Ellipse 606" cx="3.974" cy="4.728" rx="3.974" ry="4.728" transform="translate(1.287 5.917) rotate(-1.003)" fill="#2e8fa3"/>
            </g>
            <g id="Groupe_1302" data-name="Groupe 1302" transform="translate(30.343 70.309)">
              <ellipse id="Ellipse_607" data-name="Ellipse 607" cx="5.276" cy="7.743" rx="5.276" ry="7.743" transform="matrix(0.212, -0.977, 0.977, 0.212, 0, 10.314)" fill="#22ae5c"/>
              <ellipse id="Ellipse_608" data-name="Ellipse 608" cx="5.071" cy="5.688" rx="5.071" ry="5.688" transform="matrix(0.212, -0.977, 0.977, 0.212, 4.077, 11.153)" fill="#e9d086"/>
              <ellipse id="Ellipse_609" data-name="Ellipse 609" cx="3.974" cy="4.728" rx="3.974" ry="4.728" transform="matrix(0.212, -0.977, 0.977, 0.212, 5.851, 10.355)" fill="#2e8fa3"/>
            </g>
            <g id="Groupe_1303" data-name="Groupe 1303" transform="translate(7.917 55.199)">
              <ellipse id="Ellipse_610" data-name="Ellipse 610" cx="5.276" cy="7.743" rx="5.276" ry="7.743" transform="translate(0 8.752) rotate(-56.035)" fill="#22ae5c"/>
              <ellipse id="Ellipse_611" data-name="Ellipse 611" cx="5.071" cy="5.687" rx="5.071" ry="5.687" transform="translate(3.445 11.055) rotate(-56.035)" fill="#e9d086"/>
              <ellipse id="Ellipse_612" data-name="Ellipse 612" cx="3.974" cy="4.728" rx="3.974" ry="4.728" transform="translate(5.412 10.924) rotate(-56.035)" fill="#2e8fa3"/>
            </g>
            <g id="Groupe_1304" data-name="Groupe 1304" transform="translate(1.248 71.054)">
              <ellipse id="Ellipse_613" data-name="Ellipse 613" cx="5.276" cy="7.743" rx="5.276" ry="7.743" transform="translate(0 8.752) rotate(-56.035)" fill="#22ae5c"/>
              <ellipse id="Ellipse_614" data-name="Ellipse 614" cx="5.071" cy="5.687" rx="5.071" ry="5.687" transform="translate(3.502 11.094) rotate(-56.035)" fill="#e9d086"/>
              <ellipse id="Ellipse_615" data-name="Ellipse 615" cx="3.974" cy="4.728" rx="3.974" ry="4.728" transform="translate(5.469 10.963) rotate(-56.035)" fill="#2e8fa3"/>
            </g>
            <g id="Groupe_1305" data-name="Groupe 1305" transform="translate(18.353 33.797)">
              <ellipse id="Ellipse_616" data-name="Ellipse 616" cx="5.276" cy="7.743" rx="5.276" ry="7.743" transform="translate(0 8.752) rotate(-56.035)" fill="#22ae5c"/>
              <ellipse id="Ellipse_617" data-name="Ellipse 617" cx="5.071" cy="5.687" rx="5.071" ry="5.687" transform="translate(3.439 11.055) rotate(-56.035)" fill="#e9d086"/>
              <ellipse id="Ellipse_618" data-name="Ellipse 618" cx="3.974" cy="4.728" rx="3.974" ry="4.728" transform="translate(5.374 10.981) rotate(-56.035)" fill="#2e8fa3"/>
            </g>
            <g id="Groupe_1306" data-name="Groupe 1306" transform="translate(36.505 47.598)">
              <ellipse id="Ellipse_619" data-name="Ellipse 619" cx="5.276" cy="7.743" rx="5.276" ry="7.743" transform="translate(0 8.752) rotate(-56.035)" fill="#22ae5c"/>
              <ellipse id="Ellipse_620" data-name="Ellipse 620" cx="5.071" cy="5.687" rx="5.071" ry="5.687" transform="translate(3.439 11.055) rotate(-56.035)" fill="#e9d086"/>
              <ellipse id="Ellipse_621" data-name="Ellipse 621" cx="3.974" cy="4.728" rx="3.974" ry="4.728" transform="translate(5.413 10.918) rotate(-56.035)" fill="#2e8fa3"/>
            </g>
            <g id="Groupe_1307" data-name="Groupe 1307" transform="translate(33.011 12.546)">
              <ellipse id="Ellipse_622" data-name="Ellipse 622" cx="5.276" cy="7.743" rx="5.276" ry="7.743" transform="matrix(0.658, -0.753, 0.753, 0.658, 0, 7.947)" fill="#22ae5c"/>
              <ellipse id="Ellipse_623" data-name="Ellipse 623" cx="5.071" cy="5.687" rx="5.071" ry="5.687" transform="matrix(0.658, -0.753, 0.753, 0.658, 3.117, 10.684)" fill="#e9d086"/>
              <ellipse id="Ellipse_624" data-name="Ellipse 624" cx="3.974" cy="4.728" rx="3.974" ry="4.728" transform="matrix(0.658, -0.753, 0.753, 0.658, 5.015, 10.782)" fill="#2e8fa3"/>
            </g>
            <g id="Groupe_1308" data-name="Groupe 1308" transform="translate(87.726 3.28)">
              <ellipse id="Ellipse_625" data-name="Ellipse 625" cx="7.743" cy="5.276" rx="7.743" ry="5.276" transform="matrix(0.628, -0.778, 0.778, 0.628, 0.02, 12.051)" fill="#22ae5c"/>
              <ellipse id="Ellipse_626" data-name="Ellipse 626" cx="5.687" cy="5.071" rx="5.687" ry="5.071" transform="matrix(0.628, -0.778, 0.778, 0.628, 0, 12.067)" fill="#e9d086"/>
              <ellipse id="Ellipse_627" data-name="Ellipse 627" cx="4.728" cy="3.974" rx="4.728" ry="3.974" transform="matrix(0.628, -0.778, 0.778, 0.628, 1.214, 12.528)" fill="#2e8fa3"/>
            </g>
            <g id="Groupe_1309" data-name="Groupe 1309" transform="translate(85.308 24.858)">
              <ellipse id="Ellipse_628" data-name="Ellipse 628" cx="6.235" cy="4.111" rx="6.235" ry="4.111" transform="matrix(0.628, -0.778, 0.778, 0.628, 0.048, 9.705)" fill="#22ae5c"/>
              <ellipse id="Ellipse_629" data-name="Ellipse 629" cx="4.591" cy="3.974" rx="4.591" ry="3.974" transform="matrix(0.628, -0.778, 0.778, 0.628, 0, 9.728)" fill="#e9d086"/>
              <ellipse id="Ellipse_630" data-name="Ellipse 630" cx="3.837" cy="3.083" rx="3.837" ry="3.083" transform="matrix(0.628, -0.778, 0.778, 0.628, 0.952, 10.085)" fill="#2e8fa3"/>
            </g>
            <g id="Groupe_1310" data-name="Groupe 1310" transform="translate(110.147 12.154)">
              <ellipse id="Ellipse_631" data-name="Ellipse 631" cx="7.743" cy="5.276" rx="7.743" ry="5.276" transform="matrix(0.628, -0.778, 0.778, 0.628, 0.062, 12.051)" fill="#22ae5c"/>
              <ellipse id="Ellipse_632" data-name="Ellipse 632" cx="5.687" cy="5.071" rx="5.687" ry="5.071" transform="matrix(0.628, -0.778, 0.778, 0.628, 0, 12.121)" fill="#e9d086"/>
              <ellipse id="Ellipse_633" data-name="Ellipse 633" cx="4.728" cy="3.974" rx="4.728" ry="3.974" transform="matrix(0.628, -0.778, 0.778, 0.628, 1.214, 12.582)" fill="#2e8fa3"/>
            </g>
            <g id="Groupe_1311" data-name="Groupe 1311" transform="translate(101.541 36.499)">
              <ellipse id="Ellipse_634" data-name="Ellipse 634" cx="7.743" cy="5.276" rx="7.743" ry="5.276" transform="translate(0.067 8.873) rotate(-34.958)" fill="#22ae5c"/>
              <ellipse id="Ellipse_635" data-name="Ellipse 635" cx="5.688" cy="5.071" rx="5.688" ry="5.071" transform="translate(0 8.903) rotate(-34.958)" fill="#e9d086"/>
              <ellipse id="Ellipse_636" data-name="Ellipse 636" cx="4.728" cy="3.974" rx="4.728" ry="3.974" transform="translate(1.006 9.659) rotate(-34.958)" fill="#2e8fa3"/>
            </g>
            <g id="Groupe_1312" data-name="Groupe 1312" transform="translate(117.123 52.632)">
              <ellipse id="Ellipse_637" data-name="Ellipse 637" cx="7.743" cy="5.276" rx="7.743" ry="5.276" transform="translate(0.036 8.39) rotate(-32.806)" fill="#22ae5c"/>
              <ellipse id="Ellipse_638" data-name="Ellipse 638" cx="5.687" cy="5.071" rx="5.687" ry="5.071" transform="translate(0 8.397) rotate(-32.806)" fill="#e9d086"/>
              <ellipse id="Ellipse_639" data-name="Ellipse 639" cx="4.728" cy="3.974" rx="4.728" ry="3.974" transform="translate(1 9.193) rotate(-32.806)" fill="#2e8fa3"/>
            </g>
            <g id="Groupe_1313" data-name="Groupe 1313" transform="translate(138.123 41.689)">
              <ellipse id="Ellipse_640" data-name="Ellipse 640" cx="7.743" cy="5.276" rx="7.743" ry="5.276" transform="matrix(0.871, -0.491, 0.491, 0.871, 0.025, 7.608)" fill="#22ae5c"/>
              <ellipse id="Ellipse_641" data-name="Ellipse 641" cx="5.687" cy="5.071" rx="5.687" ry="5.071" transform="matrix(0.871, -0.491, 0.491, 0.871, 0, 7.661)" fill="#e9d086"/>
              <ellipse id="Ellipse_642" data-name="Ellipse 642" cx="4.728" cy="3.974" rx="4.728" ry="3.974" transform="matrix(0.871, -0.491, 0.491, 0.871, 0.891, 8.502)" fill="#2e8fa3"/>
            </g>
            <g id="Groupe_1314" data-name="Groupe 1314" transform="translate(125.643 25.987)">
              <ellipse id="Ellipse_643" data-name="Ellipse 643" cx="7.743" cy="5.276" rx="7.743" ry="5.276" transform="translate(0 8.873) rotate(-34.958)" fill="#22ae5c"/>
              <ellipse id="Ellipse_644" data-name="Ellipse 644" cx="5.688" cy="5.071" rx="5.688" ry="5.071" transform="translate(0.032 8.922) rotate(-34.958)" fill="#e9d086"/>
              <ellipse id="Ellipse_645" data-name="Ellipse 645" cx="4.728" cy="3.974" rx="4.728" ry="3.974" transform="translate(0.985 9.714) rotate(-34.958)" fill="#2e8fa3"/>
            </g>
            <g id="Groupe_1315" data-name="Groupe 1315" transform="translate(131.099 77.065)">
              <ellipse id="Ellipse_646" data-name="Ellipse 646" cx="5.276" cy="7.743" rx="5.276" ry="7.743" transform="translate(0.028 10.548) rotate(-85.687)" fill="#22ae5c"/>
              <ellipse id="Ellipse_647" data-name="Ellipse 647" cx="5.071" cy="5.688" rx="5.071" ry="5.688" transform="translate(0 10.113) rotate(-85.687)" fill="#e9d086"/>
              <ellipse id="Ellipse_648" data-name="Ellipse 648" cx="3.974" cy="4.728" rx="3.974" ry="4.728" transform="translate(0.484 9.181) rotate(-85.687)" fill="#2e8fa3"/>
            </g>
            <g id="Groupe_1316" data-name="Groupe 1316" transform="translate(155.885 79.826)">
              <ellipse id="Ellipse_649" data-name="Ellipse 649" cx="5.276" cy="7.743" rx="5.276" ry="7.743" transform="translate(0.034 10.523) rotate(-85.687)" fill="#22ae5c"/>
              <ellipse id="Ellipse_650" data-name="Ellipse 650" cx="5.071" cy="5.688" rx="5.071" ry="5.688" transform="translate(0 10.156) rotate(-85.687)" fill="#e9d086"/>
              <ellipse id="Ellipse_651" data-name="Ellipse 651" cx="3.974" cy="4.728" rx="3.974" ry="4.728" transform="translate(0.489 9.156) rotate(-85.687)" fill="#2e8fa3"/>
            </g>
            <g id="Groupe_1317" data-name="Groupe 1317" transform="translate(153.232 59.388)">
              <ellipse id="Ellipse_652" data-name="Ellipse 652" cx="7.743" cy="5.276" rx="7.743" ry="5.276" transform="translate(0.077 3.43) rotate(-12.797)" fill="#22ae5c"/>
              <ellipse id="Ellipse_653" data-name="Ellipse 653" cx="5.688" cy="5.071" rx="5.688" ry="5.071" transform="translate(0 3.454) rotate(-12.797)" fill="#e9d086"/>
              <ellipse id="Ellipse_654" data-name="Ellipse 654" cx="4.728" cy="3.974" rx="4.728" ry="3.974" transform="translate(0.629 4.518) rotate(-12.797)" fill="#2e8fa3"/>
            </g>
          </g>
          <path id="Tracé_1723" data-name="Tracé 1723" d="M162.054,48.2c3.152.274,5.208,1.645,5.961,4.8,0,0,.754,20.488-1.782,23.366-2.467,2.878-41.319,11.58-41.319,11.58-2.741.069-4.728-1.645-4.934-7.195L120.05,59.3c.069-3.152.548-6.647,3.632-7.058Z" transform="translate(-78.092 39.427)" fill="#2e8fa3" stroke="#2a3f40" stroke-miterlimit="10" stroke-width="0.311"/>
          <path id="Tracé_1724" data-name="Tracé 1724" d="M171.2,55.732s0-9.456-.617-11.443-11.991.343-11.991.343L138.517,47.1l6.03,13.225Z" transform="translate(-55.788 33.75)" fill="#2e8fa3" stroke="#000" stroke-miterlimit="10" stroke-width="0.311"/>
          <path id="Tracé_1725" data-name="Tracé 1725" d="M152.832,61.232,121.174,58.9l-.343,14.047c-.137,1.713.48,2.4,1.37,2.467l31.931.959Z" transform="translate(-77.092 52.301)" fill="#2e8fa3" stroke="#2a3f40" stroke-miterlimit="10" stroke-width="0.311"/>
          <path id="Tracé_1726" data-name="Tracé 1726" d="M133.512,77.066s-1.165-13.773-.343-15.829c.754-2.056,4.18-2.056,4.18-2.056l4.248,1.1V79.191h-9.8Z" transform="translate(-63.871 52.638)" fill="#eca93f" stroke="#2a3f40" stroke-miterlimit="10" stroke-width="0.311"/>
          <path id="Tracé_1727" data-name="Tracé 1727" d="M126.575,50.577c1.165-2.809,3.563-4.522,6.784-5.824a46.6,46.6,0,0,1,.206-12.814" transform="translate(-70.158 19.855)" fill="none" stroke="#7ac0ad" stroke-miterlimit="10" stroke-width="0.311"/>
          <path id="Tracé_1728" data-name="Tracé 1728" d="M139.636,41c4.385-4.934,12.54-1.645,9.662,5.482,8.154-4.66,14.938,5.482,7.195,9.8,11.238.754,12.54,8.291,5.139,12.54,8.839,1.987,8.7,12.745-1.3,13.773" transform="translate(-54.441 27.925)" fill="#2e5058" stroke="#2a3f40" stroke-miterlimit="10" stroke-width="0.311"/>
          <path id="Tracé_1729" data-name="Tracé 1729" d="M147.4,38.705c-7.263-.685-10.621,2.6-7.4,9.113-3.7-3.974-13.773,5-5.55,11.58-9.319-.069-9.936,9.388-2.535,12.677-7.469.617-1.645,8.634,6.03,8.154" transform="translate(-69.814 27.89)" fill="#2e5058" stroke="#2a3f40" stroke-miterlimit="10" stroke-width="0.311"/>
          <rect id="Rectangle_485" data-name="Rectangle 485" width="8.36" height="7.812" transform="translate(60.908 58.189) rotate(-34.958)" fill="#eca93f" stroke="#2a3f40" stroke-miterlimit="10" stroke-width="0.311"/>
          <path id="Tracé_1730" data-name="Tracé 1730" d="M137.06,68.656s-2.4,4.934-5.139,4.18-.685-9.456-.685-9.456-.959,2.6-2.809,2.261.754-11.786,5.482-18.09" transform="translate(-68.652 38.642)" fill="#77c1b0" stroke="#2a3f40" stroke-miterlimit="10" stroke-width="0.311"/>
          <path id="Tracé_1731" data-name="Tracé 1731" d="M130.841,32.934c-.822,2.809-1.987,5.208-3.769,6.373,4.18,3.769,8.017,2.124,11.786-.891l2.124.137s-1.37,6.167-6.235,6.441c-1.165-.411-1.028-3.837-1.028-3.837" transform="translate(-69.559 21.053)" fill="#eca93f" stroke="#2a3f40" stroke-miterlimit="10" stroke-width="0.311"/>
          <path id="Tracé_1732" data-name="Tracé 1732" d="M137.506,28.455c-6.1-3.426-17.268-2.946-13.773-9.662C127.091,14.751,133.464,20.507,137.506,28.455Z" transform="translate(-74.375 2.44)" fill="#eca93f" stroke="#2a3f40" stroke-miterlimit="10" stroke-width="0.311"/>
          <path id="Tracé_1733" data-name="Tracé 1733" d="M131.242,77.55s-1.576-16.171-.822-18.57c.685-2.4,4.111-2.535,4.111-2.535l4.248,1.165.48,18.912.069,3.358-9.8.274Z" transform="translate(-66.603 49.344)" fill="#eca93f" stroke="#2a3f40" stroke-miterlimit="10" stroke-width="0.311"/>
          <path id="Tracé_1734" data-name="Tracé 1734" d="M154.311,85.563l3.837,12.265c1.782,4.522,4.043,7.88,7.195,9.388,1.028.343,1.508-.274,1.37-2.124l-2.878-5.824c2.124,5.139,5.139,9.8,7.606,9.182s.617-6.715,0-11.649c0,0,1.37,7.126,3.426,6.784,3.289-1.987-5.824-37.756-21.1-39.537a91,91,0,0,0,7.812-15.28c4.248-10.141,4.934-22.612-8.771-27.2-14.184-4.728-25.079,9.593-24.668,19.392,1.165,18.775,17.473,14.869,25.353,10.484a41.9,41.9,0,0,1-6.03,2.535c.068,4.66-2.056,9.25-6.1,14.321-5.893,6.236-9.73,12.745-10,19.871-.548,18.432,14.938,24.737,31.657,17.679" transform="translate(-68.293 6.249)" fill="#77c1b0" stroke="#2a3f40" stroke-miterlimit="10" stroke-width="0.311"/>
          <path id="Tracé_1735" data-name="Tracé 1735" d="M175.151,47.915c3.084-.617,5.139.617,6.167,3.769,0,0,2.261,20.831,0,23.914s-39.743,14.938-39.743,14.938c-2.741.274-4.8-1.37-5.345-6.921l-1.508-21.79c0-2.6.617-5,3.083-6.784Z" transform="translate(-60.353 38.894)" fill="#2e8fa3" stroke="#2a3f40" stroke-miterlimit="10" stroke-width="0.311"/>
          <g id="Groupe_1319" data-name="Groupe 1319" transform="translate(68.12 42.198)">
            <path id="Tracé_1736" data-name="Tracé 1736" d="M131.895,37.339a6.744,6.744,0,0,0,6.03,1.165c5.139-1.37,6.1-5.413,5.482-10.552C135.8,26.581,131.757,29.459,131.895,37.339Z" transform="translate(-131.881 -27.537)" fill="#fefdfc"/>
            <path id="Tracé_1737" data-name="Tracé 1737" d="M138.12,32.319c.069,1.37-.274,2.193-1.507,2.261-1.713.137-4.18-1.1-4.385-2.741-.206-1.782.343-2.878,1.3-3.083C135.174,28.413,138.051,30.537,138.12,32.319Z" transform="translate(-131.528 -26.218)" fill="#21b061"/>
            <path id="Tracé_1738" data-name="Tracé 1738" d="M131.9,37.66c-.274-7.812,3.563-11.1,11.512-9.8" transform="translate(-131.886 -27.584)" fill="none" stroke="#2a3f40" stroke-miterlimit="10" stroke-width="0.311"/>
            <path id="Tracé_1739" data-name="Tracé 1739" d="M138.109,30.858a2.2,2.2,0,0,1-.959,2.056c-2.6.48-5.071-2.809-5.071-2.809" transform="translate(-131.654 -24.551)" fill="none" stroke="#2a3f40" stroke-miterlimit="10" stroke-width="0.311"/>
            <path id="Tracé_1740" data-name="Tracé 1740" d="M134.878,34.326a5.544,5.544,0,0,0,4.111-2.946" transform="translate(-128.286 -23.017)" fill="none" stroke="#2a3f40" stroke-miterlimit="10" stroke-width="0.311"/>
            <path id="Tracé_1741" data-name="Tracé 1741" d="M132.359,29.327s1.85,2.4,2.4,2.056.206-1.3.206-1.3" transform="translate(-131.318 -25.487)" fill="none" stroke="#2a3f40" stroke-miterlimit="10" stroke-width="0.311"/>
          </g>
          <path id="Tracé_1742" data-name="Tracé 1742" d="M137.88,29.254c-1.987-4.728-4.8-8.36-9.388-9.525-4.385-.959-4.111-4.317-.754-6.51C133.563,10.548,136.783,16.441,137.88,29.254Z" transform="translate(-71.801 -3.43)" fill="#eca93f" stroke="#2a3f40" stroke-miterlimit="10" stroke-width="0.311"/>
          <path id="Tracé_1743" data-name="Tracé 1743" d="M136.027,26.867c-1.3-4.66-2.672-9.045-4.385-10.826-2.535-3.563,1.576-6.715,4.385-1.507C137.192,18.165,136.849,22.413,136.027,26.867Z" transform="translate(-65.015 -4.4)" fill="#eca93f" stroke="#2a3f40" stroke-miterlimit="10" stroke-width="0.311"/>
          <line id="Ligne_240" data-name="Ligne 240" y1="5.071" x2="17.131" transform="translate(44.083 106.133)" fill="#2e8fa3" stroke="#2a3f40" stroke-miterlimit="10" stroke-width="0.311"/>
          <path id="Tracé_1744" data-name="Tracé 1744" d="M118.675,32.841" transform="translate(-79.663 20.941)" fill="#2e8fa3" stroke="#000" stroke-miterlimit="10" stroke-width="0.311"/>
          <line id="Ligne_241" data-name="Ligne 241" x2="3.426" y2="2.261" transform="translate(33.667 47.478)" fill="none" stroke="#7ac0ad" stroke-miterlimit="10" stroke-width="0.311"/>
          <path id="Tracé_1745" data-name="Tracé 1745" d="M124.788,25.875a12.45,12.45,0,0,0-2.672,10.415,26.25,26.25,0,0,0-8.976,8.565" transform="translate(-86.325 12.558)" fill="none" stroke="#7ac0ad" stroke-miterlimit="10" stroke-width="0.311"/>
          <path id="Tracé_1746" data-name="Tracé 1746" d="M119.291,33.377c-1.1-.206-2.672,2.124-4.317,5" transform="translate(-84.117 21.57)" fill="none" stroke="#7ac0ad" stroke-miterlimit="10" stroke-width="0.311"/>
          <path id="Tracé_1747" data-name="Tracé 1747" d="M119.019,33.3c-.685-.959.754-3.289,2.672-6.03" transform="translate(-79.459 14.242)" fill="none" stroke="#7ac0ad" stroke-miterlimit="10" stroke-width="0.311"/>
          <path id="Tracé_1748" data-name="Tracé 1748" d="M156.317,44.69s5.413,8.428,5.208,10.141c-.411,2.878-11.923,9.936-13.156,10.826s-5.208,2.809-6.3,1.987,4.317-5.756,4.317-5.756-8.634,7.812-9.388,5.756S143.64,58.6,143.64,58.6s-6.373,6.578-7.263,4.728,7.263-8.908,7.263-8.908" transform="translate(-58.444 35.199)" fill="#77c1b0" stroke="#2a3f40" stroke-miterlimit="10" stroke-width="0.311"/>
        </g>
      </g>
    </g>
  </g>
</svg>
