<svg xmlns="http://www.w3.org/2000/svg" xmlns:xlink="http://www.w3.org/1999/xlink" width="349.88" height="61" viewBox="0 0 349.88 61">
  <defs>
    <clipPath id="clip-path">
      <rect id="Rectangle_400" data-name="Rectangle 400" width="36.339" height="20.7" transform="translate(0 0)" fill="#fff"/>
    </clipPath>
    <clipPath id="clip-path-2">
      <rect id="Rectangle_401" data-name="Rectangle 401" width="30.238" height="22.481" fill="#fff"/>
    </clipPath>
  </defs>
  <g id="Groupe_110" data-name="Groupe 110" transform="translate(-17.01 -703)">
    <g id="Ellipse_23" data-name="Ellipse 23" transform="translate(165 703)" fill="none" stroke="#fff" stroke-width="2">
      <circle cx="30.5" cy="30.5" r="30.5" stroke="none"/>
      <circle cx="30.5" cy="30.5" r="29.5" fill="none"/>
    </g>
    <g id="Polygone_5" data-name="Polygone 5" transform="translate(214 716) rotate(90)" fill="none">
      <path d="M16.636,1.481a1,1,0,0,1,1.728,0L34.123,28.5a1,1,0,0,1-.864,1.5H1.741a1,1,0,0,1-.864-1.5Z" stroke="none"/>
      <path d="M 17.50000381469727 3.969261169433594 L 3.482074737548828 27.99999809265137 L 31.51792526245117 27.99999809265137 L 17.50000381469727 3.969261169433594 M 17.50000190734863 0.9846343994140625 C 17.83542251586914 0.9846343994140625 18.17084121704102 1.150009155273438 18.3637809753418 1.480758666992188 L 34.12274169921875 28.49612808227539 C 34.51162338256836 29.16278839111328 34.0307502746582 29.99999809265137 33.25896072387695 29.99999809265137 L 1.741031646728516 29.99999809265137 C 0.9692420959472656 29.99999809265137 0.488372802734375 29.16278839111328 0.8772621154785156 28.49612808227539 L 16.63622283935547 1.480758666992188 C 16.82916259765625 1.150009155273438 17.16458129882812 0.9846343994140625 17.50000190734863 0.9846343994140625 Z" stroke="none" fill="#fff"/>
    </g>
    <g id="Polygone_6" data-name="Polygone 6" transform="translate(290 716) rotate(90)" fill="none" stroke-linecap="round">
      <path d="M16.636,1.481a1,1,0,0,1,1.728,0L34.123,28.5a1,1,0,0,1-.864,1.5H1.741a1,1,0,0,1-.864-1.5Z" stroke="none"/>
      <path d="M 17.50000381469727 3.969261169433594 L 3.482074737548828 27.99999809265137 L 31.51792526245117 27.99999809265137 L 17.50000381469727 3.969261169433594 M 17.50000190734863 0.9846343994140625 C 17.83542251586914 0.9846343994140625 18.17084121704102 1.150009155273438 18.3637809753418 1.480758666992188 L 34.12274169921875 28.49612808227539 C 34.51162338256836 29.16278839111328 34.0307502746582 29.99999809265137 33.25896072387695 29.99999809265137 L 1.741031646728516 29.99999809265137 C 0.9692420959472656 29.99999809265137 0.488372802734375 29.16278839111328 0.8772621154785156 28.49612808227539 L 16.63622283935547 1.480758666992188 C 16.82916259765625 1.150009155273438 17.16458129882812 0.9846343994140625 17.50000190734863 0.9846343994140625 Z" stroke="none" fill="#fff"/>
    </g>
    <g id="Polygone_7" data-name="Polygone 7" transform="translate(100 751) rotate(-90)" fill="none">
      <path d="M16.636,1.481a1,1,0,0,1,1.728,0L34.123,28.5a1,1,0,0,1-.864,1.5H1.741a1,1,0,0,1-.864-1.5Z" stroke="none"/>
      <path d="M 17.50000381469727 3.969261169433594 L 3.482074737548828 27.99999809265137 L 31.51792526245117 27.99999809265137 L 17.50000381469727 3.969261169433594 M 17.50000190734863 0.9846343994140625 C 17.83542251586914 0.9846343994140625 18.17084121704102 1.150009155273438 18.3637809753418 1.480758666992188 L 34.12274169921875 28.49612808227539 C 34.51162338256836 29.16278839111328 34.0307502746582 29.99999809265137 33.25896072387695 29.99999809265137 L 1.741031646728516 29.99999809265137 C 0.9692420959472656 29.99999809265137 0.488372802734375 29.16278839111328 0.8772621154785156 28.49612808227539 L 16.63622283935547 1.480758666992188 C 16.82916259765625 1.150009155273438 17.16458129882812 0.9846343994140625 17.50000190734863 0.9846343994140625 Z" stroke="none" fill="#fff"/>
    </g>
    <line id="Ligne_18" data-name="Ligne 18" y2="35" transform="translate(289.5 716.5)" fill="none" stroke="#fff" stroke-linecap="round" stroke-width="2"/>
    <line id="Ligne_19" data-name="Ligne 19" y2="35" transform="translate(100.5 716.5)" fill="none" stroke="#fff" stroke-linecap="round" stroke-width="2"/>
    <g id="Groupe_722" data-name="Groupe 722" transform="translate(17.01 723.65)">
      <g id="Groupe_721" data-name="Groupe 721" transform="translate(0 0)" clip-path="url(#clip-path)">
        <path id="Tracé_216" data-name="Tracé 216" d="M13.666,10.694a.341.341,0,0,1-.286-.153C10.439,6.091,7.119,4.107,2.614,4.107H1.235A1.236,1.236,0,0,1,0,2.873V1.237A1.236,1.236,0,0,1,1.235,0H2.614a15.276,15.276,0,0,1,12.9,7.029l.02.03c.128.2.266.4.422.62a.342.342,0,0,1-.557.4c-.155-.217-.294-.42-.423-.62h0l-.02-.03A14.594,14.594,0,0,0,2.614.686H1.235a.551.551,0,0,0-.55.55V2.873a.551.551,0,0,0,.55.55H2.614c4.7,0,8.3,2.142,11.338,6.74a.342.342,0,0,1-.285.531" transform="translate(0 -0.001)" fill="#fff"/>
        <path id="Tracé_217" data-name="Tracé 217" d="M80.136,54.574a.842.842,0,0,1-.838-.839V51.95a.18.18,0,0,0-.169-.183,18.824,18.824,0,0,1-11.8-4.822.342.342,0,0,1,.472-.5,18.376,18.376,0,0,0,11.357,4.634.862.862,0,0,1,.826.866v1.786a.148.148,0,0,0,.077.133.154.154,0,0,0,.157,0l7.311-4.221a.034.034,0,0,0,.019-.032.033.033,0,0,0-.019-.032l-7.312-4.222a.151.151,0,0,0-.156,0,.148.148,0,0,0-.077.133v1.982a.861.861,0,0,1-.269.628.875.875,0,0,1-.643.241,15.387,15.387,0,0,1-9.508-3.863.342.342,0,0,1,.455-.512A14.7,14.7,0,0,0,79.1,47.66a.19.19,0,0,0,.14-.052.183.183,0,0,0,.057-.133V45.493a.839.839,0,0,1,1.259-.725l7.312,4.222a.721.721,0,0,1,0,1.249L80.556,54.46a.842.842,0,0,1-.421.114" transform="translate(-51.89 -33.874)" fill="#fff"/>
        <path id="Tracé_218" data-name="Tracé 218" d="M2.614,20.7H1.234A1.235,1.235,0,0,1,0,19.467V17.83A1.236,1.236,0,0,1,1.234,16.6h1.38c4.6,0,7.979-2.079,10.97-6.742l.023-.034c2.53-3.912,8.129-6.793,13.632-7.011a.182.182,0,0,0,.169-.183V.84A.839.839,0,0,1,28.665.114l7.313,4.222a.722.722,0,0,1,0,1.251L28.665,9.809a.839.839,0,0,1-1.258-.726V7.1a.182.182,0,0,0-.057-.132.2.2,0,0,0-.141-.052,14.675,14.675,0,0,0-11.68,6.725l-.022.034A15.277,15.277,0,0,1,2.614,20.7M1.234,17.28a.551.551,0,0,0-.55.55v1.637a.55.55,0,0,0,.55.55h1.38a14.594,14.594,0,0,0,12.338-6.742l.022-.034A15.361,15.361,0,0,1,27.179,6.233a.879.879,0,0,1,.645.242.859.859,0,0,1,.268.627V9.083a.155.155,0,0,0,.232.134l7.313-4.222a.035.035,0,0,0,.019-.033.035.035,0,0,0-.019-.033L28.323.707a.155.155,0,0,0-.232.134V2.626a.862.862,0,0,1-.826.867c-5.308.21-10.7,2.977-13.1,6.728l-.022.033C11.056,15.047,7.393,17.28,2.614,17.28Z" transform="translate(0 0)" fill="#fff"/>
      </g>
    </g>
    <g id="Groupe_724" data-name="Groupe 724" transform="translate(336.651 722.759)">
      <g id="Groupe_723" data-name="Groupe 723" transform="translate(0 0)" clip-path="url(#clip-path-2)">
        <path id="Tracé_219" data-name="Tracé 219" d="M8.641,19.7H1.167A1.168,1.168,0,0,1,0,18.534V3.932A1.168,1.168,0,0,1,1.167,2.765H13.916V.586A.584.584,0,0,1,14.792.08L21.582,4a.524.524,0,0,1,0,.908l-6.79,3.919a.584.584,0,0,1-.877-.506V6.053H4.06a.57.57,0,0,0-.569.569v9.223a.57.57,0,0,0,.569.569H8.447a.433.433,0,0,1,.216.808L7.312,18l1.545.891a.433.433,0,0,1-.217.808M1.167,3.363A.57.57,0,0,0,.6,3.932v14.6a.57.57,0,0,0,.569.569H8.026L6.9,18.456a.524.524,0,0,1,0-.908l.929-.536H4.06a1.168,1.168,0,0,1-1.167-1.167V6.622A1.168,1.168,0,0,1,4.06,5.455h9.874a.58.58,0,0,1,.58.58V8.3l6.659-3.844L14.513.609V2.783a.581.581,0,0,1-.58.58ZM8.365,16.7h0Z" transform="translate(0 0)" fill="#fff"/>
        <path id="Tracé_220" data-name="Tracé 220" d="M49.474,33.657a.583.583,0,0,1-.292-.079l-6.789-3.919a.524.524,0,0,1,0-.908l6.789-3.919a.584.584,0,0,1,.877.506V27.6h9.856a.57.57,0,0,0,.569-.569V17.813a.57.57,0,0,0-.569-.569H55.526a.433.433,0,0,1-.216-.808l1.351-.78-1.545-.891a.433.433,0,0,1,.217-.808h7.474a1.168,1.168,0,0,1,1.167,1.167v14.6a1.168,1.168,0,0,1-1.167,1.167H50.058v2.179a.586.586,0,0,1-.584.585M42.8,29.2l6.659,3.844V30.874a.581.581,0,0,1,.58-.58H62.807a.57.57,0,0,0,.569-.569v-14.6a.57.57,0,0,0-.569-.569H55.948l1.123.648a.524.524,0,0,1,0,.908l-.929.536h3.773a1.168,1.168,0,0,1,1.167,1.167v9.223A1.168,1.168,0,0,1,59.914,28.2H50.04a.58.58,0,0,1-.58-.58V25.361ZM55.609,16.953h0" transform="translate(-33.736 -11.175)" fill="#fff"/>
      </g>
    </g>
  </g>
</svg>
