<svg id="Groupe_1322" data-name="Groupe 1322" xmlns="http://www.w3.org/2000/svg" xmlns:xlink="http://www.w3.org/1999/xlink" width="30" height="70" viewBox="0 0 43.72 39.143">
  <defs>
    <clipPath id="clip-path">
      <rect id="Rectangle_398" data-name="Rectangle 398" width="43.72" height="39.143" fill="#fff"/>
    </clipPath>
  </defs>
  <g id="Groupe_704" data-name="Groupe 704" clip-path="url(#clip-path)">
    <path id="Tracé_199" data-name="Tracé 199" d="M39.784,44.432H3.942A3.943,3.943,0,0,1,0,40.493V11.938A3.943,3.943,0,0,1,3.942,8H39.784a3.943,3.943,0,0,1,3.939,3.938V40.493a3.943,3.943,0,0,1-3.939,3.939M3.942,9.017a2.925,2.925,0,0,0-2.922,2.922V40.493a2.925,2.925,0,0,0,2.922,2.922H39.784a2.925,2.925,0,0,0,2.922-2.922V11.938a2.925,2.925,0,0,0-2.922-2.922Z" transform="translate(-0.003 -5.289)" fill="#fff"/>
    <path id="Tracé_200" data-name="Tracé 200" d="M47.76,44.478H44.974a.471.471,0,0,1-.471-.471V41.221a.471.471,0,0,1,.471-.471H47.76a.471.471,0,0,1,.471.471v2.786a.471.471,0,0,1-.471.471" transform="translate(-29.421 -26.94)" fill="#fff"/>
    <path id="Tracé_201" data-name="Tracé 201" d="M46.769,43.995H43.983A.98.98,0,0,1,43,43.015V40.229a.98.98,0,0,1,.979-.979h2.785a.981.981,0,0,1,.98.979v2.786a.981.981,0,0,1-.98.979m-2.748-1.017h2.711V40.267H44.021Z" transform="translate(-28.43 -25.948)" fill="#fff"/>
    <path id="Tracé_202" data-name="Tracé 202" d="M75.769,43.995H72.983A.98.98,0,0,1,72,43.015V40.229a.98.98,0,0,1,.979-.979h2.785a.981.981,0,0,1,.98.979v2.786a.981.981,0,0,1-.98.979m-2.748-1.017h2.711V40.267H73.021Z" transform="translate(-47.602 -25.948)" fill="#fff"/>
    <path id="Tracé_203" data-name="Tracé 203" d="M103.769,43.995h-2.785a.98.98,0,0,1-.979-.979V40.229a.98.98,0,0,1,.979-.979h2.785a.981.981,0,0,1,.98.979v2.786a.981.981,0,0,1-.98.979m-2.748-1.017h2.711V40.267h-2.711Z" transform="translate(-66.113 -25.948)" fill="#fff"/>
    <path id="Tracé_204" data-name="Tracé 204" d="M18.769,67.995H15.983A.98.98,0,0,1,15,67.015V64.229a.98.98,0,0,1,.979-.979h2.785a.981.981,0,0,1,.98.979v2.786a.981.981,0,0,1-.98.979m-2.748-1.017h2.711V64.267H16.021Z" transform="translate(-9.919 -41.815)" fill="#fff"/>
    <path id="Tracé_205" data-name="Tracé 205" d="M46.769,67.995H43.983A.98.98,0,0,1,43,67.015V64.229a.98.98,0,0,1,.979-.979h2.785a.981.981,0,0,1,.98.979v2.786a.981.981,0,0,1-.98.979m-2.748-1.017h2.711V64.267H44.021Z" transform="translate(-28.43 -41.815)" fill="#fff"/>
    <path id="Tracé_206" data-name="Tracé 206" d="M75.769,67.995H72.983A.98.98,0,0,1,72,67.015V64.229a.98.98,0,0,1,.979-.979h2.785a.981.981,0,0,1,.98.979v2.786a.981.981,0,0,1-.98.979m-2.748-1.017h2.711V64.267H73.021Z" transform="translate(-47.602 -41.815)" fill="#fff"/>
    <path id="Tracé_207" data-name="Tracé 207" d="M103.769,67.995h-2.785a.98.98,0,0,1-.979-.979V64.229a.98.98,0,0,1,.979-.979h2.785a.981.981,0,0,1,.98.979v2.786a.981.981,0,0,1-.98.979m-2.748-1.017h2.711V64.267h-2.711Z" transform="translate(-66.113 -41.815)" fill="#fff"/>
    <path id="Tracé_208" data-name="Tracé 208" d="M18.769,91.995H15.983A.98.98,0,0,1,15,91.015V88.229a.98.98,0,0,1,.979-.979h2.785a.981.981,0,0,1,.98.979v2.786a.981.981,0,0,1-.98.979m-2.748-1.017h2.711V88.267H16.021Z" transform="translate(-9.919 -57.681)" fill="#fff"/>
    <path id="Tracé_209" data-name="Tracé 209" d="M46.769,91.995H43.983A.98.98,0,0,1,43,91.015V88.229a.98.98,0,0,1,.979-.979h2.785a.981.981,0,0,1,.98.979v2.786a.981.981,0,0,1-.98.979m-2.748-1.017h2.711V88.267H44.021Z" transform="translate(-28.43 -57.681)" fill="#fff"/>
    <path id="Tracé_210" data-name="Tracé 210" d="M75.769,91.995H72.983A.98.98,0,0,1,72,91.015V88.229a.98.98,0,0,1,.979-.979h2.785a.981.981,0,0,1,.98.979v2.786a.981.981,0,0,1-.98.979m-2.748-1.017h2.711V88.267H73.021Z" transform="translate(-47.602 -57.681)" fill="#fff"/>
    <path id="Tracé_211" data-name="Tracé 211" d="M103.769,91.995h-2.785a.98.98,0,0,1-.979-.979V88.229a.98.98,0,0,1,.979-.979h2.785a.981.981,0,0,1,.98.979v2.786a.981.981,0,0,1-.98.979m-2.748-1.017h2.711V88.267h-2.711Z" transform="translate(-66.113 -57.681)" fill="#fff"/>
    <path id="Tracé_212" data-name="Tracé 212" d="M43.21,28.017H.508A.508.508,0,0,1,.508,27h42.7a.508.508,0,1,1,0,1.017" transform="translate(0 -17.85)" fill="#fff"/>
    <path id="Tracé_213" data-name="Tracé 213" d="M35.678,6.1a.508.508,0,0,1-.508-.508V.508a.508.508,0,0,1,1.017,0V5.592a.508.508,0,0,1-.508.508" transform="translate(-23.251)" fill="#fff"/>
    <path id="Tracé_214" data-name="Tracé 214" d="M91.678,6.1a.508.508,0,0,1-.508-.508V.508a.508.508,0,1,1,1.017,0V5.592a.508.508,0,0,1-.508.508" transform="translate(-60.272)" fill="#fff"/>
  </g>
</svg>
