<svg xmlns="http://www.w3.org/2000/svg" xmlns:xlink="http://www.w3.org/1999/xlink" width="150" height="34.796" viewBox="0 0 203.289 34.796">
  <defs>
    <clipPath id="clip-path">
      <rect id="Rectangle_135" data-name="Rectangle 135" width="203.289" height="34.796" fill="#fff"/>
    </clipPath>
  </defs>
  <g id="Groupe_1321" data-name="Groupe 1321" transform="translate(0 0)">
    <g id="Groupe_121" data-name="Groupe 121" transform="translate(0 0)" clip-path="url(#clip-path)">
      <path id="Tracé_305" data-name="Tracé 305" d="M93.761,25.42c-6.82-4.7-8.806-14.02-5.254-22.207a22,22,0,0,0-2.748,3.264c-6.127,8.892-4.7,20.5,3.183,25.937s19.243,2.628,25.37-6.264a22.068,22.068,0,0,0,2.071-3.73c-6.384,6.235-15.8,7.7-22.622,3" transform="translate(-40.995 -1.607)" fill="#fff"/>
      <path id="Tracé_306" data-name="Tracé 306" d="M187.791,30.684A17.349,17.349,0,1,1,189.6,6.215a17.35,17.35,0,0,1-1.812,24.468" transform="translate(-79.591 -0.097)" fill="#fff"/>
      <path id="Tracé_307" data-name="Tracé 307" d="M35.439.268V34.02c-.888-.029-1.659-.059-1.96-.059s-1.059.023-1.934.053V2.75L31.5,2.78l-.483.706c-.129.17-.3.418-.529.771-.206.312-.459.712-.77,1.2L18.2,23.467c-.147.247-.247.341-.441.341h-.441c-.147,0-.241-.094-.388-.341L3.511,3.891l-.03,9.141v.623l-.024,7.812c0,.753.007,1.458.024,2.118V34.12l-.647.017V2.85S1.618.865,0,.865v-.6H5.576C5.928.915,6.84,2.3,7.511,3.256L19.328,20.538,28.092,6.868V6.862L31.379,1.6c.094-.159.188-.3.27-.435L32.2.268Z" transform="translate(0 -0.134)" fill="#fff"/>
      <path id="Tracé_308" data-name="Tracé 308" d="M257.731,34.09h-.176a.34.34,0,0,1-.306.117.559.559,0,0,1-.294-.117,4,4,0,0,1-.929-.953L232.5,3.751l-.007-.006-.263-.281.01,30.586h-.588L231.639,2.8c-.051-.07-.094-.133-.147-.207A7.234,7.234,0,0,0,228.38.8V.227c.282,0,.547-.006.806-.006h5.535a.462.462,0,0,1,.071.111A18.362,18.362,0,0,0,236.7,2.915L254.35,24.855l.282.353,2.509,3.137L257.132.26h.589l.01,33.829Z" transform="translate(-114.239 -0.111)" fill="#fff"/>
      <path id="Tracé_309" data-name="Tracé 309" d="M323.107,34.061h-4.67A31.588,31.588,0,0,1,314.56,26.9c-3.3-7.62-4.777-8.92-8.619-9.172-.941-.008-1.877-.015-2.817-.017V34.063h-3.71V.221h8.359l-.025.005h.025c7.906,0,12.888,2.991,12.888,8.45,0,4.684-3.876,8.046-9.721,8.87,2.776.592,4.4,2.553,6.991,7.792,2.517,5.335,3.829,7.7,5.177,8.723M307.036.667h-3.913v16.6h3.866c6.053,0,9.47-3.347,9.47-8.63,0-5.326-3.171-7.967-9.423-7.967" transform="translate(-149.771 -0.111)" fill="#fff"/>
      <path id="Tracé_310" data-name="Tracé 310" d="M377.644,34c-.812-.029-1.564,0-1.882,0-.3,0-1.06-.029-2,0l-3.72-8.646L370,25.241c-.3-.724-.623-1.506-.988-2.358l-.441-1.012.247.565c-.077-.182-.159-.371-.242-.565h-.006l-.612-1.4-.047-.112-.657-1.538H355.29L349.265,34c-.206,0-.447-.006-.706,0l3.29-8.2.012-.035c.317-.741.606-1.453.847-2.094l5.635-14.082,2.206-5.5L362.125.147c.052-.1.1-.147.341-.147h.488c.294,0,.441.047.488.147ZM367.062,18.379,361.054,4.3l-1.1,2.765-4.49,11.314Z" transform="translate(-174.355 0)" fill="#fff"/>
    </g>
  </g>
</svg>
