<svg xmlns="http://www.w3.org/2000/svg" xmlns:xlink="http://www.w3.org/1999/xlink" width="30" height="70" viewBox="0 0 42.371 51.508">
  <defs>
    <clipPath id="clip-path">
      <rect id="Rectangle_397" data-name="Rectangle 397" width="31.865" height="44.786" fill="#fff"/>
    </clipPath>
  </defs>
  <g id="Groupe_3059" data-name="Groupe 3059" transform="matrix(0.966, -0.259, 0.259, 0.966, 0, 8.247)">
    <g id="Groupe_702" data-name="Groupe 702" transform="translate(0 0)" clip-path="url(#clip-path)">
      <path id="Tracé_196" data-name="Tracé 196" d="M14.694,0a14.694,14.694,0,1,0,0,29.387,14.493,14.493,0,0,0,2.241-.174,8.9,8.9,0,0,0,2.152-.511,2.1,2.1,0,0,0-.312-.616.4.4,0,0,0-.17-.183.864.864,0,0,0-.265-.017,2.436,2.436,0,0,0-.367-.052,2.722,2.722,0,0,0-.413.086q-.464.1-.935.176a12.769,12.769,0,0,1-1.931.149,13.587,13.587,0,1,1,12.154-7.583A13.706,13.706,0,0,1,23.084,25.3c-.189.15-.622.351-.722.568a.646.646,0,0,0-.043.185l-.048.375a.434.434,0,0,0,0,.127.412.412,0,0,0,.046.119q.11.213.23.42a11.039,11.039,0,0,0,2.293-1.79,14.828,14.828,0,0,0,1.926-2.248A14.677,14.677,0,0,0,14.694,0" transform="translate(0 -0.001)" fill="#fff"/>
      <path id="Tracé_197" data-name="Tracé 197" d="M21.743,32.108A10.366,10.366,0,1,1,32.108,21.743,10.378,10.378,0,0,1,21.743,32.108m0-19.59a9.224,9.224,0,1,0,9.224,9.224,9.235,9.235,0,0,0-9.224-9.224" transform="translate(-7.049 -7.049)" fill="#fff"/>
      <path id="Tracé_198" data-name="Tracé 198" d="M60.254,82.166,52.025,67.915a.571.571,0,0,0-.988.571l.252.436a.371.371,0,0,1,.074.128l7.9,13.687a1.826,1.826,0,0,1-.665,2.492l-.126.073a1.824,1.824,0,0,1-2.492-.666l-8.457-14.65a.571.571,0,0,0-.989.571l8.457,14.65a2.948,2.948,0,0,0,1.8,1.381,2.988,2.988,0,0,0,.771.1,2.943,2.943,0,0,0,1.478-.4l.127-.073a2.969,2.969,0,0,0,1.083-4.051" transform="translate(-28.786 -41.902)" fill="#fff"/>
    </g>
  </g>
</svg>
